<?xml version="1.0" encoding="UTF-8" standalone="no"?>
<!-- Created with Inkscape (http://www.inkscape.org/) -->

<svg
   version="1.1"
   id="svg1"
   width="845.33331"
   height="60"
   viewBox="0 0 845.33331 60"
   sodipodi:docname="footerscroll.svg"
   inkscape:version="1.4.2 (ebf0e940d0, 2025-05-08)"
   xml:space="preserve"
   inkscape:export-filename="footerscroll.pdf"
   inkscape:export-xdpi="600"
   inkscape:export-ydpi="600"
   xmlns:inkscape="http://www.inkscape.org/namespaces/inkscape"
   xmlns:sodipodi="http://sodipodi.sourceforge.net/DTD/sodipodi-0.dtd"
   xmlns="http://www.w3.org/2000/svg"
   xmlns:svg="http://www.w3.org/2000/svg"><defs
     id="defs1"><clipPath
       clipPathUnits="userSpaceOnUse"
       id="clipPath28"><path
         d="M 0,0 H 612 V 792 H 0 Z"
         transform="translate(-291.80121,-47.486799)"
         id="path28" /></clipPath><clipPath
       clipPathUnits="userSpaceOnUse"
       id="clipPath26"><path
         d="M 0,0 H 612 V 792 H 0 Z"
         transform="translate(-322.72751,-36.398101)"
         id="path26" /></clipPath></defs><sodipodi:namedview
     id="namedview1"
     pagecolor="#ffffff"
     bordercolor="#000000"
     borderopacity="0.25"
     inkscape:showpageshadow="2"
     inkscape:pageopacity="0.0"
     inkscape:pagecheckerboard="0"
     inkscape:deskcolor="#d1d1d1"
     inkscape:zoom="5.7042588"
     inkscape:cx="395.23102"
     inkscape:cy="-1.9283838"
     inkscape:window-width="2560"
     inkscape:window-height="1350"
     inkscape:window-x="0"
     inkscape:window-y="0"
     inkscape:window-maximized="1"
     inkscape:current-layer="g1"
     showgrid="false"><inkscape:page
       x="0"
       y="0"
       inkscape:label="1"
       id="page1"
       width="845.33331"
       height="60"
       margin="0"
       bleed="0" /></sodipodi:namedview><g
     id="g1"
     inkscape:groupmode="layer"
     inkscape:label="1"><path
       id="path5"
       style="fill:#c8a000;fill-opacity:1;stroke-width:1.17936"
       d="M 383.35352 12.972656 C 383.77319 15.540541 384.44617 18.065552 385.375 20.501953 C 390.60144 34.211253 402.80306 43.927073 417.35156 45.964844 C 418.71007 46.155082 421.78327 46.238471 424.17969 46.150391 C 438.81065 45.612686 451.30579 37.617994 458.11328 24.4375 C 460.01537 20.754741 461.30743 16.904837 461.97852 12.972656 L 454.00195 12.972656 C 452.73537 19.04424 449.64009 24.660357 444.86719 29.203125 C 442.18094 31.759852 440.01088 33.322794 437.10742 34.789062 L 435.14648 35.779297 L 433.92969 33.494141 C 432.74322 31.268073 431.31252 29.748047 430.4043 29.748047 C 429.09377 29.748047 426.76594 34.009516 424.93945 39.75 C 424.279 41.825698 423.53568 43.707006 423.28906 43.931641 C 422.26855 44.861141 421.63136 44.044913 420.56836 40.445312 C 418.90678 34.818782 416.24263 29.748047 414.94727 29.748047 C 413.99422 29.748047 412.58318 31.227349 411.375 33.494141 L 410.1582 35.779297 L 408.19727 34.787109 C 401.89296 31.59866 396.3586 25.909223 393.56055 19.738281 C 392.44112 17.269425 391.7301 15.199926 391.3125 12.972656 L 383.35352 12.972656 z M 392.60742 12.972656 C 394.49815 21.419286 399.967 29.068843 407.5625 33.117188 L 409.69336 34.253906 L 410.27734 33.027344 C 411.09931 31.303619 412.80173 29.366867 413.84375 28.970703 C 415.2099 28.451296 416.50144 29.165978 417.75 31.134766 C 418.28367 31.976254 418.73353 32.56014 418.84961 32.576172 L 418.84961 32.578125 L 418.85156 32.578125 L 418.85352 32.578125 L 418.85547 32.578125 L 418.85547 32.580078 L 418.85742 32.580078 L 418.85742 32.578125 L 418.85938 32.576172 L 418.86133 32.576172 L 418.86328 32.576172 L 418.86523 32.574219 L 418.86719 32.572266 L 418.86914 32.572266 L 418.87109 32.570312 L 418.87305 32.568359 L 418.87305 32.566406 L 418.87305 32.564453 C 418.87505 32.558353 418.87891 32.546839 418.87891 32.537109 C 418.87891 32.329542 418.37601 31.367069 417.76172 30.398438 C 416.58699 28.546066 415.45182 27.975736 413.7832 28.394531 C 413.0187 28.586415 412.83984 28.490111 412.83984 27.894531 C 412.83984 27.124271 413.76775 25.974609 414.38867 25.974609 C 415.66372 25.974609 417.47807 27.253204 418.50781 28.876953 C 419.68535 30.733724 421.69 36.431537 422.12695 39.164062 C 422.44314 41.141455 422.89557 41.111774 423.22656 39.089844 C 423.69292 36.24096 425.61594 30.739054 426.79688 28.876953 C 427.54309 27.700279 428.41705 26.866297 429.28906 26.501953 C 430.53816 25.980045 432.0799 26.067214 432.0918 26.660156 C 432.0948 26.801846 432.20212 27.309333 432.33008 27.787109 C 432.53989 28.570472 432.46546 28.630909 431.57031 28.40625 C 429.90016 27.987066 428.826 28.519523 427.5957 30.376953 C 426.95267 31.347756 426.42578 32.323813 426.42578 32.544922 C 426.42578 32.553989 426.42939 32.564508 426.43164 32.570312 L 426.43164 32.572266 C 426.43192 32.572695 426.43474 32.576857 426.43555 32.578125 L 426.4375 32.580078 L 426.43945 32.582031 L 426.44141 32.582031 C 426.4423 32.582362 426.44627 32.583684 426.44727 32.583984 C 426.44827 32.584108 426.4532 32.585456 426.45508 32.585938 L 426.45703 32.585938 L 426.45898 32.587891 C 426.59234 32.567761 427.11155 31.931851 427.72461 31.021484 C 429.1384 28.92214 430.21535 28.400605 431.67578 29.105469 C 432.52386 29.514794 434.17855 31.435048 435.35352 33.375 C 435.77016 34.06288 435.86392 34.048631 437.85742 32.994141 C 442.80977 30.374493 447.76411 25.129506 450.41016 19.703125 C 451.56109 17.342813 452.31193 15.245676 452.76172 12.972656 L 449.69141 12.972656 C 449.84497 13.170739 450.08943 13.295438 450.46875 13.421875 C 451.75668 13.851173 451.14643 14.217667 449.63867 13.919922 C 448.79625 13.75358 448.5685 13.572158 448.5957 12.972656 L 446.71875 12.972656 C 446.73415 12.980867 446.74589 12.987494 446.75195 12.992188 L 446.75391 12.994141 L 446.75586 12.996094 L 446.75586 12.998047 L 446.75781 13 C 446.79542 13.12302 446.43212 14.085079 445.92383 15.195312 C 445.3951 16.350239 444.82537 17.284814 444.6582 17.271484 C 444.49105 17.258204 443.79367 16.968206 443.10742 16.626953 C 441.75162 15.952755 441.73125 15.681724 442.83789 13.033203 L 442.86328 12.972656 L 440.98047 12.972656 C 440.81216 13.424846 440.62609 13.876776 440.42383 14.328125 C 437.86899 20.029253 432.80837 24.171806 426.85547 25.433594 C 419.62389 26.966392 413.01779 24.863834 408.08789 19.462891 C 406.30156 17.505874 404.99191 15.33818 404.16406 12.972656 L 402.35156 12.972656 L 402.66406 13.742188 C 403.11204 14.845928 403.42222 15.808944 403.36914 15.931641 L 403.36719 15.933594 L 403.36523 15.935547 L 403.36523 15.9375 L 403.36328 15.939453 L 403.35938 15.941406 C 403.28037 16.011326 402.67406 16.34388 402.00977 16.681641 C 401.34548 17.01939 400.66404 17.295205 400.49805 17.294922 L 400.49609 17.292969 C 400.18686 17.229904 398.41854 13.253489 398.57227 12.976562 L 398.57422 12.974609 L 398.57617 12.972656 L 396.72266 12.972656 C 396.72825 13.021402 396.73453 13.070941 396.74023 13.121094 C 396.80733 13.710816 394.46907 14.400399 394.15039 13.884766 C 394.0483 13.719582 394.45263 13.476661 395.04883 13.345703 C 395.53082 13.239844 395.79592 13.156754 395.91406 12.972656 L 392.60742 12.972656 z M 389.42578 13.058594 C 389.78661 13.047684 389.96427 13.121784 390.01562 13.279297 C 390.51511 14.811339 390.89631 16.699261 390.75391 16.929688 C 390.66141 17.079315 389.82806 17.391898 388.90234 17.625 C 387.97661 17.858105 387.06199 18.048828 386.86914 18.048828 C 386.54824 18.048828 385.26419 14.242381 385.49219 13.966797 C 385.54659 13.900987 386.55649 13.623425 387.73438 13.349609 C 388.52112 13.166754 389.06495 13.069507 389.42578 13.058594 z M 455.6875 13.101562 C 455.69101 13.101099 455.69381 13.101599 455.69727 13.101562 C 455.89249 13.099264 456.85975 13.208146 457.8457 13.34375 C 459.82901 13.616527 459.87966 13.732817 459.21484 16.373047 C 458.92395 17.528243 458.60189 18.039094 458.17773 18.015625 C 457.29521 17.966835 454.9658 17.281546 454.66602 16.982422 C 454.32066 16.637798 455.24157 13.160454 455.6875 13.101562 z M 444.20312 13.185547 C 443.93383 13.186947 443.75937 13.470046 443.45117 14.146484 C 443.08566 14.948505 443.09195 15.212032 443.48438 15.460938 C 444.27796 15.964317 444.53844 15.842389 444.94336 14.777344 C 445.22882 14.026612 445.20263 13.693059 444.83984 13.462891 C 444.5604 13.285601 444.3647 13.184722 444.20312 13.185547 z M 401.08984 13.189453 C 400.92075 13.195753 400.71158 13.306095 400.4082 13.498047 C 399.96721 13.777016 399.94669 14.028732 400.30469 14.814453 C 400.77519 15.847078 401.0369 15.957856 401.82031 15.460938 C 402.21266 15.212032 402.21894 14.948505 401.85352 14.146484 C 401.54091 13.460391 401.37165 13.179016 401.08984 13.189453 z M 447.44141 13.697266 C 447.5979 13.684036 447.55338 14.147661 447.16797 15.111328 C 446.56787 16.61181 445.67383 17.996269 445.67383 17.425781 C 445.67383 17.198411 446.02845 16.212076 446.46094 15.234375 C 446.90426 14.232156 447.27996 13.71092 447.44141 13.697266 z M 397.89258 13.746094 C 397.89411 13.745764 397.8949 13.746285 397.89648 13.746094 C 398.05202 13.727424 398.43438 14.31201 398.82422 15.191406 C 399.89893 17.615608 399.65226 18.35437 398.53711 16.050781 C 398.06591 15.077385 397.75194 14.06759 397.83984 13.806641 C 397.85147 13.772234 397.86953 13.751033 397.89258 13.746094 z M 456.66602 14.402344 C 456.02451 14.436294 455.65348 15.795902 456.29492 16.208984 C 457.11693 16.738346 457.93028 16.41101 458.06055 15.498047 C 458.12685 15.033136 458.01364 14.652344 457.80859 14.652344 C 457.60355 14.652344 457.18263 14.554344 456.87305 14.435547 C 456.80175 14.408167 456.73238 14.398834 456.66602 14.402344 z M 388.58984 14.412109 C 388.47481 14.417309 388.34122 14.445751 388.18359 14.494141 C 387.08629 14.831017 387.07178 14.855903 387.35742 15.755859 C 387.62107 16.586575 388.16983 16.73534 389.00977 16.203125 C 389.3353 15.996852 389.42668 15.580297 389.26172 15.060547 C 389.11182 14.588217 388.93491 14.396561 388.58984 14.412109 z M 396.84766 14.455078 C 397.13293 14.440768 397.29853 14.535567 397.42969 14.742188 C 397.89013 15.467525 397.8126 15.721991 396.99023 16.162109 C 396.47849 16.436045 396.23437 16.44066 396.23438 16.175781 C 396.23438 15.960911 396.40377 15.785156 396.61133 15.785156 C 396.81891 15.785156 396.99023 15.613821 396.99023 15.40625 C 396.99023 14.953067 396.5959 14.930356 395.94141 15.345703 C 395.20613 15.812347 397.22719 20.065761 398.07031 19.826172 C 398.41008 19.729632 398.90325 19.587016 399.16797 19.509766 C 399.43269 19.432566 399.9428 19.844764 400.30078 20.425781 C 400.93733 21.458913 400.93053 21.499115 400.00781 22.210938 C 398.63838 23.267384 397.68307 23.151492 399.00977 22.089844 C 399.99144 21.304285 400.03331 21.181105 399.4668 20.710938 C 398.99574 20.319982 398.73911 20.299941 398.4082 20.630859 C 398.16791 20.871145 397.7733 21.068359 397.53125 21.068359 C 397.13189 21.068359 394.72461 16.242461 394.72461 15.441406 C 394.72461 15.255973 395.26496 14.915902 395.92578 14.685547 C 396.33118 14.544219 396.62579 14.466206 396.84766 14.455078 z M 448.36719 14.455078 C 448.59811 14.446278 448.91559 14.524029 449.37891 14.685547 C 450.03973 14.915915 450.58008 15.255962 450.58008 15.441406 C 450.58008 15.626838 450.04697 16.969013 449.39648 18.423828 C 448.29249 20.892848 447.55116 21.59266 446.99414 20.691406 C 446.64242 20.122311 446.05603 20.23714 445.79102 20.927734 C 445.63963 21.322258 445.88171 21.791942 446.46484 22.240234 C 447.07433 22.708798 447.18659 22.9375 446.80664 22.9375 C 446.49529 22.9375 445.83944 22.630634 445.34961 22.253906 C 444.48126 21.586074 444.47407 21.538434 445.08984 20.347656 C 445.69833 19.170995 445.75416 19.146823 446.62109 19.714844 C 447.6465 20.386734 447.63446 20.399563 448.98242 17.513672 C 449.66203 16.05869 449.74461 15.588389 449.36523 15.347656 C 449.09891 15.178674 448.75529 15.038756 448.59961 15.035156 C 448.13623 15.025656 448.27733 15.704838 448.78711 15.935547 C 448.86411 15.970457 448.90824 16.000447 448.92188 16.023438 C 448.92287 16.025738 448.92478 16.032956 448.92578 16.035156 L 448.92773 16.037109 L 448.92773 16.039062 L 448.92578 16.041016 L 448.92578 16.042969 L 448.92578 16.044922 L 448.92383 16.046875 L 448.92383 16.048828 L 448.92383 16.050781 L 448.92188 16.050781 L 448.91992 16.052734 L 448.91797 16.054688 C 448.88047 16.081618 448.74657 16.08814 448.53516 16.0625 C 447.70352 15.961697 447.43857 15.432434 447.875 14.744141 C 447.99145 14.560474 448.13628 14.46585 448.36719 14.457031 L 448.36719 14.455078 z M 447.54297 16.429688 C 447.673 16.423687 447.82039 16.475098 448.00195 16.572266 C 448.6467 16.917327 448.65437 17.027471 448.11914 18.0625 C 447.5771 19.11067 446.84841 19.47536 446.32812 18.955078 C 446.20319 18.830146 446.37182 18.15766 446.70312 17.462891 C 447.0487 16.73823 447.25691 16.442979 447.54297 16.429688 z M 397.72461 16.539062 C 398.33061 16.539062 399.36263 18.570973 398.96094 18.972656 C 398.46129 19.472298 397.72367 19.106229 397.20312 18.099609 C 396.60627 16.945404 396.74124 16.539062 397.72461 16.539062 z M 447.73438 17.001953 L 447.73438 17.003906 C 447.61554 17.019736 447.39665 17.273402 447.20117 17.638672 C 446.9693 18.071867 446.93616 18.427734 447.12891 18.427734 C 447.5168 18.427734 448.05321 17.285629 447.78906 17.021484 C 447.77476 17.007134 447.75637 16.999023 447.73438 17.001953 z M 397.55078 17.029297 C 397.41694 17.039367 397.39743 17.310232 397.58789 17.806641 C 397.7188 18.147704 397.98312 18.425781 398.17578 18.425781 C 398.36853 18.425781 398.33539 18.071867 398.10352 17.638672 C 397.88579 17.231799 397.68512 17.035075 397.56445 17.029297 C 397.5599 17.029078 397.5551 17.028972 397.55078 17.029297 z M 404.28906 17.892578 C 404.54135 17.901978 404.80044 18.108308 405.07617 18.501953 C 405.57701 19.217067 405.56414 19.403789 404.95898 20.279297 C 404.27267 21.272252 403.9545 21.805032 404.00391 21.898438 L 404.00586 21.900391 L 404.00781 21.904297 L 404.00977 21.90625 L 404.01172 21.90625 L 404.01172 21.908203 L 404.01367 21.910156 C 404.09087 21.943916 404.42116 21.680751 405 21.134766 L 406.33203 19.878906 L 407.19336 21.089844 C 408.24592 22.568036 407.88784 23.38507 406.01758 23.767578 C 402.48744 24.489566 401.40909 24.543125 401.625 23.980469 C 401.74085 23.678561 402.19072 22.237497 402.625 20.779297 C 403.21315 18.804375 403.73402 17.873809 404.28906 17.894531 L 404.28906 17.892578 z M 441.04688 17.90625 C 441.61548 17.91255 442.0931 18.807701 442.67969 20.777344 C 443.11396 22.235544 443.55864 23.66239 443.66797 23.947266 C 443.89977 24.550709 443.41322 24.551107 440.24023 23.941406 C 437.43712 23.402786 436.93921 22.735932 438.11133 21.089844 L 438.97266 19.878906 L 440.30469 21.134766 C 440.88047 21.677868 441.20802 21.942312 441.28711 21.912109 L 441.28906 21.912109 L 441.29102 21.908203 L 441.29297 21.908203 L 441.29492 21.90625 L 441.29688 21.904297 L 441.29883 21.902344 L 441.29883 21.900391 C 441.35273 21.808691 441.0179 21.251282 440.28906 20.199219 C 439.59756 19.201127 439.59198 19.100475 440.19727 18.431641 C 440.5112 18.08475 440.7884 17.903402 441.04688 17.90625 z M 453.97461 18.425781 C 453.97761 18.425513 453.98136 18.425781 453.98438 18.425781 C 454.65413 18.425781 454.74369 19.193163 454.19922 20.246094 C 453.79616 21.025496 453.75423 21.449562 454.04688 21.742188 C 454.635 22.330295 454.12957 23.332031 453.24609 23.332031 C 452.6215 23.332031 451.36766 24.737412 451.77539 24.980469 C 451.84409 25.021429 452.20252 25.286898 452.57227 25.570312 C 453.15411 26.016316 453.31567 25.989245 453.77344 25.369141 C 454.16908 24.833187 454.41291 24.761572 454.73828 25.082031 C 455.06621 25.405025 455.02282 25.799177 454.56445 26.685547 C 454.24578 27.301796 453.94845 27.802 453.88086 27.835938 L 453.87891 27.835938 L 453.87695 27.835938 L 453.87695 27.839844 L 453.875 27.839844 L 453.87305 27.839844 C 453.67565 27.783364 450.62177 25.76683 450.40625 25.550781 C 450.40525 25.549781 450.40334 25.547975 450.40234 25.546875 C 450.29364 25.388985 450.7837 24.297632 451.50781 23.097656 C 452.24341 21.878631 453.0283 20.328899 453.25195 19.654297 C 453.47212 18.990237 453.79364 18.444609 453.97461 18.427734 L 453.97461 18.425781 z M 391.04102 18.523438 C 391.12012 18.517537 391.21604 18.545221 391.32617 18.613281 C 391.50382 18.72307 392.43442 20.288918 393.39453 22.09375 L 395.14062 25.376953 L 394.29688 26.011719 C 393.83308 26.361545 392.99341 26.920113 392.43164 27.251953 C 391.44812 27.832936 391.38795 27.819645 390.77539 26.884766 C 390.12973 25.899365 390.22058 24.841797 390.95117 24.841797 C 391.17179 24.841797 391.4489 25.096847 391.56836 25.408203 C 391.83345 26.099039 392.07216 26.10282 392.96289 25.427734 C 393.52363 25.002746 393.574 24.757418 393.23242 24.119141 C 393.00113 23.686995 392.47294 23.332031 392.05859 23.332031 C 391.17506 23.332031 390.67166 22.330293 391.25977 21.742188 C 391.5524 21.449562 391.50853 21.025496 391.10547 20.246094 C 390.64985 19.364974 390.65984 18.551942 391.04102 18.523438 z M 457.07422 19.289062 C 457.25404 19.288903 457.45594 19.364603 457.69141 19.513672 C 458.11016 19.77876 458.09249 20.041789 457.58789 21.017578 C 456.89766 22.35231 456.98046 22.299312 456.28906 21.861328 C 455.90329 21.61695 455.86226 21.262843 456.125 20.474609 C 456.39532 19.663684 456.67863 19.289413 457.07422 19.289062 z M 388.15625 19.423828 C 388.5165 19.427428 388.7881 19.671008 389.02344 20.1875 C 389.25288 20.691045 389.44141 21.246279 389.44141 21.421875 C 389.44141 21.597472 389.18863 21.840127 388.87891 21.958984 C 388.51278 22.099472 388.11609 21.789698 387.74609 21.074219 C 387.03068 19.690731 387.03169 19.684114 387.89258 19.458984 C 387.98568 19.434634 388.07312 19.422988 388.15625 19.423828 z M 446.30664 21.087891 C 446.468 21.077991 446.78033 21.184031 447.17188 21.431641 C 447.47721 21.624739 447.63447 21.87346 447.52148 21.986328 C 447.40855 22.099252 446.98983 21.945178 446.58984 21.642578 C 446.14226 21.303959 446.09917 21.100569 446.30664 21.087891 z M 398.92383 21.146484 C 399.02183 21.146031 399.10087 21.167277 399.15039 21.216797 C 399.24229 21.308647 398.96417 21.572997 398.53125 21.804688 C 398.09805 22.036576 397.74414 22.069742 397.74414 21.876953 C 397.74414 21.561807 398.49917 21.148445 398.92383 21.146484 z M 455.69922 22.623047 C 456.24793 22.590537 456.53139 23.015859 456.34961 23.710938 C 456.14695 24.485858 456.01637 24.542993 455.20312 24.214844 C 454.55793 23.954451 454.6075 22.978478 455.2793 22.720703 C 455.43162 22.662253 455.5726 22.630557 455.69922 22.623047 z M 389.61719 22.642578 C 390.11936 22.656048 390.60983 23.057908 390.50781 23.583984 C 390.33834 24.457853 389.64989 24.604644 389.06055 23.894531 C 388.70437 23.465228 388.68141 23.185768 388.97852 22.888672 C 389.15743 22.709757 389.38893 22.636455 389.61719 22.642578 z M 444.72266 23.144531 C 444.8751 23.134831 445.16589 23.357056 445.59375 23.8125 L 446.39648 24.667969 L 445.44141 25.886719 C 444.91642 26.557524 444.35948 27.107422 444.20312 27.107422 C 444.04678 27.107422 443.51223 26.67315 443.01562 26.144531 L 442.11328 25.183594 L 443.70117 25.4375 L 445.29102 25.691406 L 444.87305 24.492188 C 444.56415 23.606074 444.51376 23.157758 444.72266 23.144531 z M 400.56055 23.146484 C 400.56577 23.146077 400.57122 23.146428 400.57617 23.146484 C 400.79319 23.148984 400.74612 23.595435 400.43555 24.486328 L 400.01953 25.679688 L 401.42969 25.416016 L 402.83984 25.152344 L 401.92383 26.128906 C 401.42062 26.666181 400.96912 27.107422 400.91992 27.107422 C 400.87082 27.107422 400.38335 26.574382 399.83594 25.923828 L 398.83984 24.740234 L 399.67773 23.849609 C 400.10519 23.394606 400.39862 23.159099 400.56055 23.146484 z M 410.0918 23.708984 C 410.09394 23.708672 410.09567 23.708984 410.09766 23.708984 C 410.53746 23.708984 412.83984 25.301592 412.83984 25.605469 C 412.83984 25.783861 412.67046 26.033816 412.46289 26.162109 C 412.25534 26.290388 412.08594 26.886161 412.08594 27.484375 C 412.08594 28.082577 411.95711 28.651457 411.80078 28.748047 C 411.44313 28.969084 408.31055 27.142479 408.31055 26.712891 C 408.31055 26.289154 409.82015 23.748647 410.0918 23.708984 z M 435.13672 23.712891 C 435.14177 23.712197 435.14639 23.712914 435.15039 23.712891 C 435.27849 23.712114 435.83155 24.387714 436.37891 25.214844 L 437.375 26.71875 L 435.95703 27.601562 C 435.17779 28.086355 434.32734 28.609445 434.06641 28.763672 C 433.59937 29.039715 433.47714 28.852062 433.10742 27.296875 C 433.00872 26.881734 432.80839 26.251262 432.66211 25.896484 C 432.46583 25.420499 432.72571 25.051678 433.65625 24.484375 C 434.32814 24.074747 434.98016 23.73438 435.13672 23.712891 z M 434.78125 25.119141 C 434.76475 25.118773 434.74771 25.120156 434.73047 25.121094 C 434.565 25.130094 434.36351 25.198284 434.0957 25.320312 C 433.13324 25.758851 432.98359 26.342963 433.6582 27.017578 C 434.08361 27.442989 434.43101 27.367226 435.37305 26.640625 C 435.71588 26.376281 435.72235 26.120949 435.40039 25.605469 C 435.19648 25.278952 435.0287 25.124655 434.78125 25.119141 z M 410.83008 25.320312 C 409.74829 25.287653 409.34953 26.423327 410.48047 27.074219 C 410.97418 27.358367 411.26063 27.297141 411.61328 26.832031 C 412.26346 25.974484 412.20764 25.689403 411.33398 25.412109 C 411.15402 25.354989 410.98462 25.324984 410.83008 25.320312 z M 404.49414 25.410156 L 405.54883 26.451172 C 406.50214 27.392819 406.55212 27.570704 406.08398 28.320312 C 405.62166 29.060582 405.65298 29.205488 406.37305 29.683594 C 406.81638 29.977954 407.17969 30.368521 407.17969 30.550781 C 407.17969 31.131471 406.49729 30.909722 405.41016 29.974609 C 404.37095 29.080726 404.36631 29.054643 405.06445 28.283203 C 405.65307 27.63279 405.69071 27.400353 405.28711 26.914062 C 404.8533 26.391341 404.70612 26.417906 403.91602 27.160156 C 402.68409 28.317499 402.40699 27.80831 403.55273 26.492188 L 404.49414 25.410156 z M 440.85352 25.513672 L 441.82812 26.488281 C 443.02848 27.688636 442.61846 28.315495 441.38867 27.160156 C 440.59855 26.417906 440.45141 26.391341 440.01758 26.914062 C 439.61396 27.400402 439.65226 27.633304 440.24219 28.285156 C 440.94309 29.059638 440.93716 29.082602 439.82227 29.974609 C 439.20068 30.471938 438.56387 30.879859 438.4082 30.880859 C 437.84366 30.884559 438.14534 30.156424 438.9375 29.601562 C 439.69825 29.068722 439.71022 28.977467 439.15039 28.123047 C 438.57816 27.24972 438.60089 27.178193 439.70312 26.363281 L 440.85352 25.513672 z M 396.30078 27.013672 L 397.96484 28.648438 C 398.8808 29.547391 399.63086 30.467345 399.63086 30.693359 C 399.63086 30.919375 398.98636 31.733331 398.19922 32.501953 C 396.61459 34.049303 396.40698 34.137213 396.11523 33.376953 C 396.00489 33.089422 396.40489 32.384429 397.00391 31.810547 L 398.0918 30.767578 L 397.33008 29.697266 C 396.60103 28.673416 396.52923 28.653292 395.6543 29.226562 C 394.89428 29.724553 394.8079 29.953037 395.14453 30.582031 C 395.82944 31.861794 394.96468 32.116676 393.85742 30.960938 L 392.84375 29.902344 L 394.57227 28.458984 L 396.30078 27.013672 z M 449.00391 27.013672 L 450.73242 28.458984 L 452.46094 29.902344 L 451.46289 30.943359 C 450.34854 32.10648 449.65249 31.99429 449.97656 30.703125 C 450.11625 30.146494 449.94777 29.634366 449.48633 29.216797 C 448.81933 28.613171 448.74191 28.63634 448.00781 29.636719 L 447.23242 30.691406 L 448.38281 31.884766 C 449.01532 32.54143 449.41866 33.264726 449.2793 33.490234 C 449.13993 33.715731 448.90124 33.900391 448.74805 33.900391 C 448.33328 33.900391 445.67383 31.097314 445.67383 30.660156 C 445.67383 30.452669 446.42388 29.547391 447.33984 28.648438 L 449.00391 27.013672 z M 440.51562 27.261719 C 440.66247 27.249939 441.00229 27.495013 441.33203 27.859375 C 441.70894 28.275788 441.84129 28.615234 441.62695 28.615234 C 441.15208 28.615234 440.21126 27.536792 440.46484 27.283203 C 440.47734 27.270693 440.49463 27.263399 440.51562 27.261719 z M 404.76562 27.291016 C 404.97008 27.277976 404.95514 27.546732 404.54492 28.041016 C 404.28235 28.357394 403.89205 28.615234 403.67773 28.615234 C 403.46339 28.615234 403.59584 28.275788 403.97266 27.859375 C 404.31412 27.482062 404.60661 27.301157 404.76562 27.291016 z M 407.47656 27.515625 C 407.47906 27.51528 407.48412 27.515637 407.48633 27.515625 C 407.48744 27.515716 407.48906 27.515428 407.49023 27.515625 L 407.49219 27.515625 L 407.49219 27.517578 L 407.49414 27.519531 L 407.49609 27.519531 L 407.49805 27.519531 L 407.5 27.519531 L 407.50195 27.519531 L 407.50195 27.521484 L 407.50391 27.523438 L 407.50586 27.525391 L 407.50781 27.527344 L 407.50781 27.529297 C 407.54361 27.586067 407.48102 27.815624 407.35352 28.238281 C 407.22771 28.65546 407.17851 28.877436 407.22461 28.9375 L 407.22656 28.939453 C 407.22744 28.940277 407.23149 28.944577 407.23242 28.945312 C 407.28832 28.975842 407.42805 28.881413 407.66406 28.685547 C 408.1554 28.277739 408.45249 28.295031 409.39648 28.783203 L 410.53711 29.373047 L 409.95117 30.787109 C 409.24429 32.492778 409.20361 32.543163 408.91016 32.068359 C 408.78296 31.862524 408.88085 31.251044 409.12695 30.710938 C 409.70313 29.446386 409.05985 28.594278 408.11914 29.375 C 407.61511 29.793301 407.41729 29.772742 406.89062 29.246094 C 406.30494 28.660321 406.308 28.573042 406.94922 27.957031 C 407.23757 27.680028 407.4045 27.527225 407.47656 27.517578 L 407.47656 27.515625 z M 437.8125 27.515625 L 437.81445 27.515625 C 437.87999 27.509337 438.05157 27.663131 438.35547 27.955078 C 438.99672 28.571089 438.99982 28.658358 438.41406 29.244141 C 437.94316 29.71503 437.6606 29.768296 437.2832 29.455078 C 436.9793 29.202897 436.56925 29.166728 436.24805 29.365234 C 435.81659 29.63189 435.8008 29.880103 436.16602 30.681641 C 436.41369 31.225192 436.61719 31.747807 436.61719 31.841797 C 436.61719 32.460391 435.89922 31.800667 435.37305 30.697266 L 434.74609 29.380859 L 435.89648 28.787109 C 436.84953 28.294224 437.14913 28.275694 437.64062 28.683594 C 437.87662 28.879463 438.01438 28.975842 438.07031 28.945312 L 438.07227 28.943359 C 438.07273 28.942991 438.07493 28.940234 438.07617 28.939453 L 438.07812 28.939453 C 438.12847 28.883631 438.07912 28.660459 437.95117 28.236328 C 437.82371 27.813671 437.75911 27.586071 437.79492 27.529297 L 437.79688 27.527344 L 437.79688 27.525391 L 437.79883 27.525391 L 437.79883 27.523438 C 437.7996 27.522775 437.80369 27.520131 437.80469 27.519531 L 437.80664 27.517578 C 437.80749 27.517229 437.81114 27.516047 437.8125 27.515625 z M 420.0918 27.861328 L 422.65234 27.861328 L 425.21484 27.861328 L 424.31445 30.693359 C 423.81997 32.250508 423.30654 34.203302 423.17383 35.033203 C 423.04112 35.863118 422.80684 36.541016 422.65234 36.541016 C 422.49782 36.541016 422.26356 35.863118 422.13086 35.033203 C 421.99813 34.203302 421.48471 32.250508 420.99023 30.693359 L 420.0918 27.861328 z M 422.63281 28.994141 C 422.43412 29.019531 422.27539 29.434792 422.27539 29.9375 C 422.27539 30.456425 422.44476 30.880859 422.65234 30.880859 C 422.8599 30.880859 423.0293 30.456424 423.0293 29.9375 C 423.0293 29.418576 422.8599 28.994141 422.65234 28.994141 C 422.64634 28.994141 422.63921 28.993322 422.63281 28.994141 z M 436.84961 29.886719 C 436.97066 29.880945 437.13932 30.07036 437.33789 30.441406 C 437.59701 30.925669 437.73553 31.397231 437.64453 31.488281 C 437.34825 31.784551 436.54132 30.542052 436.70703 30.044922 C 436.73893 29.949332 436.78254 29.897274 436.83789 29.888672 C 436.8417 29.888081 436.8457 29.886905 436.84961 29.886719 z M 408.55664 29.912109 C 408.73784 29.915172 408.72754 30.339253 408.45898 31.039062 C 408.22236 31.655697 407.55664 31.87028 407.55664 31.330078 C 407.55663 31.162184 407.80658 30.695891 408.11133 30.292969 C 408.29694 30.047565 408.4415 29.926258 408.53906 29.914062 C 408.5453 29.913282 408.5508 29.912011 408.55664 29.912109 z M 430.08594 31.505859 L 431.5918 33.740234 C 433.18012 36.096517 435.86133 40.782778 435.86133 41.201172 C 435.86133 41.336859 435.45835 41.447266 434.96484 41.447266 C 433.76989 41.447266 433.08658 40.57345 433.43164 39.486328 C 433.5505 39.111823 433.59558 38.912551 433.55078 38.859375 C 433.54999 38.85857 433.54645 38.855106 433.54492 38.853516 L 433.54297 38.851562 C 433.48907 38.825114 433.3564 38.911762 433.13477 39.095703 C 432.2486 39.831219 431.49151 38.767912 432.15039 37.712891 C 432.53231 37.101374 432.53664 36.839412 432.17188 36.474609 C 431.80707 36.109848 431.61054 36.113276 431.23828 36.488281 C 431.06688 36.660946 430.97993 36.763797 430.98633 36.806641 C 430.98641 36.806992 430.9878 36.8112 430.98828 36.8125 L 430.98828 36.814453 L 430.98828 36.816406 L 430.99023 36.816406 L 430.99023 36.818359 L 430.99219 36.820312 L 430.99414 36.822266 L 430.99609 36.824219 C 431.03589 36.847149 431.1795 36.809349 431.42773 36.714844 C 431.87495 36.544589 432.08789 36.645974 432.08789 37.029297 C 432.08789 37.829102 431.09676 38.112894 430.56055 37.466797 C 430.2069 37.040666 430.24979 36.714763 430.75781 35.939453 C 431.61553 34.630397 430.95377 33.821432 429.8457 34.824219 C 429.01893 35.572436 427.93555 35.381213 427.93555 34.486328 C 427.93555 34.171732 428.41883 33.372318 429.00977 32.710938 L 430.08594 31.505859 z M 415.27148 31.832031 L 415.27344 31.832031 C 415.27444 31.832076 415.27634 31.832056 415.27734 31.832031 C 415.47664 31.827531 416.03478 32.407561 416.51562 33.121094 C 417.29161 34.272588 417.3252 34.481436 416.82422 34.982422 C 416.32322 35.483407 416.17268 35.46859 415.48438 34.845703 C 414.92505 34.339517 414.59534 34.25818 414.29883 34.554688 C 414.07273 34.780785 414.01286 35.168195 414.16602 35.416016 C 414.38103 35.764126 414.50803 35.76382 414.72656 35.410156 C 414.92883 35.082838 415.08311 35.070668 415.26758 35.369141 C 415.40956 35.598872 415.34677 35.787109 415.12695 35.787109 C 414.90712 35.787109 414.72656 36.183646 414.72656 36.667969 C 414.72656 37.152303 414.62602 37.649366 414.50195 37.773438 C 414.12215 38.153255 413.2168 37.628011 413.2168 37.027344 C 413.2168 36.644046 413.42973 36.542638 413.87695 36.712891 C 414.12517 36.807391 414.26681 36.847151 414.30664 36.824219 L 414.30859 36.822266 L 414.31055 36.822266 L 414.31055 36.820312 L 414.3125 36.818359 L 414.31445 36.816406 L 414.31445 36.814453 L 414.31641 36.814453 L 414.31641 36.8125 L 414.31641 36.810547 L 414.31641 36.808594 C 414.32241 36.765754 414.23781 36.660947 414.06641 36.488281 C 413.69416 36.113243 413.4976 36.109814 413.13281 36.474609 C 412.76805 36.839412 412.7724 37.101373 413.1543 37.712891 C 413.82489 38.786663 413.0939 39.722098 412.0293 39.152344 C 411.72917 38.991718 411.55819 38.911191 411.50195 38.933594 L 411.5 38.935547 L 411.49805 38.9375 L 411.49609 38.9375 L 411.49414 38.9375 L 411.49219 38.939453 L 411.49023 38.941406 L 411.48828 38.943359 C 411.48803 38.94377 411.48676 38.947959 411.48633 38.949219 C 411.46363 39.007089 411.56073 39.18602 411.76172 39.507812 C 412.13506 40.105542 412.12889 40.373857 411.73242 40.851562 C 411.2597 41.421141 409.44336 41.70617 409.44336 41.210938 C 409.44336 40.323098 414.67477 31.910319 415.27148 31.832031 z M 443.74023 32.046875 L 445.07617 33.822266 L 446.41211 35.597656 L 445.45508 36.447266 C 444.92932 36.914299 444.33857 37.296875 444.14258 37.296875 C 443.65689 37.296875 443.69302 36.40859 444.19922 35.902344 C 444.49731 35.604128 444.49339 35.27048 444.18555 34.695312 C 443.68958 33.768606 443.42145 33.720755 442.5 34.394531 C 441.85405 34.866823 441.85934 34.947567 442.61523 36.1875 C 443.05049 36.901494 443.40745 37.6119 443.4082 37.767578 C 443.4112 38.282505 442.55769 38.062201 442.09375 37.427734 C 441.46569 36.568796 440.64111 37.108206 441.14453 38.048828 C 441.35267 38.437727 441.52344 38.848963 441.52344 38.962891 L 441.52148 38.962891 C 441.52148 38.963781 441.52158 38.965897 441.52148 38.966797 C 441.49558 39.091394 440.65999 39.607438 439.64258 40.123047 L 437.76367 41.076172 L 436.8125 39.199219 C 436.28939 38.166901 435.86133 37.24706 435.86133 37.15625 L 435.86133 37.154297 L 435.86133 37.152344 L 435.86328 37.150391 L 435.86328 37.148438 C 435.92168 37.028799 436.87503 36.423907 438.03125 35.777344 C 439.22478 35.109924 440.99755 33.996733 441.9707 33.304688 L 443.74023 32.046875 z M 401.54883 32.058594 L 403.89258 33.6875 C 405.18159 34.582904 406.95766 35.679752 407.83984 36.125 C 408.70822 36.563291 409.4213 37.007689 409.44336 37.123047 L 409.44336 37.126953 L 409.44336 37.128906 C 409.44336 37.235368 409.01654 38.166316 408.49414 39.197266 C 407.9717 40.228216 407.41974 41.064841 407.26758 41.056641 C 407.11539 41.048541 406.26888 40.608069 405.38672 40.076172 C 403.80653 39.123392 403.38875 38.341021 404.19336 37.84375 C 404.4833 37.664616 404.48454 37.473009 404.20117 37.189453 C 403.91762 36.905896 403.59545 36.972962 403.10156 37.419922 C 401.68963 38.69769 401.44572 37.855777 402.71289 36.076172 C 403.5052 34.963434 403.50954 34.910899 402.83008 34.414062 C 401.93377 33.758629 401.71993 33.769447 401.11523 34.498047 C 400.72685 34.966034 400.71624 35.25056 401.06836 35.814453 C 402.04547 37.379033 401.21978 37.810308 399.68945 36.535156 L 398.80469 35.798828 L 400.17578 33.929688 L 401.54883 32.058594 z M 438.88086 36.580078 C 438.65206 36.584478 438.37033 36.743615 437.96094 37.042969 C 437.39245 37.458664 437.35149 37.684363 437.71484 38.363281 C 438.2249 39.316321 438.48613 39.365878 439.42188 38.681641 C 439.99039 38.26596 440.03326 38.040247 439.66992 37.361328 C 439.383 36.825243 439.17504 36.574429 438.88086 36.580078 z M 406.35547 36.59375 C 406.09885 36.60195 405.91454 36.837688 405.65625 37.320312 C 405.34669 37.898488 405.35559 38.238329 405.68945 38.640625 C 406.32776 39.409741 407.08253 39.313538 407.57227 38.398438 C 407.91387 37.760162 407.86348 37.512878 407.30273 37.087891 C 406.86455 36.755788 406.58191 36.586494 406.35547 36.59375 z M 417.14844 38.050781 C 418.62206 38.050781 419.25586 38.450781 419.25586 39.380859 L 419.25586 39.384766 L 419.25586 39.386719 L 419.25391 39.388672 L 419.25391 39.390625 L 419.25195 39.392578 C 419.18865 39.467208 418.49317 39.573966 417.65234 39.634766 C 416.24423 39.736641 416.03505 39.869889 415.93555 40.726562 C 415.7675 42.172258 416.59566 42.674972 418.46094 42.255859 C 419.44185 42.035494 420.09866 42.040451 420.24023 42.269531 C 420.517 42.717327 420.54587 42.692498 418.61133 43.667969 C 415.80008 45.085506 415.0723 44.702788 414.54688 41.53125 C 414.15236 39.150155 414.97314 38.052734 417.14844 38.052734 L 417.14844 38.050781 z M 428.11523 38.050781 C 429.50448 38.050781 429.91548 38.220171 430.42773 39.001953 C 431.07446 39.989007 431.01412 41.432747 430.24219 43.429688 C 429.75213 44.697454 428.74747 44.757897 426.61523 43.648438 C 424.76059 42.683414 424.79237 42.710998 425.06641 42.267578 C 425.20799 42.038459 425.86284 42.033502 426.84375 42.253906 C 428.52937 42.632626 429.45015 42.230227 429.43945 41.119141 C 429.42835 39.943481 428.7833 39.435101 427.36719 39.488281 C 426.25239 39.530201 426.02065 39.423531 426.20117 38.953125 C 426.32505 38.630364 426.42578 38.295784 426.42578 38.208984 L 426.42578 38.207031 L 426.42773 38.205078 L 426.42773 38.203125 L 426.42773 38.201172 L 426.42969 38.199219 C 426.49639 38.117989 427.22952 38.050781 428.11523 38.050781 z M 418.94336 40.355469 C 419.47386 40.363769 419.63882 40.487982 419.54883 40.761719 C 419.45893 41.035014 418.74518 41.313216 417.96094 41.378906 C 416.91361 41.466676 416.57729 41.366916 416.69727 41.001953 C 416.78717 40.728645 417.50286 40.450456 418.28711 40.384766 C 418.54895 40.362816 418.76653 40.352719 418.94336 40.355469 z M 426.55078 40.355469 C 427.37211 40.378379 428.48919 40.640442 428.59961 40.976562 C 428.70329 41.29215 428.32746 41.447266 427.46484 41.447266 C 426.15902 41.447266 425.67186 41.219646 425.67188 40.607422 C 425.67188 40.414095 426.05798 40.341723 426.55078 40.355469 z M 412.66797 41.449219 C 413.24174 41.420949 413.67207 41.939901 413.36719 42.734375 C 413.09999 43.430699 412.90119 43.457335 411.9707 42.916016 C 411.43247 42.602905 411.38128 42.405533 411.73242 41.982422 C 412.02651 41.628066 412.36743 41.464028 412.66797 41.449219 z M 432.60352 41.921875 C 432.89657 41.915575 433.22089 42.041196 433.50391 42.324219 C 434.05524 42.875542 434.0184 42.958649 433.07227 43.318359 C 431.71357 43.834972 431.71094 43.834855 431.71094 42.945312 C 431.71094 42.310139 432.1151 41.932351 432.60352 41.921875 z " /><path
       style="baseline-shift:baseline;display:inline;overflow:visible;vector-effect:none;fill:#c8a000;fill-opacity:1;enable-background:accumulate;stop-color:#000000"
       d="M 440.33268,12.691196 V 14.02518 H 734.66666 V 12.691196 Z"
       id="path2" /><path
       style="baseline-shift:baseline;display:inline;overflow:visible;vector-effect:none;fill:#c8a000;fill-opacity:1;enable-background:accumulate;stop-color:#000000"
       d="M 110.66666,12.691196 V 14.02518 H 405.00065 V 12.691196 Z"
       id="path3" /><path
       id="path4"
       d="m 0,0 c 1.91,-5.978 7.515,-10.322 14.119,-10.322 6.604,0 12.208,4.344 14.119,10.322 H 27.174 C 25.301,-5.416 20.164,-9.322 14.119,-9.322 8.074,-9.322 2.936,-5.416 1.064,0 Z"
       style="fill:#c8a000;fill-opacity:1;fill-rule:nonzero;stroke:none"
       transform="matrix(1.3333333,0,0,-1.3333333,403.84145,12.691872)"
       clip-path="url(#clipPath28)" /></g></svg>
