<?xml version="1.0" encoding="UTF-8" standalone="no"?>
<!-- Created with Inkscape (http://www.inkscape.org/) -->

<svg
   version="1.1"
   id="svg1"
   width="845.33331"
   height="60"
   viewBox="0 0 845.33331 60"
   sodipodi:docname="footerscroll.svg"
   inkscape:version="1.4.2 (ebf0e940d0, 2025-05-08)"
   inkscape:export-filename="footerscroll.pdf"
   inkscape:export-xdpi="600"
   inkscape:export-ydpi="600"
   xml:space="preserve"
   xmlns:inkscape="http://www.inkscape.org/namespaces/inkscape"
   xmlns:sodipodi="http://sodipodi.sourceforge.net/DTD/sodipodi-0.dtd"
   xmlns="http://www.w3.org/2000/svg"
   xmlns:svg="http://www.w3.org/2000/svg"><defs
     id="defs1"><clipPath
       clipPathUnits="userSpaceOnUse"
       id="clipPath28"><path
         d="M 0,0 H 612 V 792 H 0 Z"
         transform="translate(-291.80121,-47.486799)"
         id="path28" /></clipPath><clipPath
       clipPathUnits="userSpaceOnUse"
       id="clipPath26"><path
         d="M 0,0 H 612 V 792 H 0 Z"
         transform="translate(-322.72751,-36.398101)"
         id="path26" /></clipPath></defs><sodipodi:namedview
     id="namedview1"
     pagecolor="#ffffff"
     bordercolor="#000000"
     borderopacity="0.25"
     inkscape:showpageshadow="2"
     inkscape:pageopacity="0.0"
     inkscape:pagecheckerboard="0"
     inkscape:deskcolor="#d1d1d1"
     inkscape:zoom="2.8521294"
     inkscape:cx="474.90833"
     inkscape:cy="24.893681"
     inkscape:window-width="2560"
     inkscape:window-height="1350"
     inkscape:window-x="0"
     inkscape:window-y="0"
     inkscape:window-maximized="1"
     inkscape:current-layer="g1"><inkscape:page
       x="0"
       y="0"
       inkscape:label="1"
       id="page1"
       width="845.33331"
       height="60"
       margin="0"
       bleed="0" /></sodipodi:namedview><g
     id="g1"
     inkscape:groupmode="layer"
     inkscape:label="1"><path
       style="baseline-shift:baseline;display:inline;overflow:visible;vector-effect:none;fill:#3765c4;fill-opacity:1;enable-background:accumulate;stop-color:#000000"
       d="M 440.33268,12.691196 V 14.02518 H 734.66666 V 12.691196 Z"
       id="path19" /><path
       style="baseline-shift:baseline;display:inline;overflow:visible;vector-effect:none;fill:#3765c4;fill-opacity:1;enable-background:accumulate;stop-color:#000000"
       d="M 110.66666,12.691196 V 14.02518 H 405.00065 V 12.691196 Z"
       id="path20" /><path
       id="path27"
       d="m 0,0 c 1.91,-5.978 7.515,-10.322 14.119,-10.322 6.604,0 12.208,4.344 14.119,10.322 H 27.174 C 25.301,-5.416 20.164,-9.322 14.119,-9.322 8.074,-9.322 2.936,-5.416 1.064,0 Z"
       style="fill:#3765c4;fill-opacity:1;fill-rule:nonzero;stroke:none"
       transform="matrix(1.3333333,0,0,-1.3333333,403.84145,12.691872)"
       clip-path="url(#clipPath28)" /><path
       id="path1-5"
       style="fill:#3765c4;stroke-width:0.360313;fill-opacity:1"
       d="M 383.91016 13.388672 C 385.70073 19.651877 389.00904 25.423954 393.67969 30.25 C 400.81135 37.618951 410.11035 41.884862 420.42969 42.521484 C 425.04411 42.806162 430.44677 42.121637 434.89453 40.689453 C 441.16144 38.671499 446.41459 35.482552 451.08203 30.861328 C 456.0947 25.898322 459.56356 20.059869 461.46875 13.388672 L 460.67969 13.388672 C 460.03169 15.622562 459.19828 17.754242 458.18164 19.783203 C 451.94519 32.229596 439.92759 40.439229 426.13672 41.671875 C 424.91777 41.780865 420.9889 41.802814 419.62305 41.708984 C 415.07151 41.396346 409.82571 39.988124 405.55469 37.929688 C 395.29842 32.986612 387.84581 24.087296 384.69922 13.388672 L 383.91016 13.388672 z M 385.8125 13.388672 C 386.21108 14.713965 386.68264 16.015621 387.22656 17.289062 C 392.85681 30.470777 405.29102 39.460856 419.50781 40.626953 C 424.4542 41.03267 429.87395 40.40722 434.51758 38.896484 C 440.41008 36.979437 445.5199 33.845812 449.89648 29.462891 C 451.91267 27.443761 453.35997 25.684998 454.79102 23.515625 C 456.91394 20.297434 458.50129 16.936372 459.57031 13.388672 L 457.2207 13.388672 C 456.63664 15.204048 455.91113 16.944621 455.02148 18.681641 C 453.09214 22.448662 451.04666 25.191426 447.84375 28.310547 C 442.20345 33.803289 435.08534 37.228806 427.28906 38.205078 C 425.12298 38.476094 422.31843 38.573622 420.37305 38.445312 C 413.93527 38.020741 407.55872 35.831384 402.32812 32.25 C 395.62073 27.657449 390.63336 20.970359 388.16797 13.388672 L 385.8125 13.388672 z M 388.99805 13.388672 C 389.20996 14.458024 389.58756 15.458387 390.13086 16.398438 C 391.36754 18.538253 393.41077 19.944156 396.19922 20.574219 C 397.33634 20.831164 397.76134 20.854068 397.83594 20.660156 C 397.86714 20.579572 397.87843 19.295584 397.86133 17.806641 L 397.83008 15.099609 L 397.52344 15.683594 C 397.17134 16.350746 396.38103 17.117188 396.04688 17.117188 C 395.67785 17.117188 394.53269 16.648719 393.875 16.230469 C 392.96143 15.649497 392.30016 14.905918 391.7832 13.873047 C 391.7068 13.720395 391.6149 13.556726 391.51172 13.388672 L 388.99805 13.388672 z M 394.16406 13.388672 C 395.01065 13.715138 395.97291 13.967929 396.94922 14.111328 C 397.30674 14.16385 397.64 14.213103 397.6875 14.220703 C 397.71814 14.225685 397.74012 14.222351 397.75391 14.212891 C 397.75583 14.211275 397.76018 14.20701 397.76172 14.205078 C 397.79325 14.156027 397.71922 14.018515 397.55078 13.837891 C 397.43984 13.718923 397.3308 13.566084 397.22656 13.388672 L 394.16406 13.388672 z M 398.4043 13.388672 C 398.65379 14.689391 398.71904 16.098567 398.67383 18.626953 L 398.62305 21.486328 L 398.97656 21.533203 C 399.17098 21.559143 399.66789 21.575159 400.08008 21.568359 L 400.83008 21.556641 L 400.82227 18.615234 C 400.81734 16.223479 400.72886 14.710374 400.45508 13.388672 L 398.4043 13.388672 z M 444.91992 13.388672 C 444.66182 14.68473 444.58594 16.186472 444.58594 18.640625 L 444.58594 21.613281 L 445.14453 21.613281 C 445.45275 21.613281 445.94165 21.580586 446.23047 21.541016 L 446.75586 21.46875 L 446.69141 18.625 C 446.63779 16.279787 446.7028 14.676759 446.94141 13.388672 L 444.91992 13.388672 z M 448.13672 13.388672 C 448.07046 13.489203 447.99916 13.585563 447.92383 13.679688 C 447.74231 13.906457 447.59315 14.116621 447.58398 14.158203 L 447.58203 14.160156 L 447.58203 14.162109 L 447.58203 14.164062 L 447.58398 14.166016 L 447.58398 14.167969 L 447.58594 14.167969 L 447.58594 14.169922 C 447.6178 14.192553 447.80012 14.189827 448.01562 14.160156 C 449.26616 13.988049 450.31306 13.740875 451.2207 13.388672 L 448.13672 13.388672 z M 453.88477 13.388672 C 453.78928 13.540993 453.70465 13.68523 453.64258 13.808594 C 453.11721 14.852818 452.52516 15.535537 451.63281 16.123047 C 450.73233 16.715923 449.606 17.157713 449.23438 17.064453 C 448.81665 16.959601 448.17087 16.324023 447.83398 15.685547 L 447.52539 15.099609 L 447.49023 17.347656 C 447.47093 18.584251 447.48764 19.868242 447.52734 20.201172 C 447.61089 20.90313 447.61766 20.904218 448.9082 20.630859 C 452.32911 19.906245 454.68056 18.109592 455.77344 15.386719 C 456.06612 14.657492 456.24958 14.067989 456.36523 13.388672 L 453.88477 13.388672 z M 443.89258 17.667969 L 443.46094 17.742188 C 442.70091 17.873653 441.43106 18.579448 440.62891 19.314453 C 439.95993 19.927454 438.35938 21.884758 438.35938 22.089844 L 438.35938 22.091797 L 438.36133 22.09375 C 438.47131 22.158159 440.24266 22.101254 440.8457 22.009766 C 441.04255 21.979907 441.35179 21.796962 441.53906 21.597656 C 441.93866 21.17237 443.12721 20.576305 443.57617 20.576172 L 443.89258 20.576172 L 443.89258 19.121094 L 443.89258 17.667969 z M 401.48633 17.671875 L 401.4707 19.123047 L 401.45312 20.576172 L 401.72656 20.576172 C 402.27262 20.576172 403.08862 20.955972 403.67188 21.480469 L 404.26953 22.017578 L 405.43164 22.083984 C 406.07063 22.120934 406.68391 22.159402 406.79492 22.169922 C 407.11496 22.200589 407.04226 22.032937 406.3125 21.064453 C 404.96205 19.2723 403.23906 17.974139 401.90625 17.744141 L 401.48633 17.671875 z M 393.21094 20.947266 L 393.21094 20.949219 L 393.20898 20.951172 L 393.20898 20.953125 C 393.18423 21.088415 393.97154 22.671513 394.32617 23.191406 C 395.18369 24.44853 397.485 26.947291 397.72461 26.921875 L 397.72656 26.921875 C 397.72743 26.921585 397.73163 26.920304 397.73242 26.919922 L 397.73438 26.919922 L 397.73633 26.917969 L 397.73828 26.916016 L 397.74023 26.914062 C 397.74064 26.913211 397.74186 26.90915 397.74219 26.908203 C 397.74467 26.897773 397.744 26.879732 397.73828 26.859375 C 397.70266 26.732544 397.59264 26.342925 397.49414 25.994141 C 397.08384 24.543218 397.25737 24.296499 398.55078 24.484375 C 399.04274 24.555837 400.63911 24.663689 402.09766 24.724609 C 406.37318 24.903155 407.76318 25.081241 409.30664 25.644531 C 410.54604 26.096856 411.12692 26.529535 412.00977 27.660156 C 412.8555 28.743212 413.52717 29.250362 414.38867 29.457031 C 414.66075 29.522301 414.85146 29.605482 414.87695 29.664062 C 414.87768 29.666238 414.88061 29.671726 414.88086 29.673828 C 414.88086 29.67486 414.88098 29.678675 414.88086 29.679688 C 414.88061 29.680679 414.87928 29.684576 414.87891 29.685547 C 414.87742 29.688395 414.87374 29.69462 414.87109 29.697266 C 414.72373 29.844636 413.01785 30.261719 412.5625 30.261719 L 412.16992 30.261719 L 412.4375 30.740234 C 412.58423 31.003383 413.05984 31.600284 413.49414 32.066406 C 414.02679 32.638055 414.36863 32.912109 414.54492 32.912109 C 415.44312 32.912109 417.69722 31.186197 418.63672 29.779297 C 419.26778 28.834303 419.25451 28.761719 418.43359 28.761719 C 416.99258 28.761719 416.00379 28.249966 414.81641 26.888672 C 412.97629 24.779053 412.08398 24.116997 410.44531 23.640625 C 408.84023 23.174017 407.65916 23.062533 401.23242 22.771484 C 399.86899 22.709742 398.28558 22.574626 397.71484 22.472656 C 396.45476 22.247537 394.44078 21.604424 393.75 21.207031 C 393.48882 21.056769 393.25885 20.946252 393.2168 20.947266 L 393.21484 20.947266 L 393.21289 20.947266 L 393.21094 20.947266 z M 452.17578 20.994141 C 452.08554 21.008496 451.69417 21.171379 451.23047 21.388672 C 449.26108 22.311547 447.07336 22.70419 443.25977 22.822266 C 435.12867 23.074009 433.39112 23.561794 431.20312 26.199219 C 429.57924 28.156682 428.82645 28.626947 427.14648 28.734375 C 426.69341 28.763343 426.31532 28.814758 426.25977 28.853516 L 426.25781 28.855469 L 426.25586 28.857422 L 426.25586 28.859375 L 426.25391 28.859375 L 426.25391 28.861328 L 426.25391 28.863281 C 426.25718 29.079615 427.00702 30.184644 427.57812 30.8125 C 428.29372 31.599205 428.92184 32.071802 429.92773 32.582031 C 430.28442 32.762951 430.68207 32.911413 430.8125 32.912109 C 431.19303 32.914456 433.14532 30.787226 433.16602 30.347656 L 433.16602 30.345703 L 433.16602 30.34375 C 433.1658 30.343021 433.16436 30.338615 433.16406 30.337891 L 433.16406 30.335938 C 433.13763 30.29455 432.9771 30.261719 432.78516 30.261719 C 432.34525 30.261719 430.63165 29.844564 430.49023 29.703125 C 430.48958 29.702282 430.48684 29.698143 430.48633 29.697266 C 430.48597 29.696353 430.48459 29.692352 430.48438 29.691406 C 430.4843 29.690428 430.4843 29.686557 430.48438 29.685547 C 430.48459 29.684505 430.48402 29.68076 430.48438 29.679688 C 430.5114 29.619057 430.74906 29.511508 431.06445 29.423828 C 431.95932 29.17504 432.42612 28.83943 433.11328 27.951172 C 434.33432 26.372822 435.14497 25.83743 437.04492 25.355469 C 438.39503 25.012988 439.79671 24.869118 443.20508 24.728516 C 444.69701 24.666977 446.31873 24.557225 446.80859 24.484375 C 447.83951 24.331045 448.04492 24.418015 448.04492 25.003906 C 448.04492 25.325482 447.98081 25.6068 447.63672 26.802734 C 447.62493 26.843691 447.62108 26.871978 447.62891 26.886719 L 447.63086 26.888672 L 447.63281 26.890625 L 447.63477 26.892578 L 447.63672 26.892578 L 447.63672 26.894531 L 447.63867 26.894531 L 447.64062 26.896484 L 447.64258 26.896484 C 447.70861 26.909034 447.94825 26.705842 448.44336 26.224609 C 449.75283 24.951832 451.15886 23.149333 451.71094 22.035156 C 451.97657 21.499095 452.19531 21.031817 452.19531 20.998047 L 452.19531 20.996094 L 452.19336 20.996094 L 452.19336 20.994141 L 452.19141 20.994141 L 452.18945 20.994141 C 452.18637 20.994051 452.18062 20.993372 452.17578 20.994141 z M 398.66992 25.269531 L 398.74609 25.775391 C 399.29648 29.383701 401.04808 31.47301 404.51758 32.65625 C 405.17353 32.879945 407.11408 33.318439 407.86133 33.412109 C 408.05158 33.435979 408.40629 33.463056 408.64844 33.472656 L 409.08789 33.490234 L 408.84375 33.146484 C 408.47929 32.634666 407.54643 30.62959 406.88477 28.935547 L 406.29883 27.435547 L 406.36914 28.251953 C 406.45606 29.262049 406.29314 29.936699 405.91211 30.140625 C 405.67416 30.267976 405.51639 30.253131 404.84375 30.048828 C 403.04439 29.502292 401.767 28.086273 401.33594 26.160156 L 401.20312 25.564453 L 400.29688 25.488281 C 399.79861 25.446731 399.22759 25.381437 399.0293 25.341797 L 398.66992 25.269531 z M 446.6875 25.304688 L 446.18359 25.369141 C 445.9068 25.404902 445.35168 25.470402 444.94922 25.513672 L 444.2168 25.591797 L 443.95898 26.398438 C 443.60191 27.516827 443.26814 28.124325 442.64453 28.791016 C 442.05674 29.419425 441.40667 29.793641 440.39453 30.087891 C 439.78795 30.264163 439.70763 30.264418 439.45312 30.097656 C 439.05338 29.835694 438.90177 29.160483 439.03125 28.212891 C 439.08975 27.785345 439.12593 27.42294 439.11133 27.40625 C 439.0969 27.389546 438.81036 28.090092 438.47461 28.962891 C 437.70554 30.961972 436.94562 32.6054 436.55078 33.123047 L 436.24609 33.523438 L 437.10156 33.441406 C 440.27383 33.139361 442.8537 32.107056 444.4707 30.492188 C 445.71131 29.253232 446.36871 27.853851 446.60742 25.943359 L 446.6875 25.304688 z M 406.72461 25.882812 C 406.45528 25.880509 406.41197 25.917113 406.48047 26.082031 C 406.52655 26.193011 406.84813 27.035559 407.19531 27.955078 C 408.65691 31.826349 409.76176 33.595518 411.64453 35.080078 C 412.94789 36.107772 414.16677 36.719429 415.50195 37.011719 L 415.50195 37.009766 C 416.41182 37.209121 418.67719 37.21226 419.69922 37.015625 C 420.49828 36.861878 421.62285 36.492621 421.9707 36.269531 C 422.09005 36.19299 421.92377 35.974291 421.28711 35.367188 L 420.44531 34.564453 L 419.74609 34.714844 C 417.39722 35.21919 415.01842 34.448528 413.10938 32.566406 C 412.04599 31.518024 411.21371 30.275121 410.12891 28.109375 L 409.31055 26.474609 L 408.70117 26.298828 C 407.76788 26.029 407.08746 25.886312 406.72461 25.882812 z M 438.79297 25.886719 C 438.46344 25.882801 437.32613 26.102937 436.65234 26.3125 L 436.04102 26.501953 L 435.27148 28.064453 C 434.27757 30.085074 433.33577 31.489546 432.25 32.566406 C 430.32375 34.476844 428.10572 35.199004 425.67773 34.707031 C 424.04476 34.376146 422.7768 33.759204 421.82617 32.832031 C 421.23972 32.259977 421.04205 31.94781 421.12695 31.726562 C 421.23017 31.457601 422.02632 31.183594 422.70117 31.183594 C 423.4133 31.183594 424.29297 31.561974 424.29297 31.869141 C 424.29297 31.981509 424.05881 32.324425 423.77344 32.630859 C 423.48808 32.9373 423.25391 33.206186 423.25391 33.228516 L 423.25391 33.230469 L 423.25586 33.232422 C 423.31019 33.329394 424.47187 33.83252 424.65234 33.833984 C 424.83584 33.835095 425.66225 32.72198 426.31055 31.601562 L 426.63672 31.041016 L 426.35742 30.816406 C 424.42324 29.25698 422.16373 29.015351 420.04883 30.142578 C 419.66634 30.346442 419.23661 30.638815 419.0918 30.792969 L 418.82812 31.074219 L 419.12305 31.675781 C 419.51197 32.467135 420.62764 33.957363 421.44531 34.779297 C 422.62529 35.965397 423.70766 36.566876 425.34961 36.949219 C 426.55444 37.229748 429.2448 37.202599 430.3418 36.898438 C 431.08762 36.691645 432.37642 36.071567 433.11328 35.564453 C 434.60047 34.540951 435.92076 32.947545 436.88867 31.009766 C 437.4841 29.817721 438.97456 25.996034 438.88086 25.902344 L 438.87891 25.900391 C 438.86547 25.892458 438.83416 25.887208 438.79297 25.886719 z " /></g></svg>
