<?xml version="1.0" encoding="UTF-8" standalone="no"?>
<!-- Created with Inkscape (http://www.inkscape.org/) -->

<svg
   version="1.1"
   id="svg1"
   width="845.33331"
   height="60"
   viewBox="0 0 845.33331 60"
   sodipodi:docname="footerscroll.svg"
   inkscape:version="1.4.2 (ebf0e940d0, 2025-05-08)"
   xml:space="preserve"
   inkscape:export-filename="footerscroll.pdf"
   inkscape:export-xdpi="600"
   inkscape:export-ydpi="600"
   xmlns:inkscape="http://www.inkscape.org/namespaces/inkscape"
   xmlns:sodipodi="http://sodipodi.sourceforge.net/DTD/sodipodi-0.dtd"
   xmlns="http://www.w3.org/2000/svg"
   xmlns:svg="http://www.w3.org/2000/svg"><defs
     id="defs1"><clipPath
       clipPathUnits="userSpaceOnUse"
       id="clipPath28"><path
         d="M 0,0 H 612 V 792 H 0 Z"
         transform="translate(-291.80121,-47.486799)"
         id="path28" /></clipPath><clipPath
       clipPathUnits="userSpaceOnUse"
       id="clipPath26"><path
         d="M 0,0 H 612 V 792 H 0 Z"
         transform="translate(-322.72751,-36.398101)"
         id="path26" /></clipPath></defs><sodipodi:namedview
     id="namedview1"
     pagecolor="#ffffff"
     bordercolor="#000000"
     borderopacity="0.25"
     inkscape:showpageshadow="2"
     inkscape:pageopacity="0.0"
     inkscape:pagecheckerboard="0"
     inkscape:deskcolor="#d1d1d1"
     inkscape:zoom="2.01676"
     inkscape:cx="427.66615"
     inkscape:cy="24.792241"
     inkscape:window-width="1920"
     inkscape:window-height="990"
     inkscape:window-x="0"
     inkscape:window-y="0"
     inkscape:window-maximized="1"
     inkscape:current-layer="g1"
     showgrid="false"><inkscape:page
       x="0"
       y="0"
       inkscape:label="1"
       id="page1"
       width="845.33331"
       height="60"
       margin="0"
       bleed="0" /></sodipodi:namedview><g
     id="g1"
     inkscape:groupmode="layer"
     inkscape:label="1"><path
       style="baseline-shift:baseline;display:inline;overflow:visible;vector-effect:none;fill:#eb6000;fill-opacity:1;enable-background:accumulate;stop-color:#000000"
       d="M 440.33268,12.691196 V 14.02518 H 734.66666 V 12.691196 Z"
       id="path2" /><path
       style="baseline-shift:baseline;display:inline;overflow:visible;vector-effect:none;fill:#eb6000;fill-opacity:1;enable-background:accumulate;stop-color:#000000"
       d="M 110.66666,12.691196 V 14.02518 H 405.00065 V 12.691196 Z"
       id="path3" /><path
       id="path4"
       d="m 0,0 c 1.91,-5.978 7.515,-10.322 14.119,-10.322 6.604,0 12.208,4.344 14.119,10.322 H 27.174 C 25.301,-5.416 20.164,-9.322 14.119,-9.322 8.074,-9.322 2.936,-5.416 1.064,0 Z"
       style="fill:#eb6000;fill-opacity:1;fill-rule:nonzero;stroke:none"
       transform="matrix(1.3333333,0,0,-1.3333333,403.84145,12.691872)"
       clip-path="url(#clipPath28)" /><path
       id="path1"
       style="fill:#eb6000;fill-opacity:1;stroke-width:0.200872"
       d="M 392.50781 12.796875 C 393.48238 17.984331 395.7234 22.630163 399.24219 26.763672 C 400.00669 27.661728 401.70543 29.353803 402.57812 30.085938 C 406.71238 33.554203 411.45665 35.82547 416.69727 36.845703 C 418.09413 37.117639 419.64788 37.313704 421.01562 37.388672 C 426.07887 37.666204 431.37649 36.623039 436.00586 34.4375 C 443.13691 31.070904 448.7512 24.995234 451.46094 17.712891 C 452.06127 16.099484 452.51644 14.454592 452.82812 12.796875 L 452.25391 12.796875 C 451.58866 16.272 450.30916 19.569032 448.43555 22.623047 C 446.09118 26.444422 442.58111 29.957189 438.76562 32.300781 C 434.74561 34.770002 430.44717 36.227228 425.71875 36.724609 C 424.58413 36.843943 421.70074 36.896315 420.62305 36.816406 C 417.50787 36.585411 414.38341 35.892017 411.60156 34.816406 C 410.50808 34.393607 408.13042 33.236224 407.08984 32.619141 C 399.77329 28.280229 394.63763 21.001075 393.07812 12.796875 L 392.50781 12.796875 z M 393.67188 12.796875 C 394.50357 17.072343 396.32263 21.137238 399.06445 24.724609 C 401.81446 28.322652 405.36773 31.232682 409.45898 33.238281 C 413.0489 34.99812 416.75249 35.976398 420.81836 36.240234 C 425.28518 36.530088 430.06729 35.734844 434.15625 34.019531 C 441.29728 31.023862 446.80854 25.617426 449.86328 18.613281 C 450.68249 16.734901 451.27232 14.824733 451.66016 12.796875 L 450.81055 12.796875 C 450.82978 12.82757 450.83789 12.861313 450.83789 12.898438 C 450.83789 13.254087 450.68535 13.267634 449.45508 13.017578 C 448.88958 12.902636 448.60096 12.867297 448.54102 12.898438 L 448.53906 12.898438 L 448.53711 12.900391 L 448.53516 12.902344 L 448.5332 12.904297 L 448.5332 12.90625 L 448.5332 12.908203 C 448.4612 13.125016 448.38785 13.452675 448.39844 13.5 L 448.39844 13.501953 L 448.39844 13.503906 C 448.41134 13.516566 448.80611 13.624869 449.27539 13.744141 C 450.32864 14.011833 450.47671 14.07622 450.50195 14.289062 C 450.54585 14.660063 450.2554 14.661724 448.91016 14.292969 L 448.24609 14.109375 L 448.15039 14.435547 C 448.09999 14.602939 448.0776 14.755625 448.0957 14.791016 L 448.0957 14.792969 L 448.0957 14.794922 L 448.09766 14.794922 L 448.09766 14.796875 C 448.12306 14.817325 448.46472 14.926793 448.85742 15.041016 C 449.89251 15.342101 450.12305 15.451727 450.12305 15.640625 C 450.12305 16.017672 449.87401 16.016988 448.64453 15.630859 L 447.85742 15.382812 L 447.75781 15.671875 C 447.70251 15.830971 447.65625 15.981558 447.65625 16.007812 L 447.65625 16.009766 L 447.65625 16.011719 L 447.6582 16.013672 L 447.66016 16.015625 C 447.68713 16.048268 447.84289 16.123052 448.0293 16.189453 C 449.61566 16.75464 449.74707 16.832835 449.61133 17.125 C 449.54313 17.272043 449.50534 17.288242 449.29297 17.259766 C 449.16039 17.241986 448.68928 17.094609 448.24609 16.931641 C 447.83019 16.778697 447.46554 16.671493 447.40234 16.681641 L 447.40039 16.681641 L 447.39844 16.681641 L 447.39648 16.683594 C 447.37198 16.711104 447.30339 16.857843 447.24414 17.007812 L 447.13672 17.279297 L 447.43555 17.40625 C 447.59934 17.47511 447.74867 17.53125 447.76758 17.53125 C 447.88893 17.53125 449.04789 18.117945 449.11328 18.210938 L 449.11523 18.212891 L 449.11523 18.214844 C 449.13613 18.267994 449.10583 18.382426 449.04883 18.46875 C 448.91392 18.670684 448.81144 18.649204 447.81445 18.226562 C 447.38926 18.046319 447.00656 17.886148 446.96484 17.869141 L 446.96289 17.869141 L 446.96289 17.867188 L 446.96094 17.867188 C 446.88814 17.881587 446.61914 18.341342 446.61914 18.460938 C 446.61914 18.474007 447.00546 18.671045 447.47461 18.898438 C 447.94373 19.125833 448.36745 19.343317 448.41602 19.382812 C 448.53412 19.478952 448.52587 19.722038 448.40234 19.822266 C 448.2668 19.932605 447.99519 19.847734 447.08203 19.408203 C 446.68118 19.215265 446.33923 19.058594 446.32422 19.058594 L 446.32227 19.058594 L 446.32031 19.060547 L 446.31836 19.0625 C 446.25983 19.115956 446.03711 19.551974 446.03711 19.621094 L 446.03711 19.623047 L 446.03711 19.625 C 446.06601 19.67115 446.38481 19.866435 446.76758 20.070312 C 447.73615 20.586196 447.88663 20.706161 447.83203 20.919922 C 447.80873 21.011162 447.73036 21.105085 447.66016 21.126953 C 447.52416 21.169283 446.93929 20.903831 446.15234 20.445312 C 445.92316 20.311773 445.72315 20.210042 445.68945 20.208984 L 445.6875 20.210938 C 445.61727 20.29052 445.35385 20.734461 445.33594 20.798828 L 445.33594 20.800781 L 445.33594 20.802734 L 445.33594 20.804688 C 445.34794 20.813088 445.69297 21.02161 446.10352 21.269531 C 446.95921 21.786284 447.17293 21.977536 447.11133 22.167969 C 447.00936 22.483032 446.69617 22.38345 445.60547 21.693359 C 445.30532 21.503455 445.0395 21.349609 445.01367 21.349609 L 445.01172 21.349609 L 445.00977 21.349609 L 445.00781 21.349609 L 445.00586 21.349609 C 444.97658 21.360237 444.92001 21.420792 444.875 21.492188 C 444.8252 21.570967 444.74345 21.697775 444.69336 21.773438 C 444.60596 21.905293 444.63076 21.929036 445.28711 22.367188 C 446.01717 22.854564 446.36328 23.14052 446.36328 23.253906 C 446.36328 23.292376 446.30503 23.379825 446.23438 23.449219 C 446.04408 23.635887 445.85685 23.546079 444.71484 22.726562 L 444.26758 22.40625 L 444.11133 22.59375 C 443.79245 22.975795 443.78438 22.954998 444.43359 23.433594 C 445.34678 24.106818 445.53117 24.293985 445.46289 24.476562 C 445.42619 24.574323 445.34489 24.63329 445.23242 24.646484 C 445.04435 24.668524 444.73858 24.476494 443.92188 23.824219 L 443.45898 23.455078 L 443.33398 23.595703 C 442.93877 24.043533 442.90331 23.9392 443.69727 24.59375 C 444.63838 25.369605 444.75529 25.562794 444.40234 25.748047 C 444.24148 25.832487 443.96228 25.65917 443.22266 25.015625 C 442.93299 24.763615 442.66249 24.539025 442.62305 24.515625 L 442.62305 24.513672 L 442.62109 24.513672 L 442.61914 24.513672 L 442.61914 24.511719 C 442.57344 24.499659 442.45106 24.594277 442.33789 24.732422 L 442.125 24.992188 L 442.88086 25.712891 C 443.28336 26.097519 443.61656 26.455358 443.63672 26.521484 L 443.63672 26.523438 C 443.63672 26.639443 443.42679 26.822266 443.29492 26.822266 C 443.1898 26.822266 442.74615 26.458578 442.04297 25.792969 L 441.65039 25.421875 L 441.40039 25.675781 L 441.14844 25.927734 L 441.83398 26.623047 C 442.21124 27.006023 442.53936 27.383343 442.56445 27.460938 C 442.62595 27.651181 442.40768 27.871922 442.2168 27.8125 C 442.1422 27.78931 441.77429 27.452212 441.39844 27.0625 L 440.71484 26.355469 L 440.50391 26.541016 C 440.38786 26.643645 440.26602 26.747221 440.23438 26.771484 L 440.23438 26.773438 L 440.23242 26.775391 L 440.23242 26.777344 L 440.23438 26.779297 C 440.24236 26.842689 440.47 27.146052 440.76953 27.486328 C 441.09413 27.85506 441.40524 28.242047 441.46094 28.347656 C 441.55574 28.527539 441.55424 28.547692 441.43164 28.667969 C 441.35964 28.738559 441.27092 28.796875 441.23438 28.796875 C 441.12383 28.796875 440.64503 28.330181 440.16797 27.757812 L 439.7168 27.216797 L 439.4375 27.443359 C 439.25913 27.586705 439.17643 27.692938 439.21094 27.738281 C 439.24084 27.777451 439.44002 28.024519 439.6543 28.287109 C 440.43602 29.245104 440.54328 29.496072 440.22852 29.636719 C 440.08431 29.701169 440.04083 29.687364 439.86523 29.523438 C 439.75579 29.421235 439.43996 29.04807 439.16406 28.693359 L 438.66211 28.046875 L 438.4082 28.234375 C 438.27208 28.33367 438.15068 28.438787 438.13477 28.46875 L 438.13477 28.470703 L 438.13477 28.472656 L 438.13477 28.474609 C 438.14997 28.531019 438.34202 28.823465 438.58008 29.150391 C 438.83404 29.499111 439.09618 29.88747 439.16211 30.013672 C 439.27 30.220209 439.27132 30.255964 439.18359 30.378906 C 438.96595 30.683655 438.75993 30.517788 438.01562 29.441406 L 437.57617 28.808594 L 437.29102 28.998047 C 437.14183 29.098709 437.03104 29.214379 437.03516 29.259766 L 437.03711 29.261719 L 437.03711 29.263672 L 437.03711 29.265625 C 437.05341 29.306035 437.27591 29.668073 437.53125 30.070312 C 437.78655 30.472551 438.01087 30.865687 438.03125 30.945312 C 438.07825 31.128728 437.95489 31.279297 437.75586 31.279297 C 437.5776 31.279297 437.38449 31.043131 436.83984 30.150391 C 436.64225 29.826533 436.46798 29.560547 436.45312 29.560547 C 436.39083 29.560547 435.94517 29.805231 435.88672 29.869141 L 435.88477 29.871094 L 435.88477 29.873047 L 435.88281 29.875 L 435.88281 29.876953 C 435.87681 29.929523 436.00492 30.199229 436.17969 30.494141 C 436.55393 31.125615 436.82162 31.65441 436.82227 31.771484 C 436.82261 31.814444 436.743 31.898253 436.64844 31.958984 C 436.47774 32.068682 436.47736 32.069036 436.27734 31.839844 C 436.16655 31.712937 435.90336 31.299343 435.69336 30.919922 C 435.48335 30.540504 435.30374 30.221267 435.29492 30.210938 L 435.29492 30.208984 L 435.29297 30.208984 L 435.29297 30.207031 L 435.29102 30.207031 C 435.22156 30.204416 434.745 30.446915 434.68555 30.513672 L 434.68359 30.515625 L 434.68359 30.517578 L 434.68164 30.517578 L 434.68164 30.519531 L 434.68164 30.521484 C 434.68164 30.545994 434.87151 30.948581 435.10352 31.416016 C 435.33552 31.883449 435.52537 32.330627 435.52539 32.410156 C 435.52544 32.502576 435.46687 32.580681 435.36328 32.626953 C 435.11956 32.73587 434.98748 32.578771 434.50781 31.615234 L 434.08984 30.775391 L 433.78516 30.914062 C 433.61793 30.990572 433.4735 31.059228 433.46289 31.064453 C 433.45189 31.069853 433.60329 31.442381 433.80078 31.894531 C 433.99825 32.346678 434.17774 32.804739 434.19922 32.910156 C 434.24542 33.136085 434.11824 33.273933 433.89258 33.242188 C 433.71156 33.216718 433.54591 32.939854 433.18359 32.058594 C 433.03588 31.699305 432.89308 31.391814 432.86523 31.375 L 432.86328 31.375 C 432.79072 31.347052 432.28302 31.524961 432.2207 31.595703 C 432.21993 31.596788 432.21928 31.598582 432.21875 31.599609 L 432.2168 31.599609 L 432.2168 31.601562 L 432.2168 31.603516 C 432.2168 31.627516 432.34967 31.985296 432.51172 32.396484 C 432.67375 32.807675 432.82255 33.268064 432.84375 33.419922 C 432.87855 33.669259 432.86822 33.702984 432.72852 33.753906 C 432.42166 33.865754 432.33748 33.742957 431.89453 32.544922 L 431.62109 31.804688 L 431.33203 31.890625 C 431.17336 31.937455 431.01874 31.989416 430.98828 32.007812 L 430.98828 32.009766 L 430.98633 32.011719 L 430.98633 32.013672 C 430.97287 32.074524 431.07189 32.46132 431.21875 32.908203 C 431.37531 33.384384 431.50391 33.854387 431.50391 33.955078 C 431.50391 34.152978 431.30832 34.307985 431.13867 34.244141 C 431.01072 34.195971 430.8122 33.744238 430.5625 32.933594 L 430.35547 32.265625 L 430.11719 32.279297 C 429.61884 32.308797 429.61601 32.32392 429.85156 33.169922 C 430.14683 34.230403 430.17068 34.421659 430.04102 34.548828 C 429.87487 34.711765 429.70102 34.675126 429.58398 34.453125 C 429.52598 34.343229 429.38262 33.883373 429.26562 33.431641 C 429.1486 32.979904 429.04004 32.598341 429.02539 32.583984 L 429.02539 32.582031 L 429.02344 32.582031 L 429.02148 32.582031 C 428.94518 32.551801 428.41034 32.709353 428.36719 32.773438 L 428.36523 32.773438 L 428.36523 32.775391 L 428.36523 32.777344 L 428.36523 32.779297 L 428.36523 32.78125 C 428.37023 32.81252 428.45034 33.203502 428.54297 33.648438 C 428.74965 34.639052 428.75552 34.816159 428.58008 34.908203 C 428.25853 35.076976 428.10853 34.803395 427.90039 33.666016 C 427.74055 32.792625 427.77808 32.848274 427.39258 32.898438 C 427.2095 32.922258 427.05147 32.950767 427.04102 32.960938 C 427.03002 32.971058 427.08015 33.335588 427.15234 33.769531 C 427.33492 34.86707 427.33054 35.081524 427.11523 35.177734 C 426.96688 35.244024 426.93063 35.236607 426.83203 35.117188 C 426.70812 34.967112 426.61392 34.551757 426.49805 33.644531 L 426.42188 33.050781 L 426.0918 33.095703 C 425.91508 33.119023 425.75661 33.148882 425.73242 33.164062 L 425.73047 33.164062 L 425.73047 33.166016 C 425.71447 33.180636 425.7364 33.500028 425.7793 33.876953 C 425.89728 34.917263 425.88423 35.270783 425.72656 35.353516 C 425.57327 35.433966 425.37555 35.352809 425.30859 35.181641 C 425.28439 35.120021 425.22011 34.652547 425.16602 34.144531 C 425.11162 33.636515 425.06323 33.218043 425.05664 33.212891 C 425.05064 33.207591 424.89137 33.218538 424.70508 33.236328 L 424.36914 33.267578 L 424.4082 34.275391 C 424.4517 35.363704 424.42516 35.480469 424.13086 35.480469 C 423.8683 35.480469 423.79111 35.153203 423.77344 33.96875 L 423.76367 33.316406 L 423.38281 33.316406 L 423.00195 33.316406 L 423.00977 34.345703 C 423.01477 35.267191 423.00113 35.386291 422.89844 35.460938 C 422.74534 35.570735 422.64385 35.567231 422.51953 35.445312 C 422.43543 35.362763 422.41602 35.167002 422.41602 34.330078 L 422.41602 33.318359 L 422.0625 33.318359 C 421.71287 33.318359 421.70765 33.321132 421.67578 33.525391 C 421.65808 33.63918 421.63133 34.083518 421.61523 34.513672 C 421.58393 35.338798 421.53429 35.482422 421.28125 35.482422 C 420.99228 35.482422 420.96588 35.364627 421.01172 34.271484 L 421.05469 33.253906 L 420.80078 33.253906 C 420.6608 33.253906 420.50061 33.23883 420.44727 33.21875 C 420.36927 33.18939 420.34383 33.265921 420.31055 33.615234 C 420.18975 34.880592 420.1291 35.222429 420.00781 35.330078 C 419.90769 35.418988 419.85518 35.426398 419.72266 35.367188 C 419.57451 35.300998 419.5615 35.259517 419.56445 34.894531 C 419.5654 34.674955 419.60284 34.198414 419.64844 33.835938 C 419.70164 33.411974 419.71053 33.205146 419.67383 33.164062 L 419.67188 33.164062 L 419.67188 33.162109 L 419.66992 33.162109 L 419.66797 33.162109 L 419.66602 33.160156 L 419.66406 33.158203 L 419.66211 33.158203 C 419.62411 33.146933 419.45918 33.118856 419.29688 33.097656 L 419.00195 33.058594 L 418.88867 33.873047 C 418.74075 34.932413 418.67254 35.157312 418.47852 35.205078 C 418.10289 35.297528 418.05692 35.003544 418.26172 33.794922 C 418.33302 33.374781 418.39249 33.01393 418.39258 32.992188 L 418.39258 32.990234 L 418.39062 32.988281 C 418.38978 32.987568 418.38587 32.985106 418.38477 32.984375 C 418.30278 32.938729 417.77223 32.863364 417.70508 32.890625 C 417.69128 32.904125 417.60494 33.283227 417.51367 33.732422 C 417.30622 34.754836 417.21934 34.974609 417.01562 34.974609 C 416.65328 34.974609 416.63768 34.822865 416.89062 33.615234 C 417.00421 33.072668 417.04344 32.780877 417.01367 32.720703 L 417.01367 32.71875 L 417.01172 32.716797 L 417.00977 32.714844 L 417.00977 32.712891 L 417.00781 32.712891 L 417.00781 32.710938 C 416.78935 32.641527 416.46005 32.570432 416.4043 32.578125 L 416.40234 32.580078 L 416.40039 32.580078 C 416.38769 32.592728 416.27787 32.981145 416.15625 33.441406 C 415.8833 34.474371 415.81662 34.617758 415.59961 34.642578 C 415.22122 34.685808 415.22085 34.401359 415.59766 33.082031 L 415.7832 32.431641 L 415.45312 32.335938 C 415.28244 32.286918 415.12395 32.26343 415.08789 32.28125 L 415.08789 32.283203 L 415.08594 32.285156 L 415.08594 32.287109 C 415.06514 32.311979 414.95047 32.646119 414.83398 33.03125 C 414.527 34.046414 414.41723 34.273438 414.22461 34.273438 C 413.84009 34.273438 413.84184 34.028863 414.23633 32.822266 L 414.48828 32.050781 L 414.16406 31.943359 C 413.89865 31.856889 413.83075 31.854638 413.78711 31.923828 C 413.75761 31.970258 413.61252 32.349455 413.46289 32.765625 C 413.31326 33.181795 413.12541 33.595732 413.04492 33.6875 C 412.91191 33.839196 412.88264 33.847763 412.7207 33.775391 C 412.56215 33.704561 412.54494 33.669363 412.57422 33.458984 C 412.59232 33.328962 412.744 32.868242 412.91016 32.433594 C 413.06615 32.025584 413.17259 31.663584 413.16211 31.601562 L 413.16211 31.599609 C 413.13411 31.575619 412.98494 31.507201 412.83203 31.449219 L 412.55273 31.345703 L 412.42773 31.636719 C 412.35753 31.797359 412.29883 31.944346 412.29883 31.962891 C 412.29883 32.081917 411.69633 33.219216 411.60156 33.283203 C 411.54716 33.303593 411.42982 33.27523 411.3418 33.21875 C 411.13397 33.085196 411.16092 32.953719 411.5918 31.990234 C 411.77403 31.582723 411.93616 31.21674 411.95312 31.175781 L 411.95508 31.173828 L 411.95508 31.171875 L 411.95508 31.169922 L 411.95508 31.167969 L 411.95508 31.166016 L 411.95312 31.164062 C 411.91774 31.085773 411.46836 30.835937 411.34961 30.835938 C 411.33611 30.835938 411.16162 31.158853 410.96289 31.552734 C 410.461 32.547481 410.36833 32.681641 410.19141 32.681641 C 410.10951 32.681641 410.00627 32.637624 409.96094 32.583984 C 409.84847 32.451037 409.93457 32.184638 410.38281 31.289062 C 410.57956 30.895934 410.74219 30.561614 410.74219 30.546875 L 410.74219 30.544922 L 410.74023 30.544922 L 410.73828 30.542969 C 410.69585 30.489525 410.23881 30.263672 410.16602 30.263672 L 410.16406 30.263672 L 410.16211 30.263672 C 410.16098 30.264065 410.1592 30.265401 410.1582 30.265625 C 410.1063 30.302585 409.90985 30.609877 409.70508 30.980469 C 409.17924 31.932095 409.05972 32.077081 408.8418 32.023438 C 408.7489 32.000538 408.65465 31.925023 408.63281 31.857422 C 408.59071 31.727225 408.86659 31.139697 409.33008 30.371094 C 409.46434 30.14845 409.56752 29.956694 409.56836 29.923828 L 409.56836 29.921875 L 409.56641 29.921875 L 409.56641 29.919922 C 409.48232 29.848544 409.03197 29.591702 408.96484 29.574219 L 408.96289 29.572266 L 408.96094 29.572266 L 408.96094 29.574219 L 408.95898 29.574219 C 408.94878 29.585479 408.74632 29.909793 408.50781 30.294922 C 407.99031 31.1306 407.76595 31.376091 407.57422 31.316406 C 407.25024 31.215552 407.34949 30.911968 408.05469 29.839844 C 408.24834 29.54547 408.40625 29.283164 408.40625 29.257812 L 408.40625 29.255859 L 408.40625 29.253906 C 408.406 29.25298 408.40467 29.249035 408.4043 29.248047 C 408.39049 29.218718 408.32993 29.165728 408.25977 29.123047 C 408.17937 29.074257 408.05175 28.994461 407.97461 28.945312 C 407.84015 28.859662 407.81395 28.883668 407.36719 29.527344 C 406.87026 30.24335 406.58239 30.582031 406.4668 30.582031 C 406.4275 30.582031 406.33643 30.524464 406.26562 30.455078 C 406.09134 30.284158 406.14792 30.159427 406.79492 29.251953 L 407.31641 28.517578 L 407.13086 28.369141 C 406.74642 28.060252 406.78021 28.043083 406.16992 28.832031 C 405.85934 29.233571 405.54537 29.604353 405.47266 29.654297 C 405.28736 29.781573 405.06922 29.690043 405.04297 29.474609 C 405.02037 29.290149 405.21774 28.986528 405.88281 28.185547 L 406.25977 27.732422 L 406.11523 27.613281 C 405.65861 27.225683 405.76505 27.188123 405.09766 27.966797 C 404.42333 28.753563 404.28393 28.867463 404.08398 28.794922 C 403.73127 28.666961 403.84412 28.423573 404.70312 27.466797 C 404.99073 27.146473 405.22656 26.875394 405.22656 26.865234 C 405.22656 26.855114 405.10609 26.750742 404.95898 26.634766 L 404.69141 26.425781 L 403.95898 27.167969 C 403.56938 27.563038 403.20621 27.888426 403.13672 27.908203 L 403.13477 27.908203 C 403.01383 27.908203 402.82422 27.705988 402.82422 27.576172 C 402.82422 27.468841 403.18926 27.041386 403.84375 26.378906 L 404.25586 25.960938 L 403.99609 25.714844 L 403.73828 25.466797 L 403.0293 26.140625 C 402.63883 26.510628 402.2549 26.832792 402.17578 26.857422 C 401.98184 26.917802 401.75586 26.702811 401.81641 26.515625 C 401.83991 26.442555 402.18434 26.083906 402.58008 25.716797 L 403.29688 25.048828 L 403.08203 24.806641 C 402.96681 24.677919 402.84982 24.572906 402.81836 24.566406 L 402.81641 24.566406 C 402.78961 24.566406 402.5022 24.794125 402.17578 25.074219 C 401.84936 25.354312 401.46955 25.649455 401.33203 25.730469 L 401.08203 25.878906 L 400.94727 25.748047 C 400.87357 25.675767 400.81445 25.586566 400.81445 25.550781 C 400.81445 25.443011 401.28977 24.972539 401.84375 24.533203 C 402.12173 24.312736 402.35111 24.108182 402.36719 24.068359 L 402.36914 24.066406 L 402.36914 24.064453 C 402.36614 24.029073 402.27705 23.894271 402.16992 23.761719 C 401.97206 23.516712 401.96655 23.514393 401.82031 23.625 C 400.23785 24.821752 400.10751 24.888384 399.95703 24.564453 C 399.89133 24.423001 399.90509 24.381208 400.07227 24.208984 C 400.17652 24.1016 400.55822 23.792067 400.91992 23.521484 L 401.57617 23.029297 L 401.38477 22.779297 C 401.27907 22.64149 401.15905 22.531549 401.11719 22.535156 C 401.07539 22.538456 400.74958 22.742449 400.39258 22.988281 C 399.49093 23.609188 399.37746 23.662117 399.20117 23.541016 C 398.88925 23.326734 399.07741 23.10207 400.16992 22.388672 L 400.80859 21.970703 L 400.61133 21.689453 C 400.50905 21.543598 400.39024 21.433025 400.33984 21.433594 C 400.33889 21.433734 400.33403 21.435247 400.33203 21.435547 C 400.28823 21.452097 399.91813 21.670232 399.51172 21.919922 C 399.10535 22.16961 398.70717 22.391885 398.625 22.412109 C 398.43638 22.458539 398.28125 22.336491 398.28125 22.140625 C 398.28125 21.965821 398.52332 21.776333 399.43359 21.242188 C 399.76378 21.048416 400.0332 20.877881 400.0332 20.863281 C 400.0332 20.862298 400.03333 20.858597 400.0332 20.857422 C 400.01797 20.774399 399.77494 20.348893 399.7168 20.304688 L 399.71484 20.304688 L 399.71289 20.302734 C 399.65949 20.296934 399.38467 20.424283 399.08398 20.595703 C 398.4401 20.962748 397.90063 21.2217 397.78125 21.222656 C 397.73775 21.223002 397.65178 21.147391 397.58984 21.054688 C 397.47797 20.887283 397.47919 20.885624 397.71289 20.689453 C 397.84228 20.580824 398.26353 20.323145 398.65039 20.117188 C 399.03728 19.911233 399.3624 19.73518 399.37305 19.726562 L 399.37305 19.724609 L 399.375 19.724609 L 399.375 19.722656 L 399.375 19.720703 C 399.37791 19.651728 399.13051 19.185176 399.06055 19.126953 L 399.05859 19.125 L 399.05664 19.125 L 399.05469 19.123047 L 399.05273 19.123047 C 399.02593 19.123047 398.6189 19.309529 398.14844 19.537109 C 397.20115 19.995355 397.01998 20.031573 396.9082 19.791016 C 396.79717 19.551981 396.95896 19.423574 397.94141 18.953125 L 398.79688 18.542969 L 398.6543 18.244141 C 398.5764 18.080126 398.50783 17.936936 398.50195 17.925781 C 398.49595 17.914641 398.11401 18.065114 397.65234 18.259766 C 397.19067 18.454428 396.72525 18.629589 396.61914 18.650391 C 396.39138 18.695071 396.25105 18.567811 396.2832 18.347656 C 396.3092 18.170139 396.59165 18.007679 397.49023 17.652344 C 397.85655 17.507476 398.17029 17.369003 398.1875 17.341797 L 398.1875 17.339844 L 398.1875 17.337891 C 398.21608 17.266736 398.03318 16.768175 397.96094 16.707031 C 397.95983 16.706275 397.95808 16.705597 397.95703 16.705078 L 397.95508 16.705078 L 397.95312 16.705078 C 397.92863 16.705078 397.56573 16.835221 397.14648 16.994141 C 396.72723 17.153068 396.25838 17.299502 396.10352 17.320312 C 395.84932 17.354482 395.81562 17.344049 395.76367 17.207031 C 395.73147 17.123581 395.72078 17.018045 395.73828 16.972656 C 395.78408 16.854748 396.26428 16.631252 397.06055 16.357422 L 397.75 16.119141 L 397.66406 15.835938 C 397.61626 15.680376 397.56002 15.528248 397.54102 15.498047 L 397.53906 15.498047 L 397.53711 15.496094 C 397.48005 15.481134 397.13094 15.564644 396.72852 15.693359 C 396.29958 15.830556 395.82074 15.961379 395.66406 15.982422 C 395.41554 16.015842 395.3694 16.001094 395.30273 15.878906 C 395.26003 15.801866 395.24367 15.696093 395.26367 15.644531 C 395.31327 15.518053 395.77824 15.323972 396.59961 15.083984 L 397.28125 14.884766 L 397.26562 14.648438 C 397.23573 14.156553 397.22074 14.151611 396.35742 14.382812 C 395.27613 14.672395 395.08084 14.699434 394.95117 14.572266 C 394.78603 14.410309 394.82208 14.236023 395.04492 14.123047 C 395.155 14.067237 395.62668 13.924856 396.0918 13.806641 C 396.55691 13.688421 396.94692 13.582184 396.95898 13.570312 L 396.96094 13.570312 L 396.96094 13.568359 C 396.99234 13.503479 396.82503 12.972712 396.76172 12.929688 L 396.76172 12.927734 L 396.75977 12.927734 L 396.75977 12.925781 L 396.75781 12.925781 C 396.72601 12.931181 396.3267 13.010481 395.87305 13.101562 C 394.86298 13.304335 394.68173 13.308705 394.58789 13.136719 C 394.50904 12.992232 394.51122 12.88767 394.64453 12.796875 L 393.67188 12.796875 z M 397.36328 12.796875 C 398.13074 16.232372 399.58312 19.400383 401.70898 22.273438 C 404.66757 26.271949 408.77287 29.35306 413.48242 31.107422 C 415.70464 31.935228 418.03491 32.451911 420.55859 32.677734 C 421.65585 32.775914 424.76113 32.709111 425.88086 32.5625 C 428.27644 32.248841 430.40445 31.702156 432.43555 30.882812 C 439.12419 28.184589 444.34882 22.934825 446.89453 16.353516 C 447.34937 15.177645 447.70966 13.995549 447.97656 12.796875 L 447.29297 12.796875 C 447.2637 12.84395 447.22821 12.884749 447.18555 12.914062 C 446.91595 13.099257 446.61027 13.007594 446.46484 12.796875 L 445.4375 12.796875 C 445.41166 12.90498 445.38588 13.010353 445.36328 13.105469 C 445.17675 13.890714 444.86897 14.84612 444.50977 15.748047 C 444.16896 16.603714 443.26461 18.394594 442.77148 19.193359 C 441.1828 21.766744 439.05705 24.069441 436.6543 25.816406 C 434.61019 27.302624 431.78348 28.703372 429.66211 29.28125 C 429.33113 29.37141 428.95891 29.483452 428.83398 29.529297 C 428.70903 29.575137 428.40223 29.658795 428.15234 29.716797 C 427.90242 29.774797 427.63973 29.835019 427.56836 29.851562 C 427.27959 29.918443 426.35583 30.07122 425.65234 30.167969 C 424.92859 30.267489 421.64881 30.346679 420.78516 30.285156 C 420.17141 30.241446 418.57326 30.005433 417.96289 29.869141 C 417.64159 29.797391 417.13802 29.687788 416.84375 29.623047 C 414.54878 29.118154 411.73881 27.870397 409.43359 26.333984 C 407.28769 24.90378 405.27278 22.993141 403.75977 20.955078 C 402.23128 18.896128 400.88824 16.272539 400.30273 14.205078 C 400.21083 13.880482 400.0946 13.510393 400.04492 13.380859 C 399.99384 13.247495 399.93494 13.045959 399.87305 12.796875 L 398.86719 12.796875 C 398.85181 12.815796 398.83522 12.835067 398.81641 12.853516 C 398.70698 12.96088 398.58458 13.011719 398.42578 13.011719 C 398.2353 13.011719 398.17275 12.975226 398.06445 12.804688 C 398.06292 12.802281 398.06204 12.799289 398.06055 12.796875 L 397.36328 12.796875 z M 401.09766 12.796875 C 401.47979 14.305061 401.99138 15.616752 402.73047 17.060547 C 403.8716 19.289782 405.05824 20.899301 407.08203 22.962891 C 407.52619 23.415771 408.85781 24.506663 409.6543 25.068359 C 411.48294 26.357956 413.95278 27.576324 415.91797 28.160156 C 416.29282 28.271512 416.71657 28.403926 416.85938 28.455078 C 417.40875 28.651848 419.85492 29.051537 421.04492 29.138672 C 421.24126 29.153132 422.1463 29.155058 423.05664 29.142578 C 425.06041 29.115218 425.8759 29.020214 427.95312 28.568359 C 429.45254 28.24219 430.9065 27.711318 432.63086 26.859375 C 434.01652 26.174779 434.8398 25.678364 435.99609 24.830078 C 436.74941 24.277414 437.12079 23.967288 438.30273 22.910156 C 439.08639 22.209249 440.37634 20.66941 441.21094 19.439453 C 442.25037 17.907719 443.19717 16.018116 443.76172 14.347656 C 443.99168 13.667235 444.14327 13.205301 444.25781 12.796875 L 441.20312 12.796875 A 19.52389 19.52389 0 0 1 439.20508 17.011719 C 439.19202 17.033182 439.17915 17.054769 439.16602 17.076172 A 19.52389 19.52389 0 0 1 438.4707 18.115234 C 438.12767 18.599889 437.77108 19.073583 437.38672 19.521484 C 436.84947 20.147544 436.25972 20.72035 435.64844 21.269531 A 19.52389 19.52389 0 0 1 435.51758 21.384766 C 433.63528 23.044986 431.43403 24.331001 429.01367 25.158203 C 427.72914 25.597216 426.39204 25.923735 425.00391 26.091797 C 424.75749 26.121635 424.40904 26.147632 424.02539 26.169922 A 19.52389 19.52389 0 0 1 423.02734 26.214844 A 19.52389 19.52389 0 0 1 422.66602 26.21875 A 19.52389 19.52389 0 0 1 422.60938 26.214844 C 422.24687 26.220165 421.85004 26.228678 421.66211 26.214844 C 420.1155 26.100924 419.25752 25.969966 417.92969 25.646484 C 417.79379 25.613378 417.6681 25.553672 417.5332 25.517578 A 19.52389 19.52389 0 0 1 416.58984 25.208984 C 415.9959 25.015759 415.40519 24.823697 414.83594 24.574219 A 19.52389 19.52389 0 0 1 414.33398 24.320312 C 413.67255 24.006898 413.01782 23.68379 412.39844 23.298828 A 19.52389 19.52389 0 0 1 412.03906 23.044922 C 411.39699 22.625346 410.76435 22.192324 410.17773 21.701172 A 19.52389 19.52389 0 0 1 408.2207 19.828125 C 407.78437 19.343885 407.38227 18.830982 406.99805 18.304688 A 19.52389 19.52389 0 0 1 406.38086 17.410156 C 406.28131 17.255743 406.18676 17.098771 406.0918 16.941406 A 19.52389 19.52389 0 0 1 404.13086 12.796875 L 401.09766 12.796875 z M 403.50586 12.947266 L 403.50781 12.947266 L 403.50977 12.947266 C 403.51114 12.947337 403.51217 12.947266 403.51367 12.947266 C 403.59447 12.947266 403.66612 13.072319 403.77539 13.408203 C 403.85789 13.662037 403.99102 14.032388 404.07227 14.230469 C 404.17915 14.490881 404.20157 14.609876 404.15039 14.660156 C 404.05989 14.748966 403.94706 14.741906 403.19531 14.597656 C 402.30346 14.4265 402.28711 14.421047 402.28711 14.296875 C 402.28711 14.146273 403.34029 12.983527 403.50586 12.947266 z M 441.81836 12.947266 L 441.82031 12.947266 C 441.82169 12.94732 441.82467 12.947269 441.82617 12.947266 L 441.82812 12.947266 C 441.96785 12.965839 443.04883 14.169639 443.04883 14.308594 C 443.04883 14.446563 443.02329 14.455494 442.16211 14.599609 C 441.73208 14.671559 441.34911 14.730469 441.31055 14.730469 C 441.1421 14.730469 441.16596 14.53692 441.43359 13.767578 C 441.63723 13.18218 441.74048 12.960571 441.81836 12.947266 z M 398.88281 13.673828 C 398.89241 13.673262 398.90235 13.673566 398.91211 13.673828 C 399.0805 13.678528 399.25649 13.80632 399.33984 14.001953 C 399.45531 14.273058 399.41734 14.427315 399.19141 14.601562 C 399.00311 14.74684 398.87286 14.758798 398.68359 14.652344 C 398.25006 14.40849 398.31654 13.858413 398.79883 13.691406 C 398.8265 13.681799 398.85403 13.675527 398.88281 13.673828 z M 446.47461 13.710938 C 446.78563 13.710938 446.94336 13.873466 446.94336 14.191406 C 446.94336 14.377238 446.7469 14.666016 446.62109 14.666016 C 446.58969 14.666016 446.52398 14.678629 446.47656 14.693359 C 446.22271 14.772009 445.9707 14.517945 445.9707 14.1875 C 445.9707 13.847746 446.11562 13.710937 446.47461 13.710938 z M 404.29297 14.984375 L 404.29492 14.984375 L 404.29688 14.984375 L 404.29883 14.984375 L 404.30078 14.984375 L 404.30273 14.986328 L 404.30469 14.986328 L 404.30664 14.988281 C 404.42305 15.078129 405.11612 16.504888 405.10742 16.638672 L 405.10742 16.640625 L 405.10547 16.642578 L 405.10547 16.644531 L 405.10352 16.646484 C 405.02022 16.704214 404.25311 16.705041 403.61719 16.644531 C 403.31523 16.615771 403.22395 16.581432 403.20703 16.494141 C 403.17727 16.340416 404.12671 15.025277 404.29297 14.984375 z M 441.0293 14.984375 L 441.03125 14.984375 L 441.0332 14.984375 C 441.19328 15.00607 442.17352 16.395229 442.12109 16.529297 C 442.09849 16.586867 441.93792 16.635619 441.67969 16.662109 C 441.11754 16.719749 440.32121 16.712514 440.23438 16.652344 L 440.23242 16.652344 L 440.23242 16.650391 L 440.23047 16.648438 L 440.23047 16.646484 L 440.23047 16.644531 L 440.22852 16.642578 C 440.22117 16.510141 440.91186 15.078175 441.02539 14.988281 L 441.02734 14.986328 L 441.0293 14.986328 L 441.0293 14.984375 z M 399.4082 15.308594 C 399.41827 15.307744 399.42752 15.308365 399.4375 15.308594 C 399.54011 15.310894 399.63913 15.369968 399.75977 15.488281 C 400.05042 15.773341 400.00268 16.124502 399.64648 16.310547 C 399.47018 16.402647 399.43849 16.400973 399.22852 16.289062 C 398.8742 16.100207 398.8498 15.632374 399.18164 15.404297 C 399.26389 15.347702 399.33772 15.31454 399.4082 15.308594 z M 445.92383 15.355469 C 446.13592 15.357669 446.28481 15.461585 446.36328 15.664062 C 446.43348 15.845155 446.3202 16.175818 446.16016 16.259766 C 445.96422 16.362604 445.65487 16.331862 445.51562 16.195312 C 445.27889 15.96314 445.38688 15.465088 445.69141 15.386719 C 445.77621 15.364909 445.85313 15.354699 445.92383 15.355469 z M 400.10547 16.945312 C 400.28607 16.935413 400.47004 17.028561 400.57031 17.21875 C 400.6918 17.449206 400.63713 17.683564 400.42188 17.849609 C 400.19635 18.023576 400.03691 18.007257 399.81445 17.789062 C 399.60187 17.580578 399.57542 17.375296 399.73047 17.158203 C 399.82717 17.022845 399.96501 16.952997 400.10547 16.945312 z M 405.29102 16.957031 C 405.2922 16.956704 405.29381 16.957197 405.29492 16.957031 L 405.29688 16.957031 C 405.34107 16.957031 405.4471 17.079718 405.53125 17.228516 C 405.61535 17.377321 405.82377 17.704775 405.99609 17.957031 C 406.16303 18.201404 406.30211 18.428892 406.31055 18.472656 L 406.31055 18.474609 C 406.31055 18.475636 406.31064 18.479412 406.31055 18.480469 C 406.30474 18.512998 406.2559 18.557926 406.19727 18.582031 C 406.13477 18.607701 405.69565 18.642506 405.22266 18.660156 C 404.3859 18.691366 404.36328 18.688677 404.36328 18.560547 C 404.36328 18.336367 405.14031 16.998595 405.29102 16.957031 z M 440.02344 16.957031 L 440.02539 16.957031 C 440.02615 16.957061 440.0278 16.957031 440.0293 16.957031 L 440.03125 16.957031 L 440.0332 16.958984 L 440.03516 16.958984 C 440.18678 17.001192 440.97266 18.352559 440.97266 18.578125 C 440.97266 18.660245 440.86234 18.676192 440.27539 18.669922 C 439.89163 18.665922 439.51865 18.649526 439.44727 18.634766 C 439.37587 18.619946 439.25222 18.594945 439.17188 18.578125 C 439.10161 18.563416 439.03917 18.524814 439.02539 18.492188 C 439.02455 18.489583 439.02372 18.483424 439.02344 18.480469 C 439.03244 18.433749 439.17188 18.201404 439.33984 17.957031 C 439.51323 17.704774 439.7196 17.377315 439.79688 17.228516 C 439.87106 17.085717 439.97017 16.966308 440.02344 16.957031 z M 445.23047 16.957031 C 445.66783 16.957031 445.86264 17.422308 445.5625 17.746094 C 445.21117 18.125097 444.70397 17.925834 444.71875 17.416016 C 444.72775 17.131647 444.92038 16.957031 445.23047 16.957031 z M 400.85742 18.488281 C 400.87097 18.487344 400.88473 18.487921 400.89844 18.488281 C 401.03005 18.491681 401.16775 18.555216 401.28125 18.6875 C 401.48418 18.924003 401.467 19.207971 401.24023 19.392578 C 400.90017 19.669496 400.35763 19.361574 400.42773 18.931641 C 400.47198 18.661438 400.65413 18.502344 400.85742 18.488281 z M 444.4375 18.490234 C 444.84302 18.510304 445.06668 18.95523 444.78711 19.330078 C 444.74081 19.392158 444.59596 19.459616 444.46484 19.480469 C 444.2659 19.512139 444.19993 19.492064 444.06055 19.355469 C 443.86878 19.167375 443.85493 19.077193 443.98438 18.773438 C 444.04688 18.626673 444.13591 18.538833 444.25391 18.509766 C 444.31831 18.493906 444.37957 18.487384 444.4375 18.490234 z M 406.50391 18.802734 C 406.55351 18.802734 407.40128 19.784183 407.64258 20.121094 C 407.75303 20.275331 407.52464 20.370892 406.78125 20.482422 C 405.97811 20.602906 405.81296 20.609709 405.75977 20.525391 C 405.75919 20.524472 405.7583 20.520624 405.75781 20.519531 C 405.70751 20.360306 406.36039 18.852277 406.5 18.804688 L 406.50195 18.804688 L 406.50391 18.802734 z M 438.80664 18.804688 L 438.80859 18.804688 C 438.90819 18.8046 439.01321 18.997917 439.3457 19.816406 C 439.48424 20.157455 439.58125 20.467369 439.57227 20.523438 L 439.57227 20.525391 C 439.51767 20.612151 439.00636 20.586794 438.375 20.464844 C 437.60239 20.315612 437.51296 20.235126 437.81055 19.960938 C 437.89255 19.885397 438.13124 19.59509 438.34375 19.314453 C 438.54964 19.042584 438.75439 18.818458 438.80664 18.804688 z M 401.87305 19.949219 C 402.03733 19.949219 402.35156 20.304571 402.35156 20.490234 C 402.35156 20.59208 402.27654 20.733531 402.16211 20.845703 C 402.05775 20.948046 401.93208 21.029624 401.88477 21.027344 C 401.61228 21.014564 401.31445 20.744571 401.31445 20.511719 C 401.31445 20.222129 401.58449 19.949219 401.87305 19.949219 z M 443.50391 20.007812 C 443.97557 20.015113 444.18984 20.422835 443.88672 20.800781 C 443.58177 21.180989 442.91605 20.896946 443.01172 20.427734 C 443.05772 20.202469 443.22372 20.029087 443.40625 20.011719 C 443.43985 20.008519 443.47241 20.007213 443.50391 20.007812 z M 407.92188 20.521484 C 407.92332 20.5211 407.92434 20.521741 407.92578 20.521484 L 407.92773 20.521484 L 407.92969 20.521484 L 407.93164 20.521484 L 407.93359 20.521484 L 407.93555 20.521484 L 407.9375 20.521484 L 407.93945 20.521484 C 408.06269 20.556223 409.19678 21.663153 409.23242 21.783203 L 409.23242 21.785156 L 409.23242 21.787109 C 409.23242 21.890983 409.07125 21.953884 408.27539 22.169922 C 407.87436 22.278783 407.51591 22.369141 407.47852 22.369141 C 407.33186 22.369141 407.34146 22.14537 407.51172 21.552734 C 407.72067 20.825662 407.83056 20.545681 407.92188 20.521484 z M 437.38672 20.521484 L 437.38867 20.521484 L 437.39062 20.521484 C 437.42922 20.521484 437.48852 20.573506 437.52148 20.634766 C 437.63191 20.839441 437.98458 22.175927 437.95703 22.28125 L 437.95703 22.283203 C 437.91043 22.40243 437.78984 22.387434 437.02148 22.171875 C 436.28294 21.964677 436.10156 21.890649 436.10156 21.787109 L 436.10156 21.785156 L 436.10156 21.783203 C 436.11796 21.730933 436.38637 21.437443 436.71094 21.119141 C 437.03555 20.800756 437.3336 20.537464 437.38672 20.521484 z M 442.51172 21.412109 C 442.6231 21.410909 442.73967 21.44486 442.83984 21.513672 C 443.02518 21.640962 443.04297 22.104246 442.86914 22.257812 C 442.37152 22.697631 441.72978 22.097202 442.14453 21.580078 C 442.23273 21.470183 442.36849 21.413607 442.51172 21.412109 z M 402.79688 21.414062 C 403.27222 21.414062 403.5009 21.948899 403.16602 22.277344 C 403.01093 22.42942 402.8748 22.4585 402.67578 22.386719 C 402.17175 22.204957 402.27023 21.414063 402.79688 21.414062 z M 409.54492 22.048828 C 409.54804 22.048385 409.55152 22.048828 409.55469 22.048828 L 409.55664 22.048828 L 409.55859 22.048828 C 409.60549 22.057828 409.81224 22.206179 410.02734 22.384766 C 410.24938 22.569114 410.55607 22.805656 410.70703 22.910156 C 411.14947 23.216421 411.12097 23.246812 409.95312 23.703125 C 409.59008 23.844973 409.28455 23.958984 409.27344 23.958984 C 409.13707 23.958984 409.13264 23.602319 409.26367 22.882812 C 409.37149 22.292456 409.44821 22.062578 409.54492 22.048828 z M 435.77148 22.054688 C 435.77412 22.054233 435.77684 22.054878 435.7793 22.054688 C 435.8204 22.051687 435.83669 22.083586 435.87109 22.128906 C 435.96149 22.248385 436.1958 23.614406 436.1582 23.804688 C 436.1239 23.977904 436.04871 23.971069 435.44727 23.740234 C 434.75128 23.473127 434.35156 23.274839 434.35156 23.197266 L 434.35156 23.195312 L 434.35156 23.193359 C 434.37616 23.143129 434.64875 22.900727 434.97656 22.640625 C 435.51541 22.213093 435.68968 22.06878 435.77148 22.054688 z M 441.35156 22.75 C 441.35729 22.749523 441.36356 22.75 441.36914 22.75 C 441.51875 22.75 441.75995 22.863804 441.83008 22.966797 C 441.93575 23.122016 441.87901 23.457934 441.7207 23.613281 C 441.50567 23.824135 441.26545 23.81365 441.0293 23.582031 C 440.87552 23.431329 440.84618 23.357503 440.87891 23.214844 C 440.92696 23.005494 441.17392 22.764794 441.35156 22.75 z M 403.91992 22.761719 C 404.02802 22.759719 404.14529 22.794062 404.25781 22.880859 C 404.48626 23.057084 404.49721 23.430043 404.2793 23.630859 C 404.08003 23.814486 403.81333 23.807567 403.61523 23.613281 C 403.25314 23.258163 403.53378 22.769101 403.91992 22.761719 z M 411.30859 23.386719 L 411.31055 23.386719 C 411.31332 23.386655 411.31671 23.386719 411.31836 23.386719 C 411.35756 23.391019 411.59447 23.529883 411.84766 23.697266 C 412.10487 23.867301 412.43978 24.067642 412.59375 24.144531 C 412.77742 24.236221 412.86889 24.320795 412.85547 24.388672 L 412.85352 24.390625 C 412.85319 24.391582 412.85205 24.395448 412.85156 24.396484 C 412.81206 24.465557 412.47939 24.683531 412.08789 24.894531 C 411.67735 25.115792 411.28577 25.29679 411.21875 25.296875 C 411.10375 25.297024 411.1001 25.247675 411.13086 24.453125 C 411.16236 23.640058 411.20068 23.400827 411.30859 23.386719 z M 434.01562 23.386719 L 434.01758 23.386719 L 434.01953 23.386719 L 434.02148 23.386719 C 434.13299 23.386719 434.1792 23.701282 434.18359 24.5 C 434.18659 25.129567 434.17014 25.266236 434.08984 25.28125 C 433.9123 25.314374 432.51051 24.536415 432.4668 24.384766 L 432.4668 24.382812 L 432.4668 24.380859 C 432.4698 24.336189 432.59282 24.233584 432.74219 24.152344 C 432.89389 24.069824 433.22912 23.86236 433.48633 23.693359 C 433.73548 23.529641 433.96803 23.39499 434.01562 23.386719 z M 440.18945 24.023438 C 440.31637 24.021338 440.44425 24.073318 440.55273 24.179688 C 440.80026 24.42247 440.72518 24.829054 440.4082 24.970703 C 439.86786 25.212135 439.42888 24.618048 439.83203 24.191406 C 439.93596 24.081421 440.06253 24.025588 440.18945 24.023438 z M 405.11523 24.029297 C 405.2396 24.026697 405.37219 24.072385 405.49023 24.179688 C 405.7145 24.38353 405.72099 24.673961 405.50391 24.886719 L 405.50195 24.886719 C 405.247 25.136762 404.82772 25.051979 404.68945 24.724609 C 404.53206 24.351937 404.79739 24.03603 405.11523 24.029297 z M 432.13477 24.564453 L 432.13672 24.564453 L 432.13867 24.564453 L 432.14062 24.564453 L 432.14258 24.566406 L 432.14453 24.566406 L 432.14648 24.566406 L 432.14844 24.566406 L 432.14844 24.568359 C 432.21114 24.639579 432.21404 25.361983 432.15039 25.998047 C 432.11549 26.348486 432.08844 26.412816 431.97852 26.425781 C 431.80345 26.446431 430.45508 25.495396 430.45508 25.351562 L 430.45508 25.349609 L 430.45508 25.347656 C 430.52427 25.246541 431.97866 24.569198 432.13477 24.564453 z M 413.17773 24.572266 C 413.17866 24.572104 413.1825 24.572342 413.18359 24.572266 C 413.34225 24.573298 414.80442 25.239429 414.875 25.34375 L 414.87695 25.345703 L 414.87695 25.347656 L 414.87695 25.349609 C 414.87695 25.430629 414.63556 25.6249 414.00586 26.050781 C 413.4222 26.445532 413.29724 26.496466 413.2207 26.375 C 413.14737 26.258485 413.10553 24.714943 413.16797 24.580078 L 413.16992 24.578125 L 413.16992 24.576172 L 413.17188 24.576172 L 413.17188 24.574219 L 413.17383 24.574219 L 413.17773 24.572266 z M 406.41406 25.199219 C 406.42813 25.198206 406.4449 25.198481 406.45898 25.199219 C 406.57621 25.206743 406.69502 25.274441 406.81445 25.402344 C 406.99644 25.597247 406.99992 25.802155 406.82617 26.019531 C 406.56561 26.344408 406.03128 26.186341 405.94727 25.759766 C 405.91357 25.588453 405.93793 25.525216 406.10547 25.361328 C 406.20787 25.260863 406.31111 25.206628 406.41406 25.199219 z M 438.88672 25.232422 C 439.34426 25.232422 439.56175 25.667392 439.2793 26.019531 C 439.00729 26.358708 438.375 26.15671 438.375 25.730469 C 438.375 25.457367 438.60549 25.232422 438.88672 25.232422 z M 430.02539 25.480469 C 430.21907 25.470569 430.19553 25.686547 430.07031 26.378906 C 429.99371 26.802539 429.91418 27.191848 429.89453 27.242188 C 429.87493 27.292548 429.81023 27.333984 429.75 27.333984 C 429.59668 27.333984 428.39761 26.283406 428.37891 26.134766 C 428.37891 26.052156 428.5014 25.983971 428.84961 25.875 C 429.10843 25.794 429.48591 25.660389 429.68945 25.580078 C 429.83892 25.521108 429.94962 25.48436 430.02539 25.480469 z M 415.24023 25.519531 C 415.24742 25.519137 415.25497 25.519289 415.26367 25.519531 C 415.58753 25.528615 416.87184 25.97974 416.95312 26.125 C 416.95362 26.126114 416.95474 26.127831 416.95508 26.128906 C 416.95513 26.129474 416.95508 26.134066 416.95508 26.134766 L 416.95508 26.136719 C 416.95494 26.137717 416.9534 26.14147 416.95312 26.142578 C 416.92816 26.217972 416.6508 26.499828 416.31445 26.787109 C 415.71433 27.299693 415.51844 27.409662 415.4375 27.28125 C 415.4192 27.25216 415.34057 26.862737 415.26367 26.416016 C 415.1622 25.826011 415.14359 25.584006 415.19531 25.533203 L 415.19727 25.53125 L 415.19922 25.529297 L 415.20117 25.529297 L 415.20117 25.527344 L 415.20312 25.527344 L 415.20508 25.527344 C 415.21329 25.523838 415.22587 25.52032 415.24023 25.519531 z M 427.91016 26.171875 C 427.91622 26.171713 427.92233 26.171825 427.92773 26.171875 C 428.09199 26.173875 428.06721 26.387756 427.83203 27.138672 C 427.70665 27.539146 427.55988 27.90985 427.50586 27.962891 C 427.41806 28.049041 427.37504 28.025859 427.10547 27.744141 C 426.57983 27.194808 426.1843 26.706089 426.18945 26.615234 L 426.19141 26.613281 L 426.19141 26.611328 L 426.19141 26.609375 L 426.19336 26.607422 C 426.28536 26.534112 427.46907 26.229539 427.89062 26.173828 C 427.89688 26.173028 427.90409 26.172037 427.91016 26.171875 z M 417.42383 26.189453 L 417.42578 26.189453 C 417.70403 26.195064 419.03674 26.521365 419.14062 26.605469 L 419.14258 26.607422 L 419.14258 26.609375 L 419.14258 26.611328 L 419.14453 26.613281 L 419.14453 26.615234 C 419.14527 26.666826 419.01571 26.861041 418.84766 27.056641 C 418.36049 27.623734 417.91987 28.021793 417.82422 27.984375 L 417.82227 27.984375 L 417.82031 27.984375 L 417.81836 27.984375 L 417.81641 27.982422 C 417.72407 27.891999 417.27734 26.511633 417.27734 26.310547 C 417.27734 26.223907 417.32123 26.187171 417.42383 26.189453 z M 407.76758 26.314453 C 407.89261 26.310153 408.02826 26.351545 408.15234 26.447266 C 408.357 26.605133 408.38345 26.930582 408.20898 27.132812 C 407.88009 27.514017 407.20596 27.182807 407.32227 26.697266 C 407.37957 26.458239 407.55916 26.321733 407.76758 26.314453 z M 437.49805 26.314453 L 437.5 26.314453 C 437.78819 26.308406 438.08786 26.535526 438.02539 26.841797 C 438.00309 26.950976 437.93741 27.090729 437.87891 27.154297 C 437.73045 27.315175 437.31177 27.308537 437.14258 27.142578 C 436.97466 26.978208 436.9755 26.694743 437.14648 26.482422 C 437.23733 26.369081 437.36743 26.31813 437.49805 26.314453 z M 419.59375 26.634766 C 419.65375 26.632966 419.74742 26.6413 419.89258 26.65625 C 420.1157 26.67929 420.52678 26.716221 420.80664 26.738281 C 421.11141 26.762265 421.31075 26.811099 421.3457 26.859375 L 421.34766 26.861328 C 421.39096 26.972265 421.29312 27.13648 420.77539 27.824219 C 420.54586 28.129049 420.32987 28.381691 420.27539 28.412109 L 420.27344 28.414062 L 420.27148 28.414062 L 420.26953 28.414062 L 420.26758 28.416016 C 420.23288 28.416016 420.1624 28.350267 420.11133 28.271484 C 419.94856 28.020447 419.48828 26.898652 419.48828 26.753906 C 419.48828 26.714939 419.49191 26.685034 419.50391 26.666016 C 419.5182 26.646988 419.54458 26.636376 419.59375 26.634766 z M 425.72266 26.638672 C 425.78425 26.639063 425.81805 26.65019 425.83398 26.669922 C 425.84564 26.687274 425.84766 26.71333 425.84766 26.748047 C 425.84766 26.877456 425.30118 28.177245 425.17969 28.335938 C 425.14619 28.379668 425.09338 28.416016 425.06445 28.416016 L 425.0625 28.416016 C 424.91266 28.394914 423.95109 27.043581 423.98047 26.892578 C 423.99517 26.817308 424.11271 26.782848 424.45312 26.753906 C 424.70265 26.732716 425.11813 26.693116 425.37695 26.666016 C 425.54566 26.648346 425.65313 26.638232 425.72266 26.638672 z M 422.66797 26.857422 L 423.60742 26.857422 L 423.5918 27.003906 C 423.5828 27.084776 423.3931 27.454775 423.16992 27.826172 C 422.95712 28.180341 422.75101 28.483371 422.69922 28.521484 L 422.69727 28.523438 L 422.69531 28.523438 C 422.65691 28.535937 422.5799 28.495694 422.52539 28.433594 C 422.35215 28.236342 421.75823 27.14873 421.74219 27 C 421.7381 26.962163 421.7381 26.930545 421.75391 26.910156 C 421.80271 26.857312 421.99482 26.857422 422.66797 26.857422 z M 436.07227 27.275391 C 436.19225 27.276491 436.31294 27.336859 436.43945 27.460938 C 436.67099 27.688004 436.65393 27.912068 436.38867 28.144531 L 436.38867 28.146484 C 436.12967 28.373459 435.7328 28.295727 435.5918 27.992188 C 435.48148 27.754805 435.50232 27.659631 435.70898 27.457031 C 435.83321 27.335139 435.9523 27.274334 436.07227 27.275391 z M 409.27734 27.291016 C 409.40216 27.294252 409.53033 27.341755 409.63281 27.445312 C 409.81674 27.631294 409.81127 27.976089 409.62109 28.162109 C 409.31821 28.459152 408.77734 28.198723 408.77734 27.755859 C 408.77734 27.488191 408.98948 27.310886 409.22461 27.292969 C 409.24224 27.29162 409.25951 27.290553 409.27734 27.291016 z M 410.75391 28.171875 C 410.79631 28.170775 410.84075 28.174577 410.88477 28.185547 C 411.30404 28.288749 411.44513 28.734389 411.15039 29.023438 C 410.85566 29.312493 410.40211 29.172919 410.29688 28.761719 C 410.21938 28.459135 410.45701 28.179185 410.75391 28.171875 z M 434.58984 28.181641 C 434.60644 28.182255 434.62267 28.1845 434.63867 28.1875 C 435.05342 28.26594 435.19609 28.704982 434.90625 29.011719 C 434.58253 29.3543 434.02734 29.124573 434.02734 28.648438 C 434.02734 28.423554 434.3407 28.172401 434.58984 28.181641 z M 432.93359 28.960938 C 433.10659 28.949797 433.28416 29.023985 433.40234 29.189453 C 433.55309 29.400538 433.53281 29.547484 433.31836 29.757812 C 433.08441 29.98725 432.80601 30.004384 432.61914 29.800781 C 432.4245 29.588685 432.39337 29.446607 432.49805 29.248047 C 432.59265 29.068839 432.76056 28.972114 432.93359 28.960938 z M 412.33594 28.96875 C 412.35446 28.967733 412.37328 28.968214 412.39258 28.96875 C 412.55873 28.97345 412.67266 29.021152 412.75195 29.117188 C 412.9081 29.306403 412.89947 29.656328 412.73633 29.816406 C 412.44674 30.10041 411.87109 29.851033 411.87109 29.441406 C 411.87109 29.171744 412.05811 28.984009 412.33594 28.96875 z M 414.01172 29.615234 C 414.20535 29.615466 414.40077 29.719137 414.48047 29.943359 C 414.55407 30.150756 414.50131 30.374667 414.34961 30.498047 C 414.00573 30.777965 413.51562 30.537818 413.51562 30.089844 C 413.51562 29.786045 413.76278 29.614935 414.01172 29.615234 z M 431.34375 29.626953 C 431.88907 29.632853 432.02939 30.344888 431.5293 30.568359 C 431.33545 30.654979 431.31754 30.655874 431.13672 30.583984 C 430.96337 30.515074 430.86478 30.395801 430.81055 30.183594 C 430.75205 29.954925 431.06946 29.623789 431.34375 29.626953 z M 429.6543 30.152344 C 429.7118 30.150244 429.76657 30.168901 429.84766 30.207031 C 430.06642 30.30987 430.2233 30.592456 430.16406 30.775391 C 430.14116 30.846031 430.05963 30.958513 429.98438 31.027344 C 429.90828 31.096804 429.75872 31.151494 429.64844 31.150391 C 429.08512 31.144691 428.93094 30.45853 429.43945 30.220703 C 429.53495 30.176053 429.59678 30.154464 429.6543 30.152344 z M 415.70703 30.193359 C 415.86091 30.199459 416.01119 30.248868 416.07617 30.339844 C 416.21815 30.538563 416.2036 30.871711 416.04688 31.025391 C 415.89828 31.171122 415.55423 31.192688 415.38477 31.066406 C 415.13651 30.881464 415.10807 30.550917 415.32031 30.308594 C 415.39521 30.223194 415.55313 30.18723 415.70703 30.193359 z M 427.96875 30.585938 L 427.9707 30.585938 C 428.08413 30.586326 428.18264 30.635768 428.28516 30.736328 C 428.50859 30.955379 428.50365 31.289594 428.27344 31.466797 C 428.04196 31.645378 427.76155 31.636649 427.56445 31.443359 C 427.30861 31.192442 427.35828 30.829933 427.66992 30.671875 C 427.78478 30.613625 427.88052 30.585638 427.96875 30.585938 z M 417.36133 30.607422 C 417.78644 30.587132 418.1495 31.070703 417.76953 31.443359 C 417.66911 31.541849 417.53663 31.597656 417.41016 31.597656 C 416.9933 31.597656 416.70925 31.009625 417.00391 30.755859 C 417.11758 30.657989 417.2423 30.613104 417.36133 30.607422 z M 419.16406 30.896484 C 419.35499 30.892984 419.52656 31.004888 419.61523 31.214844 C 419.72784 31.481482 419.6083 31.758194 419.3418 31.849609 C 419.11335 31.927709 419.11217 31.926063 418.92383 31.851562 C 418.60476 31.72548 418.54014 31.240895 418.81445 31.029297 C 418.92811 30.941617 419.0495 30.898639 419.16406 30.896484 z M 426.17188 30.898438 C 426.5894 30.898438 426.87129 31.4831 426.57812 31.742188 C 426.07909 32.183259 425.33919 31.51889 425.8125 31.054688 C 425.91293 30.956197 426.0454 30.898436 426.17188 30.898438 z M 424.41797 31.083984 C 424.68788 31.073524 424.93945 31.285136 424.93945 31.617188 C 424.93945 31.789767 424.90104 31.872593 424.79297 31.939453 C 424.46456 32.142565 424.19457 32.110731 424.00391 31.84375 C 423.85538 31.635853 423.87627 31.426762 424.06055 31.246094 C 424.16813 31.140623 424.2953 31.088738 424.41797 31.083984 z M 420.89648 31.085938 C 421.07702 31.073708 421.24291 31.163833 421.33984 31.347656 C 421.46903 31.592659 421.45944 31.739304 421.30273 31.904297 C 421.21013 32.001877 421.09237 32.042969 420.91406 32.042969 C 420.42735 32.042969 420.19949 31.503784 420.56641 31.220703 C 420.67399 31.137703 420.78817 31.093276 420.89648 31.085938 z M 422.70312 31.152344 C 423.11669 31.152344 423.34515 31.702215 423.04492 31.976562 C 422.96926 32.045713 422.88418 32.10387 422.85547 32.107422 C 422.82947 32.107422 422.76826 32.119446 422.7207 32.134766 C 422.48214 32.211616 422.14844 31.89419 422.14844 31.589844 C 422.14844 31.367189 422.41936 31.152344 422.70312 31.152344 z " /></g></svg>
