<?xml version="1.0" encoding="UTF-8" standalone="no"?>
<!-- Created with Inkscape (http://www.inkscape.org/) -->

<svg
   width="210mm"
   height="297mm"
   viewBox="0 0 210 297"
   version="1.1"
   id="svg1"
   xml:space="preserve"
   inkscape:version="1.4.2 (ebf0e940d0, 2025-05-08)"
   sodipodi:docname="CitiesOfWonder.svg"
   xmlns:inkscape="http://www.inkscape.org/namespaces/inkscape"
   xmlns:sodipodi="http://sodipodi.sourceforge.net/DTD/sodipodi-0.dtd"
   xmlns="http://www.w3.org/2000/svg"
   xmlns:svg="http://www.w3.org/2000/svg"><sodipodi:namedview
     id="namedview1"
     pagecolor="#ffffff"
     bordercolor="#000000"
     borderopacity="0.25"
     inkscape:showpageshadow="2"
     inkscape:pageopacity="0.0"
     inkscape:pagecheckerboard="0"
     inkscape:deskcolor="#d1d1d1"
     inkscape:document-units="mm"
     inkscape:zoom="0.99953704"
     inkscape:cx="396.68365"
     inkscape:cy="561.25984"
     inkscape:window-width="2560"
     inkscape:window-height="1350"
     inkscape:window-x="0"
     inkscape:window-y="0"
     inkscape:window-maximized="1"
     inkscape:current-layer="layer1" /><defs
     id="defs1" /><g
     inkscape:label="Layer 1"
     inkscape:groupmode="layer"
     id="layer1"><path
       style="fill:#000000"
       d="M 97.856252,220.23265 C 85.243535,218.83911 73.501494,214.46438 63.629912,207.48095 46.55014,195.39825 35.809608,177.30939 33.396381,156.5626 32.873718,152.06921 33.027195,141.92403 33.678987,137.88162 36.393142,121.04842 44.493161,105.9232 56.5457,95.182438 61.980518,90.339138 66.843455,87.062058 73.382294,83.836418 83.398469,78.895408 93.4741,76.584398 105,76.584398 c 11.51519,0 21.56679,2.30402 31.63126,7.25047 7.3666,3.62052 13.5985,8.06644 19.30957,13.77572 11.00132,10.997862 17.83863,24.508312 20.38018,40.271032 0.65179,4.04241 0.80527,14.18759 0.28261,18.68098 -2.48951,21.40254 -13.86627,40.00672 -31.78383,51.9754 -8.72633,5.82906 -18.61036,9.58946 -29.76563,11.32439 -3.30413,0.51387 -13.84428,0.7408 -17.197908,0.37026 z m 9.453828,-4.83622 c 2.95876,-3.1148 3.778,-5.50973 3.15833,-9.23298 -0.19347,-1.16241 -0.16799,-1.25677 0.33933,-1.25677 0.48285,0 0.5314,-0.11876 0.40559,-0.99218 -0.0786,-0.54571 -0.7366,-7.06438 -1.46221,-14.48594 -1.13356,-11.59401 -2.59554,-22.61533 -3.84605,-28.99393 -0.10778,-0.54977 -0.28636,-0.6835 -0.9127,-0.6835 -0.66281,0 -0.79981,0.1214 -0.92062,0.8158 -1.79384,10.31066 -2.62146,16.56589 -3.81864,28.86163 -0.736778,7.56708 -1.404278,14.14529 -1.483338,14.61823 -0.1238,0.74058 -0.0674,0.85989 0.40652,0.85989 0.51378,0 0.53651,0.0921 0.34272,1.38907 -0.35407,2.36962 -0.18398,3.97014 0.597428,5.62191 0.81097,1.71426 4.1512,5.42444 4.88356,5.42444 0.25404,0 1.29358,-0.87555 2.31008,-1.94567 z m -17.027781,-1.85805 c 3.153319,-2.01716 4.478213,-3.92449 4.955583,-7.13412 0.25713,-1.72878 0.35178,-1.94722 0.7937,-1.83165 0.27596,0.0722 0.50175,0.0582 0.50175,-0.031 0,-0.0892 1.06982,-6.71398 2.37738,-14.7217 1.687278,-10.33317 2.605448,-16.83957 3.163068,-22.41426 0.43213,-4.32012 0.7604,-7.88005 0.7295,-7.91095 -0.0309,-0.0309 -0.38523,-0.095 -0.78739,-0.14241 -0.71616,-0.0845 -0.79647,0.0578 -3.904488,6.91354 -1.97018,4.34589 -5.183549,12.30575 -8.475479,20.99469 -4.698092,12.40046 -5.253953,14.0302 -4.878873,14.30446 0.384714,0.28131 0.374532,0.4198 -0.111681,1.51897 -0.888023,2.00752 -1.156556,3.73528 -0.827001,5.32097 0.33124,1.5938 1.270193,3.73542 2.436568,5.55747 l 0.800493,1.25048 0.878288,-0.36697 c 0.483059,-0.20184 1.539921,-0.79022 2.348582,-1.30751 z m 34.542841,-1.5424 c 1.80128,-3.5498 1.93155,-5.74244 0.52949,-8.91204 -0.4785,-1.08172 -0.49167,-1.24112 -0.12472,-1.50943 0.35925,-0.26269 0.13362,-1.03663 -1.81421,-6.22298 -6.31503,-16.81458 -8.84346,-23.19047 -11.63459,-29.3386 -2.99902,-6.60605 -3.07825,-6.74507 -3.79558,-6.66065 -0.40295,0.0474 -0.76169,0.11528 -0.79721,0.1508 -0.24417,0.24417 1.75714,17.24221 2.72901,23.1786 2.82201,17.23765 3.54933,21.7183 3.54933,21.86566 0,0.0861 0.22579,0.0974 0.50176,0.0253 0.44197,-0.11558 0.5366,0.10307 0.79423,1.8353 0.31832,2.14022 0.73271,3.11762 1.97989,4.66992 0.84216,1.04817 3.67069,3.0693 5.22605,3.73426 0.8353,0.35712 0.91978,0.34478 1.35638,-0.19822 0.25608,-0.31848 0.93116,-1.49653 1.50017,-2.61789 z m -50.781388,-4.47823 c 3.235632,-1.02572 5.610612,-3.10147 6.611876,-5.77883 0.473954,-1.26734 0.695803,-1.56677 1.126401,-1.5203 0.464591,0.0501 1.344382,-1.7267 6.587233,-13.3036 3.762011,-8.30702 7.10126,-16.1381 8.82734,-20.70153 1.52697,-4.03704 2.77538,-7.43032 2.77425,-7.54063 -10e-4,-0.1103 -0.29632,-0.33702 -0.65598,-0.5038 -0.63272,-0.29342 -0.82587,-0.0919 -5.960654,6.21771 -2.978051,3.65944 -8.966593,11.61859 -13.646985,18.13771 -7.457176,10.38677 -8.297717,11.65928 -7.938637,12.01836 0.35908,0.35908 0.305903,0.50753 -0.502245,1.40205 -1.443069,1.5973 -2.053716,3.04297 -2.194216,5.19467 -0.128567,1.96894 0.415012,5.00033 1.156017,6.4468 0.339233,0.66219 0.416505,0.6841 1.622876,0.46013 0.696675,-0.12935 1.683401,-0.36728 2.192724,-0.52874 z m 66.353888,-1.55273 c 0.29487,-0.95495 0.45003,-2.36477 0.45137,-4.10104 0.002,-2.9486 -0.3682,-3.98519 -2.11537,-5.91909 -0.80151,-0.88718 -0.85912,-1.04517 -0.50884,-1.39545 0.35027,-0.35028 -0.0443,-1.00704 -3.4848,-5.80065 -2.13389,-2.97311 -5.97235,-8.32268 -8.52991,-11.88794 -2.55756,-3.56526 -6.95115,-9.29704 -9.76352,-12.73728 -4.93581,-6.03773 -5.13602,-6.2445 -5.76439,-5.95313 -0.35803,0.16603 -0.6519,0.39079 -0.65304,0.49948 -0.008,0.78995 5.97638,15.78067 8.79383,22.02739 9.19334,20.38306 8.80867,19.58326 9.3891,19.52131 0.43771,-0.0467 0.65576,0.24605 1.1323,1.5203 0.32461,0.868 1.05988,2.11176 1.63394,2.76393 1.25189,1.42222 4.0895,2.901 6.56543,3.42146 2.03021,0.42678 2.14051,0.35105 2.8539,-1.95929 z m -77.852705,-8.8773 c 0.867318,-0.22585 2.071462,-0.70038 2.675874,-1.05452 0.994862,-0.5829 3.070779,-2.84668 3.337849,-3.6399 0.08012,-0.23796 0.221877,-0.22438 0.558489,0.0535 0.263793,0.21779 0.539562,0.27272 0.664115,0.1323 0.11715,-0.13208 4.302126,-5.24077 9.299947,-11.35265 4.99782,-6.11187 11.209697,-14.05683 13.804169,-17.65547 l 4.717224,-6.54297 -0.54428,-0.54428 c -0.31151,-0.31151 -0.68161,-0.46054 -0.86537,-0.34846 -3.093388,1.88666 -15.038669,11.02741 -24.085094,18.43038 -10.158079,8.31266 -11.537455,9.5278 -11.142984,9.81625 0.40539,0.29642 0.355623,0.38764 -0.499985,0.91644 -1.711687,1.05788 -3.299132,3.09383 -3.880906,4.9774 -0.630481,2.04126 -0.766865,6.8191 -0.201168,7.04736 0.74117,0.29907 4.688728,0.14827 6.16212,-0.2354 z m 90.984465,0.25003 c 0.65381,-0.25089 0.58053,-4.81536 -0.11339,-7.06199 -0.57864,-1.87341 -2.16769,-3.91858 -3.85482,-4.96128 -0.7581,-0.46853 -0.86688,-0.64007 -0.60557,-0.95493 0.25456,-0.30672 0.21662,-0.48081 -0.18886,-0.86678 -0.27907,-0.26564 -5.44848,-4.51757 -11.4876,-9.44873 -8.55746,-6.98748 -20.47817,-16.08275 -23.47212,-17.90875 -0.18388,-0.11215 -0.55474,0.0378 -0.86788,0.35098 l -0.54681,0.54681 4.71661,6.54045 c 2.63833,3.65853 8.7767,11.49523 13.93089,17.78524 5.06786,6.18463 9.25641,11.29152 9.3079,11.34864 0.0515,0.0571 0.29446,-0.0619 0.53992,-0.26459 0.334,-0.27572 0.47331,-0.28818 0.55367,-0.0495 0.0591,0.1754 0.58697,0.92126 1.17314,1.65747 1.2331,1.5487 2.67819,2.47333 4.72526,3.02343 1.46105,0.39262 5.41462,0.56096 6.18966,0.26355 z M 55.289902,183.73113 c 0.637483,-0.32125 1.65796,-0.98859 2.267728,-1.48298 0.986224,-0.79962 1.136272,-0.84958 1.358595,-0.45231 0.214697,0.38364 1.04674,-0.12587 5.902789,-3.61467 3.109075,-2.23369 8.602546,-6.17948 12.207714,-8.76841 4.937308,-3.54556 15.242663,-11.61287 18.500134,-14.4824 0.10128,-0.0892 -0.0345,-0.45165 -0.30183,-0.8054 l -0.48598,-0.64318 -7.238794,2.73085 c -4.249144,1.60299 -12.32004,5.02291 -19.541922,8.28058 -6.766719,3.05236 -12.949256,5.83637 -13.738973,6.1867 -1.101063,0.48844 -1.363249,0.70955 -1.124479,0.94832 0.415543,0.41554 0.393842,0.7347 -0.04996,0.7347 -0.876332,0 -4.155163,1.93168 -4.921759,2.89958 -1.007964,1.27266 -1.973938,3.36047 -2.509654,5.42424 -0.559527,2.1555 -0.543477,2.23047 0.5778,2.69897 2.987961,1.24845 7.004059,1.40092 9.098588,0.34541 z m 107.560798,-0.0469 1.81283,-0.60567 -0.0655,-1.05516 c -0.0996,-1.60359 -1.04067,-4.15614 -2.18513,-5.92684 -1.07054,-1.65632 -2.74576,-2.87566 -4.82695,-3.51337 -1.06481,-0.32627 -1.16665,-0.46912 -0.68082,-0.95496 0.23877,-0.23877 -0.0234,-0.46003 -1.12448,-0.94897 -0.78971,-0.35069 -6.99118,-3.14162 -13.78102,-6.20209 -7.17299,-3.23315 -15.36037,-6.70215 -19.54193,-8.27993 l -7.19674,-2.71546 -0.49221,0.64318 c -0.38864,0.50784 -0.42176,0.69885 -0.15744,0.90776 0.18412,0.14552 2.9055,2.37094 6.04751,4.94537 4.78333,3.91927 9.98847,7.76545 28.75482,21.24753 1.26225,0.90682 1.44649,0.96989 1.66945,0.57147 0.22331,-0.39904 0.37145,-0.34999 1.3593,0.45001 1.25574,1.01696 2.58962,1.7476 3.7545,2.05654 1.30344,0.34569 4.71603,0.028 6.65383,-0.61941 z M 50.273258,168.876 c 1.471315,-0.683 1.499646,-0.68572 1.637862,-0.15718 0.103555,0.39599 0.266927,0.48681 0.619453,0.34436 0.426537,-0.17236 7.634915,-2.90249 22.597408,-8.55863 4.209832,-1.5914 7.391189,-2.9505 14.658479,-6.26221 0.727604,-0.33157 2.007526,-0.90786 2.844271,-1.28066 1.596781,-0.71141 1.613475,-0.73283 1.34701,-1.72826 -0.153543,-0.57359 -0.26608,-0.61134 -1.385449,-0.46481 -0.670083,0.0877 -2.468488,0.28268 -3.996457,0.43325 -1.527969,0.15057 -3.254375,0.32083 -3.836458,0.37834 -0.582083,0.0575 -1.951302,0.177 -3.042708,0.26552 -1.091407,0.0885 -2.69875,0.27109 -3.571875,0.4057 -3.679499,0.5673 -6.956784,1.10617 -8.069792,1.32689 -0.654843,0.12986 -1.666875,0.30103 -2.248958,0.38037 -1.51387,0.20635 -17.3195,2.76943 -18.190103,2.94976 -0.448321,0.0929 -0.727605,0.32285 -0.727605,0.5992 0,0.35444 -0.424311,0.51601 -2.023345,0.77042 -1.178163,0.18746 -2.491615,0.59636 -3.14437,0.9789 -1.5514,0.90918 -3.291797,2.92401 -4.481688,5.18838 l -1.003521,1.9097 0.630108,0.48272 c 0.953948,0.73081 3.642078,2.12828 4.849449,2.52107 1.726874,0.56181 4.772434,0.3369 6.538289,-0.48283 z m 118.018872,-0.42945 c 1.20573,-0.606 2.47579,-1.3245 2.82235,-1.59667 l 0.6301,-0.49484 -1.00352,-1.9097 c -1.18989,-2.26437 -2.93028,-4.2792 -4.48168,-5.18838 -0.65276,-0.38254 -1.96621,-0.79144 -3.14437,-0.9789 -1.59904,-0.25441 -2.02335,-0.41598 -2.02335,-0.77042 0,-0.54994 0.71487,-0.40187 -11.24479,-2.32909 -9.62129,-1.55041 -10.83848,-1.74877 -15.61042,-2.54398 -1.30969,-0.21825 -4.7625,-0.63167 -7.67291,-0.91871 -5.4099,-0.53356 -6.30204,-0.62665 -8.89446,-0.92812 -1.45699,-0.16942 -1.4897,-0.15858 -1.66829,0.553 -0.1002,0.3992 -0.0863,0.81645 0.0309,0.92723 0.57101,0.53974 14.6618,6.6577 19.79225,8.59342 8.91299,3.36288 21.11014,7.98423 21.64547,8.20121 0.35546,0.14407 0.51623,0.051 0.62406,-0.3614 0.13875,-0.53055 0.18142,-0.53676 0.95154,-0.13851 1.8479,0.95558 2.72685,1.14771 4.88148,1.06705 1.93805,-0.0726 2.41076,-0.20068 4.36563,-1.18319 z m -64.92493,-5.81559 c 0.27297,-1.78733 0.39399,-3.31292 0.26893,-3.39021 -0.31884,-0.19706 -0.40459,0.18757 -0.73034,3.27594 -0.52453,4.97305 -0.28954,5.03125 0.46141,0.11427 z m 3.6814,-0.32219 c -0.1975,-1.8276 -0.43376,-2.98988 -0.5916,-2.91042 -0.14453,0.0728 -0.24421,0.25135 -0.22151,0.39687 0.0227,0.14552 0.2599,1.69334 0.52711,3.43959 0.58353,3.81352 0.74255,3.29864 0.286,-0.92604 z m -7.342668,-0.49806 c 1.194958,-2.64848 1.511998,-3.81556 0.830198,-3.05618 -0.18261,0.20338 -1.574648,3.69435 -2.314068,5.80319 -0.45367,1.29388 0.24036,0.009 1.48387,-2.74701 z m 11.082008,0.0734 c -1.11362,-2.91149 -1.42272,-3.49963 -1.69577,-3.22659 -0.0825,0.0825 0.46779,1.53643 1.22284,3.23098 0.75504,1.69456 1.41842,3.0354 1.47417,2.97965 0.0557,-0.0558 -0.39481,-1.39857 -1.00124,-2.98404 z m -14.542188,-1.63378 c 1.19817,-1.49594 2.13103,-2.86226 2.07303,-3.03626 -0.0951,-0.28516 -3.07115,3.51616 -4.299404,5.49157 -0.709987,1.14187 -0.236845,0.62008 2.226374,-2.45531 z m 19.716758,2.38916 c -1.48113,-2.26675 -4.19131,-5.69539 -4.28345,-5.41896 -0.0592,0.17755 0.94389,1.63095 2.22906,3.22978 2.33447,2.90423 2.95065,3.56085 2.05439,2.18918 z m -21.746662,-5.60095 c 1.271994,-0.91695 2.246444,-1.77442 2.165444,-1.90548 -0.0814,-0.13166 -0.35158,-0.089 -0.60381,0.0953 -1.22493,0.89499 -5.594147,4.50898 -5.594147,4.62719 0,0.0742 0.386953,-0.15422 0.859896,-0.50748 0.472942,-0.35327 1.90062,-1.39253 3.172617,-2.30949 z m 25.600812,2.77779 c 0,-0.17006 -5.75542,-4.71013 -5.93127,-4.67879 -0.49114,0.0875 0.0788,0.61537 2.78595,2.58004 3.12593,2.26861 3.14532,2.28155 3.14532,2.09875 z m -11.86113,-3.4774 c 0.67966,-0.2248 1.76987,-0.87888 2.42268,-1.45351 4.63166,-4.07695 3.74771,-11.1282 -1.74388,-13.911 -4.47946,-2.26992 -10.183628,0.20409 -11.636178,5.04681 -0.49646,1.65517 -0.3786,4.31446 0.25424,5.73659 1.87219,4.2072 6.214458,6.06577 10.703138,4.58111 z m -15.721674,-2.29664 c 1.491588,-0.57694 2.711976,-1.16368 2.711976,-1.30387 0,-0.14284 -0.26171,-0.17345 -0.59531,-0.0696 -0.616093,0.19172 -3.963911,1.67207 -5.357812,2.36913 -1.28435,0.64228 0.129334,0.20802 3.241146,-0.99562 z m 29.409284,1.27351 c -0.31912,-0.31912 -6.38917,-2.82004 -6.52206,-2.68715 -0.25829,0.25829 0.0189,0.40053 3.14318,1.61292 2.78627,1.08122 3.66535,1.3607 3.37888,1.07423 z m -63.474387,-1.49507 c 4.292864,-0.43878 10.245989,-1.02911 13.229166,-1.31183 6.563782,-0.62206 6.139942,-0.56481 14.816666,-2.00149 3.856302,-0.63853 7.108299,-1.16147 7.226659,-1.16209 0.118361,-6.3e-4 0.177892,-0.38351 0.132292,-0.85086 l -0.08291,-0.84973 -2.910417,-0.4398 c -1.600729,-0.24189 -3.267604,-0.50163 -3.704167,-0.57718 -5.653188,-0.97841 -9.464126,-1.55527 -11.641666,-1.7622 -6.619087,-0.629 -24.467736,-2.41004 -25.598436,-2.55436 -1.153379,-0.14722 -1.256771,-0.11442 -1.256771,0.39862 0,0.48126 -0.101224,0.53161 -0.727604,0.36188 -0.400183,-0.10843 -1.563546,-0.2 -2.585251,-0.20348 -2.53784,-0.009 -4.745075,1.07498 -7.278186,3.57316 -1.014407,1.00041 -1.844375,1.92795 -1.844375,2.06118 0,0.49117 4.15128,4.17018 5.427879,4.81038 1.16085,0.58215 1.658399,0.66146 4.149761,0.66146 2.444533,0 2.846847,0.0615 2.948628,0.45092 0.09072,0.34707 0.322324,0.42125 1.005692,0.32207 0.488307,-0.0709 4.400174,-0.48786 8.69304,-0.92665 z m 103.358057,0.61668 c 0.10575,-0.40458 0.47832,-0.46302 2.95179,-0.46302 2.49136,0 2.98891,-0.0793 4.14976,-0.66146 1.2766,-0.6402 5.42788,-4.31921 5.42788,-4.81038 0,-0.13323 -0.82997,-1.06077 -1.84437,-2.06118 -2.53311,-2.49818 -4.74035,-3.5818 -7.27819,-3.57316 -1.0217,0.003 -2.18507,0.095 -2.58525,0.20348 -0.62638,0.16973 -0.7276,0.11938 -0.7276,-0.36188 0,-0.51285 -0.10383,-0.5459 -1.25677,-0.40001 -1.09063,0.138 -10.95462,1.12333 -24.27552,2.42491 -4.08365,0.39902 -6.52149,0.72715 -8.59896,1.15743 -0.65485,0.13562 -3.21469,0.56035 -5.68854,0.94384 -2.47386,0.38348 -4.73605,0.74262 -5.02709,0.79808 -0.37537,0.0715 -0.53674,0.32264 -0.55524,0.86397 l -0.0261,0.76313 3.46566,0.58921 c 10.83247,1.84167 12.37339,2.04128 26.88128,3.48227 9.40077,0.93373 13.65527,1.37914 14.643,1.53302 0.12276,0.0191 0.27767,-0.17359 0.34423,-0.42825 z m -72.930975,-3.72449 c 0,-0.12032 -0.357187,-0.16633 -0.79375,-0.10226 -0.436562,0.0641 -0.79375,0.16252 -0.79375,0.21876 0,0.0562 0.357188,0.10226 0.79375,0.10226 0.436563,0 0.79375,-0.0984 0.79375,-0.21876 z m 33.337495,-0.07 c -2.67211,-0.50761 -5.95817,-0.98503 -6.06242,-0.88078 -0.29432,0.29431 0.47466,0.50829 2.83073,0.78768 1.41363,0.16763 2.98695,0.30804 3.49627,0.31203 0.84144,0.007 0.81727,-0.0134 -0.26458,-0.21893 z m -28.376558,-0.41577 c 1.29579,-0.31911 0.493317,-0.51438 -1.190625,-0.28971 -3.058551,0.40807 -3.929695,0.73898 -1.521354,0.5779 1.164167,-0.0779 2.384557,-0.20755 2.711979,-0.28819 z m 0.595313,-3.21954 c 0,-0.21433 -6.090691,-0.92137 -6.282729,-0.72933 -0.05315,0.0531 0.951765,0.23755 2.233149,0.40978 1.281383,0.17222 2.448851,0.35465 2.594372,0.4054 0.526808,0.1837 1.455208,0.12893 1.455208,-0.0858 z m 24.738535,-0.18587 1.85208,-0.37324 -1.85208,0.12304 c -1.01865,0.0677 -2.11997,0.12387 -2.4474,0.12491 -0.32742,0.001 -0.59531,0.12094 -0.59531,0.26646 0,0.34895 0.79323,0.31215 3.04271,-0.14117 z m -25.50579,-2.35088 c -3.209781,-1.71073 -14.281604,-6.44704 -21.060869,-9.00943 -4.365625,-1.6501 -10.643117,-4.02356 -13.949982,-5.27435 -3.306865,-1.25079 -6.134599,-2.27417 -6.283854,-2.27417 -0.149255,0 -0.271372,0.19133 -0.271372,0.42518 0,0.30697 -0.128735,0.36795 -0.463021,0.21933 -0.254661,-0.11322 -1.337394,-0.50542 -2.406073,-0.87155 -1.772644,-0.6073 -2.090211,-0.64048 -3.620989,-0.37827 -1.771444,0.30344 -5.026786,1.74502 -6.315049,2.79654 l -0.76659,0.62571 1.028166,1.95661 c 1.856647,3.5332 5.07398,6.06464 7.724836,6.07798 1.196122,0.006 1.908303,0.29778 1.908303,0.78178 0,0.44502 4.931777,1.35112 22.489583,4.13192 1.236927,0.1959 2.546614,0.41037 2.910417,0.47659 3.06719,0.55832 9.103939,1.24912 15.478124,1.77119 2.037292,0.16687 3.756587,0.3522 3.820657,0.41186 0.06407,0.0597 0.254587,-0.22177 0.42337,-0.62539 0.28967,-0.6927 0.25346,-0.76233 -0.645657,-1.24153 z m 27.22558,1.43817 c 5.36266,-0.45963 12.47515,-1.30314 15.74271,-1.86699 1.74625,-0.30134 3.47266,-0.58883 3.83646,-0.63886 0.3638,-0.05 5.2156,-0.83501 10.78177,-1.7444 8.79373,-1.43671 10.12031,-1.71363 10.12031,-2.11254 0,-0.484 0.71218,-0.77576 1.9083,-0.78178 2.65086,-0.0133 5.86819,-2.54478 7.72484,-6.07798 l 1.02817,-1.95661 -0.76659,-0.62571 c -1.28827,-1.05152 -4.54361,-2.4931 -6.31505,-2.79654 -1.53078,-0.26221 -1.84835,-0.22903 -3.62099,0.37827 -1.06868,0.36613 -2.15141,0.75833 -2.40608,0.87155 -0.33428,0.14862 -0.46302,0.0876 -0.46302,-0.21933 0,-0.23385 -0.12211,-0.42518 -0.27137,-0.42518 -0.14925,0 -2.97699,1.02374 -6.28385,2.27498 -3.30687,1.25124 -9.58436,3.62422 -13.94998,5.27328 -10.3024,3.89162 -21.99369,9.14323 -21.8817,9.82904 0.17155,1.05063 0.30994,1.18731 1.04554,1.03264 0.4003,-0.0842 2.09704,-0.2704 3.77053,-0.41384 z m 1.78902,0.34294 c -0.25296,-0.0662 -0.72921,-0.0686 -1.05833,-0.005 -0.32912,0.0633 -0.12215,0.11746 0.45994,0.1204 0.58208,0.003 0.85136,-0.0488 0.59839,-0.11507 z m -27.628978,-2.19582 c -0.31048,-0.28207 -5.959086,-2.42403 -6.078236,-2.30488 -0.168485,0.16849 5.845196,2.78004 6.078236,2.63959 0.12182,-0.0734 0.12182,-0.22404 0,-0.33471 z m 23.800378,-0.9326 c 1.57037,-0.68971 2.80676,-1.30247 2.74753,-1.36169 -0.2101,-0.2101 -6.10555,2.21158 -6.22002,2.555 -0.13538,0.40614 -0.29095,0.4596 3.47249,-1.19331 z m -23.268258,-0.23754 c 0.41739,-0.63702 0.4144,-0.63996 -5.856544,-5.7629 -3.450783,-2.81906 -8.774464,-6.91615 -11.830401,-9.10466 -3.055937,-2.18851 -8.322628,-5.96809 -11.703756,-8.39906 -3.381129,-2.43098 -6.312561,-4.48329 -6.514295,-4.56071 -0.201734,-0.0774 -0.441551,0.0541 -0.532927,0.29221 -0.13926,0.3629 -0.344876,0.27995 -1.270919,-0.5127 -2.642022,-2.26148 -5.696369,-2.81802 -9.634175,-1.75549 -3.023098,0.81572 -2.900194,0.65976 -2.376158,3.0152 0.924195,4.15408 3.101649,6.9895 6.248814,8.13701 1.330399,0.48509 1.521715,0.63558 1.31026,1.03069 -0.214747,0.40126 0.181365,0.65607 2.984649,1.92 1.777742,0.80153 7.935226,3.57953 13.683299,6.17331 5.748073,2.59379 13.665729,5.93365 17.594791,7.42191 3.929062,1.48827 7.219352,2.71417 7.311762,2.72423 0.0924,0.0101 0.35592,-0.26851 0.5856,-0.61904 z m 27.058948,-2.03759 c 3.91184,-1.47121 10.80337,-4.33748 15.31452,-6.36949 4.51114,-2.03201 10.72854,-4.83146 13.81644,-6.22102 4.94161,-2.22371 5.58442,-2.58241 5.36444,-2.99344 -0.21444,-0.40068 -0.0237,-0.55157 1.34339,-1.06284 3.18176,-1.1899 5.27401,-3.94096 6.23562,-8.19912 0.50746,-2.24709 0.6247,-2.10487 -2.41046,-2.92385 -2.94946,-0.79585 -5.88997,-0.64894 -7.64942,0.38217 -0.68361,0.40062 -1.65416,1.08947 -2.15679,1.53079 -0.76427,0.67104 -0.94043,0.73317 -1.07613,0.37956 -0.0892,-0.23256 -0.25379,-0.42283 -0.36568,-0.42283 -0.61298,0 -24.35379,17.41189 -29.96065,21.97363 l -6.54049,5.32134 0.41936,0.64001 c 0.23064,0.35201 0.44952,0.64002 0.48639,0.64002 0.0369,0 3.26763,-1.20372 7.17946,-2.67493 z m -25.828188,0.95729 c 0,-0.15531 -4.5548,-3.53655 -5.688539,-4.22287 -0.884354,-0.53535 -1.106796,-0.7326 3.024656,2.68207 1.753913,1.44963 2.663883,1.97595 2.663883,1.5408 z m 20.210978,-2.03122 c 3.06351,-2.47482 3.52694,-2.89861 2.41089,-2.20468 -1.20528,0.74941 -5.68854,4.08782 -5.68854,4.2359 0,0.44357 0.91979,-0.12644 3.27765,-2.03122 z m -19.333058,-0.0332 c -1.91648,-3.10093 -11.163305,-15.15887 -18.477686,-24.09507 -8.063893,-9.8519 -9.515339,-11.5047 -9.855336,-11.22253 -0.33091,0.27463 -0.468755,0.21904 -0.810544,-0.32691 -0.226505,-0.36181 -1.034774,-1.2768 -1.796155,-2.03331 -1.887222,-1.87516 -3.919224,-2.513472 -7.656201,-2.405032 l -2.630952,0.0763 0.01152,3.175002 c 0.01057,2.91281 0.07375,3.31182 0.765137,4.83177 0.712167,1.56564 1.654684,2.64239 3.446614,3.93747 0.636097,0.45972 0.724043,0.63826 0.466979,0.948 -0.26325,0.3172 1.587781,1.94095 10.966169,9.61969 6.205583,5.08094 14.270286,11.39929 17.921562,14.04077 l 6.638683,4.8027 0.58716,-0.54168 c 0.32294,-0.29792 0.51331,-0.66116 0.42305,-0.80721 z m 22.934578,-3.53919 c 3.41974,-2.4616 11.36531,-8.68724 17.65681,-13.83475 9.50576,-7.7773 11.38561,-9.42357 11.12257,-9.74052 -0.25686,-0.30949 -0.16876,-0.48823 0.46714,-0.94781 1.79193,-1.29508 2.73444,-2.37183 3.44661,-3.93747 0.69139,-1.51995 0.75457,-1.91896 0.76514,-4.83177 l 0.0115,-3.174992 -2.63095,-0.0763 c -3.73698,-0.10844 -5.76898,0.529872 -7.65621,2.405032 -0.76138,0.75651 -1.56964,1.6715 -1.79615,2.03331 -0.34222,0.54663 -0.47937,0.60177 -0.81142,0.32618 -0.34115,-0.28313 -1.76858,1.33957 -9.75973,11.09491 -5.19441,6.34117 -11.4462,14.31762 -14.04743,17.92264 l -4.6873,6.49611 0.56313,0.59942 c 0.34824,0.37068 0.67293,0.51209 0.85085,0.37057 0.15824,-0.12588 3.08568,-2.2429 6.50542,-4.70451 z m -21.960408,3.54445 c 0,-0.18546 -0.96305,-1.52491 -2.14011,-2.97656 -2.017146,-2.48772 -3.106713,-3.71728 -2.456103,-2.77166 1.214483,1.76516 4.400043,6.08541 4.487113,6.08541 0.06,0 0.1091,-0.15173 0.1091,-0.33719 z m 15.499818,-2.50708 c 2.63909,-3.65717 2.66952,-3.70172 2.30408,-3.37343 -0.76774,0.68968 -4.57474,5.58331 -4.57474,5.88051 0,0.18546 0.0491,0.33719 0.10909,0.33719 0.06,0 1.03271,-1.27992 2.16157,-2.84427 z m -14.349898,1.39902 c 0.46452,-0.35195 0.35185,-0.73085 -2.29884,-7.73064 -1.68407,-4.44719 -5.107427,-12.49206 -8.649021,-20.32515 -3.223942,-7.13052 -5.968572,-13.237262 -6.099179,-13.570542 -0.193513,-0.4938 -0.329856,-0.55652 -0.73663,-0.33882 -0.443049,0.23712 -0.565685,0.0847 -1.090899,-1.35574 -0.697352,-1.91256 -2.320518,-3.77528 -4.164116,-4.7787 -1.239734,-0.67474 -4.772523,-1.78432 -5.681117,-1.78432 -0.786762,0 -1.662921,3.34168 -1.664914,6.35 -0.0019,2.8335 0.424672,4.03893 2.137132,6.039562 0.792659,0.92604 0.875606,1.13166 0.5127,1.27092 -0.238123,0.0914 -0.380044,0.30401 -0.31538,0.47252 0.06466,0.16851 3.998798,5.70103 8.74252,12.29448 7.879367,10.95178 17.906104,23.82751 18.554694,23.82681 0.14552,-1.6e-4 0.48439,-0.16683 0.75305,-0.37038 z m 16.880348,-5.6985 c 2.67752,-3.27421 8.54796,-11.07281 13.04543,-17.33021 4.49747,-6.25739 8.42298,-11.71334 8.72337,-12.12433 0.51536,-0.70512 0.5198,-0.76201 0.0787,-1.00888 -0.42455,-0.23759 -0.38197,-0.36154 0.46362,-1.34942 1.6974,-1.983042 2.12446,-3.194762 2.12259,-6.022572 -0.001,-1.87126 -0.15531,-3.00371 -0.60293,-4.43177 -0.67694,-2.15968 -0.64617,-2.14469 -3.11013,-1.51564 -3.90571,0.99713 -6.46993,2.98435 -7.74224,6.00005 -0.62627,1.48445 -0.80619,1.71055 -1.19014,1.49568 -0.3545,-0.19838 -0.50373,-0.12138 -0.69001,0.35604 -0.13073,0.33505 -2.87952,6.443242 -6.10843,13.573762 -3.66407,8.09149 -6.91484,15.73167 -8.64849,20.32627 -2.64045,6.99785 -2.75367,7.38011 -2.29081,7.73444 0.26781,0.20501 0.62066,0.34507 0.78411,0.31123 0.16345,-0.0338 2.48788,-2.74043 5.16539,-6.01465 z m -15.38444,5.39682 c 0,-0.0877 -0.60917,-1.54621 -1.353708,-3.24115 -1.41707,-3.22593 -2.27292,-4.66091 -1.28569,-2.15567 0.49773,1.26306 0.98767,2.5581 1.876838,4.96094 0.1952,0.52751 0.76256,0.85181 0.76256,0.43588 z m 9.21897,-1.89109 c 0.43492,-1.12778 1.0474,-2.70536 1.36107,-3.50573 0.97626,-2.49108 0.13223,-1.07936 -1.28883,2.15567 -1.44995,3.30079 -1.48248,3.40058 -1.10836,3.40058 0.13494,0 0.60119,-0.92273 1.03612,-2.05052 z m -7.49585,-0.19298 c -0.0787,-0.58508 -0.44278,-4.09988 -0.80896,-7.81066 -0.44,-4.4589 -1.47055,-11.65942 -3.038918,-21.23319 -1.30524,-7.967472 -2.37316,-14.545672 -2.37316,-14.618232 0,-0.0726 -0.22067,-0.13192 -0.49039,-0.13192 -0.40286,0 -0.54646,-0.33952 -0.80454,-1.90225 -0.57391,-3.47516 -2.430951,-5.80162 -6.220585,-7.79302 l -1.838371,-0.96603 -0.612449,0.76659 c -0.966091,1.20923 -2.381944,4.32624 -2.725234,5.99961 -0.352378,1.71767 -0.138137,3.19597 0.770318,5.31531 0.649963,1.5163 0.647384,1.49021 0.147296,1.49021 -0.218281,0 -0.396875,0.11041 -0.396875,0.24535 0,0.91655 11.10645,29.298622 13.77861,35.210652 l 3.199608,7.07901 0.77842,-0.29382 c 0.72342,-0.27306 0.7683,-0.36897 0.63523,-1.35761 z m 9.45894,-6.22316 c 1.66961,-3.71078 4.96992,-11.86657 7.33402,-18.12396 2.36411,-6.2574 4.70153,-12.430832 5.19427,-13.718742 1.01792,-2.66059 1.04574,-2.81772 0.49902,-2.81772 -0.50009,0 -0.50267,0.0261 0.1473,-1.49021 0.90845,-2.11934 1.12269,-3.59764 0.77031,-5.31531 -0.34329,-1.67337 -1.75914,-4.79038 -2.72523,-5.99961 l -0.61245,-0.76659 -1.83837,0.96603 c -3.78963,1.9914 -5.64667,4.31786 -6.22058,7.79302 -0.25808,1.56273 -0.40168,1.90225 -0.80455,1.90225 -0.26971,0 -0.49039,0.0523 -0.49039,0.11624 0,0.0639 -1.06788,6.64214 -2.37307,14.618232 -1.56421,9.55902 -2.60002,16.80165 -3.03893,21.24887 -0.36622,3.71078 -0.73074,7.22862 -0.81005,7.81742 -0.13286,0.98636 -0.0863,1.09159 0.59153,1.33819 0.90602,0.32958 0.5355,0.9702 4.37717,-7.56811 z m -8.37247,7.20989 c -0.0751,-0.25466 -0.33817,-1.80535 -0.58469,-3.44599 -0.24651,-1.64063 -0.49765,-2.93352 -0.55809,-2.87307 -0.0605,0.0604 0.0357,1.61113 0.21357,3.44599 0.24554,2.53234 0.41288,3.33609 0.69458,3.33609 0.22904,0 0.31886,-0.17725 0.23463,-0.46302 z m 3.25776,-2.99678 c 0.18172,-1.90289 0.28006,-3.51014 0.21855,-3.57166 -0.0615,-0.0615 -0.31717,1.28704 -0.56811,2.99679 -0.25093,1.70975 -0.51703,3.31699 -0.59131,3.57165 -0.0834,0.28579 0.008,0.46302 0.23771,0.46302 0.28479,0 0.45075,-0.81658 0.70316,-3.4598 z m -1.30485,3.0055 c 0,-0.0316 0.59228,-3.66299 1.31618,-8.06979 0.97667,-5.94553 1.66031,-11.52727 2.65023,-21.63841 0.73372,-7.49432 1.40206,-14.072522 1.48519,-14.618232 0.13463,-0.88369 0.0894,-0.99218 -0.41325,-0.99218 -0.51117,0 -0.54566,-0.0936 -0.36562,-0.99219 0.72308,-3.60897 -0.29112,-6.47771 -3.3833,-9.56989 -1.03034,-1.03034 -1.96777,-1.87334 -2.08318,-1.87334 -0.11542,0 -1.05285,0.843 -2.08319,1.87334 -3.117798,3.1178 -4.114058,5.93533 -3.383838,9.56989 0.18057,0.89875 0.14619,0.99219 -0.36507,0.99219 -0.50269,0 -0.54788,0.10849 -0.41326,0.99218 0.0831,0.54571 0.7499,7.123912 1.481678,14.618232 1.15239,11.80161 2.47503,21.77937 3.85802,29.10417 0.0999,0.52937 0.2821,0.66146 0.91215,0.66146 0.43299,0 0.78726,-0.0258 0.78726,-0.0574 z"
       id="path1" /></g></svg>
