<?xml version="1.0" encoding="UTF-8" standalone="no"?>
<!-- Created with Inkscape (http://www.inkscape.org/) -->

<svg
   width="210mm"
   height="297mm"
   viewBox="0 0 210 297"
   version="1.1"
   id="svg1"
   xml:space="preserve"
   inkscape:version="1.4.2 (ebf0e940d0, 2025-05-08)"
   sodipodi:docname="CrescentEmpire.svg"
   xmlns:inkscape="http://www.inkscape.org/namespaces/inkscape"
   xmlns:sodipodi="http://sodipodi.sourceforge.net/DTD/sodipodi-0.dtd"
   xmlns="http://www.w3.org/2000/svg"
   xmlns:svg="http://www.w3.org/2000/svg"><sodipodi:namedview
     id="namedview1"
     pagecolor="#ffffff"
     bordercolor="#000000"
     borderopacity="0.25"
     inkscape:showpageshadow="2"
     inkscape:pageopacity="0.0"
     inkscape:pagecheckerboard="0"
     inkscape:deskcolor="#d1d1d1"
     inkscape:document-units="mm"
     inkscape:zoom="0.99953704"
     inkscape:cx="396.68365"
     inkscape:cy="561.25984"
     inkscape:window-width="2560"
     inkscape:window-height="1350"
     inkscape:window-x="0"
     inkscape:window-y="0"
     inkscape:window-maximized="1"
     inkscape:current-layer="layer1" /><defs
     id="defs1" /><g
     inkscape:label="Layer 1"
     inkscape:groupmode="layer"
     id="layer1"><path
       style="fill:#000000"
       d="m 102.14551,213.49074 c -3.636878,-2.27767 -6.817668,-4.79167 -8.613948,-6.80822 l -1.47282,-1.65342 -0.73739,0.68609 c -0.40557,0.37735 -1.06354,0.89295 -1.46216,1.14579 l -0.72476,0.45969 -0.53201,-1.24113 c -0.29261,-0.68262 -0.53201,-1.39001 -0.53201,-1.57197 0,-0.60324 -0.27959,-0.62708 -1.57624,-0.13439 -2.52061,0.95776 -6.37698,1.58564 -10.73806,1.74833 l -4.24451,0.15835 -2.01192,-3.94982 c -1.8636,-3.65865 -3.397,-7.80178 -3.78784,-10.23448 l -0.16271,-1.01277 -1.10863,0.16704 c -0.60975,0.0919 -1.43605,0.22965 -1.83624,0.30618 -0.6265,0.11982 -0.7267,0.0535 -0.72113,-0.47718 0.004,-0.33899 0.12763,-1.14199 0.27572,-1.78446 0.29356,-1.27357 0.0954,-1.59825 -0.980196,-1.60595 -0.311143,-0.002 -1.62083,-0.30494 -2.910416,-0.67269 -2.632032,-0.75058 -10.809473,-4.68546 -11.052289,-5.31823 -0.240469,-0.62665 0.302506,-8.16091 0.760012,-10.54583 0.222928,-1.16209 0.656053,-2.86634 0.9625,-3.78721 0.306446,-0.92087 0.515171,-1.70629 0.463833,-1.74537 -0.05134,-0.0391 -0.738935,-0.29936 -1.527994,-0.57841 -0.789059,-0.27905 -1.47737,-0.63752 -1.52958,-0.79662 -0.05221,-0.15909 0.360786,-0.85725 0.917767,-1.55147 l 1.012694,-1.26222 -2.407725,-2.41727 c -2.358015,-2.36737 -5.038913,-5.93524 -6.736836,-8.96571 l -0.852389,-1.52136 0.854426,-1.52135 c 1.782609,-3.17404 4.171392,-6.3726 6.600964,-8.83863 l 2.516998,-2.55476 -1.047226,-1.37729 c -1.012083,-1.33107 -1.030012,-1.38987 -0.534247,-1.75239 0.282139,-0.2063 0.991516,-0.51218 1.576393,-0.67972 0.584877,-0.16754 1.101879,-0.33154 1.148893,-0.36443 0.04701,-0.0329 -0.228403,-1.05323 -0.612037,-2.2674 -0.900039,-2.84853 -1.398992,-6.37754 -1.505215,-10.64613 l -0.08489,-3.41147 2.74477,-1.52644 c 3.386385,-1.88325 7.400267,-3.48404 10.296136,-4.10623 1.414719,-0.30395 2.151024,-0.58053 2.074744,-0.77932 -0.065,-0.16948 -0.20436,-0.99734 -0.3096,-1.83968 l -0.191354,-1.53152 1.531524,0.19135 c 0.84234,0.10524 1.67472,0.2463 1.84974,0.31346 0.20839,0.08 0.42951,-0.44361 0.64069,-1.51703 0.17737,-0.90152 0.68338,-2.66402 1.12447,-3.91664 1.12828,-3.204098 4.08259,-9.086585 4.83116,-9.619595 0.36144,-0.257359 5.6227,0.01941 9.01453,0.474216 1.45781,0.195474 3.64185,0.668552 4.85341,1.051285 1.21157,0.382733 2.22912,0.657413 2.26122,0.610399 0.0321,-0.04701 0.22061,-0.597521 0.41888,-1.223348 0.66543,-2.100303 0.81133,-2.159121 2.39049,-0.963659 l 1.38866,1.05126 2.54339,-2.523852 c 2.44688,-2.428084 5.617618,-4.799581 8.827248,-6.602177 l 1.52136,-0.854426 1.52135,0.852389 c 3.09585,1.734554 6.61541,4.37892 8.96959,6.739167 l 2.42116,2.427393 1.37688,-1.072865 c 1.56541,-1.219761 1.71452,-1.160498 2.38215,0.94677 0.19827,0.625827 0.38677,1.176334 0.41888,1.223348 0.0321,0.04701 1.00443,-0.21338 2.16072,-0.578653 2.93664,-0.927682 7.08909,-1.491202 10.98833,-1.491202 h 3.31595 l 1.98629,3.930794 c 1.84623,3.653646 3.36402,7.773586 3.75134,10.182786 0.14143,0.87975 0.24141,0.99815 0.74217,0.87889 0.3183,-0.0758 1.16018,-0.22181 1.87084,-0.32445 l 1.29211,-0.18662 -0.18662,1.29212 c -0.10264,0.71066 -0.24864,1.55253 -0.32444,1.87083 -0.11922,0.50057 -5.3e-4,0.60105 0.87888,0.74402 3.00732,0.48891 7.16393,2.08528 11.66618,4.48047 l 2.4474,1.30201 -7.5e-4,2.92968 c -0.001,4.78906 -0.91206,10.51479 -2.01063,12.6392 -0.35442,0.68537 -0.34709,0.76429 0.0839,0.90274 1.49256,0.47946 2.82946,1.08951 2.90872,1.3273 0.0501,0.15026 -0.40041,0.83154 -1.00111,1.51396 l -1.09217,1.24078 1.88365,1.74396 c 2.14861,1.98929 5.12749,5.83193 6.99375,9.02168 l 1.27349,2.17661 -1.36558,2.26078 c -2.09479,3.46804 -4.36257,6.41231 -6.65197,8.63631 l -2.08058,2.02115 1.05881,1.2813 c 0.58234,0.70471 1.0588,1.35469 1.0588,1.4444 0,0.16117 -1.30981,0.78506 -2.70172,1.28687 l -0.71735,0.25862 0.50117,1.13493 c 0.90681,2.05352 1.63194,6.44201 1.78854,10.82431 l 0.1477,4.13313 -1.89398,1.10614 c -3.77353,2.20386 -7.99552,3.90924 -11.43954,4.62077 -1.86812,0.38594 -1.73322,0.13704 -1.52178,2.80787 l 0.0943,1.19063 -1.19063,-0.11122 c -2.58554,-0.2415 -2.4805,-0.28594 -2.68803,1.13726 -0.40469,2.77518 -2.49458,7.99528 -4.74061,11.84102 l -1.10614,1.89398 -4.13313,-0.16413 c -4.31954,-0.17153 -8.13206,-0.79186 -10.56344,-1.71877 l -1.40323,-0.53495 -0.2549,0.70757 c -0.52137,1.44724 -1.1258,2.69194 -1.3072,2.69194 -0.10293,0 -0.7282,-0.47625 -1.38948,-1.05833 -0.66128,-0.58208 -1.30312,-1.05752 -1.42631,-1.05652 -0.12319,9.9e-4 -0.51998,0.43632 -0.88174,0.96739 -0.69312,1.0175 -3.20918,3.28187 -5.65132,5.08598 -1.20102,0.88725 -6.13773,4.0028 -6.33408,3.99743 -0.0313,-8.5e-4 -1.28352,-0.76979 -2.7828,-1.70874 z m 5.90297,-2.16622 c 3.41887,-2.27576 7.17612,-6.00507 8.22319,-8.16203 0.67644,-1.39347 0.77063,-1.87854 0.77063,-3.96875 0,-2.14685 -0.0775,-2.52123 -0.78762,-3.80332 -0.79217,-1.43029 -2.16733,-2.93787 -4.37176,-4.79273 l -1.19062,-1.00183 0.0832,2.43537 c 0.10373,3.03755 -0.40917,5.37651 -1.8027,8.22085 -1.02174,2.08545 -3.53545,5.68854 -3.96864,5.68854 -0.48123,0 -2.72841,-3.16886 -3.84638,-5.42396 -1.601398,-3.23023 -2.029288,-5.08372 -1.926078,-8.34314 0.046,-1.45102 0.0614,-2.63796 0.0344,-2.63765 -0.11639,0.001 -2.69416,2.34329 -3.75258,3.40924 -0.63574,0.64027 -1.51143,1.92389 -1.94597,2.85248 -0.70546,1.50755 -0.78002,1.90729 -0.69618,3.73287 0.13273,2.89028 1.01988,4.55367 4.06255,7.61717 2.31158,2.3274 7.210668,5.93674 8.058168,5.93674 0.22695,0 1.60235,-0.79193 3.05644,-1.75985 z m -28.450488,-7.2809 c 5.88625,-0.8157 10.10716,-3.39185 11.264,-6.87477 0.62998,-1.89669 0.42082,-4.75182 -0.5635,-7.69206 -0.42508,-1.26974 -0.8324,-2.31102 -0.90516,-2.31397 -0.0728,-0.003 -0.58887,0.88402 -1.14691,1.97104 -1.26389,2.46196 -3.38906,4.69861 -6.14227,6.46449 -2.63142,1.68777 -5.56152,2.88907 -5.99338,2.45721 -0.45387,-0.45387 -0.6145,-7.10481 -0.22011,-9.11403 0.43355,-2.20878 1.34973,-4.40345 2.60743,-6.24598 l 1.03423,-1.51515 -2.88285,0.59407 c -3.38372,0.69728 -5.11266,1.55109 -6.68717,3.30233 -2.99636,3.33267 -2.6271,9.03665 1.06284,16.41776 0.67685,1.35393 1.35317,2.6135 1.50295,2.79906 0.29811,0.36934 3.3894,0.26003 7.0699,-0.25 z m 59.474598,-2.79936 c 2.33944,-4.89245 2.84054,-6.70112 2.84054,-10.2526 0,-2.64388 -0.0648,-3.03311 -0.70705,-4.25012 -0.84009,-1.59179 -2.49371,-3.1561 -4.0763,-3.85615 -1.48536,-0.65705 -6.76715,-1.82665 -6.51742,-1.44322 0.10355,0.15899 0.63248,0.96441 1.17541,1.78983 0.54293,0.82542 1.31276,2.43277 1.71072,3.57188 0.65268,1.86818 0.72446,2.43406 0.73265,5.77528 0.005,2.03729 -0.0877,4.16168 -0.20595,4.72087 -0.19761,0.93436 -0.27262,1.00354 -0.92605,0.85411 -1.32368,-0.3027 -5.46487,-2.50173 -6.9927,-3.71322 -1.85042,-1.46729 -3.67579,-3.72958 -4.64038,-5.75108 -0.39578,-0.82944 -0.78895,-1.51405 -0.87372,-1.52136 -0.0848,-0.007 -0.53365,1.20711 -0.99752,2.6987 -1.41047,4.53539 -1.067,7.46447 1.16661,9.94878 2.58306,2.87299 8.07072,4.5912 15.22072,4.76569 l 1.47736,0.0361 z m -32.53958,0.31109 c 1.68358,-2.72439 2.49471,-5.49784 2.50915,-8.57932 0.0146,-3.12149 -0.48315,-5.14204 -2.35629,-9.56448 -0.77964,-1.84073 -1.41753,-3.47784 -1.41753,-3.63802 0,-0.16019 -0.11906,-0.29125 -0.26458,-0.29125 -0.14553,0 -0.26459,0.12579 -0.26459,0.27953 0,0.15374 -0.59784,1.65264 -1.32853,3.3309 -2.42873,5.5783 -3.01358,8.80644 -2.26488,12.50137 0.24337,1.2011 0.7217,2.81516 1.06295,3.58678 0.89992,2.03488 2.49655,4.43352 2.87011,4.3118 0.17699,-0.0577 0.83138,-0.92946 1.45419,-1.93731 z m -23.861918,-8.26944 c 2.72033,-2.19154 4.65422,-5.2652 5.52205,-8.77654 0.23377,-0.94589 0.63349,-3.41644 0.88826,-5.49011 0.41514,-3.37894 0.39608,-4.28404 -0.0742,-3.52309 -0.084,0.13597 -1.49126,1.25254 -3.12717,2.48127 -3.30821,2.48479 -4.73528,3.91523 -6.26093,6.27571 -1.64572,2.54625 -2.17604,4.39573 -2.32797,8.11886 -0.0725,1.77784 -0.0592,3.42198 0.0297,3.65366 0.13763,0.35865 0.43181,0.27925 1.98053,-0.53458 1.0004,-0.52569 2.51677,-1.51802 3.36972,-2.20518 z m 50.113908,0.11371 c 0,-6.56722 -2.16126,-10.44255 -8.4936,-15.22974 -1.80419,-1.36396 -3.40575,-2.57428 -3.559,-2.6896 -0.35294,-0.26558 0.47203,6.76546 1.06665,9.09082 0.92655,3.62346 3.16003,7.01186 5.99238,9.09099 1.67595,1.23026 4.50517,2.75956 4.78513,2.58654 0.11464,-0.0709 0.20844,-1.35291 0.20844,-2.84901 z m -37.120258,-2.89487 c 3.60191,-2.83526 4.10725,-4.29616 2.98909,-8.64122 -0.31831,-1.23692 -0.66534,-3.26099 -0.77118,-4.49791 -0.13693,-1.60039 -0.2571,-2.09636 -0.41667,-1.7198 -0.46492,1.09712 -1.90255,2.9819 -3.86767,5.07065 -2.23143,2.37181 -2.74381,3.44341 -2.56019,5.35443 0.15566,1.62 2.06625,6.42775 2.4418,6.14447 0.15347,-0.11576 1.13664,-0.88554 2.18482,-1.71062 z m 22.152188,-0.60941 c 1.86759,-4.67764 1.62904,-5.91104 -1.86763,-9.65643 -1.22509,-1.31224 -2.56387,-2.97494 -2.97505,-3.6949 l -0.74761,-1.30901 -0.16941,2.20405 c -0.0932,1.21223 -0.41361,3.15014 -0.71206,4.30646 -1.0403,4.03054 -0.68362,5.61435 1.72953,7.67974 0.83655,0.71601 1.95243,1.68556 2.47972,2.15456 0.52729,0.46901 1.02285,0.85596 1.10125,0.8599 0.0784,0.004 0.60097,-1.14103 1.16126,-2.54437 z m -52.301408,-4.72963 c 3.18313,-0.94529 5.21609,-3.65459 6.15073,-8.19699 0.6614,-3.21444 0.66004,-3.25788 -0.0801,-2.56255 -1.08003,1.01463 -4.55267,2.6299 -6.66367,3.09956 -1.60693,0.35751 -2.78031,0.42507 -5.394017,0.31061 -1.837187,-0.0805 -3.59891,-0.22624 -3.91494,-0.32395 -0.547867,-0.16939 -0.557573,-0.22592 -0.208622,-1.21495 0.201287,-0.57051 0.932556,-2.13663 1.625043,-3.48028 1.689054,-3.27732 4.645554,-6.32031 7.411516,-7.62833 1.04684,-0.49505 1.9088,-0.95962 1.91546,-1.03238 0.007,-0.0728 -1.23014,-0.53453 -2.74846,-1.02614 -2.458238,-0.79595 -3.001649,-0.8812 -4.961453,-0.77834 -1.798384,0.0944 -2.463043,0.25785 -3.634587,0.89385 -3.516516,1.90903 -5.763979,7.50697 -5.908884,14.71777 l -0.05916,2.94406 1.852083,1.01537 c 5.533917,3.03388 11.160781,4.28969 14.619071,3.26269 z m 86.980938,-0.3836 c 1.01865,-0.31772 3.38636,-1.31058 5.26157,-2.20635 l 3.40949,-1.62868 -0.17232,-2.83721 c -0.46109,-7.59186 -2.27301,-12.37981 -5.51235,-14.56628 -2.34697,-1.58415 -5.3159,-1.70111 -9.40229,-0.37042 l -2.71173,0.88305 1.91798,0.95052 c 2.30956,1.14458 4.54933,3.08862 6.16165,5.34808 1.21382,1.70102 3.29696,5.84328 3.29696,6.5559 0,0.57301 -0.81561,0.74037 -4.36562,0.89584 -4.74939,0.20799 -8.51854,-0.78623 -11.44278,-3.01835 -0.61871,-0.47228 -1.12493,-0.75356 -1.12493,-0.62507 0,0.7171 0.89139,4.76235 1.2534,5.68814 1.02199,2.61352 2.76669,4.37809 5.18456,5.2436 1.81568,0.64994 5.62281,0.50555 8.24641,-0.31277 z m -50.34249,-3.04908 c 2.0358,-4.61602 2.0461,-6.47929 0.0595,-10.76554 -0.72044,-1.55444 -1.38643,-2.68553 -1.47997,-2.51354 -0.0935,0.17199 -0.38585,1.26521 -0.6496,2.42937 -0.704838,3.11105 -0.653898,7.01056 0.13565,10.3849 0.34901,1.49159 0.70504,2.70974 0.79116,2.707 0.0861,-0.003 0.60058,-1.01173 1.14325,-2.24219 z m 7.601,-0.46193 c 0.84445,-3.59868 0.8492,-7.28221 0.0139,-10.76615 l -0.59822,-2.49503 -1.31763,2.75962 c -1.46911,3.07688 -1.8501,5.29517 -1.29087,7.51608 0.32861,1.305 2.18822,5.68141 2.41761,5.6896 0.0767,0.003 0.42559,-1.21411 0.77523,-2.70412 z m -14.944908,-4.43521 c 1.65307,-2.23245 4.12847,-8.07062 3.80153,-8.96584 -0.0496,-0.13575 -1.27599,0.60576 -2.72536,1.64781 -3.73211,2.68325 -4.62486,4.36011 -5.04708,9.48002 l -0.18177,2.20419 1.63532,-1.5875 c 0.89943,-0.87312 2.03224,-2.12353 2.51736,-2.77868 z m 24.479318,3.50629 c -0.004,-1.71111 -0.77972,-5.6948 -1.32929,-6.83007 -0.74722,-1.54353 -1.70411,-2.49325 -4.44122,-4.4079 -2.44824,-1.71258 -2.52138,-1.66102 -1.61727,1.1401 0.64226,1.9899 2.11795,5.01287 3.08884,6.32756 0.89236,1.20835 3.84696,4.42479 4.10238,4.46594 0.10914,0.0176 0.19759,-0.29545 0.19656,-0.69563 z m -43.948118,-0.0468 c 3.17133,-0.39765 4.16829,-0.72936 5.32035,-1.77018 1.05322,-0.95151 1.30607,-1.49532 2.50753,-5.3929 0.38129,-1.23692 1.09472,-2.92606 1.58541,-3.75363 l 0.89215,-1.50468 -1.63242,0.87863 c -1.77668,0.95629 -2.98381,1.41665 -5.94785,2.26833 -1.48465,0.4266 -2.1732,0.79478 -2.9626,1.58419 -1.12534,1.12533 -1.42807,1.96686 -1.85831,5.16564 -0.15597,1.15962 -0.34974,2.33167 -0.43061,2.60455 -0.0809,0.27289 -0.037,0.42816 0.0975,0.34505 0.13447,-0.0831 1.22747,-0.27436 2.42888,-0.425 z m 61.828238,0.0401 c -0.082,-0.25833 -0.26933,-1.41919 -0.41631,-2.57968 -0.6065,-4.78856 -1.46065,-5.76857 -6.22738,-7.14504 -1.30406,-0.37657 -3.22351,-1.1432 -4.26545,-1.70362 l -1.89444,-1.01896 1.01152,1.89444 c 0.55634,1.04194 1.38668,3.1229 1.8452,4.62436 1.31334,4.30067 2.50255,5.27942 7.14943,5.8842 1.23668,0.16095 2.29832,0.34244 2.3592,0.40332 0.28994,0.28994 0.5711,0.0596 0.43823,-0.35902 z m -48.264108,-6.99683 c 1.59775,-1.61976 2.02645,-2.81427 2.42393,-6.75383 l 0.32683,-3.2394 -1.40719,1.38769 c -1.71918,1.69537 -3.76361,4.60528 -4.66069,6.63372 -0.6451,1.45869 -1.75119,5.04682 -1.75119,5.68081 0,0.42563 3.55886,-2.17875 5.06831,-3.70899 z m 37.265028,3.65967 c 0,-0.0565 -0.29874,-1.13359 -0.66387,-2.39358 -1.13649,-3.92179 -3.17798,-7.38349 -5.93949,-10.07144 l -1.35913,-1.32291 0.15112,1.05833 c 0.0831,0.58208 0.26058,2.0878 0.39437,3.34604 0.40494,3.8083 1.21054,5.12778 4.74582,7.77307 2.06138,1.54243 2.67118,1.91009 2.67118,1.61049 z m -61.541038,-1.21373 c 2.77526,-0.70979 4.95653,-1.92454 7.13815,-3.97524 2.12198,-1.99464 6.82875,-8.06852 6.0787,-7.84429 -0.27029,0.0808 -1.7416,0.28007 -3.26957,0.44281 -7.07377,0.7534 -10.57912,2.22426 -13.810391,5.79493 -1.484883,1.64085 -3.801113,5.60268 -3.469439,5.93435 0.394136,0.39414 5.34345,0.15617 7.33255,-0.35256 z m 88.081288,0.35256 c 0.33167,-0.33167 -1.98456,-4.2935 -3.46944,-5.93435 -3.23971,-3.57999 -6.75581,-5.05629 -13.81039,-5.79853 -1.52797,-0.16076 -2.99362,-0.35661 -3.257,-0.43522 -0.507,-0.15132 1.59033,2.83303 4.21225,5.99373 2.49705,3.01018 5.71157,5.12931 8.97951,5.9196 1.58391,0.38305 7.02796,0.57188 7.34507,0.25477 z m -47.33851,-3.32555 c 0.0947,-0.47347 0.73515,-2.05352 1.42324,-3.51124 1.14691,-2.42975 1.24784,-2.80457 1.21232,-4.50247 -0.0219,-1.04937 -0.27848,-2.59747 -0.5919,-3.57188 -0.56665,-1.76176 -0.67562,-2.84874 -0.39176,-3.90818 0.13135,-0.49026 0.23167,-0.54223 0.54489,-0.28228 0.62831,0.52144 1.34657,2.14249 1.78285,4.02372 0.72882,3.14258 1.8256,4.67516 4.62925,6.46863 0.79075,0.50584 1.96878,1.40821 2.61783,2.00527 0.8489,0.7809 1.13593,0.93704 1.02275,0.55638 -0.33003,-1.11 -0.45506,-1.93587 -0.69224,-4.57227 -0.30878,-3.43234 -0.82809,-4.53778 -3.30828,-7.04224 -1.81054,-1.82826 -2.81509,-3.40407 -2.42115,-3.79801 0.34606,-0.34606 2.41024,1.00294 3.99103,2.60825 2.25475,2.28973 3.55928,2.88305 6.99026,3.17928 1.5392,0.13289 3.00691,0.29905 3.26157,0.36925 1.73568,0.4784 1.70346,0.5048 0.69631,-0.57027 -0.52654,-0.56205 -1.56455,-1.93364 -2.30669,-3.048 -1.63136,-2.44955 -3.14408,-3.55621 -5.73181,-4.19325 -1.98248,-0.48804 -4.16073,-1.41705 -4.61997,-1.9704 -0.68001,-0.81936 2.81098,-0.67179 5.40221,0.22836 1.93616,0.67259 4.10255,0.36087 6.9037,-0.99337 1.3731,-0.66384 2.91547,-1.28557 3.42749,-1.38163 1.25207,-0.23488 1.375,-0.54451 0.28632,-0.72118 -0.49107,-0.0797 -2.02664,-0.70398 -3.41236,-1.38731 -2.11366,-1.04228 -2.8108,-1.25694 -4.32787,-1.33262 -1.76819,-0.0882 -3.93873,0.2624 -4.44004,0.71718 -0.27542,0.24986 -3.84969,0.32119 -3.84969,0.0768 0,-0.51507 2.52587,-1.94661 3.45771,-1.95966 0.91983,-0.0129 3.11873,-0.83439 4.26416,-1.59309 0.7639,-0.50598 1.7327,-1.56511 2.60706,-2.85011 0.76528,-1.1247 1.86892,-2.54497 2.45253,-3.15616 l 1.0611,-1.11126 -1.20038,0.36126 c -0.6602,0.19869 -2.31626,0.44627 -3.68013,0.55016 -3.5544,0.27078 -4.93255,0.8611 -7.1685,3.07059 -1.78099,1.75992 -3.78028,3.08884 -4.12635,2.74277 -0.33888,-0.33888 1.07194,-2.44463 2.712,-4.04787 2.25261,-2.20201 2.77515,-3.34388 3.07977,-6.73004 0.2376,-2.64111 0.36341,-3.47068 0.69333,-4.57187 0.11955,-0.39901 -0.10583,-0.29003 -0.91843,0.44411 -0.59227,0.53508 -1.92369,1.53077 -2.95871,2.21264 -2.67687,1.76354 -3.65851,3.1916 -4.3954,6.39436 -0.40577,1.76357 -1.50455,4.04536 -1.94802,4.04536 -0.29526,0 -0.54632,-0.67715 -0.54632,-1.47354 0,-0.35008 0.30561,-1.79886 0.67913,-3.2195 0.85844,-3.26499 0.73851,-4.39935 -0.81903,-7.74693 -0.64439,-1.38496 -1.24859,-2.903 -1.34268,-3.37344 -0.21049,-1.05243 -0.51878,-1.10116 -0.71636,-0.11323 -0.0816,0.40816 -0.64089,1.78836 -1.24279,3.06711 -1.71542,3.64445 -1.82949,4.58515 -0.97179,8.01398 0.76868,3.07297 0.85278,3.95793 0.43534,4.58097 -0.54994,0.82081 -1.42841,-0.82165 -2.52949,-4.72929 -0.687438,-2.43968 -1.660648,-3.73292 -4.015148,-5.33545 -1.1247,-0.7655 -2.5076,-1.82042 -3.07311,-2.34427 -0.9612,-0.89038 -1.01591,-0.90934 -0.83951,-0.29099 0.10379,0.3638 0.35283,2.13288 0.55343,3.93129 0.43955,3.94065 0.79371,4.71607 3.40154,7.44751 1.77472,1.85883 2.8212,3.5124 2.45476,3.87884 -0.37212,0.37212 -2.00749,-0.68146 -3.84322,-2.47598 -2.6211,-2.56225 -3.4543,-2.93149 -7.61664,-3.37538 -1.8705,-0.19948 -3.63903,-0.45426 -3.93007,-0.56617 -0.35324,-0.13583 -0.16827,0.19207 0.55639,0.98632 0.59705,0.65438 1.49942,1.83677 2.00526,2.62753 1.06485,1.66463 2.34849,3.01398 3.36943,3.54193 0.39355,0.20351 1.83943,0.69169 3.21306,1.08484 2.40076,0.68712 3.95274,1.4674 3.95274,1.98729 0,0.43812 -2.86321,0.26193 -4.9658,-0.30557 -2.74642,-0.74128 -4.51478,-0.54591 -7.38506,0.81588 -1.19042,0.56479 -2.64893,1.17207 -3.24115,1.3495 -1.33973,0.40139 -1.36399,0.65673 -0.0846,0.89004 0.54571,0.0995 1.8643,0.64841 2.9302,1.21978 1.06591,0.57137 2.27433,1.09811 2.68538,1.17052 2.326,0.40979 3.04909,0.37564 5.49225,-0.25935 1.40825,-0.36602 2.82399,-0.66549 3.14608,-0.66549 0.75774,0 1.42266,0.25878 1.42266,0.55367 0,0.37665 -2.95138,1.75225 -4.10123,1.91153 -2.51777,0.34876 -4.4752,1.69966 -6.22926,4.29907 -0.75396,1.11732 -1.78798,2.49323 -2.29784,3.05757 -0.99774,1.10439 -0.99425,1.16256 0.046,0.76705 0.37472,-0.14246 2.02651,-0.36652 3.67067,-0.4979 3.66577,-0.29294 4.58279,-0.70853 7.32587,-3.32006 1.83443,-1.74646 3.51275,-2.81549 3.86584,-2.4624 0.33519,0.3352 -0.88013,2.18262 -2.52605,3.83985 -2.43434,2.45107 -2.90809,3.54672 -3.34678,7.74014 -0.19727,1.88568 -0.4996,3.69586 -0.67185,4.02261 -0.193,0.36611 0.18549,0.13048 0.98633,-0.61403 0.71473,-0.66446 1.95334,-1.62636 2.75246,-2.13756 2.81978,-1.80379 3.91447,-3.33073 4.644458,-6.47836 0.44031,-1.89854 1.1554,-3.50298 1.79954,-4.03757 0.34226,-0.28405 0.4274,-0.1895 0.58477,0.64935 0.18145,0.96721 0.0958,1.48017 -0.81264,4.86927 -0.62457,2.32998 -0.40416,3.76285 1.06094,6.89706 0.66698,1.42685 1.28147,3.01814 1.36554,3.5362 0.18011,1.1099 0.47734,1.04288 0.71831,-0.16198 z m -25.503828,-4.09297 c 3.38436,-1.10259 6.96521,-3.36392 9.49046,-5.99329 l 0.89151,-0.92827 -1.0238,0.11051 c -5.39593,0.58241 -6.05208,0.7001 -7.22945,1.29672 -1.3611,0.68972 -2.92613,2.30371 -4.71359,4.86103 l -1.12967,1.61621 0.86508,-0.15821 c 0.4758,-0.087 1.75805,-0.44913 2.84946,-0.8047 z m 52.801148,-0.67958 c -1.88806,-2.70051 -3.25909,-4.09648 -4.7302,-4.81623 -1.2979,-0.635 -1.94861,-0.75458 -7.16017,-1.3158 l -1.02569,-0.11045 1.02569,1.06649 c 2.63047,2.73512 6.78369,5.20255 10.55069,6.26814 1.01864,0.28815 1.99692,0.53237 2.17395,0.54271 0.17702,0.0103 -0.1984,-0.72535 -0.83427,-1.63486 z m -56.444818,-5.61664 c 4.03247,-0.60783 5.65492,-1.67831 8.1043,-5.34716 0.60118,-0.90048 1.21269,-1.71118 1.35892,-1.80155 0.14622,-0.0904 0.26586,-0.26877 0.26586,-0.39643 0,-0.39116 -3.71155,0.76165 -5.99927,1.86337 -2.15809,1.0393 -5.22459,3.29483 -6.95107,5.11278 l -0.91179,0.96011 0.7795,-0.002 c 0.42873,-8.6e-4 1.93783,-0.17616 3.35355,-0.38956 z m 59.867638,-1.38188 c -3.11702,-2.94543 -6.22733,-4.71543 -10.40239,-5.9197 -0.91913,-0.26512 -1.6335,-0.39878 -1.5875,-0.29702 0.41381,0.91543 3.41439,4.75872 4.37641,5.60552 1.61167,1.41865 4.63703,2.26042 8.40723,2.33922 l 1.05833,0.0221 z m -66.392428,1.12108 c 0.50987,-0.21304 1.93082,-1.31344 3.15765,-2.44534 1.22684,-1.1319 2.9419,-2.48808 3.81124,-3.01374 l 1.58063,-0.95574 -2.29938,-0.17144 c -1.26467,-0.0943 -3.19236,-0.40723 -4.28377,-0.69543 -4.06428,-1.0732 -6.04937,-0.53402 -8.11664,2.20461 -0.67588,0.89538 -1.52847,1.95414 -1.894641,2.3528 -0.366169,0.39867 -0.614912,0.76384 -0.55276,0.81149 0.06215,0.0477 1.363161,0.58199 2.891131,1.18741 2.97584,1.17911 4.23694,1.33941 5.70654,0.72538 z m 76.711178,-0.81889 c 1.30968,-0.53817 2.41873,-1.01059 2.46454,-1.04981 0.13952,-0.11945 -3.35912,-4.38993 -4.02674,-4.91508 -1.55456,-1.22281 -3.40522,-1.36573 -6.6568,-0.51406 -1.15051,0.30134 -3.06926,0.62303 -4.26389,0.71486 l -2.17205,0.16696 1.56791,0.95428 c 0.86235,0.52486 2.5776,1.88086 3.81167,3.01335 1.23407,1.13248 2.63525,2.23658 3.11373,2.45355 1.30163,0.59024 3.40409,0.30906 6.16163,-0.82405 z m -89.636863,-1.07561 c 1.82392,-0.61915 3.175721,-1.63722 5.290905,-3.9847 l 1.8632,-2.06784 -3.340917,-0.0147 c -3.086714,-0.0135 -3.508506,-0.0781 -5.543422,-0.8486 -1.97223,-0.74675 -5.429248,-2.82323 -7.173803,-4.309 l -0.645055,-0.54937 0.777346,-0.64827 c 4.427054,-3.69197 9.846551,-5.67309 14.268921,-5.21607 l 1.58532,0.16383 -1.38462,-1.59828 c -3.267253,-3.77144 -4.91129,-4.70666 -8.27388,-4.70666 -2.009169,0 -2.444729,0.0936 -4.00232,0.86044 -2.687945,1.32327 -5.816897,4.62088 -8.780686,9.25397 l -1.223316,1.91234 1.893732,2.85016 c 3.102093,4.66882 6.927679,8.14366 10.001487,9.08452 1.145905,0.35075 3.372712,0.26437 4.687108,-0.18181 z m 102.866023,-0.47328 c 2.15717,-1.04556 6.14233,-5.05333 8.29064,-8.3377 0.89718,-1.37163 1.63124,-2.69017 1.63124,-2.9301 0,-0.56924 -2.76139,-4.72541 -4.47079,-6.72898 -3.05346,-3.57892 -5.86996,-5.25423 -9.08312,-5.4028 -1.83191,-0.0847 -2.22263,-0.0112 -3.75727,0.70695 -1.71542,0.80274 -3.03454,1.94913 -5.08259,4.41704 l -1.0948,1.31925 2.41772,-0.0871 c 2.79127,-0.10054 4.93302,0.25786 7.18022,1.20152 2.57643,1.08191 6.74688,3.93442 6.74688,4.61473 0,0.42479 -3.64921,2.95242 -5.68855,3.94018 -2.86998,1.39009 -5.23462,1.90596 -8.23296,1.79611 l -2.41213,-0.0884 1.47527,1.67986 c 3.36765,3.83468 5.18516,4.84618 8.50837,4.73515 1.56062,-0.0521 2.32337,-0.23061 3.57187,-0.83575 z m -78.448968,-6.1307 c 1.26291,-0.14549 3.48464,-0.66053 3.96875,-0.92003 0.32896,-0.17633 0.30632,-0.24197 -0.13229,-0.38357 -0.93973,-0.3034 -3.17103,-1.30912 -3.3076,-1.49085 -0.0729,-0.097 -0.93642,-0.43614 -1.91886,-0.75353 -2.42203,-0.78248 -4.20576,-0.48793 -8.45996,1.39699 -2.00212,0.88709 -2.3173,1.24722 -1.0915,1.24722 0.3366,0 1.0609,0.17782 1.60955,0.39515 0.54864,0.21732 2.00957,0.50402 3.2465,0.63709 2.03494,0.21893 3.30215,0.19218 6.08541,-0.12847 z m 56.686988,-0.39169 c 1.41883,-0.33053 2.57969,-0.68091 2.57969,-0.77863 0,-0.45506 -5.14221,-2.39215 -7.09137,-2.67135 -1.98232,-0.28395 -3.22111,0.0499 -6.55998,1.76772 l -2.16777,1.11532 1.39336,0.43827 c 0.76635,0.24105 2.2123,0.50527 3.21321,0.58717 1.00091,0.0819 1.86505,0.19028 1.92031,0.24085 0.28514,0.26094 4.45542,-0.17354 6.71255,-0.69935 z m 15.1474,-1.08218 c 1.61697,-0.34401 4.62227,-1.74064 6.18348,-2.8736 l 1.1564,-0.8392 -1.55327,-1.03419 c -3.59138,-2.3912 -7.86528,-3.47534 -11.54373,-2.92824 -2.0302,0.30196 -5.93636,1.47282 -6.40049,1.91854 -0.13824,0.13276 -0.39377,0.24138 -0.56785,0.24138 -0.17407,0 -1.23272,0.43511 -2.35255,0.96692 l -2.03605,0.96691 1.14869,0.38441 c 0.63179,0.21142 1.26776,0.47761 1.41329,0.59154 0.39798,0.31157 4.77172,2.08377 5.47337,2.21776 0.33662,0.0643 0.79064,0.18796 1.00892,0.27483 1.60919,0.64045 5.34458,0.69272 8.06979,0.11294 z m -86.518758,-0.5877 c 1.16417,-0.40142 3.06917,-1.14587 4.23333,-1.65434 1.16417,-0.50846 2.41432,-1.04839 2.77813,-1.19983 0.65628,-0.27321 0.65317,-0.2784 -0.39688,-0.66406 -0.58208,-0.21379 -1.77271,-0.73748 -2.64583,-1.16377 -2.239,-1.09316 -5.43963,-2.04286 -8.06979,-2.39449 -1.871068,-0.25014 -2.619573,-0.22996 -4.454581,0.12011 -2.399597,0.45777 -5.228153,1.6428 -7.103119,2.97585 l -1.190503,0.84642 1.218692,0.83848 c 3.565883,2.45339 6.075956,3.2067 10.338883,3.10284 2.647318,-0.0645 3.526788,-0.19865 5.291668,-0.80721 z m 15.875,-5.78975 c 1.01864,-0.5068 2.13937,-1.01058 2.49049,-1.1195 0.86626,-0.26873 0.41853,-0.48711 -2.22591,-1.08569 -3.1526,-0.71361 -7.53026,-0.65024 -10.64948,0.15415 -1.34606,0.34713 -2.44739,0.72788 -2.44739,0.84612 0,0.11824 0.11964,0.21497 0.26588,0.21497 0.14623,0 0.89037,0.30764 1.65364,0.68363 4.50022,2.21686 6.9353,2.28521 10.91277,0.30632 z m 53.710428,0.75043 c 0.7276,-0.33005 2.00752,-0.87048 2.84427,-1.20096 0.83674,-0.33048 1.52135,-0.69319 1.52135,-0.80602 0,-0.23211 -2.91603,-0.92892 -5.68797,-1.35919 -2.01758,-0.31317 -4.75892,-0.1501 -7.63018,0.45389 -2.34707,0.49372 -2.8766,0.77023 -2.00464,1.04677 0.35113,0.11136 1.60081,0.65539 2.77707,1.20896 1.17626,0.55356 2.47079,1.06671 2.87674,1.14032 0.40594,0.0736 0.81276,0.20858 0.90405,0.29993 0.31033,0.31055 3.07124,-0.18128 4.39931,-0.7837 z m -64.557508,-4.39937 c 1.01819,-0.29828 2.95591,-0.61363 4.30606,-0.70078 l 2.45481,-0.15844 -1.27663,-0.72911 c -0.70214,-0.40102 -2.34259,-1.70846 -3.64543,-2.90544 -3.89057,-3.57444 -5.10816,-3.84232 -9.47272,-2.08407 -2.958624,1.19187 -3.055015,1.24658 -2.663837,1.51216 0.149104,0.10123 0.933267,1.01749 1.742597,2.03613 0.80932,1.01865 1.69617,2.0522 1.97078,2.29679 1.56772,1.3963 3.56184,1.61822 6.58437,0.73276 z m 72.014758,0.26091 c 0.40966,-0.15478 1.08434,-0.60126 1.4993,-0.99219 0.91584,-0.86278 3.95228,-4.56365 3.8305,-4.66867 -0.48862,-0.42139 -5.15997,-2.06092 -6.20054,-2.17625 -2.03918,-0.226 -3.05709,0.24977 -5.54182,2.59024 -1.21959,1.14878 -2.95429,2.56494 -3.8549,3.14703 l -1.63746,1.05834 h 1.60022 c 1.63091,0 5.43622,0.66728 6.15474,1.07927 0.56163,0.32202 3.26275,0.29744 4.14996,-0.0378 z m -59.082358,-2.29827 c -2.12166,-2.97271 -3.43049,-4.22029 -5.07171,-4.83435 -1.37813,-0.51562 -6.54519,-1.26653 -6.82052,-0.9912 -0.18892,0.18891 3.11446,3.33852 4.4702,4.26211 1.6844,1.1475 4.07897,2.31319 6.13046,2.98436 2.90297,0.94973 2.9481,0.90008 1.29157,-1.42092 z m 42.138378,1.49065 c 3.7222,-1.14895 6.6575,-2.94673 9.8836,-6.05341 l 1.45521,-1.40133 -2.24896,0.17931 c -5.01454,0.39981 -6.89041,1.27209 -9.01302,4.19105 -0.76968,1.05845 -1.68206,2.31141 -2.0275,2.78436 -0.7635,1.04531 -0.56348,1.07607 1.95067,0.30002 z M 88.984002,133.9548 c -1.44374,-1.48736 -4.16567,-3.46216 -6.12679,-4.44507 -1.40439,-0.70388 -5.74578,-2.15037 -6.45396,-2.15037 -0.31724,0 2.28248,3.52775 3.59475,4.87797 1.87979,1.93416 4.00701,2.58727 8.986,2.7589 l 1.04589,0.0361 z m 37.117888,0.51763 c 2.03376,-0.39662 3.643,-1.64061 5.79969,-4.48336 1.04209,-1.37358 1.79225,-2.53509 1.66704,-2.58114 -0.36088,-0.13273 -4.06604,0.96939 -5.72405,1.70263 -2.03113,0.89827 -4.95353,2.95146 -6.56894,4.61516 l -1.32292,1.36246 2.38125,-0.17266 c 1.30969,-0.095 3.00526,-0.29435 3.76793,-0.44309 z m -62.573598,-0.56181 c 1.56325,-0.47449 2.83647,-0.92225 2.82938,-0.99501 -0.007,-0.0728 -0.81974,-0.51681 -1.80592,-0.98679 -2.24489,-1.06984 -4.912218,-3.48664 -6.524211,-5.91142 -1.200225,-1.8054 -3.105648,-5.99457 -2.887295,-6.34788 0.378158,-0.61187 7.557846,-0.70146 10.042156,-0.12531 2.07515,0.48126 4.77576,1.70438 5.95606,2.69754 0.44809,0.37705 0.86008,0.64018 0.91552,0.58474 0.0554,-0.0554 -0.13432,-1.27694 -0.42168,-2.71444 -0.84382,-4.22113 -2.25625,-6.43677 -4.94509,-7.75719 -1.37844,-0.67691 -1.74492,-0.73674 -4.41367,-0.72054 -3.465675,0.021 -5.661768,0.64215 -10.3849,2.93716 l -2.976563,1.44633 v 1.14483 c 0,2.16784 0.558268,6.62923 1.093855,8.74152 1.083137,4.27176 3.462658,7.48386 6.226234,8.40474 2.0575,0.6856 4.090947,0.5746 7.296124,-0.39828 z m 90.310098,0.41486 c 0.91418,-0.31005 1.78512,-0.92293 2.91394,-2.05052 1.32266,-1.32124 1.75857,-1.99398 2.44221,-3.76913 0.98137,-2.54823 1.53077,-5.46904 1.78444,-9.4867 l 0.18412,-2.91628 -3.40728,-1.62761 c -4.36299,-2.08414 -6.52114,-2.7455 -9.52769,-2.91971 -3.33158,-0.19305 -5.03493,0.34493 -6.85726,2.16579 -1.69643,1.69505 -2.40023,3.16744 -3.0442,6.36868 -0.28292,1.4064 -0.58326,2.66851 -0.66742,2.80469 -0.0842,0.13619 0.73426,-0.33162 1.81873,-1.03957 1.08446,-0.70795 2.84992,-1.57481 3.92324,-1.92636 1.74388,-0.57119 2.41594,-0.63919 6.31712,-0.63919 2.49441,0 4.56007,0.11567 4.81928,0.26986 0.41623,0.2476 0.37931,0.44087 -0.44743,2.34266 -1.38521,3.18647 -2.48446,4.87343 -4.50414,6.91232 -1.28907,1.30132 -2.47509,2.18876 -3.90147,2.9193 -1.12717,0.57729 -2.04974,1.10914 -2.05016,1.1819 -7.1e-4,0.12228 1.80571,0.74197 4.36413,1.49712 1.5642,0.4617 4.34369,0.42017 5.83984,-0.0873 z m -62.571078,-4.4761 c -0.33231,-3.30179 -0.87206,-4.67919 -2.44814,-6.24734 -1.50319,-1.49564 -4.98209,-4.01048 -4.98209,-3.60146 0,0.87916 1.48934,5.07651 2.41571,6.8081 1.64303,3.07117 5.02688,7.13068 5.21062,6.25102 0.0471,-0.22568 -0.0411,-1.67032 -0.1961,-3.21032 z m 28.598188,2.33863 c 2.77553,-2.86905 4.52548,-5.89113 5.64168,-9.7429 0.36478,-1.25878 0.66324,-2.40099 0.66324,-2.53824 0,-0.29972 -2.50872,1.46117 -4.41099,3.09612 -2.02054,1.73658 -2.69577,3.31593 -3.09576,7.24094 -0.17941,1.76047 -0.25595,3.20085 -0.17009,3.20085 0.0859,0 0.70322,-0.56555 1.37192,-1.25677 z m -43.089908,-1.05833 c -4.78698,-6.46701 -7.80914,-8.92426 -12.26864,-9.97538 -1.58978,-0.37472 -7.39279,-0.58641 -7.39279,-0.26968 0,0.41638 1.692424,3.38729 2.737441,4.80535 1.487243,2.01814 3.431649,3.59167 5.861519,4.74349 2.42252,1.14834 4.11214,1.56353 8.52696,2.09533 2.00413,0.24141 3.69348,0.48674 3.75411,0.54517 0.4963,0.47827 0.0637,-0.21197 -1.2186,-1.94428 z m 59.148498,1.39486 c 4.38832,-0.50121 6.2337,-0.96405 8.76716,-2.1989 2.74031,-1.33567 5.56249,-4.16681 7.08521,-7.10772 0.61428,-1.18639 1.11688,-2.22818 1.11688,-2.3151 0,-0.34101 -6.02142,-0.146 -7.55119,0.24456 -3.82977,0.97774 -6.86137,3.14465 -9.95917,7.11856 -2.85975,3.66853 -3.73863,4.9278 -3.34004,4.7856 0.18985,-0.0677 1.93637,-0.30488 3.88115,-0.527 z m -37.799258,-5.4887 c -1.15488,-3.80219 -3.04987,-6.90868 -6.04355,-9.9073 l -1.36504,-1.36729 0.005,0.83812 c 0.008,1.30292 0.49232,4.40118 0.92016,5.88827 0.49637,1.72525 2.02432,3.46671 4.51822,5.14958 1.06053,0.71563 2.01778,1.44603 2.12721,1.6231 0.47157,0.76302 0.38511,-0.42244 -0.16224,-2.22448 z m 13.628418,2.17136 c 0.0914,-0.14785 1.02114,-0.84602 2.06614,-1.55147 3.68212,-2.48573 4.66052,-4.08397 5.1983,-8.49151 0.47311,-3.87746 0.50175,-3.84448 -1.49943,-1.72673 -2.941,3.11231 -4.71559,6.22809 -5.91471,10.38489 -0.26236,0.90951 -0.3734,1.65365 -0.24673,1.65365 0.12666,0 0.30505,-0.12097 0.39643,-0.26883 z m 16.15389,-1.97015 c 0.49742,-0.20783 1.82819,-0.63334 2.95727,-0.94556 4.20072,-1.16162 5.35068,-2.51577 5.88717,-6.93245 0.15445,-1.27148 0.35519,-2.50561 0.4461,-2.74251 0.12625,-0.329 0.0465,-0.39584 -0.33776,-0.28298 -0.27667,0.0813 -1.09835,0.22203 -1.82596,0.31281 -5.57759,0.69589 -6.53079,1.4586 -7.94546,6.35761 -0.37656,1.30406 -1.14423,3.22543 -1.70591,4.26971 l -1.02126,1.89868 1.32072,-0.77871 c 0.72639,-0.4283 1.72768,-0.94877 2.22509,-1.1566 z m -43.227728,0.32075 c -0.80849,-1.43245 -1.56305,-3.43659 -2.29072,-6.08424 -0.4949,-1.80073 -1.68372,-3.26834 -3.18565,-3.93273 -0.58419,-0.25841 -2.10074,-0.5989 -3.37011,-0.75664 -1.26938,-0.15774 -2.50871,-0.36384 -2.75409,-0.458 -0.33367,-0.12804 -0.40499,-0.064 -0.28291,0.25415 0.0898,0.23394 0.29193,1.41547 0.44925,2.62562 0.15732,1.21015 0.46868,2.69872 0.69192,3.30794 0.56928,1.55352 2.13326,2.87971 4.00206,3.39357 2.53023,0.69573 5.17146,1.69725 6.29479,2.38692 0.58208,0.35737 1.09684,0.65037 1.1439,0.65112 0.0471,7.4e-4 -0.26724,-0.62372 -0.69844,-1.38771 z m 18.737568,-4.30166 c 0.59305,-1.79696 0.20928,-4.42188 -1.09079,-7.46087 -0.63541,-1.4853 -1.23344,-2.61639 -1.32894,-2.51354 -0.29759,0.32049 -1.238538,4.59846 -1.415668,6.43625 -0.18534,1.92301 0.18716,5.33168 0.843518,7.7189 l 0.42143,1.53272 1.12082,-2.35859 c 0.61645,-1.29722 1.26878,-2.80692 1.44963,-3.35487 z m 6.85588,0.3492 c 0.16917,-1.51715 0.18832,-3.23518 0.0496,-4.45156 -0.23863,-2.09254 -1.01879,-5.54737 -1.3291,-5.88569 -0.10122,-0.11035 -0.71046,1.02074 -1.35386,2.51354 -1.09285,2.53558 -1.17019,2.8709 -1.17519,5.09544 -0.005,2.30585 0.0365,2.47154 1.31756,5.23268 l 1.32292,2.85143 0.44628,-1.44258 c 0.24546,-0.79341 0.57026,-2.55438 0.72178,-3.91326 z M 89.564232,121.601 c -0.0687,-0.11116 -0.31182,-1.8078 -0.54026,-3.77031 -0.50122,-4.30584 -0.95545,-6.15376 -2.1128,-8.59529 -1.15182,-2.42987 -2.72535,-4.37427 -4.74349,-5.86151 -1.85456,-1.3667 -4.53448,-2.79537 -4.78106,-2.5488 -0.32053,0.32053 -0.15015,5.52599 0.23422,7.15626 1.01919,4.32274 3.2813,7.20884 9.17399,11.70456 2.79764,2.1344 2.98503,2.26399 2.7694,1.91509 z m 9.06477,-6.32426 c 0.99209,-3.87006 0.66924,-5.56238 -1.41554,-7.4199 -2.03667,-1.81465 -3.88158,-3.30985 -3.96545,-3.21379 -0.38129,0.43669 -2.06029,5.11721 -2.18004,6.07728 -0.23582,1.89058 0.28039,2.96014 2.70369,5.60184 1.2112,1.32036 2.5968,3.0782 3.07911,3.90631 l 0.87693,1.50567 0.17369,-2.14833 c 0.0955,-1.18158 0.42296,-3.12067 0.72761,-4.30908 z m 15.840468,3.11271 c 0.52527,-0.64102 1.53924,-1.77229 2.25328,-2.51393 1.52683,-1.58586 2.29005,-3.07278 2.29811,-4.47724 0.004,-0.76504 -1.81256,-6.20426 -2.25256,-6.74326 -0.10202,-0.12496 -3.56966,2.61788 -4.45276,3.52205 -1.60227,1.64051 -1.86659,3.5898 -0.95074,7.01146 0.29213,1.09141 0.60564,3.0303 0.69668,4.30866 l 0.16554,2.32429 0.64371,-1.13327 c 0.35404,-0.6233 1.07347,-1.65774 1.59874,-2.29876 z m 11.56866,-0.88892 c 3.29028,-2.64456 5.51019,-5.96191 6.33699,-9.46974 0.38679,-1.64101 0.58274,-7.39435 0.25185,-7.39435 -0.0869,0 -1.12872,0.5026 -2.31511,1.11688 -2.96776,1.53663 -5.83229,4.38916 -7.14192,7.112 -1.13185,2.35321 -1.88132,5.40682 -2.28505,9.31011 -0.16239,1.57004 -0.36871,3.04602 -0.45848,3.27996 -0.16105,0.41967 2.51908,-1.46915 5.61172,-3.95486 z m -19.73496,-2.91289 c 1.63299,-3.77898 2.36474,-6.09073 2.65128,-8.37592 0.45286,-3.61166 -0.43354,-7.472611 -2.49447,-10.865262 -1.45141,-2.389285 -1.45173,-2.389292 -2.86074,-0.05853 -3.649418,6.036812 -3.59751,11.126272 0.19839,19.452242 0.51785,1.13585 0.94154,2.26099 0.94154,2.50031 0,0.72724 0.38714,0.0706 1.564,-2.65284 z m -27.321958,0.53474 c -1.00294,-1.41318 -2.02249,-3.36198 -2.5954,-4.96093 -0.55337,-1.54443 -0.61632,-2.17845 -0.61736,-6.21771 -6.7e-4,-2.57029 0.11385,-4.691194 0.2672,-4.948901 0.24596,-0.413331 0.44971,-0.376745 2.44068,0.43824 4.4635,1.827091 8.25544,5.126721 9.9302,8.640961 0.46998,0.98617 0.91404,1.79614 0.9868,1.79994 0.34332,0.0179 1.67883,-4.81615 1.79035,-6.48041 0.43668,-6.516369 -4.86205,-10.180365 -15.68684,-10.847235 l -2.91627,-0.17966 -1.62938,3.40728 c -2.31259,4.835995 -2.84609,6.735445 -2.85201,10.154155 -0.004,2.51669 0.0654,2.92102 0.74081,4.29653 1.26176,2.56948 3.52654,4.03221 7.66486,4.9504 2.99096,0.66362 2.9848,0.66375 2.47636,-0.0527 z m 54.431028,0.0732 c 4.0777,-0.83902 6.27787,-2.21174 7.72132,-4.81747 0.73325,-1.32366 0.77892,-1.58022 0.76861,-4.3177 -0.0134,-3.56748 -0.52787,-5.43034 -2.83129,-10.252602 l -1.61137,-3.373438 h -1.28935 c -2.15318,0 -6.30492,0.519395 -8.54453,1.068947 -3.05528,0.749697 -5.1466,1.86068 -6.69809,3.558248 -2.41752,2.645154 -2.78799,5.503135 -1.31161,10.118305 0.47627,1.48883 0.92548,2.70177 0.99824,2.69542 0.0728,-0.006 0.54765,-0.8673 1.0553,-1.91321 1.36357,-2.80933 4.38952,-5.75852 7.60541,-7.41247 1.34365,-0.691042 2.92036,-1.424867 3.5038,-1.630717 1.05483,-0.372164 1.06194,-0.370242 1.26117,0.340914 0.1102,0.393354 0.20036,2.560653 0.20036,4.816233 0,3.33 -0.0939,4.37464 -0.4996,5.55625 -0.63385,1.8462 -1.62861,3.8612 -2.44041,4.94328 -0.60013,0.79995 -0.75853,1.14214 -0.5287,1.14214 0.0567,0 1.24507,-0.23496 2.64074,-0.52213 z M 99.231502,104.711 c -0.068,-2.28 0.023,-3.16009 0.48558,-4.69691 0.891298,-2.960946 2.266068,-5.426585 4.875148,-8.743608 0.38443,-0.488739 0.41005,-0.485137 0.94105,0.132292 1.1516,1.33904 3.19095,4.492963 3.80936,5.891285 1.09106,2.467093 1.53037,4.795161 1.43551,7.607301 l -0.0859,2.54502 1.67985,-1.47591 c 3.83136,-3.36623 4.94211,-5.39175 4.73868,-8.641318 -0.17273,-2.75931 -1.11655,-4.50101 -4.02867,-7.434423 -2.32835,-2.345377 -7.22074,-5.927036 -8.09606,-5.927036 -0.90634,0 -5.489068,3.345191 -7.943508,5.798428 -3.33295,3.331298 -4.07739,4.784604 -4.07739,7.959906 0,3.140793 0.56242,4.229073 3.7944,7.342193 1.39747,1.34606 2.54417,2.44764 2.54823,2.44795 0.004,3.1e-4 -0.0303,-1.26202 -0.0763,-2.80517 z"
       id="path1"
       sodipodi:nodetypes="sscsscsssscssccscscsssssssscsscsscsssssscsscscscsssssssscsscsscssssscsssscssssccsssscsscsscssscsscssscssscsscssssssssscsssscssssccsssssccssscssssscssssssscssssssssscssscsssssssssssssssssscssssssssssssssssssssssccssscssssscsssscsssscssssscssscsssssssssssssscsssscsscsssssscsscsssssccssscssssssccsssscssssssscssssssscsssssssssssssssssscscsssssssssssscsssssssssssssssscssssssssssssssssssssssssssssssssssssssscsssssssssssssssssssssccsscssscssssscsssscsssssccccssssscsssscsssscssssssscsssscsccsscsscsscscsscccsssssscssssscssccsssssssssssssscsssssscssssscssssssssssssscssssssssssssssssssssssscssssssssssssscsssssssssssscssssssssccssssssccsscsssssssscscsssscssscssssssssssssssccsssscsssssssscsssssscsssssssscsccsssccssssssssssssssscssssssscssssssssssscsssssscscsssssssssssssssssccssscsssscsssssssssssssssssscssssscsscsccsccsssscsssscsssssssssscsssccssssssssss" /></g></svg>
