<?xml version="1.0" encoding="UTF-8" standalone="no"?>
<!-- Created with Inkscape (http://www.inkscape.org/) -->

<svg
   width="210mm"
   height="297mm"
   viewBox="0 0 210 297"
   version="1.1"
   id="svg1"
   xml:space="preserve"
   inkscape:version="1.4.2 (ebf0e940d0, 2025-05-08)"
   sodipodi:docname="NewWorld.svg"
   xmlns:inkscape="http://www.inkscape.org/namespaces/inkscape"
   xmlns:sodipodi="http://sodipodi.sourceforge.net/DTD/sodipodi-0.dtd"
   xmlns="http://www.w3.org/2000/svg"
   xmlns:svg="http://www.w3.org/2000/svg"><sodipodi:namedview
     id="namedview1"
     pagecolor="#ffffff"
     bordercolor="#000000"
     borderopacity="0.25"
     inkscape:showpageshadow="2"
     inkscape:pageopacity="0.0"
     inkscape:pagecheckerboard="0"
     inkscape:deskcolor="#d1d1d1"
     inkscape:document-units="mm"
     inkscape:zoom="0.99953704"
     inkscape:cx="396.68365"
     inkscape:cy="561.25984"
     inkscape:window-width="2560"
     inkscape:window-height="1350"
     inkscape:window-x="0"
     inkscape:window-y="0"
     inkscape:window-maximized="1"
     inkscape:current-layer="layer1" /><defs
     id="defs1" /><g
     inkscape:label="Layer 1"
     inkscape:groupmode="layer"
     id="layer1"><path
       style="fill:#000000;stroke-width:2.51576"
       d="m 101.99495,170.78168 c -8.211064,-1.15011 -15.09757,-6.63393 -18.047347,-14.37135 -2.137966,-5.60807 -1.877308,-12.05201 0.709922,-17.55015 4.544943,-9.65844 15.452715,-14.72294 25.980205,-12.06265 7.72147,1.95122 13.75244,7.82589 15.9686,15.55475 1.5838,5.5235 1.02535,11.18443 -1.60586,16.27894 -3.84209,7.43894 -10.89479,11.95186 -19.15239,12.25534 -1.35249,0.0498 -3.0864,0.003 -3.85313,-0.10491 z m 0.71027,-1.29796 c 1.09184,-0.55055 1.07554,-0.53656 0.91934,-0.78929 -0.08,-0.12931 -0.44992,-0.13208 -1.00354,-0.008 -1.05274,0.23648 -1.5209,-0.0465 -1.42606,-0.86253 0.0561,-0.4835 0.1746,-0.55875 0.96927,-0.61623 0.4979,-0.036 0.90525,-0.10013 0.90525,-0.14239 0,-0.52492 -0.35767,-0.75068 -1.18938,-0.75068 -1.22771,0 -1.69094,0.61938 -1.46829,1.96325 0.29656,1.78998 0.70677,2.00563 2.29341,1.2056 z m 3.57165,-2.21034 c 1.03086,-3.23987 2.34491,-5.64451 3.08454,-5.64451 0.51262,0 1.3199,0.8579 1.98954,2.11427 l 0.68726,1.28943 1.1069,-0.55901 c 1.63869,-0.82753 2.86341,-1.709 4.37951,-3.15199 5.11989,-4.87305 6.8173,-11.93667 4.51488,-18.78836 -1.83872,-5.47172 -6.73954,-9.97618 -12.27345,-11.28081 -1.39788,-0.32953 -1.56299,-0.42035 -1.47751,-0.81258 0.31626,-1.45094 0.54016,-3.16689 0.42791,-3.27917 -0.072,-0.072 -0.70099,-0.18541 -1.39783,-0.25195 -1.46676,-0.14038 -1.44324,-0.39601 -0.23724,2.57971 l 0.79554,1.96292 1.84644,0.49014 c 4.93569,1.31023 8.56044,4.29827 10.92166,9.00314 1.20532,2.4017 1.63951,4.37576 1.6448,7.47819 0.005,3.07177 -0.42368,5.04437 -1.63844,7.53558 -1.4934,3.06261 -4.28901,6.0229 -7.08407,7.50141 -1.12512,0.59515 -1.17868,0.6033 -1.41383,0.2151 -0.66316,-1.09489 -1.59665,-2.1789 -2.07528,-2.40992 -0.82426,-0.39782 -1.43166,-0.10315 -2.22959,1.0817 -0.40262,0.59789 -0.73206,0.98497 -0.73206,0.86018 0,-0.12478 0.29694,-0.67517 0.65986,-1.22308 0.69438,-1.04832 1.30075,-1.34903 2.24338,-1.11244 0.50521,0.12679 0.54733,0.0926 0.42891,-0.34964 -0.0722,-0.26967 -0.13258,-0.55571 -0.13409,-0.63569 -0.008,-0.33464 -0.87682,-0.38367 -1.58178,-0.0891 -0.49216,0.20553 -0.98578,0.67568 -1.40694,1.33979 -0.6665,1.05096 -1.75225,4.15611 -2.01547,5.764 -0.18693,1.14115 -0.44177,1.15868 -0.62024,0.0425 -0.24654,-1.54221 -1.37813,-4.75871 -2.04272,-5.80665 -0.58119,-0.91641 -1.60513,-1.63778 -2.32476,-1.63778 -0.350454,0 -0.874054,0.64954 -0.874054,1.08427 0,0.33615 0.10113,0.38949 0.53251,0.28121 0.941754,-0.23648 1.582144,0.0865 2.245144,1.13196 0.34669,0.54668 0.63037,1.08983 0.63037,1.20699 0,0.11723 -0.28677,-0.23925 -0.63724,-0.79181 -0.70466,-1.11116 -1.43288,-1.51482 -2.2039,-1.22168 -0.588114,0.22365 -1.549614,1.3171 -2.013544,2.28994 l -0.32977,0.69154 -1.20225,-0.64082 c -5.91306,-3.15164 -9.541944,-10.17121 -8.738185,-16.90287 0.859861,-7.20168 5.684935,-12.87218 12.490259,-14.67872 l 1.88592,-0.50063 0.90655,-2.3225 c 0.4986,-1.27738 0.90668,-2.32889 0.90686,-2.33666 0.002,-0.0755 -2.61332,0.32028 -2.70205,0.40901 -0.1029,0.10289 0.22968,2.38974 0.48654,3.34654 0.0694,0.25884 -0.26382,0.41666 -1.49149,0.70607 -4.140264,0.97606 -8.031234,3.78297 -10.407542,7.50785 -2.083626,3.26611 -2.79078,5.74217 -2.790478,9.77078 2.26e-4,3.04927 0.377464,4.86074 1.551443,7.44988 1.579191,3.48284 4.702153,6.69398 8.260263,8.49353 l 1.10691,0.55983 0.68725,-1.28943 c 0.68187,-1.27936 1.477944,-2.11426 2.015834,-2.11426 0.73108,0 2.2351,2.86187 3.17287,6.03744 0.59994,2.03157 0.95936,2.49218 1.53532,1.9676 0.13912,-0.1268 0.55807,-1.18903 0.93081,-2.36054 z m -4.27239,-38.74335 c 0,-0.4739 0.12051,-0.76897 0.35,-0.85702 0.51331,-0.19698 0.54378,-0.0631 0.18239,0.80152 -0.40433,0.96774 -0.53244,0.98107 -0.53244,0.0556 z m 5.34491,-0.16378 c -0.2677,-0.76793 -0.2234,-0.88217 0.26913,-0.69319 0.21309,0.0818 0.34999,0.3754 0.34999,0.75053 0,0.8148 -0.32561,0.78464 -0.61912,-0.0574 z m 1.92108,40.98393 c 0.43568,-1.12703 0.46984,-1.94153 0.10491,-2.49862 -0.28911,-0.44124 -0.52112,-0.53664 -1.3052,-0.53664 -0.52449,0 -0.9536,0.04 -0.9536,0.0891 0,0.0491 -0.0571,0.23824 -0.12705,0.42028 -0.10189,0.26552 0.0287,0.32537 0.65792,0.30172 0.79923,-0.0299 1.16369,0.25658 1.16993,0.92011 0.005,0.62708 -0.51394,0.85433 -1.46528,0.64059 -0.55361,-0.12428 -0.92363,-0.12151 -1.00356,0.008 -0.15472,0.25031 -0.17207,0.23472 0.87458,0.7793 1.20341,0.62617 1.77089,0.59193 2.04748,-0.12352 z m 1.59658,-0.0619 c 0.53399,-0.20303 0.55454,-0.25057 0.24327,-0.56165 -0.42594,-0.42594 -1.01191,-0.22289 -1.01191,0.3507 0,0.50204 0.002,0.5025 0.76853,0.21107 z m -11.121164,-0.32997 c 0.262194,-0.68328 -0.43928,-1.0058 -0.92215,-0.42398 -0.19825,0.23874 -0.17007,0.34931 0.13358,0.52602 0.52514,0.30551 0.63765,0.29095 0.78847,-0.10214 z m -0.92205,-1.06308 c 0.22365,-0.26962 0.22692,-0.42087 0.0151,-0.75823 -0.23799,-0.38109 -0.22365,-0.40023 0.15019,-0.20025 0.60087,0.32156 1.013904,-0.2068 0.63543,-0.81282 -0.2156,-0.34511 -0.21811,-0.49238 -0.0126,-0.69827 0.20579,-0.20579 0.31706,-0.20428 0.527184,0.008 0.21359,0.2151 0.19246,0.24001 -0.10642,0.1263 -0.252404,-0.0961 -0.372734,-0.0387 -0.372734,0.17761 0,0.339 0.510324,0.63576 0.724664,0.42141 0.0699,-0.0699 0.1273,-0.351 0.1273,-0.62433 0,-0.27336 0.10164,-0.49702 0.22566,-0.49702 0.12403,0 0.16001,-0.10616 0.08,-0.23572 -0.10415,-0.16856 -0.19119,-0.16202 -0.30546,0.0226 -0.12327,0.1995 -0.19547,0.20051 -0.31691,0.005 -0.0865,-0.13987 -0.0528,-0.3587 0.075,-0.48632 0.1673,-0.1673 0.35399,-0.12151 0.66967,0.16403 0.38846,0.35155 0.47349,0.36028 0.75624,0.0775 0.28274,-0.28274 0.2631,-0.40086 -0.17485,-1.05075 -0.27137,-0.40273 -0.58547,-0.73013 -0.69794,-0.72759 -0.31742,0.008 -3.293034,4.79033 -3.293034,5.29338 0,0.27951 1.02557,0.11825 1.29237,-0.20327 z m 4.411434,-0.0501 c 0.0677,-0.20604 -0.12151,-0.26254 -0.71259,-0.21308 -0.44262,0.037 -0.84625,0.19371 -0.89697,0.34788 -0.0677,0.20604 0.12151,0.26254 0.71259,0.21308 0.44262,-0.037 0.84625,-0.19371 0.89697,-0.3479 z m 5.10726,0.12076 c -0.0996,-0.30353 -1.65202,-0.49908 -1.65202,-0.20805 0,0.34554 0.27475,0.47434 1.01174,0.47434 0.48685,0 0.6988,-0.088 0.64028,-0.26624 z m 4.099,0.12704 c 0,-0.23623 -1.5137,-2.88044 -2.41014,-4.21029 l -0.85008,-1.26108 -0.6064,0.67868 c -0.33351,0.37326 -0.6064,0.82396 -0.6064,1.0015 0,0.50506 0.61133,0.61352 1.07796,0.1912 0.62539,-0.56595 0.99827,-0.10969 0.51417,0.62904 -0.2867,0.43756 -0.31035,0.62161 -0.1107,0.8621 0.30262,0.36465 0.86163,0.20453 0.86163,-0.24705 0,-0.21636 -0.12026,-0.27369 -0.37276,-0.17761 -0.29888,0.11371 -0.31998,0.0888 -0.10642,-0.1263 0.21007,-0.21157 0.32129,-0.21308 0.52718,-0.008 0.20579,0.20579 0.20327,0.35316 -0.0126,0.69827 -0.37188,0.59546 0.0556,1.19617 0.55578,0.78104 0.27605,-0.22918 0.2999,-0.19774 0.16705,0.22064 -0.19472,0.61356 0.19044,1.10635 0.86496,1.10635 0.27852,0 0.50643,-0.0626 0.50643,-0.13937 z M 96.995376,166.9613 c 0.29485,-0.58187 0.53609,-1.10709 0.53609,-1.16719 0,-0.0601 -0.40736,-0.31485 -0.90525,-0.56615 -0.49789,-0.25132 -1.5005,-0.87037 -2.22798,-1.37574 l -1.32273,-0.91883 -0.7742,1.05468 -0.77423,1.05468 0.49943,0.41614 c 0.86371,0.71968 1.32996,0.47575 0.7785,-0.40728 -0.19874,-0.31824 -0.19321,-0.4785 0.0262,-0.7426 0.34128,-0.41123 0.46209,-0.41714 0.96796,-0.0473 0.38348,0.28041 0.38139,0.31009 -0.0659,0.93813 -0.71518,1.00439 -0.57818,1.47939 0.21862,0.75822 0.27874,-0.25225 0.46103,-0.29057 0.62106,-0.13057 0.16,0.16001 0.15849,0.26854 -0.005,0.36965 -0.4541,0.28065 -0.21812,0.72179 0.67369,1.25953 0.4979,0.30021 0.97554,0.54957 1.06143,0.55413 0.0858,0.005 0.39741,-0.46776 0.69226,-1.0496 z m -1.58261,-0.31296 c -0.18843,-0.22718 -0.19321,-0.4192 -0.0176,-0.74552 0.27439,-0.51274 0.40179,-0.53065 0.92937,-0.13082 0.31648,0.23975 0.34506,0.37849 0.1522,0.73872 -0.2764,0.51649 -0.7028,0.57166 -1.06303,0.13762 z m 20.223774,0.18189 c 0,-0.0644 -0.0961,-0.29651 -0.21358,-0.51599 -0.28411,-0.5309 0.18113,-0.83576 0.53563,-0.35097 0.26184,0.35809 0.7436,0.4829 0.74215,0.1922 -4.3e-4,-0.0878 -0.20177,-0.48944 -0.44746,-0.89241 -0.42662,-0.69981 -0.42951,-0.74519 -0.0649,-1.01176 0.52005,-0.38026 0.67155,-0.35322 0.95148,0.16981 0.17384,0.32463 0.17585,0.51329 0.008,0.68162 -0.28572,0.28571 -0.30587,0.78653 -0.0317,0.78653 0.11069,0 0.4439,-0.2156 0.74064,-0.47926 l 0.53953,-0.47925 -0.7538,-1.00195 -0.7538,-1.00195 -0.9986,0.71015 c -0.54922,0.3906 -1.54973,1.01835 -2.22335,1.39504 -0.67362,0.37668 -1.22475,0.72685 -1.22475,0.77812 0,0.0513 0.24152,0.56995 0.53679,1.1526 l 0.53681,1.05933 1.0607,-0.53752 c 0.5834,-0.29562 1.06071,-0.59009 1.06071,-0.65439 z m -2.14948,-0.3383 c -0.20504,-0.38317 -0.18114,-0.5109 0.13962,-0.74552 0.52811,-0.38617 0.67636,-0.35859 0.96421,0.17938 0.20504,0.38317 0.18114,0.5109 -0.13962,0.74552 -0.52813,0.38616 -0.67636,0.35859 -0.96424,-0.17938 z m -8.20583,-1.88025 c 0.075,-0.46838 0.36451,-1.57066 0.64361,-2.44952 l 0.50743,-1.59788 h -1.44578 -1.44576 l 0.50743,1.59788 c 0.27907,0.87886 0.56871,1.98114 0.64361,2.44952 0.075,0.46838 0.20755,0.85163 0.29472,0.85163 0.0873,0 0.21987,-0.38325 0.29474,-0.85163 z m -0.50773,-2.87589 c 0,-0.29288 0.0958,-0.53251 0.21309,-0.53251 0.11723,0 0.21308,0.23975 0.21308,0.53251 0,0.29289 -0.0958,0.53251 -0.21308,0.53251 -0.11724,0 -0.21309,-0.23975 -0.21309,-0.53251 z m -13.587784,1.44777 c 0.44423,-0.43379 0.80773,-0.89309 0.80773,-1.02064 0,-0.12755 -0.42297,-0.64706 -0.93993,-1.15441 l -0.939941,-0.92248 -0.975209,0.81518 -0.975208,0.81516 0.571832,0.59686 c 0.624914,0.65229 1.112895,0.50899 0.726324,-0.21333 -0.18994,-0.355 -0.141385,-0.48416 0.287501,-0.76522 0.493793,-0.32355 0.534624,-0.31208 0.946101,0.26576 l 0.43002,0.60394 -0.61468,0.58888 c -0.338089,0.32391 -0.563728,0.7217 -0.501463,0.88397 0.164531,0.42908 0.28257,0.37962 1.176923,-0.4937 z m 28.828724,0.55734 c 0.0787,-0.1273 -0.14918,-0.53465 -0.50607,-0.90527 l -0.64906,-0.67385 0.43731,-0.59595 c 0.41432,-0.56462 0.45824,-0.57704 0.83468,-0.23648 0.26043,0.23572 0.3559,0.52481 0.27706,0.83898 -0.1829,0.72871 0.20931,0.79226 0.83825,0.13585 l 0.56323,-0.58789 -0.97521,-0.81515 -0.97521,-0.81518 -0.93994,0.92248 c -0.51696,0.50735 -0.93993,1.0183 -0.93993,1.13541 0,0.24679 1.50057,1.82837 1.73466,1.82837 0.0865,0 0.22164,-0.10415 0.30023,-0.23145 z m -22.196684,-1.52598 0.33107,-0.79888 -0.64348,-0.33276 c -0.53278,-0.2755 -0.70111,-0.28494 -0.9784,-0.0548 -0.29397,0.24402 -0.31535,0.21308 -0.17485,-0.25286 0.15347,-0.50889 0.14416,-0.51543 -0.22792,-0.15799 -0.3619,0.34767 -0.36416,0.39661 -0.0335,0.7272 0.29726,0.29724 0.40921,0.30901 0.69369,0.073 0.53093,-0.44064 0.89347,0.0405 0.56826,0.7543 -0.13887,0.30483 -0.19371,0.64929 -0.12201,0.76544 0.16553,0.26798 0.18818,0.24026 0.58718,-0.7225 z m 15.049774,0.5959 c 0,-0.0531 -0.11447,-0.34747 -0.25415,-0.65427 -0.20604,-0.45236 -0.19748,-0.59284 0.046,-0.74333 0.18139,-0.11195 0.41281,-0.0921 0.58434,0.0503 0.21308,0.17685 0.37276,0.14717 0.63852,-0.11875 0.33062,-0.33059 0.32836,-0.37953 -0.0335,-0.7272 -0.37198,-0.35734 -0.38139,-0.3508 -0.22793,0.15799 0.14064,0.46589 0.11925,0.49681 -0.17484,0.25286 -0.27739,-0.2302 -0.44647,-0.22038 -0.98437,0.0579 l -0.64944,0.33583 0.35409,0.74255 c 0.29696,0.62275 0.7012,0.99518 0.7012,0.64607 z m -15.891344,-0.45391 c 0.23296,-0.60683 0.12226,-0.84324 -0.19699,-0.42114 -0.17207,0.22742 -0.3127,0.491 -0.3127,0.58577 0,0.30488 0.37615,0.1834 0.50971,-0.16453 z m 16.298914,-0.33654 c -0.1683,-0.31442 -0.29935,-0.39673 -0.35691,-0.22415 -0.0936,0.28058 0.36222,0.98162 0.52944,0.8144 0.0513,-0.0513 -0.0262,-0.31701 -0.17258,-0.59032 z m -17.021644,0.0604 c 0,-0.10289 -0.20478,-0.32295 -0.45492,-0.48909 -0.4064,-0.26984 -0.42378,-0.35193 -0.16277,-0.76974 0.2642,-0.42308 0.23522,-0.52371 -0.3027,-1.05516 l -0.59477,-0.58751 -0.53131,0.61033 c -0.64665,0.7428 -0.49039,1.03063 0.20504,0.37741 0.44592,-0.4189 0.52921,-0.43384 0.77405,-0.13887 0.22767,0.27447 0.20654,0.40569 -0.12579,0.77277 -0.39402,0.4354 -0.39103,0.45001 0.19547,0.9545 0.61357,0.52778 0.99788,0.65306 0.99788,0.32534 z m 18.423424,-0.32544 c 0.62924,-0.50345 0.63244,-0.51633 0.23674,-0.95344 -0.33294,-0.36791 -0.35445,-0.49923 -0.12655,-0.77373 0.24479,-0.29499 0.32816,-0.28005 0.77408,0.13887 0.69407,0.65206 0.92547,0.29805 0.24805,-0.37942 l -0.55027,-0.5503 -0.64881,0.47968 c -0.62208,0.45993 -0.63493,0.50084 -0.31196,0.99373 0.31596,0.48224 0.30848,0.53394 -0.12101,0.83465 -0.4471,0.31316 -0.61656,0.72348 -0.29794,0.72139 0.0878,-6e-4 0.44678,-0.23069 0.7976,-0.5114 z m -15.654404,-1.40454 c 0,-0.33764 0.0959,-0.67312 0.21309,-0.74552 0.11723,-0.0725 0.21308,-0.21409 0.21308,-0.3147 0,-0.17157 -1.30014,-1.0698 -1.54835,-1.0698 -0.1434,0 -1.00766,1.4535 -1.00766,1.69456 0,0.24252 1.76772,1.2732 1.96959,1.14845 0.0883,-0.0546 0.1605,-0.37538 0.1605,-0.71299 z m -0.90527,-0.23271 c -0.72947,-0.41983 -0.33138,-1.19614 0.48116,-0.93825 0.49309,0.15648 0.52482,0.31764 0.15774,0.80164 -0.19899,0.2625 -0.36036,0.29699 -0.639,0.13661 z m 14.378464,0.29766 0.79963,-0.49746 -0.56169,-0.84879 c -0.30893,-0.46683 -0.62084,-0.84842 -0.69314,-0.84797 -0.0722,4.3e-4 -0.4517,0.19598 -0.84316,0.4347 -0.52516,0.32018 -0.67236,0.52932 -0.56159,0.79795 0.0825,0.20025 0.19573,0.55576 0.25133,0.79005 0.20855,0.87775 0.27756,0.98306 0.54113,0.82725 0.14718,-0.087 0.62761,-0.38211 1.06742,-0.65573 z m -1.29805,-0.32911 c -0.38074,-0.38076 -0.29548,-0.71047 0.2478,-0.958 0.40307,-0.18365 0.53955,-0.15396 0.73598,0.16076 0.18164,0.29092 0.17787,0.43492 -0.0151,0.58411 -0.53168,0.41009 -0.72801,0.45334 -0.96812,0.21333 z m -16.430904,0.57845 c 0.41161,-0.49593 0.11799,-0.58939 -0.32259,-0.10264 -0.21258,0.23497 -0.28773,0.42732 -0.1668,0.42732 0.12101,0 0.34119,-0.14616 0.48937,-0.32466 z m 20.762124,-0.10264 c -0.21258,-0.23498 -0.43288,-0.38112 -0.48936,-0.32464 -0.14315,0.14315 0.38813,0.75196 0.65616,0.75196 0.12101,0 0.0458,-0.1922 -0.1668,-0.42732 z m -26.545847,-1.04223 0.475906,-0.359 -0.985221,-1.85205 c -0.541894,-1.01863 -1.067285,-1.90274 -1.167538,-1.96471 -0.361615,-0.2234 -0.435377,0.32084 -0.124782,0.92135 0.227425,0.43988 0.252079,0.67878 0.08679,0.84394 -0.331904,0.33192 -0.04755,0.89799 0.451025,0.89799 0.233966,0 0.531982,0.1995 0.662525,0.44348 0.192707,0.36023 0.164279,0.49885 -0.152203,0.73873 -0.502724,0.38101 -0.636512,0.37917 -0.786124,-0.0101 -0.06742,-0.17585 -0.224406,-0.3195 -0.348961,-0.3195 -0.412358,0 -0.463755,0.59638 -0.09937,1.15254 0.345716,0.52763 0.380408,0.53533 0.93551,0.2073 0.317061,-0.18717 0.790627,-0.50207 1.052392,-0.69951 z m 34.014737,0.38008 c 0.25869,-0.50026 0.28269,-0.72298 0.0976,-0.90527 -0.18365,-0.18088 -0.32069,-0.13988 -0.54398,0.16252 -0.25837,0.34996 -0.34954,0.36523 -0.67793,0.11346 -0.20855,-0.16 -0.41112,-0.30974 -0.44991,-0.33286 -0.2302,-0.13711 0.47769,-0.93053 0.8302,-0.93053 0.49862,0 0.78293,-0.56607 0.45102,-0.898 -0.16528,-0.16529 -0.14063,-0.40406 0.0868,-0.84394 0.3073,-0.59427 0.25582,-1.02705 -0.12227,-1.02705 -0.10113,0 -0.2872,0.3115 -0.41344,0.69223 -0.12629,0.38076 -0.56919,1.25519 -0.98437,1.94317 -0.41515,0.68801 -0.69485,1.31104 -0.62156,1.38452 0.12151,0.12202 1.84528,1.25954 1.9567,1.29142 0.0262,0.008 0.20227,-0.28489 0.39088,-0.6498 z m -29.710154,-0.31387 0.51636,-0.55133 -0.79573,0.14843 -0.79573,0.14843 0.23472,-0.67301 c 0.30317,-0.86972 0.16277,-0.98784 -0.42761,-0.3595 l -0.47263,0.5031 0.56172,0.66755 c 0.30896,0.36718 0.58443,0.66759 0.61218,0.66759 0.0277,0 0.2828,-0.24806 0.56683,-0.55133 z m 24.560794,-0.13711 0.53873,-0.68836 -0.45312,-0.48232 c -0.57241,-0.60929 -0.70831,-0.48096 -0.40674,0.38411 l 0.23598,0.67681 -0.8968,-0.1434 -0.89679,-0.14339 0.50962,0.54244 c 0.28028,0.29835 0.58179,0.54245 0.67004,0.54245 0.0883,0 0.40285,-0.30976 0.69913,-0.68834 z m -10.49096,-0.25743 c 3.35977,-0.71214 6.21646,-3.05013 7.6584,-6.26779 1.45335,-3.24314 1.34157,-6.51571 -0.34016,-9.96109 -0.77359,-1.5848 -2.80371,-3.74815 -4.19017,-4.46512 -0.90545,-0.46823 -2.92014,-1.15131 -3.39564,-1.15131 -0.80215,0 -0.13032,0.58474 1.04892,0.91294 4.66439,1.29821 7.85034,6.45189 7.11353,11.50708 -0.83501,5.72893 -6.06939,9.73729 -11.6347,8.90956 -3.24729,-0.48298 -5.617414,-1.94282 -7.244984,-4.46245 -1.2045,-1.86468 -1.64609,-3.17856 -1.76742,-5.25859 -0.28494,-4.88465 2.70474,-9.32491 7.181484,-10.66591 0.78688,-0.23573 1.28281,-0.50136 1.28281,-0.68715 0,-0.23347 -0.18315,-0.2701 -0.79875,-0.15975 -1.45109,0.25987 -3.440534,1.34545 -4.743674,2.58841 -2.33958,2.23158 -3.34872,4.40456 -3.55109,7.64649 -0.19749,3.16294 0.74004,5.90086 2.78912,8.14573 2.7824,3.04824 6.510914,4.23414 10.592324,3.36905 z M 86.84392,158.1491 c 0.08378,-0.43188 -0.539253,-0.71491 -0.862402,-0.39176 -0.167549,0.16755 -0.154719,0.32557 0.04629,0.56786 0.332634,0.40078 0.720463,0.31711 0.816112,-0.1761 z m 8.753656,0.10339 c 1.05556,-0.21585 1.25823,-0.67704 0.66416,-1.51131 l -0.48665,-0.68346 -0.75131,0.70866 c -0.74672,0.70434 -0.75294,0.5738 -0.0226,-0.48232 0.34154,-0.49414 0.34843,-0.59925 0.0657,-1.00283 -0.49794,-0.71095 -0.90086,-0.33698 -1.38371,1.2843 -0.24504,0.823 -0.49913,1.63577 -0.56451,1.80616 -0.12177,0.31756 0.48685,0.28831 2.47922,-0.11925 z m 21.250354,0.10164 c -0.0616,-0.16076 -0.31271,-0.96567 -0.55779,-1.78868 -0.48157,-1.61693 -0.83476,-1.95059 -1.40176,-1.32407 -0.34161,0.37749 -0.33869,0.43407 0.0516,0.99737 0.7631,1.1015 0.76554,1.24093 0.0101,0.52756 l -0.75131,-0.70866 -0.48667,0.68345 c -0.66152,0.92905 -0.38058,1.30533 1.20145,1.60933 1.79082,0.34411 2.06609,0.34463 1.93525,0.003 z m 7.15731,-0.13359 c 0.12629,-0.48282 -0.14592,-0.7342 -0.60436,-0.55827 -0.37915,0.14541 -0.40725,0.69604 -0.043,0.84301 0.459,0.18516 0.53306,0.1527 0.64743,-0.28474 z m -17.10175,-0.18566 c 0.306,-0.082 0.66844,-0.42861 0.85202,-0.81445 0.22994,-0.4833 0.51158,-0.70824 1.00492,-0.80268 1.35191,-0.25874 1.58482,-0.9103 1.01334,-2.83468 -0.45615,-1.53602 -1.25146,-2.43296 -2.08362,-2.34989 -0.95667,0.0956 -0.97151,0.55646 -0.0201,0.63671 0.68112,0.0576 0.8543,0.18617 1.23156,0.91571 0.26763,0.51742 0.44152,1.2658 0.44542,1.91701 l 0.008,1.06819 -1.00855,0.19472 c -0.73714,0.14239 -1.04577,0.31437 -1.14695,0.639 -0.20856,0.66892 -0.46859,0.75687 -2.24907,0.76041 -1.64691,0.003 -2.30496,-0.2636 -2.30496,-0.93475 0,-0.15095 -0.443,-0.35417 -1.01176,-0.46406 l -1.01174,-0.19547 -0.0604,-0.95851 c -0.0893,-1.42087 0.67818,-2.83991 1.61293,-2.982 0.87631,-0.13333 0.99244,-0.50936 0.18592,-0.60172 -1.10264,-0.12629 -2.21465,1.46219 -2.420594,3.45761 -0.12755,1.23637 0.0279,1.46477 1.203184,1.76825 0.47513,0.12277 0.85564,0.40894 1.07884,0.81161 0.18969,0.34214 0.57819,0.68728 0.86348,0.76695 0.66695,0.18617 3.1289,0.18743 3.82018,0.002 z m -14.697054,-0.66084 c 0.52078,-0.40174 0.52441,-0.42393 0.16503,-1.00701 -0.20201,-0.32793 -0.48959,-0.56058 -0.639,-0.51701 -0.14944,0.0435 -0.42854,0.12378 -0.62029,0.17837 -0.47585,0.13534 -1.615918,-2.26476 -1.200944,-2.52814 0.369389,-0.23447 0.591074,-0.22164 0.591074,0.0342 0,0.11723 -0.09585,0.21308 -0.213081,0.21308 -0.117234,0 -0.213085,0.0991 -0.213085,0.22038 0,0.14944 0.137109,0.14717 0.426016,-0.008 0.46413,-0.2483 0.50871,-0.39193 0.24881,-0.80132 -0.13157,-0.20729 -0.325764,-0.21459 -0.84874,-0.0325 -0.372961,0.13007 -0.678123,0.32202 -0.678123,0.42667 0,0.45211 1.358033,3.17605 1.583443,3.17605 0.13661,0 0.35933,-0.11095 0.49495,-0.24655 0.18667,-0.18667 0.3317,-0.17585 0.59757,0.0448 0.31973,0.26537 0.29683,0.33467 -0.25721,0.77803 -0.74879,0.59917 -0.20957,0.66481 0.56328,0.0687 z m 26.219104,0.0176 c -0.32909,-0.25301 -0.46486,-0.51809 -0.37943,-0.74076 0.14944,-0.38977 0.48044,-0.45493 0.67893,-0.13384 0.31437,0.50866 0.73292,0.11371 1.35599,-1.27989 0.36715,-0.82107 0.66753,-1.57852 0.66753,-1.68317 0,-0.10466 -0.30516,-0.29666 -0.67812,-0.42667 -0.523,-0.1824 -0.71709,-0.17485 -0.84854,0.0324 -0.24629,0.38848 -0.0966,0.6874 0.37281,0.74431 0.22466,0.0272 0.28853,-0.005 0.14214,-0.0709 -0.28773,-0.13007 -0.36803,-0.51307 -0.10641,-0.50773 0.0878,0.002 0.28272,0.0813 0.43303,0.1766 0.21409,0.13585 0.1673,0.40031 -0.21635,1.22148 -0.76077,1.62878 -0.75385,1.62231 -1.33257,1.24311 -0.48929,-0.32058 -0.52089,-0.30755 -0.86432,0.35656 -0.34752,0.67206 -0.34388,0.69895 0.14617,1.07589 0.27645,0.21258 0.64642,0.38657 0.82215,0.38657 0.21434,0 0.15094,-0.12956 -0.19296,-0.39402 z m -32.183113,-0.46126 c 0,-0.0991 -0.105913,-0.41274 -0.235475,-0.69692 -0.163524,-0.35877 -0.358797,-0.48446 -0.639002,-0.41117 -0.485893,0.12704 -0.48617,0.13031 -0.08227,0.91108 0.208808,0.40383 0.432358,0.57845 0.639002,0.49915 0.174845,-0.0672 0.317816,-0.20302 0.317816,-0.30214 z m 5.480249,-0.11598 c -0.14918,-0.14893 -0.79425,0.15321 -0.79425,0.37206 0,0.10893 0.19975,0.0908 0.44426,-0.04 0.24428,-0.13082 0.40182,-0.28018 0.34999,-0.33203 z m 27.102714,0.12051 c -0.50509,-0.31943 -0.77797,-0.22039 -0.32888,0.11949 0.22566,0.17082 0.4626,0.2584 0.52632,0.19472 0.0636,-0.0636 -0.0252,-0.20503 -0.19749,-0.31404 z m 5.8783,-0.23296 c 0.28478,-0.55073 0.29505,-0.69893 0.0586,-0.84854 -0.42528,-0.26924 -0.66282,-0.12378 -0.88474,0.54199 -0.14818,0.44489 -0.12453,0.64426 0.0931,0.78218 0.39024,0.24729 0.3433,0.27766 0.73284,-0.47563 z m -21.06673,-0.48992 c -0.0704,-0.18365 -0.22692,-0.33382 -0.34778,-0.33382 -0.24503,0 -0.30104,0.69963 -0.0742,0.92655 0.23396,0.23372 0.56212,-0.22742 0.42191,-0.59273 z m 1.13654,0.18314 c 0,-0.69915 -0.71256,-0.63694 -0.81357,0.071 -0.0518,0.36237 0.038,0.47709 0.37276,0.47709 0.33155,0 0.44081,-0.13585 0.44081,-0.54811 z m 1.23957,0.0689 c -0.0375,-0.26358 -0.21183,-0.47926 -0.38758,-0.47926 -0.17585,0 -0.35012,0.2156 -0.38755,0.47926 -0.0523,0.36886 0.037,0.47925 0.38755,0.47925 0.35067,0 0.43995,-0.11044 0.38758,-0.47925 z m 0.89042,-0.17233 c 0,-0.44439 -0.31333,-0.555 -0.5388,-0.19019 -0.19321,0.3126 0.0642,0.89699 0.32431,0.73623 0.11799,-0.073 0.21459,-0.31862 0.21459,-0.54602 z m -15.288214,-0.74527 c 0.22667,-0.22667 -0.356,-1.37217 -0.69804,-1.37217 -0.555004,0 -0.631206,0.22768 -0.29435,0.879 0.29379,0.56814 0.7104,0.77516 0.99239,0.49317 z m -0.77558,-0.65714 c -0.20302,-0.52884 0.0201,-0.60104 0.29198,-0.0943 0.13082,0.24453 0.14893,0.44425 0.04,0.44425 -0.10868,0 -0.25814,-0.15748 -0.332,-0.34999 z m 28.520144,0.14516 c 0.30207,-0.58416 0.29714,-0.6464 -0.0667,-0.84115 -0.3279,-0.1756 -0.44926,-0.0923 -0.73294,0.50265 -0.18692,0.39211 -0.28229,0.77063 -0.21182,0.84115 0.29363,0.29363 0.70556,0.0888 1.01148,-0.50265 z m -0.51852,-0.2395 c 0.13082,-0.24428 0.28015,-0.40182 0.332,-0.35 0.14919,0.14919 -0.15321,0.79425 -0.37205,0.79425 -0.10894,0 -0.0908,-0.19975 0.04,-0.44425 z m -10.02082,0.23119 c 0.12554,-0.23421 0.20076,-0.43575 0.1673,-0.44767 -0.23321,-0.0833 -7.75417,-0.13485 -7.88469,-0.0543 -0.0906,0.0561 -0.0652,0.2877 0.0564,0.5149 0.20528,0.38377 0.47668,0.41306 3.82709,0.41306 3.38805,0 3.61983,-0.0257 3.83402,-0.426 z m -22.881775,-0.23924 c 0.522447,-0.13158 0.992643,-0.30828 1.044819,-0.39274 0.08025,-0.13006 -0.135347,-1.19491 -0.417238,-2.05957 -0.05786,-0.17787 -0.399578,-0.16755 -1.287615,0.039 -0.664814,0.15447 -1.233853,0.31135 -1.264596,0.34851 -0.128807,0.15547 0.595656,2.30403 0.776765,2.30403 0.108933,0 0.625393,-0.10767 1.147865,-0.23925 z m -0.872918,-1.05486 c -0.16126,-0.50793 -0.152203,-0.52177 0.467177,-0.71188 0.355854,-0.10919 0.495755,-0.0357 0.608536,0.31962 0.09308,0.29334 0.04126,0.52824 -0.142643,0.64464 -0.474044,0.30038 -0.784313,0.21636 -0.93312,-0.25238 z m 40.556483,0.34773 c 0.37523,-1.49014 0.34589,-1.55492 -0.77347,-1.70886 -0.55646,-0.0765 -1.1019,-0.13811 -1.21209,-0.13685 -0.24931,0.003 -0.7785,1.99353 -0.58205,2.18956 0.16931,0.16881 1.48377,0.55568 1.98187,0.5832 0.2395,0.0126 0.42156,-0.27512 0.58574,-0.9271 z m -1.64827,-0.0923 c -0.39946,-0.25726 -0.1039,-1.16507 0.32571,-1.00024 0.17485,0.0669 0.41236,0.12201 0.52808,0.12201 0.11573,0 0.17988,0.2146 0.1424,0.47709 -0.0735,0.51525 -0.53216,0.70001 -0.99612,0.40124 z m -32.436154,-0.57374 c -0.25605,-0.57755 -0.50612,-0.92958 -0.55575,-0.7823 -0.0496,0.14717 0.1273,0.71726 0.39334,1.26665 0.62939,1.30012 0.76896,0.88384 0.16226,-0.48435 z m 27.284434,-0.045 c 0.44194,-1.10504 0.0938,-1.04441 -0.39895,0.0694 -0.24403,0.5518 -0.4438,1.10826 -0.4438,1.23659 0,0.32197 0.50405,-0.4592 0.84275,-1.30605 z m -25.487024,0.885 c 0.37493,-0.1907 0.71818,-0.37888 0.76278,-0.41835 0.0445,-0.0395 -0.13233,-0.59789 -0.39344,-1.24092 l -0.47452,-1.16915 -0.88459,0.34413 c -0.48652,0.18919 -0.91252,0.36448 -0.94668,0.38936 -0.12478,0.0908 0.91926,2.44092 1.08444,2.44122 0.0936,1.5e-4 0.47709,-0.15573 0.85201,-0.34629 z m -0.96154,-1.05318 c -0.20202,-0.44345 -0.19095,-0.58478 0.0579,-0.74224 0.45661,-0.28889 0.53432,-0.25412 0.81661,0.36543 0.20629,0.45266 0.20252,0.60177 -0.0201,0.74225 -0.44215,0.28046 -0.5898,0.21737 -0.85536,-0.36544 z m 25.745964,0.2146 c 0.29842,-0.65183 0.50876,-1.21136 0.46745,-1.24336 -0.0413,-0.032 -0.48164,-0.21661 -0.97853,-0.40992 l -0.90341,-0.35168 -0.32752,0.78386 c -0.62457,1.49481 -0.61307,1.6483 0.1522,2.02881 0.38733,0.1927 0.78142,0.3563 0.87576,0.3638 0.0943,0.008 0.4157,-0.51968 0.71412,-1.17151 z m -1.37582,0.15069 c -0.22139,-0.14038 -0.22541,-0.28959 -0.0201,-0.74225 0.27832,-0.61082 0.36315,-0.65258 0.78371,-0.38576 0.20479,0.12981 0.21963,0.31854 0.0586,0.74225 -0.22843,0.60111 -0.37528,0.66987 -0.82318,0.38576 z m -13.61641,-0.045 c -0.0767,-0.29291 -0.18617,-0.36878 -0.32778,-0.22717 -0.25397,0.25394 -0.0312,0.95996 0.2483,0.78718 0.10692,-0.0662 0.14265,-0.31814 0.0795,-0.56008 z m 0.79402,0.10818 c 0,-0.30914 -0.0921,-0.48808 -0.21308,-0.41344 -0.11724,0.0725 -0.21309,0.31769 -0.21309,0.54509 0,0.22742 0.0958,0.41341 0.21309,0.41341 0.11723,0 0.21308,-0.24528 0.21308,-0.54506 z m 0.85201,0.0126 c 0,-0.29289 -0.0958,-0.53251 -0.21308,-0.53251 -0.11724,0 -0.21309,0.2395 -0.21309,0.53251 0,0.29286 0.0958,0.53248 0.21309,0.53248 0.11723,0 0.21308,-0.2395 0.21308,-0.53248 z m 0.85199,0 c 0,-0.29289 -0.0958,-0.53251 -0.21309,-0.53251 -0.11723,0 -0.21308,0.2395 -0.21308,0.53251 0,0.29286 0.0958,0.53248 0.21308,0.53248 0.11724,0 0.21309,-0.2395 0.21309,-0.53248 z m 0.85201,0.11899 c 0,-0.22742 -0.0958,-0.47268 -0.21308,-0.54509 -0.12076,-0.0747 -0.21309,0.10441 -0.21309,0.41344 0,0.29978 0.0958,0.54507 0.21309,0.54507 0.11723,0 0.21308,-0.18592 0.21308,-0.41342 z m 0.7668,-0.35339 c -0.10314,-0.26868 -0.20553,-0.30553 -0.37605,-0.13509 -0.12881,0.1288 -0.17057,0.40053 -0.0926,0.60373 0.10314,0.26868 0.20554,0.30554 0.37608,0.1351 0.12881,-0.12881 0.17057,-0.40056 0.0926,-0.60376 z m -7.999024,-0.0319 c 1.232094,-1.10097 0.997574,-3.46553 -0.41624,-4.19663 -0.57729,-0.29852 -0.73809,-0.30212 -1.38713,-0.031 -1.5645,0.65367 -1.88544,3.04264 -0.56703,4.22067 0.8383,0.74901 1.5376,0.75105 2.3704,0.008 z m -1.80093,-0.88383 c -0.43838,-0.48439 -0.50952,-1.58267 -0.13208,-2.03754 0.32378,-0.39014 1.09775,-0.42806 1.45453,-0.0712 0.3978,0.3978 0.31364,1.75585 -0.13383,2.16089 -0.50243,0.4547 -0.73936,0.44433 -1.1886,-0.0521 z m 4.732594,1.09684 c -0.0395,-0.20503 -0.21283,-0.37276 -0.38547,-0.37276 -0.17258,0 -0.34596,0.1678 -0.38543,0.37276 -0.0503,0.26154 0.0647,0.37276 0.38543,0.37276 0.32081,0 0.43583,-0.11119 0.38547,-0.37276 z m 6.3905,0.002 c -0.10692,-0.55522 -0.81193,-0.61716 -0.81193,-0.0712 0,0.30481 0.13685,0.44161 0.44161,0.44161 0.30484,0 0.41953,-0.11472 0.37032,-0.37032 z m 4.37274,-0.0672 c 1.2967,-1.01996 1.21911,-3.42538 -0.13761,-4.26343 -1.3688,-0.84557 -2.71196,0.0994 -2.87121,2.01983 -0.0931,1.12271 -0.0611,1.21748 0.65226,1.93084 0.86424,0.86424 1.54115,0.95408 2.35646,0.31276 z m -1.49708,-0.79493 c -0.13912,-0.0886 -0.35578,-0.4313 -0.48146,-0.76189 -0.44408,-1.16805 0.71993,-2.34585 1.59811,-1.61703 0.44418,0.36863 0.39215,1.7649 -0.0818,2.19376 -0.42821,0.38753 -0.65335,0.42781 -1.03491,0.18516 z m -21.082,-0.48491 c -0.166543,-1.46545 -0.329791,-1.932 -0.634575,-1.81504 -0.178115,0.0684 -0.507805,0.12428 -0.732513,0.12428 -0.224657,0 -0.408584,0.0994 -0.408584,0.22113 0,0.12151 0.257614,0.19346 0.572486,0.15975 0.491,-0.0526 0.592964,0.0357 0.716437,0.62041 0.131826,0.62414 0.09233,0.69304 -0.46783,0.81609 -0.336508,0.074 -0.564662,0.21057 -0.507051,0.30388 0.179877,0.291 1.499492,-0.0976 1.46163,-0.43045 z m 30.32371,0.16956 c -0.48063,-0.16025 -0.57525,-0.31583 -0.57525,-0.94612 0,-0.72459 0.0252,-0.74932 0.639,-0.62658 0.36046,0.0722 0.63901,0.0372 0.63901,-0.08 0,-0.11421 -0.33367,-0.20755 -0.74145,-0.20755 -0.77294,0 -0.8543,0.11975 -1.00922,1.48656 -0.0493,0.43601 0.0516,0.55007 0.57915,0.65428 0.85096,0.16805 1.19567,-0.0382 0.46876,-0.28059 z m -12.55654,0.003 c -0.0654,-0.19648 -0.8887,-0.26624 -3.14178,-0.26624 -2.25307,0 -3.07627,0.0697 -3.14176,0.26624 -0.0684,0.20528 0.65201,0.26627 3.14176,0.26627 2.48974,0 3.21018,-0.0611 3.14178,-0.26627 z m -18.477846,-0.72378 c 0,-0.40524 -0.60826,-0.61689 -0.908918,-0.31626 -0.179626,0.17962 -0.135348,0.24554 0.17409,0.25812 0.228431,0.0101 0.295551,0.0651 0.149184,0.12427 -0.436056,0.17586 -0.301765,0.46733 0.159751,0.34665 0.234217,-0.0614 0.426018,-0.24705 0.426018,-0.41276 z m 31.304956,0.12981 c -0.26279,-0.16629 -0.25321,-0.19875 0.0594,-0.20151 0.20503,-0.002 0.37276,-0.0991 0.37276,-0.21636 0,-0.11723 -0.1917,-0.21308 -0.42602,-0.21308 -0.23422,0 -0.426,0.04 -0.426,0.0891 0,0.0491 -0.0551,0.23221 -0.12226,0.40738 -0.0762,0.19849 0.0252,0.35065 0.26624,0.40421 0.51981,0.11497 0.6629,-0.0252 0.27573,-0.26999 z m -34.97922,-0.53503 c 0.193461,-0.0599 0.266267,-0.77659 0.266267,-2.62441 v -2.54215 l -1.118254,-0.0885 c -0.615052,-0.0488 -1.190155,-0.0523 -1.278005,-0.008 -0.0878,0.0443 -0.15975,0.46539 -0.15975,0.93566 0,0.69941 0.06793,0.84212 0.372734,0.78401 0.205034,-0.039 0.403377,-0.28574 0.440811,-0.54811 0.04906,-0.34458 0.211827,-0.47709 0.585769,-0.47709 0.436685,0 0.517693,0.10315 0.517693,0.65896 0,0.4798 -0.115725,0.68921 -0.426019,0.77032 -0.275676,0.0722 -0.425993,0.29055 -0.425993,0.61908 0,0.36566 0.119247,0.50765 0.425993,0.50765 0.344861,0 0.426019,0.14189 0.426019,0.7455 0,0.64753 -0.06818,0.74552 -0.517693,0.74552 -0.373917,0 -0.536611,-0.13258 -0.585769,-0.47709 -0.03749,-0.26239 -0.235726,-0.50904 -0.440811,-0.54811 -0.303501,-0.0579 -0.372734,0.0835 -0.372734,0.76107 0,0.45767 0.05384,0.8861 0.120001,0.95206 0.116228,0.11623 1.631092,1.8e-4 2.169816,-0.16629 z m 40.31042,-0.76283 c 0,-0.6994 -0.0679,-0.84212 -0.37276,-0.78401 -0.20504,0.039 -0.40338,0.28572 -0.44081,0.54811 -0.0491,0.34458 -0.21183,0.47709 -0.58575,0.47709 -0.44964,0 -0.51769,-0.0979 -0.51769,-0.74552 0,-0.6035 0.0813,-0.74549 0.42599,-0.74549 0.31241,0 0.42602,-0.14189 0.42602,-0.53251 0,-0.3905 -0.11371,-0.53249 -0.42602,-0.53249 -0.34486,0 -0.42599,-0.14189 -0.42599,-0.74552 0,-0.64751 0.0682,-0.74549 0.51769,-0.74549 0.37389,0 0.53659,0.13258 0.58575,0.47708 0.0375,0.26237 0.24176,0.51017 0.45394,0.55065 0.32989,0.0629 0.37626,-0.0533 0.3195,-0.80033 -0.0365,-0.48067 -0.13837,-0.87224 -0.22617,-0.87015 -0.0878,0.002 -0.64197,0.003 -1.23131,0.003 h -1.07156 l 0.0599,2.60927 0.0599,2.60924 1.06502,0.11246 c 0.58574,0.0619 1.1369,0.08 1.22475,0.0408 0.0878,-0.0395 0.15975,-0.45643 0.15975,-0.9267 z m -20.24556,0.64952 c 0.90761,-0.19472 1.07548,-0.30596 1.07548,-0.71319 0,-0.36753 -0.20931,-0.56469 -0.87769,-0.82731 l -0.87768,-0.34476 0.14491,-1.6578 c 0.21485,-2.46001 0.43377,-3.00724 1.25202,-3.13036 2.1483,-0.32323 2.66016,-0.31314 3.40616,0.0672 0.75666,0.38574 0.99941,0.28939 0.99941,-0.39674 0,-0.49356 -2.2583,-0.91525 -3.90418,-0.72906 -1.36372,0.15421 -2.05985,0.6591 -2.05985,1.49373 0,0.26388 -0.0958,0.539 -0.21309,0.6114 -0.12126,0.075 -0.21308,-0.10742 -0.21308,-0.4231 0,-1.58075 -2.89406,-2.30642 -5.378294,-1.34857 -0.60562,0.23346 -0.66821,0.35045 -0.46755,0.87335 0.10063,0.26216 0.22692,0.2525 0.84954,-0.0649 0.555564,-0.28322 1.051994,-0.34682 2.065094,-0.26446 1.5683,0.12755 2.0322,0.33085 2.28778,1.00301 0.15321,0.403 0.29877,2.82847 0.23296,3.88242 -0.008,0.13736 -0.35108,0.36043 -0.7611,0.49575 -0.41001,0.13535 -0.74549,0.3824 -0.74549,0.54904 0,0.16655 -0.0252,0.37488 -0.0533,0.46273 -0.0292,0.0878 0.37806,0.27185 0.90524,0.40886 1.23989,0.32224 1.09156,0.31887 2.33254,0.0528 z m -3.34428,-1.53313 c 0.96045,-0.63153 1.22475,-0.92255 1.22475,-1.34864 v -0.54333 l -0.75895,0.46906 c -0.97672,0.60366 -2.04403,0.45722 -2.95051,-0.40481 -0.507884,-0.483 -0.759134,-0.58552 -1.106684,-0.4515 -0.46481,0.17912 -0.87795,0.90182 -0.57432,1.00454 0.6633,0.22441 1.642664,1.03023 2.011304,1.65502 0.27134,0.4599 0.53173,0.68219 0.6839,0.5838 0.1351,-0.0873 0.7969,-0.52124 1.47051,-0.96414 z m 6.65627,0.43229 c 0.37968,-0.60258 1.46276,-1.49909 2.04592,-1.69348 0.36503,-0.12177 -0.0511,-0.83051 -0.61309,-1.04415 -0.43395,-0.16503 -0.58877,-0.12226 -0.83589,0.23045 -0.35434,0.50589 -1.36663,1.0696 -1.92078,1.0696 -0.21258,0 -0.73593,-0.18717 -1.16303,-0.41621 -0.721,-0.38642 -0.78658,-0.39024 -0.91627,-0.0533 -0.0926,0.2405 0.0269,0.49132 0.35372,0.74333 1.42756,1.10052 2.42207,1.82417 2.51691,1.83152 0.0586,0.005 0.29822,-0.29603 0.53251,-0.66788 z m -16.294564,-1.33101 c 0,-0.87863 -0.074,-1.59751 -0.16453,-1.59751 -0.19321,0 -3.420702,1.23081 -3.731902,1.42314 -0.175851,0.10868 3.222632,1.70578 3.736752,1.7562 0.0878,0.008 0.15975,-0.70321 0.15975,-1.58183 z m -1.33126,0.16 c -0.49546,-0.11246 -0.4741,-0.40323 0.0395,-0.53754 0.23523,-0.0616 0.45991,0.0176 0.52321,0.18138 0.13358,0.34813 -0.0596,0.47045 -0.5627,0.35621 z m 28.576694,0.10012 c 0.66041,-0.28574 0.68962,-0.33399 0.3195,-0.52815 -0.40994,-0.2151 -3.44017,-1.32933 -3.61504,-1.32933 -0.0516,0 -0.0938,0.71807 -0.0938,1.59569 v 1.59567 l 1.33124,-0.50969 c 0.73221,-0.28033 1.65833,-0.6512 2.05809,-0.82419 z m -2.70894,-0.29265 c 0.0523,-0.25616 0.22641,-0.36768 0.49882,-0.31981 0.7625,0.13409 0.73747,0.30783 -0.0805,0.55961 -0.41153,0.12679 -0.48474,0.0848 -0.41827,-0.23975 z m -28.405303,0.71817 c -0.194971,-0.14264 -0.530346,-0.3793 -0.745519,-0.52574 -0.379603,-0.25835 -0.379603,-0.27415 0,-0.53249 1.140871,-0.77649 1.144066,-0.78484 0.301061,-0.79198 l -0.798753,-0.008 v 1.06499 1.065 l 0.798753,-0.008 c 0.680512,-0.005 0.746299,-0.0453 0.444458,-0.26624 z m 7.084249,-1.55896 c 0.0312,-0.58635 -0.0151,-1.18241 -0.10315,-1.32455 -0.3443,-0.55709 -0.55628,0.0599 -0.55628,1.61899 0,1.46817 0.0304,1.58905 0.30141,1.20198 0.16579,-0.23673 0.3269,-0.91008 0.35802,-1.49642 z m 17.982234,-1.10304 c -0.0694,-0.27678 -0.24252,-0.46433 -0.38471,-0.41673 -0.3233,0.10817 -0.21811,2.39819 0.13661,2.97043 0.20378,0.32878 0.25485,0.19195 0.30926,-0.82829 0.036,-0.67219 0.008,-1.44863 -0.0611,-1.72541 z m 7.77045,1.87001 v -1.06499 l -0.79875,0.008 c -0.84301,0.008 -0.83984,0.0151 0.30103,0.79198 0.3796,0.25834 0.3796,0.27414 0,0.53249 -1.14087,0.77649 -1.14404,0.78484 -0.30103,0.79198 l 0.79875,0.008 z m -37.528116,0.15674 c 0.08478,-0.44019 -0.530121,-0.73679 -0.854653,-0.41226 -0.324533,0.32453 -0.02793,0.93941 0.412257,0.85465 0.204028,-0.0392 0.4031,-0.23849 0.442396,-0.44239 z m 41.894616,-0.0501 c 0,-0.23094 -0.1678,-0.45246 -0.37274,-0.49195 -0.27919,-0.0538 -0.37276,0.0697 -0.37276,0.49195 0,0.42225 0.0936,0.54572 0.37276,0.49196 0.20504,-0.0395 0.37274,-0.26086 0.37274,-0.49196 z m -28.861604,-0.72808 c 0,-0.22466 0.0581,-0.56019 0.12931,-0.7455 0.0926,-0.24151 0.002,-0.33691 -0.3195,-0.33691 -0.2468,0 -0.4501,0.11975 -0.45171,0.26624 -0.002,0.14642 -0.0606,0.48192 -0.13132,0.7455 -0.10365,0.38652 -0.0413,0.47925 0.32239,0.47925 0.30245,0 0.45085,-0.13459 0.45085,-0.40858 z m 15.632114,-0.17711 c -0.27238,-1.15564 -0.93725,-1.20978 -0.76887,-0.0626 0.0679,0.46237 0.21158,0.64836 0.50104,0.64836 0.33427,0 0.38152,-0.1034 0.26783,-0.58575 z m -10.25385,-0.49045 c 0.43933,-0.12201 0.79875,-0.29646 0.79875,-0.38768 0,-0.3432 -1.00366,-1.0905 -1.63388,-1.21657 -0.53357,-0.10667 -0.78821,-0.0101 -1.37429,0.515 l -0.719334,0.64597 0.745504,0.32542 c 0.89729,0.39163 1.14859,0.40521 2.18325,0.11799 z m 6.63941,-0.24981 c 0.395,-0.21133 0.37978,-0.25636 -0.28944,-0.85431 -0.57274,-0.51175 -0.83027,-0.60637 -1.3613,-0.50018 -0.63357,0.1268 -1.63391,0.87393 -1.63391,1.22047 0,0.54678 2.33535,0.64205 3.28465,0.13409 z m 1.10057,-0.90497 c -1.00603,-1.31896 -2.14592,-1.67784 -3.35059,-1.05488 -0.77057,0.39849 -0.69047,0.64202 0.0936,0.28473 0.75631,-0.34461 1.60447,-0.079 2.38277,0.74627 1.13129,1.19952 1.78446,1.21735 0.87415,0.0226 z m -20.411958,-0.48635 c 0.210821,-0.86781 0.197487,-0.91249 -0.308582,-1.03951 -0.477894,-0.12 -0.514901,-0.20654 -0.384836,-0.89979 0.233462,-1.24447 0.461315,-1.52394 1.132842,-1.38965 0.49734,0.0994 0.63611,0.0226 0.8651,-0.48011 0.24503,-0.53799 0.22541,-0.63686 -0.19422,-0.97664 -0.25678,-0.20805 -0.62401,-0.375 -0.81604,-0.37127 -0.299597,0.005 -0.291949,0.0501 0.0538,0.31182 0.22164,0.1678 0.4907,0.3343 0.59795,0.37005 0.35006,0.11673 -0.0858,0.84109 -0.44454,0.73897 -0.18893,-0.0538 -0.479551,-0.13333 -0.645993,-0.17685 -0.29364,-0.077 -0.829848,1.04021 -1.161023,2.41877 -0.119247,0.49666 -0.06189,0.60046 0.395779,0.71533 0.533945,0.13409 0.670953,0.55204 0.406647,1.24077 -0.08906,0.23246 -0.285437,0.29606 -0.639002,0.2073 -0.293841,-0.0737 -0.510296,-0.034 -0.510296,0.0938 0,0.23573 1.081398,0.44939 1.301829,0.25731 0.0717,-0.0624 0.229437,-0.52161 0.350495,-1.02034 z m 9.752664,0.6149 c 0.737794,-0.87681 1.617554,-1.19828 2.468064,-0.9018 0.37404,0.13032 0.72137,0.19573 0.77183,0.14542 0.15246,-0.15246 -1.17191,-0.76218 -1.65524,-0.76218 -0.7935,0 -2.119174,0.90306 -2.579664,1.75726 -0.34018,0.6311 0.41573,0.44979 0.99501,-0.2385 z m 21.397154,0.17736 c 0,-0.12151 -0.2636,-0.19346 -0.58577,-0.15975 -0.52036,0.0543 -0.59319,-0.0151 -0.65249,-0.63095 -0.0445,-0.46234 0.0262,-0.69332 0.21309,-0.69551 0.76388,-0.0101 0.8312,-0.31648 0.38518,-1.7605 -0.49387,-1.59899 -0.65226,-1.77109 -1.27478,-1.3852 -0.36811,0.22818 -0.4752,0.22063 -0.64673,-0.046 -0.15371,-0.23874 -0.0579,-0.44038 0.37925,-0.79769 0.42547,-0.34793 0.48967,-0.4785 0.23573,-0.47926 -0.19195,-5.7e-4 -0.55925,0.16906 -0.81604,0.37699 -0.41505,0.33608 -0.43751,0.4425 -0.20226,0.9585 0.28855,0.63335 0.44717,0.68905 1.04733,0.36786 0.34755,-0.18592 0.44964,-0.0727 0.81581,0.90524 0.45656,1.21939 0.42984,1.43736 -0.1761,1.43736 -0.54597,0 -0.59931,0.17258 -0.3782,1.22477 0.17913,0.85276 0.23271,0.90524 0.92324,0.90524 0.40312,0 0.73296,-0.0994 0.73296,-0.22113 z m -23.180624,-0.34445 c 0.83304,-0.7539 0.2846,-2.20351 -0.83367,-2.20351 -1.19602,0 -1.74569,1.29114 -0.90681,2.13002 0.51797,0.51797 1.21672,0.54748 1.74048,0.0735 z m -1.40578,-0.40821 c -0.18416,-0.18415 -0.3347,-0.41686 -0.3347,-0.51729 0,-0.27356 0.63216,-0.85199 0.93111,-0.85199 0.7586,0 1.03211,1.12429 0.36088,1.48349 -0.53283,0.28519 -0.56129,0.28179 -0.95729,-0.11421 z m 16.705364,0.33472 c 0.51175,-0.51175 0.54068,-1.01946 0.0943,-1.6566 -0.69048,-0.9858 -2.43742,-0.37515 -2.43742,0.85199 0,0.54924 0.76658,1.2306 1.3845,1.2306 0.29288,0 0.72421,-0.1917 0.9585,-0.42599 z m -1.33127,-0.23019 c -0.46428,-0.27042 -0.48189,-0.9052 -0.0355,-1.27577 0.66404,-0.55107 1.49612,0.51704 0.93217,1.19657 -0.30013,0.36164 -0.39712,0.37022 -0.89677,0.0793 z M 93.350596,145.4937 c 0.0735,-0.43933 0.18919,-1.00082 0.25719,-1.24781 0.10591,-0.38514 -0.008,-0.48212 -0.79266,-0.6816 -1.06913,-0.27137 -1.14274,-0.20528 -1.35633,1.21914 -0.18742,1.24967 -0.21006,1.16686 0.36232,1.32804 1.14372,0.32212 1.38883,0.22315 1.52948,-0.61777 z m -1.0909,0.0176 c -0.38084,-0.15371 -0.32944,-1.12605 0.0677,-1.27841 0.47857,-0.18365 0.71641,0.15623 0.58345,0.83373 -0.11673,0.59472 -0.1771,0.63593 -0.65102,0.44468 z m 26.348114,0.42924 c 0.0943,-0.0878 -0.33953,-2.41342 -0.47568,-2.54959 -0.0717,-0.0717 -1.69178,0.33434 -1.82232,0.45668 -0.0397,0.0372 0.0488,0.60793 0.19648,1.26824 l 0.26866,1.20055 0.86857,-0.1434 c 0.47771,-0.0787 0.91163,-0.1834 0.96431,-0.23245 z m -1.54234,-0.87269 c -0.12981,-0.67888 -0.0319,-0.90648 0.39009,-0.90648 0.42834,0 0.66233,1.05964 0.28657,1.2976 -0.46038,0.29155 -0.55681,0.23573 -0.67666,-0.39112 z m -27.547929,0.68298 c 0.127549,-0.33261 -0.407376,-0.6942 -0.657292,-0.44426 -0.07296,0.073 -0.02013,0.13283 0.115725,0.13283 0.136606,0 0.248557,0.0928 0.248557,0.20629 0,0.11346 -0.14365,0.1512 -0.319501,0.0838 -0.175852,-0.0674 -0.319501,-0.0176 -0.319501,0.11321 0,0.35895 0.788966,0.28126 0.932113,-0.0918 z m 31.870029,0.0918 c 0,-0.12981 -0.14365,-0.18063 -0.3195,-0.11321 -0.17586,0.0674 -0.31951,0.0377 -0.31951,-0.0659 0,-0.10365 0.11975,-0.23698 0.26625,-0.296 0.14641,-0.0591 0.0506,-0.11497 -0.21309,-0.12428 -0.52398,-0.0176 -0.53965,0.005 -0.34994,0.49827 0.14566,0.3798 0.93571,0.46516 0.93571,0.10113 z m -30.154664,-1.46822 c 0.0991,-0.68044 0.0772,-0.85989 -0.0747,-0.61852 -0.11774,0.18692 -0.27171,0.76207 -0.34197,1.278 -0.086,0.63153 -0.0616,0.83362 0.0747,0.61853 0.11145,-0.17586 0.26526,-0.75083 0.34196,-1.27801 z m 28.023464,1.01174 c -0.002,-0.44796 -0.43083,-1.84232 -0.59845,-1.94592 -0.0868,-0.0536 -0.0626,0.42212 0.0536,1.0573 0.11648,0.63518 0.2868,1.15489 0.37875,1.15489 0.0921,0 0.16655,-0.11975 0.16604,-0.26627 z m -32.599145,-0.95851 c 0.378345,-1.36238 0.321867,-1.47833 -0.858024,-1.76138 -0.612486,-0.14692 -1.161928,-0.17937 -1.265803,-0.0745 -0.266142,0.26843 -0.639405,2.0764 -0.463579,2.24548 0.08201,0.0788 0.436635,0.18441 0.788086,0.23422 1.514134,0.2156 1.565732,0.19699 1.79932,-0.64396 z m -1.692803,-0.58578 c 0,-0.41585 0.108933,-0.53251 0.496988,-0.53251 0.631078,0 0.761394,0.1356 0.626499,0.65135 -0.06893,0.26358 -0.292356,0.41367 -0.615832,0.41367 -0.399502,0 -0.507655,-0.11346 -0.507655,-0.53251 z m 40.114268,1.18505 c 0.44861,-0.10415 0.85057,-0.22416 0.89329,-0.26695 0.0732,-0.0732 -0.23371,-1.69253 -0.42252,-2.23014 -0.0636,-0.18139 -0.38728,-0.16026 -1.21909,0.08 -0.62277,0.17987 -1.16706,0.35774 -1.20955,0.3953 -0.0425,0.0375 0.039,0.55266 0.18089,1.14474 0.2798,1.16631 0.35998,1.20588 1.77688,0.87705 z m -1.13511,-1.18505 c 0,-0.41905 0.10817,-0.53251 0.50765,-0.53251 0.32348,0 0.5469,0.15019 0.61583,0.41367 0.13485,0.51585 0.005,0.65135 -0.6265,0.65135 -0.38813,0 -0.49698,-0.11673 -0.49698,-0.53251 z m -33.074474,-0.20101 c 0.24428,-0.79586 0.17837,-0.97043 -0.36644,-0.97043 -0.351707,0 -0.932067,1.3402 -0.686655,1.58561 0.346369,0.34634 0.847915,0.0533 1.053095,-0.61518 z m -0.792664,0.33757 c 0,-0.36325 0.252205,-0.88198 0.428834,-0.88198 0.21409,0 0.0101,0.8182 -0.241511,0.97438 -0.103146,0.0636 -0.187424,0.0226 -0.187424,-0.0923 z m 30.080518,0.27761 c 0.24554,-0.24554 -0.33495,-1.58561 -0.68665,-1.58561 -0.53958,0 -0.59392,0.15321 -0.34096,0.96135 0.21031,0.67208 0.68901,0.96286 1.02761,0.62426 z m -0.60773,-0.43686 c -0.0795,-0.22189 -0.18315,-0.47513 -0.2307,-0.56298 -0.0476,-0.0878 0.0101,-0.15975 0.12504,-0.15975 0.24528,0 0.55002,0.8259 0.37089,1.00505 -0.0664,0.0664 -0.18591,-0.0606 -0.26528,-0.28232 z m -14.16641,-0.36745 c 0.17484,-0.21082 0.15422,-0.38879 -0.0805,-0.69226 -0.3114,-0.4027 -0.3204,-0.4027 -0.63178,0 -0.23472,0.30347 -0.25535,0.48149 -0.0805,0.69226 0.12956,0.15597 0.30785,0.28372 0.39631,0.28372 0.0885,0 0.26682,-0.12755 0.39633,-0.28372 z m -7.212354,-0.99428 c 0,-0.35145 -0.0848,-0.639 -0.18818,-0.639 -0.21258,0 -0.44999,0.99483 -0.27832,1.16648 0.27573,0.27575 0.4665,0.0601 0.4665,-0.52748 z m 14.180624,-0.0634 c 0.0382,-0.35749 -0.0418,-0.57553 -0.21107,-0.57553 -0.15799,0 -0.28036,0.27404 -0.2911,0.65211 -0.0226,0.80235 0.4157,0.73548 0.50227,-0.0765 z m -11.71707,0.25372 c 0.1024,-0.16579 0.19674,-0.15321 0.31747,0.0423 0.23044,0.37279 -0.0176,-1.51549 -0.26144,-1.98969 -0.22365,-0.43525 -1.442214,-0.51291 -1.837994,-0.11723 -0.14063,0.14063 -0.2556,0.60066 -0.2556,1.0224 0,0.42174 0.11497,0.88183 0.2556,1.02241 0.32109,0.32106 1.587094,0.33517 1.781964,0.0201 z m -1.387864,-0.28388 c -0.13988,-0.16856 -0.22365,-0.57601 -0.18592,-0.90525 0.0606,-0.52909 0.15522,-0.59862 0.81413,-0.59862 0.658904,0 0.753494,0.0694 0.814154,0.59862 0.079,0.68867 -0.27251,1.21187 -0.814154,1.21187 -0.20554,0 -0.48834,-0.13787 -0.62831,-0.30662 z m 1.160824,-0.65189 c 0,-0.2796 -0.16478,-0.44939 -0.479254,-0.49407 -0.39314,-0.0558 -0.47926,0.033 -0.47926,0.49407 0,0.46114 0.086,0.54992 0.47926,0.49407 0.314574,-0.0448 0.479254,-0.21434 0.479254,-0.49407 z m 8.93197,0.93577 c 0.19497,0.31532 1.4609,0.30121 1.78196,-0.0201 0.14063,-0.14063 0.2556,-0.60066 0.2556,-1.0224 0,-0.94032 -0.30954,-1.27801 -1.17149,-1.27801 -0.76989,0 -1.17702,0.33324 -1.158,0.94786 0.0126,0.40386 0.0284,0.39963 0.21107,-0.0561 0.1595,-0.39761 0.33183,-0.47995 0.89176,-0.42602 0.58285,0.0561 0.70507,0.16277 0.76271,0.66552 0.12855,1.11999 -0.6812,1.55783 -1.45316,0.78587 -0.23421,-0.23421 -0.42599,-0.33799 -0.42599,-0.23044 0,0.10768 -0.0569,0.37115 -0.12654,0.58574 -0.0949,0.29211 -0.0747,0.31754 0.08,0.10114 0.1444,-0.20202 0.25032,-0.21812 0.35215,-0.0533 z m -14.892684,-0.40693 c 0.37902,-0.4188 0.37311,-0.44677 -0.23321,-1.10595 l -0.62208,-0.67626 0.60296,0.37661 c 0.70735,0.44184 1.05146,0.35449 1.53984,-0.39085 0.53118,-0.81068 0.11824,-1.18857 -1.26364,-1.1567 -0.60069,0.0151 -1.34902,0.0858 -1.66296,0.15976 l -0.5708,0.13459 0.71729,1.54425 c 0.39449,0.84934 0.80424,1.54424 0.91053,1.54424 0.10641,0 0.36823,-0.19346 0.58209,-0.42966 z m 9.992514,0.0951 c 0.37095,-0.37095 0.44934,-0.94331 0.12931,-0.94331 -0.11296,0 -0.31077,0.19673 -0.43945,0.43714 -0.19371,0.36214 -0.40516,0.42607 -1.23224,0.37273 -0.9057,-0.0584 -0.99831,-0.11371 -0.99831,-0.59686 v -0.53251 h 3.0885 3.08852 v 0.53251 c 0,0.4831 -0.0926,0.53847 -0.99831,0.59686 -0.82708,0.0533 -1.03842,-0.0101 -1.23224,-0.37273 -0.26926,-0.50308 -0.64496,-0.58046 -0.64496,-0.13283 0,0.69271 0.64783,0.9947 1.99499,0.92997 l 1.30651,-0.0626 v -0.95851 -0.9585 h -3.51451 -3.51452 l -0.0682,0.71254 c -0.11321,1.18122 0.0284,1.31096 1.43086,1.31096 0.87007,0 1.37479,-0.10541 1.6042,-0.3347 z m 12.54588,-1.21308 c 0.34808,-0.79269 0.56539,-1.50872 0.48293,-1.59119 -0.0825,-0.0825 -0.79594,-0.18641 -1.58551,-0.23094 -1.12555,-0.0636 -1.49655,-0.008 -1.71778,0.25887 -0.23648,0.28491 -0.22441,0.42826 0.075,0.88499 0.48838,0.74534 0.83249,0.83269 1.53984,0.39085 l 0.60295,-0.37661 -0.60257,0.65591 c -0.53724,0.58479 -0.57188,0.70522 -0.3195,1.11081 0.45183,0.72614 0.84728,0.44015 1.5247,-1.10261 z m -6.46014,0.58927 c 0,-0.38509 -0.11446,-0.53248 -0.41343,-0.53248 -0.22743,0 -0.47551,0.10037 -0.55138,0.22314 -0.22818,0.36919 0.0707,0.8418 0.53213,0.8418 0.31953,0 0.43268,-0.13937 0.43268,-0.53251 z m -22.69314,-0.89317 c 0.305363,-0.66698 0.836942,-1.67061 1.181299,-2.23027 l 0.626147,-1.0176 -0.937824,-0.64524 c -0.515806,-0.35487 -1.037926,-0.64524 -1.160242,-0.64524 -0.122266,0 -0.376785,0.29857 -0.565492,0.66348 -0.256608,0.49621 -0.281916,0.72444 -0.100379,0.90527 0.181134,0.18038 0.334822,0.11975 0.606499,-0.23975 0.339149,-0.44879 0.396131,-0.45893 0.838451,-0.14919 0.453088,0.31737 0.458623,0.35671 0.122266,0.87 -0.219374,0.33475 -0.491403,0.50122 -0.721016,0.44117 -0.460107,-0.12026 -0.924692,0.7467 -0.583153,1.08824 0.123021,0.12302 0.160003,0.47641 0.08252,0.78547 -0.195222,0.77762 -1.096669,0.68851 -1.059612,-0.10466 0.02264,-0.48491 -0.226166,-0.84036 -0.594096,-0.84874 -0.155474,-0.003 -0.692538,1.47917 -0.570247,1.57414 0.182896,0.14188 1.803547,0.74474 2.02911,0.75462 0.137863,0.005 0.500485,-0.53472 0.805822,-1.2017 z m 36.16113,0.85855 c 0.50026,-0.19472 0.94308,-0.38005 0.98404,-0.41175 0.12226,-0.0946 -0.4149,-1.57741 -0.57025,-1.57386 -0.47674,0.0101 -0.70824,0.39002 -0.48861,0.80036 0.23673,0.44225 -0.0176,0.68739 -0.71395,0.68739 -0.3636,0 -0.64061,-1.08306 -0.32662,-1.27713 0.38499,-0.23799 -0.17384,-1.24887 -0.62519,-1.13086 -0.22969,0.0601 -0.50167,-0.10641 -0.72099,-0.44116 -0.33633,-0.51329 -0.3308,-0.55264 0.12227,-0.87 0.44232,-0.30982 0.49927,-0.29968 0.83842,0.14918 0.27168,0.35951 0.42537,0.42026 0.6065,0.23976 0.18139,-0.18089 0.15623,-0.40907 -0.10038,-0.90527 -0.18868,-0.36491 -0.44317,-0.66349 -0.56552,-0.66349 -0.12226,0 -0.6401,0.28743 -1.15068,0.63868 l -0.92829,0.6387 0.67692,1.12885 c 0.3723,0.62086 0.90894,1.62744 1.19257,2.23683 0.2836,0.60939 0.59319,1.10797 0.68793,1.10797 0.0949,0 0.58159,-0.15925 1.08185,-0.35412 z m -20.92303,-0.0719 c 0,-0.11723 -0.2395,-0.21308 -0.53249,-0.21308 -0.29288,0 -0.53251,0.0958 -0.53251,0.21308 0,0.11724 0.2395,0.21309 0.53251,0.21309 0.29286,0 0.53249,-0.0958 0.53249,-0.21309 z m 4.89903,0 c 0,-0.11723 -0.23396,-0.21308 -0.51993,-0.21308 -0.28596,0 -0.57917,0.0958 -0.65158,0.21308 -0.0767,0.12428 0.13988,0.21309 0.51993,0.21309 0.35837,0 0.65158,-0.0958 0.65158,-0.21309 z m -17.146574,-0.21308 c -0.0725,-0.11724 -0.27542,-0.21309 -0.45115,-0.21309 -0.1756,0 -0.260255,0.0959 -0.187927,0.21309 0.07245,0.11723 0.275425,0.21308 0.451147,0.21308 0.17585,0 0.26026,-0.0959 0.18793,-0.21308 z m 28.855444,0.008 c 0.17233,-0.10894 0.26119,-0.25032 0.19749,-0.31405 -0.0636,-0.0637 -0.30059,0.0226 -0.52635,0.19472 -0.44909,0.33976 -0.1761,0.43883 0.32888,0.1195 z m -27.890974,-1.59066 c -0.34517,-0.90784 -0.27762,-1.02762 0.52654,-0.93375 0.41002,0.0478 0.7455,0.0498 0.7455,0.005 0,-0.10818 -0.92655,-0.88077 -1.065,-0.88809 -0.0586,-0.003 -0.33635,0.33188 -0.61729,0.74439 l -0.5108,0.75 0.4939,0.52569 c 0.59359,0.63186 0.72131,0.57133 0.42715,-0.20252 z m 26.843994,-1.0615 c -0.25993,-0.42056 -0.52155,-0.76467 -0.58137,-0.76467 -0.0599,0 -0.35251,0.1917 -0.65037,0.426 l -0.54157,0.42599 h 0.79732 c 0.84675,0 0.86929,0.0792 0.40332,1.41798 -0.10339,0.29676 0.008,0.25432 0.45433,-0.17409 l 0.59095,-0.56657 z m -17.60872,1.27229 c -0.0647,-0.1683 -0.26134,-0.25082 -0.43719,-0.1834 -0.2601,0.0999 -0.26675,0.15623 -0.0357,0.3028 0.42471,0.26921 0.60451,0.2239 0.47281,-0.1195 z m 1.58281,-0.38743 c 0.075,-0.65276 -0.3558,-0.95236 -0.97277,-0.67636 -0.32697,0.14642 -0.31389,0.17711 0.10642,0.25057 0.60041,0.10516 0.63493,0.69322 0.0408,0.69322 -0.25397,0 -0.38001,0.0948 -0.2994,0.22516 0.0765,0.12377 0.34579,0.19573 0.59832,0.15975 0.32219,-0.046 0.47927,-0.24051 0.52665,-0.65241 z m 0.78449,0.48046 c 0.0725,-0.11723 0.0302,-0.21308 -0.0938,-0.21308 -0.12402,0 -0.22566,0.0958 -0.22566,0.21308 0,0.11724 0.0423,0.21309 0.0938,0.21309 0.0516,0 0.15321,-0.0958 0.22566,-0.21309 z m 2.87551,0 c 0,-0.11824 -0.56798,-0.21308 -1.278,-0.21308 -0.71,0 -1.27801,0.0946 -1.27801,0.21308 0,0.11824 0.56801,0.21309 1.27801,0.21309 0.71002,0 1.278,-0.0946 1.278,-0.21309 z m 2.13002,0 c 0.25837,-0.16704 0.22767,-0.20704 -0.15975,-0.20981 -0.28255,-0.002 -0.47925,-0.13434 -0.47925,-0.32275 0,-0.18742 0.19824,-0.32219 0.47925,-0.32599 0.43834,-0.005 0.44632,-0.0257 0.0936,-0.23095 -0.54176,-0.31514 -0.9988,-0.0798 -0.9988,0.51463 0,0.78431 0.4036,1.0021 1.06499,0.57467 z m 1.15654,-0.23723 c -0.17333,-0.28038 -0.45661,-0.22868 -0.58531,0.10667 -0.0793,0.20679 0.0101,0.26342 0.29431,0.18868 0.22416,-0.0586 0.35518,-0.19145 0.291,-0.2954 z m -22.79893,-0.7387 c 0.196229,-0.51121 0.158996,-0.67113 -0.186921,-0.80386 -0.443754,-0.17032 -0.904239,0.69829 -0.504485,0.95161 0.412836,0.26158 0.54524,0.23321 0.691456,-0.14768 z m 19.88521,0.0707 c -0.0543,-0.14642 -0.42393,-2.01553 -0.82135,-4.15352 -0.39744,-2.13799 -0.77062,-3.88717 -0.82929,-3.88707 -0.11849,2e-4 -1.50292,7.34372 -1.49572,7.9341 0.005,0.32194 0.22541,0.37273 1.62483,0.37273 1.20688,0 1.59509,-0.0679 1.52153,-0.26624 z m -2.28985,-0.62154 c 0,-0.41797 0.44871,-3.0321 0.57883,-3.37223 0.0672,-0.17585 0.24478,0.39938 0.3945,1.27801 0.40045,2.34972 0.40141,2.343 -0.33432,2.343 -0.35145,0 -0.63901,-0.11195 -0.63901,-0.24881 z m 19.56483,0.69862 c 0.39975,-0.25331 -0.0606,-1.1219 -0.50449,-0.95161 -0.34594,0.13283 -0.38312,0.29266 -0.18692,0.80386 0.14617,0.38106 0.27862,0.40934 0.69146,0.14768 z m -25.551804,-1.11518 1.07035,-0.66537 -0.47044,-0.82401 c -0.25875,-0.45319 -0.5579,-0.82474 -0.66479,-0.82565 -0.10692,-9.1e-4 -0.65435,0.29354 -1.21657,0.65432 l -1.02221,0.65594 0.55262,0.83505 c 0.30393,0.45928 0.58141,0.83506 0.61666,0.83506 0.0352,0 0.54569,-0.2994 1.13438,-0.66534 z m -1.18983,-0.53697 c -0.13786,-0.3589 0.42096,-0.92768 0.91121,-0.92768 0.48255,0 0.50363,0.6225 0.0322,0.95266 -0.59176,0.41448 -0.77674,0.40957 -0.94348,-0.0251 z m 16.043214,0.61656 c 0.23447,-0.32216 0.49184,-0.6958 0.57174,-0.83032 0.16905,-0.28466 -1.85935,-1.66757 -2.16703,-1.47741 -0.10968,0.0677 -0.39339,0.45221 -0.6307,0.85446 l -0.4315,0.73135 0.99581,0.65133 c 0.54771,0.35825 1.04968,0.65246 1.11551,0.65385 0.0659,0.001 0.31161,-0.26109 0.54617,-0.58326 z m -1.40965,-0.64803 c -0.42619,-0.34511 -0.4388,-0.40886 -0.13107,-0.66418 0.28536,-0.23674 0.42871,-0.22441 0.88811,0.0765 0.44157,0.28932 0.49868,0.41815 0.2945,0.66419 -0.32874,0.39608 -0.48154,0.38496 -1.05146,-0.0765 z m -17.044164,0.27772 0.72021,-0.74306 -0.46244,-0.49226 c -0.4338,-0.46176 -0.44021,-0.51452 -0.10315,-0.85148 0.33696,-0.33696 0.38952,-0.33075 0.84819,0.10013 0.6748,0.63394 0.83991,0.35585 0.21811,-0.36715 l -0.5075,-0.59002 -0.67493,0.499 c -0.7992,0.59087 -0.84363,0.89246 -0.19572,1.32819 l 0.47925,0.32229 -0.51608,0.55538 c -0.48137,0.51805 -0.5419,0.53201 -0.90022,0.2078 -0.38128,-0.34503 -0.35175,-0.71671 0.0569,-0.71671 0.11723,0 0.15799,0.0893 0.0906,0.19824 -0.0674,0.10919 -0.0252,0.2589 0.0953,0.33299 0.37938,0.23447 0.50373,-0.54683 0.14416,-0.9063 -0.31399,-0.314 -0.37742,-0.30995 -0.77463,0.0496 -0.23799,0.21535 -0.43263,0.49029 -0.43263,0.61102 0,0.24227 0.8473,1.20548 1.06036,1.20548 0.0737,0 0.45817,-0.33439 0.85428,-0.74308 z m 22.010374,0.14339 0.5746,-0.59975 -0.53916,-0.5065 c -0.48176,-0.45264 -0.57349,-0.47216 -0.86207,-0.18365 -0.33206,0.33205 -0.22038,1.03757 0.16428,1.03757 0.11723,0 0.15774,-0.1439 0.0903,-0.3195 -0.13937,-0.36315 0.19145,-0.43847 0.40529,-0.0923 0.0772,0.12504 -0.037,0.35925 -0.25369,0.52069 -0.34687,0.25834 -0.45724,0.2312 -0.92132,-0.22667 l -0.52725,-0.52028 0.47399,-0.33198 c 0.64847,-0.4542 0.59503,-0.83166 -0.19748,-1.39607 l -0.67158,-0.4782 -0.4905,0.61513 c -0.60056,0.75319 -0.475,0.98039 0.19421,0.35158 0.4587,-0.4309 0.51126,-0.43712 0.84822,-0.10013 0.33693,0.33696 0.33054,0.38972 -0.10315,0.85148 l -0.46245,0.49226 0.72019,0.74306 c 0.39613,0.40868 0.77933,0.74308 0.85158,0.74308 0.0722,0 0.38995,-0.2699 0.70598,-0.59976 z M 91.297966,133.7829 c -0.68433,-0.70529 -0.935231,-0.84738 -1.162731,-0.65857 -0.237236,0.19698 -0.163775,0.37102 0.403101,0.95596 l 0.69319,0.71518 -0.57616,0.57616 c -0.547074,0.54708 -0.594849,0.55749 -0.946149,0.20629 -0.315979,-0.31598 -0.329162,-0.43527 -0.09032,-0.81762 0.456032,-0.7302 -0.05409,-1.01724 -0.711079,-0.4001 -0.294419,0.2766 -0.535328,0.59299 -0.535328,0.7031 0,0.11019 0.407377,0.56277 0.90527,1.00593 l 0.905246,0.80577 0.99385,-1.09632 0.99383,-1.09634 z m 4.40839,2.48072 c -0.199,-0.21988 -0.45113,-0.34464 -0.56023,-0.27719 -0.10919,0.0674 -0.0355,0.30255 0.16352,0.52245 0.199,0.21988 0.45113,0.34466 0.56026,0.27721 0.10918,-0.0674 0.0355,-0.30254 -0.16353,-0.52247 z m 6.457874,0.2073 c 0.26361,-0.0994 0.47926,-0.29055 0.47926,-0.42494 0,-0.18139 0.0775,-0.18013 0.30053,0.005 0.54046,0.44854 0.63488,-0.18742 0.11069,-0.74552 -0.61309,-0.65261 -0.79573,-0.64962 -0.96273,0.0151 -0.16151,0.6438 -0.32541,0.66957 -0.67704,0.10641 -0.40302,-0.64534 -0.59493,-0.52096 -0.83853,0.54348 l -0.22189,0.9695 0.66522,-0.14466 c 0.36587,-0.0795 0.88089,-0.22591 1.14447,-0.32521 z m 7.22984,-0.51065 c -0.24101,-1.05378 -0.43382,-1.1765 -0.83599,-0.53249 -0.35162,0.56305 -0.51545,0.53729 -0.67704,-0.10641 -0.16704,-0.66537 -0.34964,-0.66837 -0.96273,-0.0151 -0.5105,0.54338 -0.43341,1.19705 0.0898,0.7627 0.20428,-0.16956 0.30315,-0.16226 0.3663,0.0272 0.0475,0.14265 0.46426,0.37629 0.92597,0.51908 1.33715,0.41354 1.33781,0.41316 1.09355,-0.65422 z m 5.47298,0.0677 c -0.16403,-0.26556 -0.72152,0.22139 -0.72152,0.6304 0,0.27485 0.0667,0.26624 0.42099,-0.0546 0.23145,-0.20956 0.36677,-0.46869 0.30053,-0.57586 z m 6.7335,-0.92766 c 0,-0.13057 -0.24076,-0.46358 -0.5353,-0.74018 -0.40695,-0.3823 -0.59475,-0.44351 -0.78308,-0.25518 -0.18843,0.18843 -0.16177,0.34285 0.11094,0.64421 0.33769,0.37316 0.33316,0.41966 -0.077,0.79088 -0.42657,0.38602 -0.44788,0.38235 -1.00426,-0.17409 l -0.56847,-0.56846 0.60421,-0.63065 c 0.40401,-0.42169 0.55727,-0.75299 0.46253,-0.99986 -0.12001,-0.31284 -0.28519,-0.22843 -1.08183,0.55349 l -0.94014,0.92268 1.0009,1.10223 1.00091,1.1022 0.90525,-0.75503 c 0.49789,-0.41525 0.90525,-0.86177 0.90525,-0.99226 z m -23.510414,0.29985 c 1.3169,-0.57505 1.26445,-0.50438 0.84726,-1.14107 -0.33203,-0.50675 -0.33208,-0.55208 -6.3e-4,-0.67928 0.19522,-0.075 0.53414,-0.0251 0.75291,0.11221 0.438454,0.27381 0.552824,-0.033 0.21233,-0.56972 -0.14692,-0.2317 -0.31962,-0.22315 -0.96612,0.0468 -0.68612,0.2867 -0.75853,0.38272 -0.56343,0.74728 0.34068,0.63659 0.28398,0.76477 -0.50479,1.1409 l -0.72866,0.34747 -0.22441,-0.64348 c -0.12327,-0.35394 -0.31937,-0.58476 -0.43553,-0.51296 -0.13157,0.0813 -0.0787,0.40833 0.14038,0.86796 0.19347,0.40559 0.36964,0.73745 0.39163,0.73745 0.0226,0 0.50746,-0.20403 1.07881,-0.45362 z m 15.304414,-0.17484 c 0.38308,-0.74074 0.39825,-0.86258 0.10742,-0.86258 -0.11975,0 -0.32342,0.23221 -0.45281,0.51629 -0.23044,0.50564 -0.25006,0.50918 -0.95553,0.17283 -0.72039,-0.34353 -0.74202,-0.42954 -0.36277,-1.44299 0.0455,-0.12176 -0.26698,-0.34795 -0.69453,-0.50255 -0.82497,-0.29832 -1.14892,-0.12302 -1.14077,0.61747 0.003,0.27145 0.0428,0.26788 0.26486,-0.0226 0.18667,-0.24529 0.39548,-0.29359 0.73113,-0.16931 0.44023,0.16277 0.45034,0.21107 0.16076,0.76916 -0.30816,0.59398 -0.30652,0.59647 0.69985,1.05695 1.30606,0.59762 1.26357,0.60101 1.64229,-0.13132 z m -15.224084,-0.74615 c 0,-0.0448 -0.0581,-0.23321 -0.12931,-0.4185 -0.19774,-0.51527 -0.48489,-0.40068 -0.35666,0.1424 0.1117,0.47281 0.10868,0.47354 -0.22617,0.0533 -0.33822,-0.42458 -0.33937,-0.42451 -0.34611,0.0176 -0.003,0.24403 0.0538,0.50426 0.1278,0.57825 0.12629,0.12629 0.9305,-0.19623 0.9305,-0.37309 z m 14.910064,-0.37014 c 0,-0.30672 -0.39827,-0.18265 -0.64307,0.2005 -0.20982,0.32839 -0.22617,0.31571 -0.13711,-0.10641 0.11849,-0.56137 -0.1746,-0.64784 -0.38021,-0.11221 -0.0891,0.23196 -1.7e-4,0.47002 0.24101,0.64633 0.3231,0.23623 0.42318,0.22264 0.6506,-0.0883 0.14793,-0.20226 0.26876,-0.44508 0.26876,-0.53985 z m -12.71801,0.36506 c 0.73775,-0.30826 0.74839,-0.32989 0.52278,-1.065 -0.1268,-0.41268 -0.35563,-0.75035 -0.50879,-0.75035 -0.21082,0 -0.22818,0.13258 -0.0707,0.54638 0.11421,0.3005 0.2078,0.63598 0.2078,0.74549 0,0.28559 -0.720114,0.24579 -1.022404,-0.0564 -0.28589,-0.28592 -0.34683,-0.0176 -0.12629,0.55767 0.15622,0.4073 0.0802,0.40559 0.997744,0.0226 z m 10.2457,-0.0226 c 0.20806,-0.54215 0.13611,-0.86844 -0.10163,-0.46041 -0.1746,0.29988 -0.30348,0.32836 -0.64904,0.1434 -0.25082,-0.13434 -0.37971,-0.35754 -0.30813,-0.5339 0.0677,-0.16679 0.18616,-0.46003 0.26347,-0.65173 0.0918,-0.22818 0.0478,-0.31766 -0.12755,-0.25922 -0.14742,0.049 -0.39827,0.39907 -0.55744,0.77762 -0.28393,0.67528 -0.27648,0.69394 0.39387,0.98736 0.89553,0.39198 0.93488,0.39188 1.08645,-0.003 z m -7.04676,-3.01383 c 0.65342,-1.49147 1.27534,-2.74087 1.38208,-2.77644 0.10667,-0.0357 0.71121,1.14578 1.34327,2.62522 1.01651,2.37938 1.48927,3.12641 1.7889,2.82675 0.10491,-0.1049 -2.1954,-6.14179 -2.46816,-6.47727 -0.10289,-0.12654 -0.45772,-0.19019 -0.78861,-0.14163 -0.56001,0.0823 -0.67724,0.28986 -1.69278,2.99895 -0.60011,1.60088 -1.15617,3.07841 -1.23569,3.28342 -0.0976,0.25175 -0.0428,0.37276 0.16931,0.37276 0.19774,0 0.75312,-1.00286 1.50176,-2.71176 z m -7.848464,-0.0727 c -0.43258,-0.83654 -0.40023,-0.96122 0.32745,-1.26263 0.67121,-0.27802 0.84733,-0.78544 0.34016,-0.98006 -0.16428,-0.0631 -0.69337,0.0865 -1.17557,0.33261 -0.78333,0.39962 -0.8515,0.49439 -0.63993,0.88972 0.30328,0.56667 -0.0465,0.97936 -0.43417,0.51226 -0.26443,-0.31862 -0.85948,-0.45825 -0.85948,-0.20177 0,0.0697 0.2005,0.40866 0.44589,0.75307 0.24529,0.34441 0.39118,0.76874 0.32433,0.94298 -0.19925,0.51903 -0.76411,0.60977 -1.08371,0.17409 -0.2516,-0.34302 -0.24478,-0.45286 0.0478,-0.77724 0.2635,-0.29208 0.2833,-0.4353 0.0873,-0.63126 -0.19598,-0.19597 -0.37923,-0.1278 -0.80774,0.30076 l -0.55424,0.55428 0.71565,0.94937 0.71566,0.94937 1.43106,-0.95159 1.43104,-0.95158 z m 21.822644,1.52898 c 0.36131,-0.45618 0.6539,-0.91146 0.65022,-1.01176 -0.003,-0.10038 -0.2517,-0.36089 -0.55112,-0.57908 -0.68998,-0.5028 -1.20988,-0.15623 -0.66754,0.44496 0.2826,0.31324 0.2941,0.44147 0.0674,0.75053 -0.33724,0.45965 -0.62409,0.47248 -0.97984,0.0438 -0.22592,-0.27225 -0.19371,-0.47012 0.18767,-1.14844 0.35681,-0.63483 0.39702,-0.84391 0.17837,-0.92781 -0.15522,-0.0596 -0.40302,0.085 -0.55067,0.32156 -0.36838,0.58987 -0.79541,0.17963 -0.46182,-0.44368 0.21434,-0.4005 0.13635,-0.49412 -0.81204,-0.9747 -0.9031,-0.45764 -1.0668,-0.48569 -1.17589,-0.20151 -0.21207,0.55248 -0.15195,0.65928 0.52859,0.94119 0.5267,0.21812 0.62783,0.3591 0.5153,0.7181 -0.38861,1.23972 -0.37417,1.27343 0.89788,2.095 0.67814,0.43799 1.29684,0.79742 1.37486,0.79875 0.078,10e-4 0.43746,-0.37082 0.79875,-0.827 z m -19.705104,-1.6201 c 0.66225,-0.29288 1.29096,-0.53251 1.39715,-0.53251 0.10617,0 0.42793,-0.0893 0.71498,-0.19849 l 0.521944,-0.19849 -0.33011,-1.18606 c -0.181644,-0.65233 -0.441074,-1.18608 -0.576644,-1.18608 -0.55543,0 -2.23918,0.69662 -2.23648,0.9253 0.008,0.70157 0.29396,1.20472 0.68403,1.20472 0.34514,0 0.39955,-0.0984 0.2918,-0.52773 -0.11044,-0.43968 -0.0415,-0.55055 0.41281,-0.66459 0.63833,-0.16025 0.71003,-0.1122 0.78711,0.52602 0.0498,0.41188 -0.15044,0.55973 -1.43119,1.05672 -0.94006,0.36481 -1.51514,0.71347 -1.55987,0.94572 -0.0898,0.46648 -0.10742,0.46866 1.32447,-0.16453 z m 15.792344,-0.0611 c -0.0405,-0.0405 -0.77805,-0.34997 -1.63917,-0.68791 -1.34847,-0.52919 -1.55768,-0.68054 -1.50784,-1.09103 0.0772,-0.63712 0.14868,-0.68394 0.79634,-0.52139 0.43233,0.10843 0.52514,0.2317 0.42124,0.55912 -0.0886,0.2791 -0.0176,0.46414 0.21006,0.55171 0.43515,0.16705 0.50343,0.0923 0.66801,-0.73063 0.14742,-0.73679 -0.11145,-0.92459 -1.67899,-1.21868 -0.74195,-0.13912 -0.74265,-0.13862 -0.98972,0.89133 -0.13611,0.56685 -0.22969,1.12648 -0.20806,1.24362 0.0226,0.11723 0.80406,0.47251 1.73892,0.78969 0.93488,0.31719 1.75321,0.63015 1.81851,0.69546 0.0654,0.0654 0.19196,2.8e-4 0.28149,-0.1444 0.0896,-0.14491 0.12956,-0.29634 0.0893,-0.33676 z"
       id="path1" /></g></svg>
