<?xml version="1.0" encoding="UTF-8" standalone="no"?>
<!-- Created with Inkscape (http://www.inkscape.org/) -->

<svg
   width="210mm"
   height="297mm"
   viewBox="0 0 210 297"
   version="1.1"
   id="svg1"
   xml:space="preserve"
   inkscape:version="1.4.2 (ebf0e940d0, 2025-05-08)"
   sodipodi:docname="PirateNations.svg"
   xmlns:inkscape="http://www.inkscape.org/namespaces/inkscape"
   xmlns:sodipodi="http://sodipodi.sourceforge.net/DTD/sodipodi-0.dtd"
   xmlns="http://www.w3.org/2000/svg"
   xmlns:svg="http://www.w3.org/2000/svg"><sodipodi:namedview
     id="namedview1"
     pagecolor="#ffffff"
     bordercolor="#000000"
     borderopacity="0.25"
     inkscape:showpageshadow="2"
     inkscape:pageopacity="0.0"
     inkscape:pagecheckerboard="0"
     inkscape:deskcolor="#d1d1d1"
     inkscape:document-units="mm"
     inkscape:zoom="0.70677942"
     inkscape:cx="396.16321"
     inkscape:cy="541.89467"
     inkscape:window-width="2560"
     inkscape:window-height="1350"
     inkscape:window-x="0"
     inkscape:window-y="0"
     inkscape:window-maximized="1"
     inkscape:current-layer="layer1" /><defs
     id="defs1" /><g
     inkscape:label="Layer 1"
     inkscape:groupmode="layer"
     id="layer1"><path
       style="fill:#000000;stroke-width:0.401634"
       d="m 66.175303,186.78598 c 0.107542,-0.26089 8.191055,-12.20271 8.404809,-12.41646 0.03543,-0.0354 -0.187084,-0.37648 -0.49447,-0.75789 -1.020994,-1.26687 -2.521735,-3.43459 -3.355873,-4.84733 -0.789302,-1.3368 -0.856866,-1.41669 -1.620702,-1.9162 -1.481023,-0.96851 -2.413223,-1.34366 -3.516974,-1.41536 -0.363342,-0.0236 -0.697015,-0.11568 -0.741492,-0.20464 -0.04447,-0.0889 0.185647,-0.53624 0.511382,-0.99399 0.628003,-0.88252 1.118292,-2.04334 1.391893,-3.2955 0.126703,-0.57986 0.08335,-1.07168 -0.181682,-2.06098 -0.428014,-1.59766 -0.904623,-4.11114 -1.078799,-5.68923 l -0.13056,-1.18284 -2.774241,-1.67406 c -1.525833,-0.92073 -2.815796,-1.76736 -2.866587,-1.8814 -0.05079,-0.11404 -0.0081,-0.29155 0.09477,-0.39447 0.102915,-0.10292 1.413059,-0.96445 2.911432,-1.91452 l 2.724317,-1.72739 0.134923,-1.10682 c 0.07421,-0.60874 0.321787,-2.00197 0.550181,-3.09606 0.228397,-1.09409 0.401858,-2.15797 0.385474,-2.36418 -0.01639,-0.2062 -0.251574,-1.05894 -0.522642,-1.89497 -0.402858,-1.24249 -0.605664,-1.65256 -1.110636,-2.24567 -0.560786,-0.65868 -0.597371,-0.74603 -0.396555,-0.94685 0.121676,-0.12167 0.40221,-0.21201 0.623416,-0.20075 0.948521,0.0483 3.884161,-1.33373 4.39642,-2.06972 0.119186,-0.17122 0.666323,-1.07897 1.21588,-2.0172 1.096768,-1.87247 2.219466,-3.50831 3.23993,-4.72076 0.496264,-0.58963 0.633106,-0.83815 0.546702,-0.99286 -0.06339,-0.11349 -1.979932,-2.94033 -4.258994,-6.28184 -2.531084,-3.71102 -4.145229,-6.18816 -4.147561,-6.36505 -0.0033,-0.25428 0.03066,-0.28828 0.27883,-0.27883 0.160078,0.006 2.987804,1.8563 6.520983,4.26675 3.431088,2.34078 6.295192,4.22266 6.364678,4.18193 0.06947,-0.0407 0.653556,-0.49359 1.29794,-1.00638 1.439395,-1.14545 3.006578,-2.18886 4.917973,-3.27433 l 1.454938,-0.82625 0.585019,-0.94095 c 0.708422,-1.13943 1.29688,-2.64163 1.31204,-3.34934 0.0179,-0.8356 0.335155,-0.91589 1.114033,-0.28194 0.838197,0.68223 1.814067,1.11206 3.316228,1.46068 1.05306,0.2444 1.3378,0.2384 2.54775,-0.0537 0.74921,-0.18086 2.17303,-0.44773 3.16405,-0.59306 l 1.801854,-0.26423 1.84053,-2.87647 c 1.93232,-3.01992 2.08951,-3.23363 2.33573,-3.17551 0.0839,0.0198 0.95681,1.37862 1.93976,3.01957 1.60306,2.67621 1.82272,2.98928 2.13232,3.03916 0.18983,0.0306 1.07793,0.16838 1.97356,0.30622 0.89563,0.13784 2.2717,0.40908 3.05794,0.60274 2.54557,0.627 2.59358,0.62844 4.13159,0.12331 0.97285,-0.31952 1.68512,-0.65776 2.28363,-1.08442 0.47839,-0.34104 0.94258,-0.58368 1.03153,-0.53921 0.089,0.0445 0.18201,0.3931 0.20679,0.77472 0.0583,0.89819 0.45585,1.95134 1.22057,3.23372 l 0.61351,1.02881 0.9761,0.56211 c 1.45689,0.83898 3.19809,2.00995 4.66925,3.14011 0.72121,0.55404 1.33285,1.00734 1.35921,1.00734 0.0264,0 2.75648,-1.84441 6.06695,-4.09868 3.31046,-2.25428 6.14596,-4.17848 6.30112,-4.27601 0.31918,-0.20063 0.70838,-0.086 0.70838,0.20863 0,0.10785 -1.91009,3.00315 -4.24465,6.43398 -2.33455,3.43083 -4.24464,6.26696 -4.24464,6.30252 0,0.0356 0.4533,0.65472 1.00734,1.37593 1.1459,1.49165 2.34076,3.27143 3.08917,4.60142 0.42587,0.7568 0.61865,0.9818 1.15576,1.34895 1.36577,0.93357 2.65719,1.46003 3.75669,1.53145 0.80491,0.0523 0.98178,0.32571 0.51356,0.79392 -0.67776,0.67776 -1.59239,2.77881 -1.77903,4.08672 -0.0421,0.29519 0.0824,1.1301 0.27662,1.85534 0.41687,1.55635 0.91835,4.17816 1.02993,5.38472 l 0.0792,0.85645 3.0338,1.84146 c 2.44097,1.48162 3.03459,1.89137 3.03777,2.09684 0.003,0.20839 -0.55223,0.60874 -3.01897,2.17607 l -3.02292,1.92071 -0.30558,1.94998 c -0.16807,1.07249 -0.43624,2.47708 -0.59593,3.12132 -0.32205,1.29923 -0.25324,1.9846 0.37697,3.75472 0.28082,0.78875 0.56977,1.31444 1.00078,1.82067 0.71307,0.83754 0.68484,1.0626 -0.14218,1.13382 -0.91502,0.0788 -2.00502,0.49011 -3.2215,1.21567 l -1.12084,0.66852 -0.68359,1.24985 c -0.97784,1.78785 -2.0003,3.34343 -3.34803,5.09371 l -1.17508,1.52605 4.30002,6.31315 c 4.0957,6.01318 4.29094,6.32528 4.10893,6.56839 -0.1051,0.14037 -0.27315,0.21828 -0.37347,0.17309 -0.10029,-0.0452 -2.86429,-1.90872 -6.14218,-4.14118 -3.27789,-2.23247 -6.07343,-4.12969 -6.21232,-4.21605 -0.22242,-0.13829 -0.39225,-0.0454 -1.42421,0.77912 -1.41846,1.1333 -3.69193,2.6393 -5.3958,3.57428 l -1.25758,0.69009 -0.6632,1.11192 c -0.72064,1.20824 -1.13173,2.29936 -1.21036,3.2126 -0.0693,0.80507 -0.29862,0.85001 -1.06726,0.20917 -0.78972,-0.6584 -2.03976,-1.20404 -3.43095,-1.49758 -0.88698,-0.18715 -1.2744,-0.16702 -2.54557,0.13231 -0.82465,0.19419 -2.17153,0.44734 -2.99307,0.56256 -0.82153,0.11523 -1.56714,0.2791 -1.65689,0.36417 -0.0897,0.0851 -0.94692,1.39073 -1.90484,2.90148 -0.95791,1.51074 -1.82049,2.78191 -1.91683,2.82481 -0.26429,0.11771 -0.39534,-0.063 -2.18313,-3.01056 l -1.65463,-2.72801 -2.244484,-0.31587 c -1.23446,-0.17373 -3.09674,-0.53215 -4.1384,-0.79648 -1.85986,-0.47197 -1.91504,-0.47489 -3.068056,-0.16259 -1.294485,0.3506 -2.65684,1.00825 -3.187079,1.53849 -0.489934,0.48994 -0.741713,0.30186 -0.812224,-0.60671 -0.0707,-0.91098 -0.586556,-2.17574 -1.379908,-3.38321 -0.536868,-0.8171 -0.632397,-0.90697 -1.439529,-1.35425 -1.138637,-0.63098 -3.578374,-2.28505 -4.95043,-3.35623 -0.60342,-0.4711 -1.114119,-0.83956 -1.134888,-0.81878 -0.17367,0.17367 -12.475894,8.47162 -12.604821,8.50206 -0.290002,0.0685 -0.467404,-0.23925 -0.330049,-0.57249 z m 29.762223,-29.43331 c 0,-0.038 -0.33339,-0.49395 -0.74086,-1.01315 -0.86237,-1.09886 -1.62217,-2.45045 -1.96331,-3.4925 l -0.24066,-0.73514 -0.884923,-0.22072 c -0.486708,-0.12139 -0.972314,-0.18277 -1.079129,-0.13639 -0.106814,0.0464 -5.255805,7.52737 -11.442202,16.62442 l -11.247994,16.54008 13.799524,-13.74874 c 7.589747,-7.5618 13.799544,-13.77984 13.799534,-13.81788 z m -21.983432,23.78687 c 0.04108,-0.0967 -0.03801,-0.0631 -0.175772,0.0747 -0.137759,0.13776 -0.171365,0.21686 -0.0747,0.17577 0.09668,-0.0411 0.209394,-0.15379 0.250472,-0.25047 z m 4.304925,-2.75835 c 8.474477,-5.66216 21.010677,-14.48377 21.243067,-14.94855 0.28012,-0.56024 -24.015988,16.24257 -25.204374,17.43095 -0.413036,0.41304 0.243898,0.001 3.961307,-2.4824 z m -9.873237,-12.8879 c 0.385696,0.19717 0.701031,0.33268 0.700741,0.30113 -3.12e-4,-0.0316 -0.281658,-0.71039 -0.625271,-1.50855 -0.34361,-0.79815 -0.710652,-1.71602 -0.815643,-2.03972 -0.104994,-0.32369 -0.208006,-0.57141 -0.228917,-0.5505 -0.0209,0.0209 -0.218469,0.52399 -0.439019,1.11797 -0.220545,0.59397 -0.511987,1.25079 -0.647644,1.4596 l -0.24665,0.37964 0.800569,0.24096 c 0.440311,0.13253 1.116139,0.40229 1.501834,0.59947 z m 22.887446,20.70805 c 0.60641,-0.12631 0.594931,-0.17599 -0.09214,-0.39886 -0.340667,-0.11049 -1.300534,-0.49875 -2.133041,-0.8628 l -1.513652,-0.66189 0.452355,0.89038 c 0.248794,0.48971 0.529879,1.17353 0.624635,1.51961 l 0.172282,0.62922 1.036807,-0.51451 c 0.570243,-0.28298 1.223982,-0.5535 1.452752,-0.60115 z M 75.467201,173.05203 c 0.177848,-0.28092 0.335348,-0.56156 0.350002,-0.62363 0.01465,-0.0621 -0.24826,-0.44914 -0.584256,-0.86014 -0.93133,-1.13925 -2.460798,-3.49611 -3.360349,-5.17819 -2.094386,-3.91631 -3.4563,-8.05476 -4.066743,-12.35763 -0.139429,-0.98281 -0.271534,-1.91199 -0.293558,-2.06484 -0.03438,-0.23858 -0.132505,-0.23026 -0.693303,0.0588 l -0.653258,0.33668 0.239737,1.70372 c 0.706713,5.02236 2.475023,10.06735 5.047007,14.39909 0.794434,1.338 2.747074,4.11737 3.283828,4.67418 l 0.407538,0.42276 z m 6.459406,6.90032 c 5.371148,3.86428 11.171939,6.21271 17.543789,7.10254 1.808004,0.25249 1.761594,0.26738 2.198684,-0.70595 0.18931,-0.42154 0.3706,-0.36054 -1.940584,-0.65293 -4.86115,-0.61496 -10.38683,-2.58662 -14.551272,-5.19215 -1.230551,-0.76991 -3.392909,-2.30724 -3.761417,-2.67418 -0.295233,-0.2941 -0.34695,-0.28894 -0.912994,0.0902 l -0.599989,0.40189 0.311218,0.31118 c 0.171169,0.17115 0.941824,0.76487 1.712565,1.31938 z m -7.128824,-10.46344 c 2e-6,-0.0666 -0.08285,-0.15655 -0.184102,-0.19995 -0.111907,-0.0479 -0.111907,-4e-4 -3e-6,0.12106 0.101271,0.10996 0.18413,0.14545 0.184119,0.0789 z m -0.400751,-0.60113 c -3e-6,-0.0666 -0.08285,-0.15656 -0.184105,-0.19995 -0.111906,-0.0479 -0.111906,-4e-4 -2e-6,0.12106 0.10127,0.10996 0.18413,0.14545 0.184122,0.0789 z m 10.419588,10.41959 c -3e-6,-0.0666 -0.08285,-0.15656 -0.184105,-0.19995 -0.111906,-0.0479 -0.111906,-4.1e-4 0,0.12106 0.101268,0.10996 0.184128,0.14545 0.184119,0.0789 z M 74.093923,168.42695 c -0.0014,-0.0445 -0.263079,-0.54177 -0.581509,-1.10499 -0.608546,-1.07637 -2.199414,-4.59159 -2.077997,-4.59159 0.03891,0 0.399143,0.63373 0.800515,1.40828 0.854523,1.64902 1.925425,3.34143 3.12653,4.94104 1.233928,1.64332 1.390698,1.72632 0.458558,0.24276 -0.952354,-1.51574 -2.173212,-3.83937 -2.657174,-5.05733 -0.368914,-0.92844 -0.362328,-0.91957 0.854497,1.14927 0.448962,0.76332 1.220455,1.93047 1.714436,2.59367 1.879394,2.5232 2.149099,2.74314 0.868434,0.70819 -0.855549,-1.35944 -2.193116,-3.88192 -2.058424,-3.88193 0.04447,0 0.532835,0.66951 1.085183,1.4878 1.054311,1.5619 2.364154,3.21989 2.372146,3.00264 0.0026,-0.0702 -0.33079,-0.6836 -0.740827,-1.36313 -0.80095,-1.32737 -1.628632,-2.88402 -1.452814,-2.73236 0.05917,0.051 0.446673,0.56523 0.86112,1.14265 1.050229,1.46319 1.411461,1.75779 0.566977,0.46238 -3.014853,-4.62464 -4.833349,-9.85353 -5.318606,-15.29308 -0.09005,-1.00943 -0.196635,-1.83533 -0.236854,-1.83533 -0.04021,0 -0.821514,0.36224 -1.736208,0.80497 l -1.663075,0.80498 0.05846,0.84312 c 0.09695,1.39805 0.737845,4.7365 1.266497,6.59718 0.753794,2.65311 2.045828,5.69991 3.50585,8.26727 0.568534,0.99973 0.990496,1.60144 0.984281,1.40354 z m 12.07848,11.76161 c 4.413636,2.61823 10.033043,4.43865 15.177027,4.91661 l 0.85662,0.0796 0.78118,-1.56763 c 0.42965,-0.86219 0.81923,-1.65108 0.86575,-1.75309 0.0575,-0.12606 -0.32262,-0.21108 -1.18677,-0.26546 -4.024714,-0.25325 -8.477924,-1.41464 -12.117329,-3.16017 -1.457653,-0.69912 -4.19978,-2.30484 -4.672694,-2.73622 -0.146526,-0.13363 -0.212528,-0.15111 -0.147909,-0.0391 0.06419,0.11122 0.629224,0.58196 1.255628,1.0461 0.626412,0.46413 1.13893,0.87238 1.138927,0.90722 0,0.0853 -1.668806,-0.8081 -2.942076,-1.57511 -0.56763,-0.34193 -1.032061,-0.58557 -1.032061,-0.5414 2e-6,0.14233 2.762117,2.21514 3.835469,2.87829 0.5722,0.35352 1.040363,0.67512 1.040366,0.71467 0,0.1779 -3.436386,-1.64655 -5.125311,-2.72114 -0.163802,-0.10422 -0.149216,-0.0524 0.04404,0.15633 0.626643,0.67697 4.071726,2.9956 5.74891,3.86918 0.178032,0.0927 0.134694,0.10356 -0.133574,0.0334 -0.61516,-0.16091 -3.087744,-1.38355 -4.625686,-2.28731 -0.76357,-0.44871 -1.273321,-0.69466 -1.132782,-0.54657 0.641581,0.67606 4.304982,3.0454 5.998774,3.87976 0.510853,0.25165 0.928825,0.48927 0.928828,0.52805 -3e-6,0.12044 -2.952805,-1.18484 -4.403361,-1.94648 -1.547528,-0.81256 -1.626874,-0.74441 -0.151982,0.13051 z m -7.138006,-12.47748 c 0.204953,-0.20495 10.975988,-16.01978 10.985207,-16.12929 0.0037,-0.0445 -3.114049,-0.6926 -6.928431,-1.44028 -6.667269,-1.30691 -7.415546,-1.51384 -6.994936,-1.93445 0.07473,-0.0747 3.239596,-0.66682 7.033028,-1.31574 3.79343,-0.64892 6.897146,-1.21423 6.897146,-1.25624 0,-0.13213 -11.001921,-16.26742 -11.092011,-16.26742 -0.128282,0 -1.411254,1.93028 -2.198351,3.30751 -0.544258,0.95231 -2.086576,4.2262 -2.102051,4.46204 -0.0018,0.0267 2.53658,1.28218 5.640748,2.78982 3.104168,1.50765 5.643716,2.76149 5.643446,2.78632 -2.84e-4,0.0248 -2.628786,-0.92537 -5.841138,-2.11158 -3.212354,-1.1862 -5.870264,-2.12711 -5.906471,-2.0909 -0.130574,0.13057 -0.841183,2.91548 -1.082448,4.24218 -0.135667,0.74599 -0.30721,2.03376 -0.381214,2.8617 l -0.13455,1.50535 0.815481,0.38006 c 1.100151,0.51273 1.103863,0.70941 0.02429,1.28718 l -0.791197,0.42343 -0.01395,0.69871 c -0.03031,1.5175 0.699403,6.38688 1.002546,6.69002 0.06431,0.0643 3.039487,-0.70255 6.611506,-1.70413 3.572018,-1.00157 6.511246,-1.80439 6.531611,-1.78402 0.05008,0.0501 -0.06659,0.0955 -6.739884,2.62456 -3.215487,1.2186 -5.895049,2.26436 -5.954586,2.32389 -0.123273,0.12328 0.571719,2.0887 1.374748,3.88775 0.600509,1.34534 1.608533,3.15693 2.631671,4.72957 0.841644,1.29366 0.77798,1.22578 0.969798,1.03396 z m 7.403516,7.42437 c 0.745348,0.55422 2.722767,1.72766 3.96121,2.35065 1.468817,0.73888 4.722393,2.00979 4.919933,1.92181 0.0891,-0.0397 1.23662,-2.90666 2.55005,-6.37108 1.31342,-3.46441 2.413134,-6.29893 2.443794,-6.29893 0.0307,0 -0.763394,2.92052 -1.764554,6.49004 -1.00118,3.56952 -1.76651,6.54385 -1.70075,6.60961 0.30669,0.30669 4.548754,0.95087 6.563514,0.99671 l 0.91043,0.0207 0.39613,-0.80011 c 0.52533,-1.06107 0.69266,-1.06011 1.26388,0.007 l 0.43208,0.80734 0.74485,-0.0476 c 1.00334,-0.0641 3.68148,-0.46099 4.79127,-0.71004 1.01904,-0.22868 2.93381,-0.76061 3.00914,-0.83595 0.0274,-0.0274 -0.92269,-2.6793 -2.1113,-5.89313 -1.18862,-3.21383 -2.13947,-5.84333 -2.113,-5.84333 0.0265,0 1.28249,2.53978 2.79117,5.64395 1.50868,3.10417 2.76392,5.6407 2.78943,5.63674 0.18118,-0.0282 2.35059,-1.00073 3.21907,-1.44316 1.11355,-0.56729 3.29888,-1.89233 4.16588,-2.52592 0.46518,-0.33995 0.48786,-0.38426 0.2638,-0.51543 -0.13482,-0.0789 -3.74139,-2.52387 -8.01458,-5.43321 -4.2732,-2.90934 -7.80718,-5.25198 -7.8533,-5.20586 -0.0461,0.0461 -0.6024,3.14292 -1.23618,6.88178 -0.63378,3.73885 -1.2377,6.89007 -1.34205,7.0027 -0.10435,0.11263 -0.27704,0.14699 -0.38374,0.0764 -0.10669,-0.0706 -0.81702,-3.32433 -1.57849,-7.23047 -0.76148,-3.90613 -1.44586,-7.09689 -1.52087,-7.09057 -0.075,0.006 -3.192264,2.09528 -6.927234,4.64211 -3.734977,2.54683 -7.423012,5.06012 -8.195632,5.58508 -1.250351,0.84955 -1.382033,0.96728 -1.197937,1.07094 0.113759,0.0641 0.439553,0.28951 0.723986,0.50101 z m -13.746731,-27.034 c 0.0027,-0.0644 -6.447071,-3.10441 -6.586333,-3.10441 -0.07046,0 -1.613477,0.95603 -4.262222,2.64083 l -1.041034,0.66217 5.943474,-0.0678 c 3.268907,-0.0373 5.944661,-0.0961 5.946115,-0.13075 z m 34.248968,41.88807 1.61731,-2.56358 -1.53197,-3.28074 c -0.84258,-1.80441 -1.55897,-3.28073 -1.59196,-3.28073 -0.08,-1e-5 -0.2528,11.67709 -0.17293,11.68358 0.0343,0.003 0.79002,-1.14856 1.67955,-2.55853 z m -39.881657,-45.44738 0.503115,0.20658 0.135254,-1.02095 c 0.83986,-6.33957 3.370348,-12.56799 7.165021,-17.63562 0.519078,-0.6932 0.940418,-1.31982 0.936317,-1.39249 -0.0041,-0.0727 -0.17076,-0.35331 -0.370354,-0.62364 l -0.362893,-0.49153 -0.326553,0.42768 c -1.420657,1.86062 -1.80153,2.38747 -2.460422,3.40342 -2.930157,4.51804 -4.950592,9.80296 -5.777326,15.11194 -0.129932,0.83438 -0.170774,1.58252 -0.09076,1.66253 0.08002,0.08 0.371884,0.23845 0.648598,0.35208 z m 43.527107,42.47108 c 5.49287,-0.82992 11.13428,-2.97876 15.58434,-5.93615 1.1957,-0.79463 3.62394,-2.60047 3.629,-2.69881 0.001,-0.0241 -0.23177,-0.20985 -0.51779,-0.41281 -0.59792,-0.4243 -0.3134,-0.55324 -3.0619,1.38764 -4.62819,3.26825 -10.07741,5.43203 -15.84364,6.29121 -0.77056,0.11482 -1.4445,0.25544 -1.49765,0.31251 -0.0919,0.0987 0.19462,0.84829 0.4245,1.11057 0.0595,0.0679 0.63689,0.0435 1.28314,-0.0542 z M 70.050175,145.93749 c 0.903064,0.41942 1.663632,0.72587 1.690148,0.68099 0.02652,-0.0449 0.150162,-0.89799 0.274769,-1.89581 0.643941,-5.15647 2.172517,-9.51196 4.850666,-13.82137 0.846497,-1.3621 0.637424,-1.26071 -0.404814,0.19631 -0.367666,0.51399 -0.695247,0.93616 -0.727955,0.93813 -0.10018,0.006 0.557743,-1.24101 1.449248,-2.74702 0.531282,-0.89748 0.719672,-1.30716 0.505026,-1.09823 -0.437198,0.42556 -2.010909,2.53763 -2.654353,3.5624 -0.27192,0.43307 -0.531932,0.7874 -0.577798,0.7874 -0.127625,0 1.094373,-2.38615 2.033809,-3.97134 0.654261,-1.10399 0.729123,-1.28149 0.341233,-0.8091 -1.190573,1.44995 -3.02667,4.21699 -3.876416,5.84185 -0.07569,0.14473 -0.03103,-0.0293 0.09946,-0.38701 0.408617,-1.12059 1.303612,-2.91987 2.301187,-4.62627 0.780697,-1.33542 0.859663,-1.51965 0.420832,-0.98181 -1.216721,1.49123 -2.92044,4.18383 -4.115588,6.50438 -0.111285,0.21607 -0.126172,0.21671 -0.08128,0.004 0.11563,-0.54914 1.151376,-2.83699 1.930971,-4.2653 0.954898,-1.74949 0.851608,-1.75917 -0.185707,-0.0174 -1.757663,2.95134 -3.523068,7.3524 -4.225584,10.53416 -0.320719,1.45257 -0.824956,4.68656 -0.742375,4.76133 0.02897,0.0262 0.791453,0.39077 1.694514,0.81019 z m 41.932245,38.6153 c 3.70029,-0.72476 7.41141,-2.07227 10.66162,-3.8712 2.12668,-1.17709 2.81958,-1.71171 0.9583,-0.73939 -1.59864,0.83511 -4.38772,2.09636 -4.38772,1.98418 0,-0.0365 0.67302,-0.42885 1.4956,-0.87192 1.55772,-0.83905 4.1069,-2.53559 5.23153,-3.4817 0.35912,-0.30211 0.5174,-0.45944 0.35179,-0.34952 -1.60624,1.06484 -6.5779,3.63384 -6.5779,3.39899 -2e-5,-0.0337 0.58596,-0.39037 1.30212,-0.79258 1.41638,-0.79545 3.98466,-2.56963 4.46926,-3.08739 0.29032,-0.31019 0.28227,-0.31106 -0.19726,-0.0219 -1.2471,0.75219 -3.53381,1.95887 -4.13161,2.18025 -0.36191,0.13402 -0.54651,0.17485 -0.41021,0.0907 1.93489,-1.19411 3.95833,-2.63912 4.52898,-3.23431 0.20074,-0.20937 -0.1969,-0.0306 -1.07034,0.48126 -1.33205,0.78058 -3.24283,1.72969 -2.5955,1.28922 0.63444,-0.43171 1.89721,-1.39902 2.08623,-1.5981 0.10734,-0.11308 -0.41431,0.1768 -1.15924,0.64415 -4.19741,2.63335 -9.44198,4.44208 -14.29745,4.93086 -0.7971,0.0802 -1.44927,0.16713 -1.44927,0.19308 0,0.026 0.33793,0.78861 0.75097,1.69479 l 0.75098,1.64759 0.79736,-0.0384 c 0.43856,-0.0211 1.73988,-0.22302 2.89184,-0.44865 z M 67.585162,135.09603 c 0.30159,-0.82803 0.681625,-1.80054 0.844524,-2.16113 0.162895,-0.36058 0.265453,-0.68633 0.227897,-0.72389 -0.03755,-0.0376 -0.40768,0.1108 -0.822499,0.32967 -0.414822,0.21886 -1.061759,0.48734 -1.437634,0.5966 -0.375875,0.10927 -0.677774,0.21689 -0.670884,0.23916 0.0069,0.0222 0.228335,0.45587 0.492095,0.96356 0.263764,0.50768 0.55167,1.21164 0.639795,1.56435 0.08812,0.3527 0.164304,0.65386 0.169291,0.66924 0.005,0.0154 0.255823,-0.64953 0.557415,-1.47756 z m 20.075471,13.52441 4.775803,0.0886 0.0181,-0.49933 c 0.01,-0.27463 0.0713,-0.87313 0.13635,-1.33 l 0.11827,-0.83067 -6.708672,1.15326 c -3.68977,0.63429 -6.823749,1.17344 -6.964394,1.1981 -0.268952,0.0472 0.858999,0.076 8.624563,0.22002 z m 17.718737,25.88393 c 0.0251,-0.1065 0.53955,-3.08616 1.14312,-6.62148 0.60357,-3.53531 1.12847,-6.60019 1.16643,-6.81085 0.0687,-0.38134 0.0634,-0.38231 -1.225,-0.22311 l -1.29402,0.1599 0.0551,6.8094 c 0.0303,3.74518 0.0672,6.82525 0.0819,6.8446 0.0148,0.0193 0.0474,-0.0519 0.0725,-0.15846 z m 14.21553,12.95314 0.4508,0.32049 0.26287,-0.84638 c 0.14459,-0.4655 0.441,-1.17051 0.65871,-1.56668 l 0.39584,-0.7203 -1.12013,0.46856 c -0.61607,0.2577 -1.56956,0.63616 -2.11887,0.84103 -0.5493,0.20486 -1.01532,0.38906 -1.03558,0.40932 -0.0203,0.0202 0.43395,0.20258 1.00935,0.40515 0.57542,0.20258 1.24907,0.51254 1.49701,0.68881 z M 92.548556,150.96935 c 0.13974,0.0107 0.12408,-0.5542 -0.0193,-0.69761 -0.12806,-0.12806 -6.500217,-0.77636 -6.604629,-0.67195 -0.03263,0.0326 6.321679,1.34644 6.623959,1.36956 z m 7.45033,12.14464 c 0.0479,-0.11191 4e-4,-0.11191 -0.12106,0 -0.10996,0.10127 -0.14545,0.18413 -0.0789,0.18412 0.0666,0 0.15656,-0.0829 0.19995,-0.18411 z m 4.167264,4.51244 c 0.0256,-0.0256 -0.0855,-1.53687 -0.24682,-3.35835 l -0.29339,-3.31176 -0.42445,-0.0884 c -0.23344,-0.0486 -0.42382,-0.0168 -0.42305,0.0708 10e-4,0.15157 1.28037,6.64031 1.32146,6.70388 0.0108,0.0168 0.0406,0.009 0.0662,-0.0161 z m -9.852754,-18.34336 c 0.003,-0.75066 0.0742,-1.60364 0.15833,-1.89553 0.13774,-0.47786 0.15583,-0.41616 0.18175,0.61976 0.0158,0.63276 0.0797,1.4151 0.14202,1.73855 0.0937,0.48652 0.1235,0.37018 0.17267,-0.67362 0.0327,-0.69392 0.14692,-1.56863 0.25386,-1.94379 l 0.19443,-0.6821 -0.0439,1.05817 c -0.0242,0.582 0.0217,1.43183 0.10198,1.88851 l 0.14589,0.83034 0.004,-0.98125 c 0.004,-0.92152 0.27538,-2.60409 0.44874,-2.77745 0.043,-0.043 0.0489,0.36117 0.013,0.89823 -0.0359,0.53706 -0.0216,1.22157 0.0318,1.52113 0.0892,0.50051 0.10044,0.47322 0.13931,-0.33671 0.0387,-0.80526 0.45813,-2.4482 0.62509,-2.4482 0.0384,-3e-5 0.0188,0.48524 -0.0437,1.07831 -0.13412,1.27376 -0.0716,1.52742 0.0863,0.34996 0.53581,-3.99641 3.903724,-6.90567 7.997104,-6.90803 0.90379,-4e-4 1.64873,0.11801 2.42197,0.38536 1.49473,0.51681 2.27756,1.04297 3.42577,2.30255 1.08806,1.1936 1.60939,2.1775 1.89001,3.56703 0.1,0.49512 0.19802,0.83147 0.21786,0.74743 0.0198,-0.084 -0.0415,-0.57371 -0.13634,-1.08817 -0.0948,-0.51446 -0.13308,-0.93538 -0.085,-0.93538 0.15456,0 0.6981,1.62655 0.798,2.38804 l 0.0968,0.73761 0.0238,-0.72209 c 0.0131,-0.39715 -0.0501,-1.12296 -0.14043,-1.61292 -0.0903,-0.48995 -0.12594,-0.89082 -0.0792,-0.89082 0.12723,-10e-6 0.594,1.4835 0.77063,2.44926 l 0.15512,0.84815 -0.0367,-1.16554 c -0.0202,-0.64104 -0.11557,-1.4699 -0.21195,-1.84191 -0.0964,-0.372 -0.15809,-0.6935 -0.13714,-0.71446 0.13793,-0.13793 0.79477,1.91376 0.8935,2.79093 0.0433,0.38509 0.10821,0.72599 0.14414,0.75755 0.13476,0.11835 -0.0178,-1.90905 -0.21579,-2.8675 -0.11321,-0.54803 -0.12571,-0.85112 -0.0278,-0.67353 0.30726,0.55721 0.71725,2.03665 0.7767,2.80269 0.0675,0.87052 0.20306,1.09954 0.228,0.38535 0.0167,-0.47967 -0.28641,-2.81742 -0.44899,-3.46225 -0.18901,-0.7497 0.3942,0.41027 0.76067,1.51294 0.30502,0.91779 0.37609,1.04883 0.33459,0.61689 -0.0901,-0.93787 -0.86098,-3.16461 -1.45448,-4.20143 -0.79829,-1.39459 -2.76414,-3.36215 -4.15379,-4.1572 -3.67935,-2.10547 -8.26028,-2.07433 -11.864134,0.0806 -1.36967,0.81902 -3.11359,2.56523 -3.92282,3.92795 -1.04516,1.76008 -1.74097,4.21838 -1.69788,5.99857 l 0.0174,0.71872 0.20537,-1.02216 c 0.27327,-1.36019 0.46949,-1.50226 0.48916,-0.35418 0.0133,0.77666 0.22972,2.57837 0.32305,2.68952 0.0143,0.0171 0.0284,-0.58319 0.0314,-1.33384 z m -19.76235,-21.235 c 0.04794,-0.1119 4.42e-4,-0.1119 -0.12106,0 -0.109961,0.10127 -0.14545,0.18413 -0.07888,0.18412 0.06658,0 0.156555,-0.0828 0.199953,-0.1841 z m 26.393144,26.61004 c 2.09212,1.37011 5.02301,1.4969 7.26286,0.31417 1.1429,-0.60349 2.44791,-1.91055 3.05462,-3.05915 1.72252,-3.26213 0.57559,-7.47367 -2.56409,-9.41537 -0.42858,-0.26505 -1.03457,-0.56075 -1.34663,-0.65713 -0.68914,-0.21281 -0.66254,-0.16918 0.16712,0.27427 0.35256,0.18844 0.9116,0.62127 1.24231,0.96184 l 0.60131,0.6192 -0.57839,-0.32331 c -0.31811,-0.17782 -0.79473,-0.41216 -1.05915,-0.52077 -0.46417,-0.19065 -0.45257,-0.17117 0.33652,0.56517 0.80481,0.75101 0.80907,0.75851 0.27952,0.4911 -0.29577,-0.14934 -0.68168,-0.30445 -0.85759,-0.34467 -0.27772,-0.0635 -0.26116,-0.0263 0.12582,0.28274 0.24509,0.19573 0.52295,0.50397 0.61746,0.68498 0.14335,0.27458 0.13652,0.29801 -0.0412,0.14136 -0.11714,-0.10328 -0.47822,-0.28322 -0.80238,-0.39989 l -0.58938,-0.21212 0.56577,0.45912 c 0.35959,0.2918 0.55009,0.52549 0.52278,0.64121 -0.0237,0.10015 -0.10318,0.12426 -0.17676,0.0536 -0.0735,-0.0707 -0.39643,-0.22654 -0.71746,-0.34634 l -0.58368,-0.21782 0.57401,0.47796 c 0.64537,0.53739 0.61668,0.76942 -0.0566,0.4573 -0.24472,-0.11345 -0.69199,-0.22974 -0.99394,-0.25841 l -0.54901,-0.0521 0.59425,0.19954 c 0.84018,0.2821 1.62741,1.10649 1.97999,2.07342 0.95884,2.62958 -1.7483,5.16193 -4.37058,4.08839 -1.00878,-0.41298 -1.97471,-1.75588 -2.0277,-2.81904 l -0.0231,-0.46443 -0.0707,0.4516 c -0.0389,0.24839 -0.028,0.75358 0.0241,1.12266 0.10638,0.75216 -0.0385,0.77127 -0.44287,0.0584 -0.14972,-0.26393 -0.29802,-0.47987 -0.32956,-0.47988 -0.0315,0 0.0172,0.33063 0.10828,0.73472 0.0911,0.40409 0.13532,0.73472 0.0983,0.73472 -0.037,0 -0.24851,-0.30808 -0.46994,-0.68463 -0.22143,-0.37653 -0.43366,-0.68461 -0.471644,-0.68461 -0.038,0 0.0337,0.37903 0.159304,0.8423 0.19548,0.72109 0.19037,0.80461 -0.0355,0.58034 -0.145174,-0.14404 -0.394934,-0.52547 -0.555134,-0.84751 -0.27995,-0.56277 -0.28872,-0.56959 -0.22566,-0.17556 0.0361,0.22548 0.14952,0.69675 0.25207,1.04727 0.16104,0.55041 0.15297,0.60293 -0.0592,0.38512 -0.1352,-0.13861 -0.40718,-0.58401 -0.6046,-0.98957 -0.35399,-0.72721 -0.35818,-0.73132 -0.30312,-0.29801 0.0306,0.24173 0.16344,0.7826 0.29514,1.20194 l 0.23946,0.76242 -0.38897,-0.51272 c -0.21394,-0.28199 -0.55072,-0.98216 -0.74842,-1.55591 -0.30679,-0.89039 -0.35134,-0.96325 -0.30412,-0.49739 0.19139,1.88825 1.51952,3.97866 3.246334,5.10954 z m 24.50254,24.28564 c 0.0479,-0.11191 4e-4,-0.11191 -0.12106,0 -0.10996,0.10127 -0.14545,0.18413 -0.0789,0.18412 0.0666,0 0.15656,-0.0829 0.19995,-0.1841 z M 112.6149,164.73733 c 2.43565,1.81194 8.55745,6.18846 11.53882,8.24918 3.35068,2.31599 9.15406,6.18003 9.15406,6.09501 0,-0.31154 -13.41804,-9.85205 -20.33043,-14.45537 -3.88847,-2.58953 -3.96236,-2.56687 -0.36245,0.11118 z m -22.029545,-22.3531 c -0.04108,-0.0967 -0.153787,-0.20939 -0.250472,-0.25047 -0.09668,-0.0411 -0.06306,0.038 0.0747,0.17577 0.137759,0.13776 0.216862,0.17137 0.175769,0.0747 z m -1.08121,-1.57378 c -3.326223,-4.99027 -14.492737,-20.35803 -17.202346,-23.67449 -2.908485,-3.55989 9.971517,14.48738 16.356023,22.9178 1.28129,1.69188 1.747513,2.10873 0.846323,0.75669 z m 36.748265,35.31968 c 0.0411,-0.0967 -0.038,-0.0631 -0.17577,0.0747 -0.13776,0.13775 -0.17137,0.21686 -0.0747,0.17577 0.0967,-0.0411 0.20939,-0.15379 0.25047,-0.25047 z m -22.86709,-26.35791 c 0.17871,-0.17871 0.0711,-0.79624 -0.18297,-1.05034 -0.34195,-0.34196 -0.49828,-0.23351 -0.40735,0.28261 0.0667,0.37862 0.46345,0.8946 0.59032,0.76773 z m -0.4288,-2.28153 c 0.43939,-0.22767 1.16697,-0.24945 1.77246,-0.0531 0.59679,0.19358 1.61249,1.06242 1.55025,1.3261 -0.018,0.0761 -0.22319,0.22432 -0.45584,0.32961 -0.48325,0.2184 -0.61282,0.63486 -0.29607,0.95161 0.17007,0.17007 0.31718,0.18828 1.02901,0.12733 0.43972,-0.0376 0.7592,-0.65771 0.78015,-1.51416 0.0402,-1.64191 -1.30284,-2.7852 -2.97867,-2.5357 -0.5361,0.0798 -1.95197,1.20181 -1.75948,1.39429 0.0578,0.0578 0.21899,0.0461 0.35819,-0.026 z m -6.462334,-8.05973 c 0.69395,-0.69396 2.34996,-1.7372 3.605464,-2.27134 l 1.22555,-0.5214 0.18093,-1.03119 c 0.12308,-0.70146 0.11471,-1.06701 -0.0262,-1.14324 -0.11389,-0.0616 -7.557864,-5.11452 -16.54212,-11.22864 -8.984259,-6.11413 -16.419955,-11.16691 -16.523774,-11.2284 -0.103813,-0.0615 6.084059,6.17148 13.75084,13.85104 l 13.93961,13.96284 z m 44.956154,45.61411 c -0.2281,-0.3795 -22.28882,-32.78737 -22.38356,-32.88212 -0.0539,-0.0539 -0.62169,4e-4 -1.26173,0.12095 l -1.16372,0.21898 -0.38289,0.8894 c -0.52136,1.21101 -1.1559,2.25946 -1.93728,3.20096 l -0.65492,0.78914 13.94845,13.92522 c 7.67166,7.65887 13.89769,13.84073 13.83564,13.73748 z M 80.994194,119.61151 c 0.0234,0.002 0.447666,-0.30562 0.942807,-0.68463 5.215278,-3.99213 11.209575,-6.50958 17.670455,-7.42111 l 1.806964,-0.25494 -0.15546,-0.34621 c -0.3987,-0.88782 -0.46774,-0.9331 -1.297254,-0.85077 -1.8284,0.18146 -5.27106,0.99467 -7.65414,1.80801 -4.405319,1.50354 -8.164063,3.55852 -11.904523,6.50845 l -0.538808,0.42493 0.543704,0.40589 c 0.299036,0.22324 0.56285,0.40791 0.586255,0.41038 z m 54.041336,53.47952 c 4.34953,-5.46044 7.11579,-11.68566 8.16541,-18.37554 0.15282,-0.97401 0.26345,-1.83193 0.24585,-1.9065 -0.0176,-0.0746 -0.30792,-0.27125 -0.64515,-0.43708 l -0.61314,-0.30149 -0.23527,1.70369 c -0.84618,6.12787 -3.63043,12.87872 -7.17779,17.40372 -1.01319,1.29243 -1.00369,1.26985 -0.69908,1.66119 0.60693,0.77974 0.5506,0.76493 0.95917,0.25201 z M 82.949867,120.93837 c 0.296838,0.19906 0.359334,0.17233 1.153056,-0.4932 0.996275,-0.83536 4.077598,-2.90724 4.925052,-3.31159 0.328724,-0.15685 0.597678,-0.31987 0.59768,-0.36226 -10e-7,-0.25489 -4.592586,2.15831 -6.172597,3.24343 -1.246969,0.85638 -0.955552,0.51156 0.540724,-0.63983 1.625451,-1.25079 3.741918,-2.61165 5.349039,-3.43937 0.651489,-0.33554 1.184526,-0.63807 1.184528,-0.67229 -10e-7,-0.14702 -3.494636,1.49358 -4.960235,2.32864 -1.521493,0.86691 -3.33634,2.03844 -3.661481,2.36358 -0.150988,0.15099 -0.03864,0.25673 1.044234,0.98289 z m 50.801283,50.26715 c 0.76508,-1.04992 2.1184,-3.25316 2.70919,-4.41061 0.74818,-1.46579 1.64224,-3.4634 1.5501,-3.4634 -0.0368,-2e-5 -0.3829,0.58418 -0.76928,1.29818 -0.93944,1.73601 -2.45186,3.99265 -3.3758,5.03693 -0.41388,0.46778 -0.66324,0.71436 -0.55411,0.54797 1.1982,-1.82729 3.20977,-5.58708 3.35233,-6.26576 0.0418,-0.19896 0.0268,-0.1997 -0.0752,-0.004 -0.76402,1.4671 -2.49827,4.06211 -3.68184,5.50923 l -0.60636,0.74139 0.3036,0.42498 c 0.16698,0.23375 0.33338,0.48537 0.3698,0.55916 0.25595,0.51867 0.41455,0.5239 0.77763,0.0256 z M 84.038353,121.62991 c 0.319814,-0.31981 2.971291,-2.25476 3.745641,-2.73343 0.572084,-0.35364 1.040153,-0.6744 1.040153,-0.71281 0,-0.19695 -4.887187,2.54575 -5.336035,2.9946 -0.04386,0.0439 0.05451,0.17091 0.218607,0.28233 0.164086,0.11144 0.313328,0.18762 0.331634,0.16931 z m 49.119107,46.98991 c 0.8298,-1.35718 2.16936,-3.88673 2.0569,-3.88414 -0.0367,8e-4 -0.36616,0.46854 -0.73214,1.03932 -0.36598,0.57079 -1.04297,1.51685 -1.50442,2.10236 -1.19979,1.52233 -1.21641,1.553 -0.99882,1.84279 0.10625,0.14153 0.23855,0.24026 0.29396,0.21942 0.0554,-0.0208 0.45346,-0.61473 0.88452,-1.31975 z M 85.21361,121.81638 c 0.236715,-0.20411 0.943042,-0.75276 1.569616,-1.2192 0.626574,-0.46645 1.139226,-0.88177 1.139226,-0.92292 0,-0.0763 -2.549375,1.35733 -3.275771,1.84216 -0.369471,0.2466 -0.379678,0.28289 -0.131955,0.46918 0.223601,0.16816 0.340432,0.13986 0.698884,-0.16922 z m 46.68896,47.03962 c 0.83756,-1.36559 1.9369,-3.32035 1.86734,-3.32035 -0.0464,0 -0.48697,0.54304 -0.97906,1.20677 -0.4921,0.66372 -1.02795,1.33999 -1.19078,1.50283 -0.34689,0.34688 -0.36644,0.49284 -0.10152,0.75776 0.16144,0.16144 0.23018,0.13643 0.40402,-0.14701 z M 93.908246,128.39129 c 4.22808,2.88027 7.743794,5.23951 7.812684,5.24274 0.0689,0.003 0.64331,-3.03174 1.2765,-6.74438 0.63318,-3.71264 1.23486,-6.80687 1.33707,-6.87607 0.1022,-0.0692 0.26616,-0.0714 0.36435,-0.005 0.0982,0.0665 0.78342,3.21163 1.52274,6.98924 1.14771,5.86428 1.38129,6.85293 1.59786,6.76281 0.26529,-0.11041 15.89474,-10.72939 16.11259,-10.94724 0.0687,-0.0688 0.0323,-0.21778 -0.0812,-0.33117 -0.45878,-0.45877 -2.77158,-1.87986 -4.39892,-2.70289 -1.83527,-0.92819 -4.97748,-2.13589 -5.13843,-1.97494 -0.0528,0.0528 -0.93008,2.29574 -1.94945,4.98426 -2.74306,7.23461 -3.04155,8.00816 -3.07654,7.97317 -0.0175,-0.0175 0.80776,-3.02444 1.83403,-6.68198 1.02627,-3.65753 1.82846,-6.68754 1.78266,-6.73335 -0.25965,-0.25965 -4.32927,-0.9164 -6.19968,-1.0005 l -1.07914,-0.0485 -0.26458,0.55306 c -0.51439,1.07525 -0.85497,1.14591 -1.22144,0.25341 -0.11758,-0.28634 -0.28239,-0.58923 -0.36626,-0.6731 -0.47568,-0.47568 -9.030114,1.04959 -9.002984,1.60525 0.004,0.0921 0.95301,2.717 2.10781,5.83301 1.1548,3.11602 2.07621,5.66548 2.04757,5.66548 -0.0286,0 -1.27184,-2.50959 -2.7627,-5.57688 l -2.71064,-5.57688 -0.89124,0.33714 c -1.321655,0.49996 -3.757129,1.77689 -5.308667,2.78335 -1.760739,1.14218 -1.774996,1.15717 -1.362039,1.43258 0.181816,0.12125 3.789914,2.57706 8.017996,5.45734 z m 37.238504,39.00756 c 1.22525,-1.6775 2.90004,-4.73489 3.63562,-6.63695 0.29903,-0.77326 0.29711,-0.79538 -0.0839,-0.96384 -1.16443,-0.51486 -10.47446,-5.08618 -10.47446,-5.14306 0,-0.037 2.48341,0.8518 5.51869,1.97521 3.03528,1.12341 5.58873,2.04782 5.67433,2.05424 0.41019,0.0308 1.49578,-5.20145 1.68223,-8.10791 l 0.0533,-0.83042 -0.65811,-0.32361 c -0.54105,-0.26604 -0.65811,-0.37009 -0.65811,-0.58491 0,-0.21483 0.11392,-0.31733 0.64044,-0.57623 0.63081,-0.31019 0.64072,-0.32232 0.65854,-0.80698 0.0477,-1.29768 -0.7423,-6.61906 -1.02459,-6.90134 -0.0533,-0.0533 -3.01815,0.72387 -6.5886,1.72702 -3.57045,1.00315 -6.5093,1.80633 -6.53078,1.78485 -0.0539,-0.0539 0.13748,-0.12857 6.73463,-2.62555 3.21492,-1.21684 5.88526,-2.25239 5.93409,-2.30122 0.12102,-0.12102 -0.82595,-2.71621 -1.5732,-4.31139 -1.00077,-2.13636 -2.99835,-5.35891 -3.32187,-5.35891 -0.11992,0 -10.8117,15.56466 -11.2118,16.32168 -0.14668,0.27755 0.30802,0.38789 6.95507,1.6878 3.91161,0.76497 7.16841,1.47414 7.23733,1.57594 0.0689,0.10179 0.0704,0.26444 0.003,0.36143 -0.0671,0.097 -3.20393,0.70111 -6.97083,1.3425 -5.06725,0.86279 -6.81772,1.21837 -6.729,1.36688 0.27066,0.45306 10.40639,15.39095 10.5655,15.57127 0.15114,0.17131 0.21734,0.13442 0.53208,-0.2965 z m -8.59506,-16.86059 c 2.68513,-0.40066 4.70323,-0.72698 4.48465,-0.72514 -0.69069,0.006 -9.34252,0.71849 -9.68597,0.79787 -0.26664,0.0616 -0.3335,0.13218 -0.35613,0.37578 -0.0372,0.40074 -0.24757,0.41771 5.55746,-0.44849 z M 103.18155,136.0992 c 0.11297,-0.93925 0.81848,-9.42259 0.78629,-9.45478 -0.0215,-0.0215 -0.36925,2.15319 -0.77273,4.83268 -0.69352,4.6056 -0.71486,4.87274 -0.39066,4.88892 0.28089,0.014 0.34912,-0.0343 0.3771,-0.26682 z m 20.99122,13.02343 6.76776,0.0451 -6.687,-1.32807 c -3.67785,-0.73044 -6.79506,-1.33284 -6.92713,-1.33868 -0.18723,-0.008 -0.21674,0.26406 -0.134,1.23607 0.0584,0.68568 0.13009,1.26781 0.15938,1.29363 0.0292,0.0258 3.09873,0.0672 6.82099,0.092 z m -18.15129,-12.85228 c 0.90881,0.0814 1.14565,0.0516 1.14171,-0.14366 -0.005,-0.24083 -2.36773,-12.41794 -2.49936,-12.88044 -0.0366,-0.12869 -0.0366,1.53944 10e-6,3.70696 0.0366,2.16751 0.0761,5.10361 0.0878,6.52466 0.0116,1.42104 0.0441,2.60756 0.0722,2.63672 0.028,0.0292 0.56701,0.0992 1.19768,0.15576 z m 3.03648,0.6673 c 1.3611,0.49332 2.59733,1.20622 3.62104,2.08817 l 0.88804,0.76506 13.82823,-13.84408 c 7.60554,-7.61423 13.76596,-13.81617 13.68985,-13.78208 -0.0761,0.0341 -7.48857,5.06503 -16.47211,11.17987 -8.98355,6.11483 -16.45709,11.19435 -16.60788,11.28781 -0.22336,0.13845 -0.24235,0.33295 -0.10249,1.04969 0.0944,0.48386 0.17849,0.88655 0.18682,0.89488 0.008,0.008 0.44414,0.17063 0.96848,0.36066 z M 88.616354,112.44511 c 0.06945,-0.0683 0.999483,-0.45743 2.066867,-0.8646 1.067383,-0.40717 1.955625,-0.75523 1.973875,-0.77348 0.0182,-0.0183 -0.4507,-0.20304 -1.042091,-0.41064 -0.591396,-0.20761 -1.27167,-0.5192 -1.511719,-0.69243 -0.240047,-0.17323 -0.446876,-0.30453 -0.45962,-0.29179 -0.01274,0.0127 -0.154791,0.42273 -0.315656,0.91109 -0.160869,0.48835 -0.451751,1.15696 -0.646404,1.48579 -0.325333,0.54959 -0.364444,0.93083 -0.06525,0.63606 z m 53.044416,52.23173 c 0.37736,-0.20737 1.06516,-0.4923 1.52844,-0.63319 l 0.84233,-0.25615 -0.35448,-0.57663 c -0.28139,-0.45774 -0.7622,-1.6018 -1.02941,-2.44941 -0.0189,-0.0599 -0.30381,0.64251 -0.63319,1.56084 -0.32939,0.91832 -0.70837,1.89833 -0.8422,2.17778 -0.13382,0.27945 -0.23303,0.51838 -0.22046,0.53095 0.0126,0.0126 0.33161,-0.14681 0.70897,-0.35419 z m -14.92373,-32.33427 c 3.77881,-4.86986 11.37354,-15.29335 11.37851,-15.6166 0.009,-0.55576 -8.02605,10.16079 -13.7302,18.31337 -1.17754,1.68298 0.009,0.32244 2.35169,-2.69677 z m -20.29602,-19.51116 1.60586,-3.278 -1.54365,-2.56632 c -0.84902,-1.41148 -1.56502,-2.56632 -1.59112,-2.56633 -0.0776,1e-5 -0.22567,11.68287 -0.14811,11.68588 0.0392,0.002 0.79381,-1.47233 1.67702,-3.27523 z m 42.69458,35.79737 c 0.003,-0.0538 -5.06345,-3.13079 -5.15469,-3.13079 -0.0413,-10e-6 -1.57673,0.7402 -3.41199,1.64489 l -3.33682,1.6449 5.95078,-0.0605 c 3.27294,-0.0333 5.95165,-0.0776 5.95272,-0.0985 z M 103.85748,114.6349 c 0.0678,-0.0678 -1.34101,-3.50152 -1.43661,-3.50152 -0.0506,-1e-5 0.2123,0.75988 0.58419,1.68861 0.66111,1.65104 0.77406,1.89126 0.85242,1.81291 z m 37.18716,36.01053 c 0.92446,0.37603 1.68084,0.64905 1.68084,0.60672 0,-0.0796 -2.16133,-1.0046 -3.32801,-1.42427 -1.14887,-0.41327 -0.10504,0.10482 1.64717,0.81755 z m -38.72846,-39.8794 c -0.0292,-0.13607 -0.0982,-0.29249 -0.15335,-0.34759 -0.0551,-0.0551 -0.0763,0.0111 -0.047,0.14721 0.0292,0.13607 0.0982,0.29249 0.15335,0.34759 0.0551,0.0551 0.0763,-0.0111 0.047,-0.14721 z m 40.63517,34.30956 c 0.37623,-0.21164 0.58088,-0.39283 0.5607,-0.49644 -0.0175,-0.0897 -0.0919,-0.6441 -0.16531,-1.23191 -0.37601,-3.00949 -1.60693,-7.37215 -2.93766,-10.41167 -1.26652,-2.89287 -3.33623,-6.32486 -5.19165,-8.60876 l -0.59517,-0.73263 -0.39389,0.58805 -0.39389,0.58804 1.0844,1.44787 c 3.87054,5.16785 6.52785,11.87977 7.14237,18.04049 0.06,0.60127 0.15148,1.10604 0.20333,1.12173 0.0519,0.0157 0.36091,-0.12147 0.68677,-0.30477 z m -33.5032,-33.66624 c 6.23533,0.67851 12.98889,3.43455 18.19318,7.42439 l 1.03787,0.79568 0.57997,-0.38849 c 0.68994,-0.46214 0.75129,-0.36188 -1.03675,-1.69403 -5.32523,-3.96745 -11.87073,-6.65326 -18.12374,-7.43668 -0.5811,-0.0728 -1.12776,-0.14615 -1.21478,-0.16299 -0.14422,-0.0279 -0.79149,1.18486 -0.68775,1.2886 0.023,0.023 0.58641,0.10109 1.252,0.17352 z m 7.31352,4.14735 c 0.69177,0.24499 2.17525,0.83541 3.29663,1.31204 1.12137,0.47662 1.98307,0.808 1.91488,0.73639 -0.0682,-0.0716 -0.79278,-0.47413 -1.6102,-0.8945 -1.76359,-0.90694 -4.47008,-1.89053 -6.50055,-2.36241 -2.27328,-0.52831 -2.36543,-0.46987 -0.27388,0.17369 1.05344,0.32414 2.48135,0.7898 3.17312,1.03479 z m 1.40134,1.70233 c 1.8906,0.70686 2.15409,0.77773 1.58048,0.42504 -1.22309,-0.752 -5.82081,-2.38574 -6.3575,-2.25905 -0.0834,0.0197 0.56393,0.29328 1.43843,0.60801 0.87451,0.31472 2.37687,0.86642 3.33859,1.226 z m -1.8616,-3.0327 c 1.84735,0.61093 3.86256,1.43095 5.97268,2.43038 2.04827,0.97013 1.80141,0.69704 -0.44287,-0.48993 -2.8433,-1.50379 -5.71847,-2.5147 -9.27977,-3.26276 -0.88799,-0.18653 -1.63464,-0.31904 -1.65921,-0.29446 -0.0246,0.0246 0.8923,0.30244 2.03749,0.6175 1.14519,0.31505 2.66245,0.76472 3.37168,0.99927 z m 23.69627,26.38514 c -0.12639,-1.73768 -1.00517,-4.64106 -2.13598,-7.05709 -0.70097,-1.49767 -2.39332,-4.34028 -2.64806,-4.44791 -0.0936,-0.0395 -0.09,0.0153 0.008,0.12192 0.0979,0.1066 0.76819,1.37496 1.48953,2.81858 1.36287,2.7275 2.54572,5.868 2.99574,7.95373 0.29457,1.36529 0.35504,1.49223 0.29092,0.61077 z m -1.70834,-2.29919 c -0.0802,-0.73931 -1.02101,-3.35492 -1.66978,-4.64209 -1.09472,-2.17195 -1.30724,-2.18912 -0.37079,-0.03 0.50008,1.15304 1.15363,2.75372 1.45234,3.55708 0.61974,1.66677 0.65539,1.73433 0.58823,1.11497 z m -16.67162,-26.50056 c -0.26363,-0.56616 -0.51688,-1.25265 -0.56277,-1.52554 l -0.0834,-0.49616 -0.5638,0.33698 c -0.44554,0.2663 -1.68975,0.78448 -2.34929,0.97842 -0.0537,0.0158 0.83302,0.41278 1.9705,0.88219 l 2.06814,0.85348 z m 21.01037,22.75935 c 0.19213,-0.51091 0.50044,-1.18173 0.68512,-1.49073 l 0.3358,-0.56181 -0.85867,-0.25531 c -0.47227,-0.14042 -1.1765,-0.42294 -1.56496,-0.62781 l -0.70628,-0.37251 0.52574,1.1698 c 0.28916,0.64339 0.67871,1.58622 0.86566,2.09518 0.18696,0.50896 0.3463,0.93589 0.35409,0.94874 0.008,0.0128 0.17137,-0.39465 0.3635,-0.90555 z m -4.15271,-18.35356 c 0.0411,-0.0967 -0.038,-0.0631 -0.17577,0.0747 -0.13776,0.13776 -0.17137,0.21686 -0.0747,0.17577 0.0967,-0.0411 0.2094,-0.15379 0.25047,-0.25047 z m -76.944959,49.85248 c 0,-1.03956 1.296964,-1.61761 2.016025,-0.89855 0.389394,0.38939 0.424715,1.37237 0.06233,1.73475 -0.13777,0.13777 -0.505923,0.27248 -0.818117,0.29937 -0.733565,0.0632 -1.260246,-0.41142 -1.260243,-1.13557 z m 24.674991,24.90998 c -0.05008,-0.38123 0.121952,-0.9061 0.382322,-1.16647 0.319958,-0.31995 1.328218,-0.27255 1.679745,0.079 0.724282,0.72429 0.157864,2.03522 -0.879358,2.03521 -0.540606,1e-5 -1.119107,-0.46356 -1.182709,-0.94771 z M 48.799706,148.72811 c 0.04982,-0.11186 0.148194,-0.22994 0.218617,-0.26241 0.262482,-0.12103 9.365995,-0.47151 9.476337,-0.36483 0.06327,0.061 0.103403,0.23453 0.08938,0.38542 -0.02906,0.31273 0.47221,0.26457 -5.622126,0.54017 -2.187859,0.0989 -4.03977,0.11804 -4.11535,0.0425 -0.07558,-0.0756 -0.09667,-0.22894 -0.04685,-0.3408 z m 55.583284,54.63006 c 0.0103,-0.68132 0.0896,-2.81753 0.17626,-4.74713 0.15254,-3.39843 0.2723,-3.97867 0.7539,-3.65262 0.25387,0.17188 -0.13081,9.56731 -0.39915,9.74899 -0.39037,0.26428 -0.54935,-0.13967 -0.53101,-1.34924 z m -43.115029,-70.6799 c -0.406305,-0.61597 -0.07479,-1.52181 0.679972,-1.85795 0.608952,-0.2712 1.583612,0.48395 1.54644,1.19816 -0.06048,1.16216 -1.595061,1.61693 -2.226412,0.65979 z m 58.952629,58.38247 c 0.0858,-0.71861 0.59234,-1.13849 1.29987,-1.07757 0.45906,0.0395 0.64124,0.1304 0.83556,0.41679 0.32223,0.47487 0.26886,1.24759 -0.1125,1.62895 -0.7224,0.7224 -2.14362,0.0422 -2.02293,-0.96817 z m -33.100747,-84.6721 c -0.298188,-0.70062 0.451078,-1.65563 1.2263,-1.56304 0.718609,0.0858 1.138488,0.59234 1.077566,1.29988 -0.06133,0.71232 -0.527257,1.1004 -1.264616,1.05333 -0.503189,-0.0321 -0.818719,-0.27202 -1.03925,-0.79017 z m 59.149747,59.10949 c -0.13359,-0.49287 -0.0422,-0.84625 0.31253,-1.20785 0.83214,-0.84839 2.32503,0.0161 1.96752,1.13936 -0.203,0.63779 -0.49596,0.85614 -1.14871,0.85614 -0.615,0 -0.98829,-0.25988 -1.13134,-0.78765 z m 5.18941,-16.91574 c 0.0132,-0.14187 0.083,-0.28588 0.1551,-0.32003 0.0721,-0.0342 2.20919,-0.15642 4.74905,-0.27173 3.44073,-0.1562 4.66204,-0.15159 4.79095,0.0181 0.0952,0.12525 0.0979,0.30282 0.006,0.39458 -0.16561,0.16562 -9.24681,0.6501 -9.56117,0.51009 -0.0902,-0.0402 -0.15327,-0.18914 -0.14009,-0.33101 z M 104.73748,97.151142 c 0.19262,-4.465185 0.32438,-5.280112 0.78002,-4.82447 0.23197,0.231975 -0.10977,9.604458 -0.35471,9.728108 -0.0865,0.0436 -0.26254,0.001 -0.39126,-0.0942 -0.17777,-0.13187 -0.18596,-1.28831 -0.0341,-4.809385 z m 16.405,9.306788 c 0,-1.03722 1.31093,-1.60364 2.03521,-0.87936 0.35153,0.35153 0.39893,1.35979 0.079,1.67975 -0.7846,0.78459 -2.11418,0.28124 -2.11418,-0.80039 z m 24.66529,24.62692 c 0.0267,-0.70239 0.45637,-1.09807 1.19241,-1.09808 0.62516,1e-5 0.95243,0.224 1.11734,0.76474 0.1527,0.5007 0.0657,0.85946 -0.29853,1.23077 -0.74026,0.75469 -2.05178,0.16948 -2.01122,-0.89743 z"
       id="path1"
       sodipodi:nodetypes="ssssssssssscsssscssssssccsscsssscsscscsssccscscscssssscsssssssssssssssscssccsssssscsscssssssscsssssscssscssssssssssscsscsssccccsscsssssscssssscssssscsscssssssssscssscsssscscscssccsccccsccccsccsssssssssssssssscssscsssssscsscscsssssssssscssssssssssssssssscsssscsscssssssssssssssssscsscsssssssssssssssssssssssscssscssssscsssscssssssssssssssssssssssssssscssssssscscsssssccsscsssssssssscsccssssscsscsscsscssscssscsccscsscssssssssscssccsscsssscssssscsscssssscsssssssssscsssscsssscsssssssscscscsscccccscccscscsccscccscccscsccscssscscsscssssssssscssscscscssscccssccssssscsscsssssscsssssssscsssssssscscscccsssscsscsssccscsccscscsssscssssssscssscssscsssscssscscccsssscsssssssssssscssscsssssscsssssssssssscssssssscssssssssssscssssssssssssssssssscssccccssscscssscsssssscscsccssssscccssssscscsscssssssssssccccscssscssscsssssssssssssssscccsssscscssscscsscssssssssssssssssssssssssssssssscscscssscsscsssssscssssssssssssccssssssssssssssssssssssssscsssscsssssssccssssssssss" /></g></svg>
