<?xml version="1.0" encoding="UTF-8" standalone="no"?>
<!-- Created with Inkscape (http://www.inkscape.org/) -->

<svg
   width="210mm"
   height="297mm"
   viewBox="0 0 210 297"
   version="1.1"
   id="svg1"
   xml:space="preserve"
   inkscape:version="1.4.2 (ebf0e940d0, 2025-05-08)"
   sodipodi:docname="Thea.svg"
   xmlns:inkscape="http://www.inkscape.org/namespaces/inkscape"
   xmlns:sodipodi="http://sodipodi.sourceforge.net/DTD/sodipodi-0.dtd"
   xmlns="http://www.w3.org/2000/svg"
   xmlns:svg="http://www.w3.org/2000/svg"><sodipodi:namedview
     id="namedview1"
     pagecolor="#ffffff"
     bordercolor="#000000"
     borderopacity="0.25"
     inkscape:showpageshadow="2"
     inkscape:pageopacity="0.0"
     inkscape:pagecheckerboard="0"
     inkscape:deskcolor="#d1d1d1"
     inkscape:document-units="mm"
     inkscape:zoom="0.99953704"
     inkscape:cx="396.68365"
     inkscape:cy="561.25984"
     inkscape:window-width="2560"
     inkscape:window-height="1350"
     inkscape:window-x="0"
     inkscape:window-y="0"
     inkscape:window-maximized="1"
     inkscape:current-layer="layer1" /><defs
     id="defs1" /><g
     inkscape:label="Layer 1"
     inkscape:groupmode="layer"
     id="layer1"><path
       style="fill:#000000"
       d="m 103.3573,178.06971 c -7.577643,-0.46748 -14.40594,-3.59994 -19.64282,-9.01106 -6.195799,-6.40196 -9.125299,-15.07226 -8.121548,-24.03697 0.549371,-4.90656 2.528289,-9.95064 5.480769,-13.97 1.839526,-2.50424 4.188746,-4.83482 6.643476,-6.59078 6.941178,-4.96529 15.505663,-6.71026 23.810903,-4.85136 9.84568,2.20368 17.92525,9.33275 21.38211,18.86666 0.69543,1.91798 1.23237,4.16277 1.53525,6.41848 0.20731,1.54399 0.20676,5.63543 -9.7e-4,7.18663 -0.91746,6.8509 -3.7889,12.68342 -8.57926,17.42633 -3.42738,3.39343 -7.28425,5.73526 -11.88614,7.21707 -3.26605,1.05167 -7.23335,1.55404 -10.62177,1.345 z m 4.191,-0.62364 c 10.12685,-0.90515 18.95195,-6.93286 23.53145,-16.07242 1.53897,-3.0714 2.50455,-6.46891 2.88929,-10.16631 0.12013,-1.15444 0.12063,-4.28281 8.9e-4,-5.46599 -0.8428,-8.32733 -5.02752,-15.6994 -11.72499,-20.65545 -1.39128,-1.02954 -2.70395,-1.82299 -4.40964,-2.66543 -2.88332,-1.42408 -5.74925,-2.29969 -9.03426,-2.76018 -1.31297,-0.18405 -4.91938,-0.25841 -6.30441,-0.12998 -6.216836,0.57645 -11.781623,2.92441 -16.454319,6.94259 -1.089592,0.93697 -2.669551,2.54 -3.469794,3.52045 -3.720811,4.55871 -5.945833,9.94419 -6.518772,15.77813 -0.111679,1.13717 -0.110717,4.32038 0.0016,5.44306 1.025214,10.24365 7.16101,19.0404 16.379913,23.4835 3.136262,1.51154 6.987076,2.54646 10.329332,2.77604 1.00297,0.0689 3.88857,0.052 4.78367,-0.028 z m -4.86833,-0.76753 c -10.439591,-0.85629 -19.570395,-7.45712 -23.704765,-17.13664 -2.526761,-5.91573 -2.924206,-12.70246 -1.111499,-18.97988 2.005206,-6.94405 6.746673,-12.94783 13.12908,-16.62443 3.176721,-1.82996 6.725291,-3.00084 10.681224,-3.52435 1.54241,-0.20412 4.97105,-0.20403 6.63629,1.8e-4 3.33,0.40835 6.23612,1.27032 9.18634,2.72471 8.52574,4.20299 14.29699,12.2311 15.57949,21.67188 0.19166,1.41085 0.25938,4.47269 0.13228,5.98031 -0.40971,4.8595 -1.9316,9.2489 -4.61958,13.32369 -1.05084,1.59301 -2.11371,2.88442 -3.59423,4.36709 -3.21378,3.21845 -6.96469,5.51959 -11.29166,6.92731 -3.40988,1.10935 -7.39076,1.56805 -11.02297,1.27013 z m 5.715,-1.77825 c 5.72548,-0.71666 10.9512,-3.2324 15.09329,-7.26612 2.35194,-2.29042 3.85303,-4.30448 5.26977,-7.07066 1.46838,-2.86698 2.33047,-5.74748 2.76366,-9.23416 0.13609,-1.09535 0.13527,-4.67466 -0.001,-5.715 -0.5771,-4.39578 -1.81946,-7.92671 -4.00097,-11.37127 -1.06919,-1.68822 -2.01731,-2.86552 -3.61682,-4.49111 -4.24468,-4.31391 -9.76788,-6.99251 -15.90927,-7.71559 -1.43777,-0.16929 -4.4596,-0.16808 -5.94834,0.002 -9.667693,1.10688 -17.85608,7.26798 -21.655822,16.29426 -1.974515,4.69046 -2.515631,10.28614 -1.490123,15.40934 1.353557,6.76205 5.390858,12.83134 11.16561,16.78531 3.840901,2.62986 8.522966,4.23729 13.250335,4.54907 1.42892,0.0942 3.48923,0.0227 5.08,-0.17644 z m -8.655656,-0.87687 c -0.980433,-0.21463 -1.876239,-0.66278 -2.833307,-1.41743 -1.382544,-1.09013 -2.193967,-2.38958 -3.267256,-5.23231 -0.254932,-0.67522 -0.491199,-1.29434 -0.525039,-1.37583 -0.05029,-0.12111 -0.01735,-0.14779 0.180365,-0.1461 0.266455,0.002 0.765952,0.10746 1.451252,0.3056 l 0.447361,0.12934 0.600903,1.19966 c 0.796591,1.59034 1.407344,2.50415 2.188198,3.274 1.401838,1.38207 3.148789,1.94734 4.873609,1.577 l 0.5141,-0.11039 0.6177,0.58904 c 0.4675,0.4458 0.58954,0.60709 0.5019,0.6633 -0.25543,0.16382 -1.08165,0.43528 -1.66841,0.54818 -0.75049,0.14439 -2.41324,0.1422 -3.081376,-0.004 z m 7.230306,-0.0449 c -1.20571,-0.28075 -2.00005,-0.72225 -2.86653,-1.59323 -0.60044,-0.60355 -1.419,-1.69797 -1.70461,-2.27908 l -0.21748,-0.44248 0.19335,-0.20581 c 0.10634,-0.1132 0.42315,-0.32829 0.70401,-0.47799 1.553,-0.82774 3.21187,-0.65068 4.63214,0.49443 l 0.20454,0.16491 -0.23863,0.41238 c -0.47607,0.82274 -1.08344,1.64003 -1.21818,1.63922 -0.13572,-8.1e-4 -1.02659,-0.38661 -1.02659,-0.44457 0,-0.0164 0.17145,-0.21396 0.381,-0.43898 0.20955,-0.22502 0.381,-0.47664 0.381,-0.55916 0,-0.22555 -0.64508,-0.50379 -1.16802,-0.50379 -0.49554,0 -1.07992,0.202 -1.1557,0.39951 -0.0623,0.16246 0.082,0.39068 0.51266,0.81075 0.69806,0.68084 1.62989,1.13458 2.82901,1.37756 1.7829,0.36126 3.41049,-0.16896 4.82496,-1.57182 0.7973,-0.79076 1.49005,-1.82254 2.2199,-3.30631 l 0.56434,-1.14731 0.44892,-0.13963 c 0.56545,-0.17587 1.57617,-0.3614 1.63706,-0.30051 0.0688,0.0688 -1.02649,2.87542 -1.46372,3.75076 -0.71076,1.42294 -1.68035,2.59243 -2.77241,3.34401 -0.54109,0.37238 -1.48671,0.82769 -2.03438,0.97954 -0.80554,0.22335 -2.78191,0.24362 -3.66664,0.0376 z M 94.128635,171.3805 c -0.548724,-0.0688 -1.973674,-0.39104 -2.455333,-0.5553 -2.547716,-0.86887 -3.833828,-2.40186 -4.237981,-5.05149 l -0.05679,-0.37233 0.264715,0.0529 c 0.145594,0.0291 0.564064,0.0779 0.929933,0.10842 l 0.665218,0.0555 0.09802,0.438 c 0.316524,1.41438 1.2545,2.45423 2.575791,2.85556 0.493927,0.15003 0.61028,0.15986 0.785007,0.0663 0.279804,-0.14974 0.399622,-0.64429 0.335806,-1.38601 l -0.05157,-0.59942 0.429902,1.10067 c 0.48587,1.24396 1.171054,2.71691 1.438675,3.09275 l 0.179141,0.25158 -0.323266,-0.0127 c -0.177796,-0.007 -0.437565,-0.027 -0.577265,-0.0445 z m 21.067345,-0.21239 c 0.28993,-0.38012 0.84794,-1.58675 1.41266,-3.05471 0.24656,-0.64091 0.45696,-1.15526 0.46755,-1.143 0.0106,0.0123 -0.0158,0.27917 -0.0588,0.59313 -0.0951,0.69583 0.0157,1.19152 0.30925,1.38388 0.18688,0.12245 0.24615,0.1218 0.69156,-0.008 0.74325,-0.21607 1.22075,-0.49143 1.65238,-0.95288 0.45793,-0.48956 0.70258,-0.93489 0.96477,-1.75614 l 0.18922,-0.59267 0.53735,-0.0578 c 0.29553,-0.0318 0.70364,-0.0793 0.90689,-0.10554 l 0.36956,-0.0478 -0.0587,0.46997 c -0.17529,1.4029 -0.65756,2.42968 -1.56855,3.33946 -1.18739,1.18582 -3.08256,1.94436 -5.41202,2.16616 l -0.62752,0.0597 z m -16.931482,-0.77609 c -0.318925,-0.34228 -0.668026,-0.78043 -0.775781,-0.97367 L 97.2928,169.06701 h 0.288207 c 0.334378,0 1.58669,-0.30619 1.694906,-0.41441 0.04144,-0.0414 -0.112728,-0.11807 -0.353996,-0.17595 -0.6326,-0.15175 -1.125677,-0.52426 -1.746698,-1.31956 -0.64829,-0.83023 -1.074906,-1.14844 -1.98501,-1.48059 -1.133375,-0.41363 -2.155333,-0.54391 -5.294907,-0.67502 -1.071033,-0.0447 -2.242897,-0.12425 -2.604142,-0.17673 -0.94978,-0.13796 -1.077126,0.0442 -0.775824,1.1096 0.07243,0.25611 0.153096,0.54186 0.179258,0.635 0.107502,0.38269 -1.822776,-1.69219 -2.505829,-2.69355 -0.266663,-0.39093 -0.866552,-1.59892 -0.81809,-1.64738 0.01285,-0.0129 0.190751,0.0729 0.395331,0.19062 0.507242,0.29181 1.986679,0.7639 2.911963,0.92921 0.4191,0.0749 1.58115,0.17324 2.582333,0.21858 4.719247,0.21371 5.58665,0.29554 6.765279,0.63817 1.203296,0.34981 1.858147,0.8366 3.209376,2.38573 0.871923,0.99962 1.597903,1.37562 2.656043,1.37562 0.60282,0 0.61359,0.0536 0.1502,0.74751 -0.68989,1.03311 -2.345343,2.30049 -3.004911,2.30049 -0.129458,0 -0.380663,-0.20256 -0.771791,-0.62233 z m 12.067262,0.37863 c -0.73864,-0.37466 -1.19916,-0.72161 -1.72462,-1.2993 -0.41937,-0.46104 -0.97098,-1.27177 -0.97338,-1.43062 -4.3e-4,-0.029 0.29449,-0.0715 0.65538,-0.0946 1.23362,-0.0789 1.78719,-0.42487 2.97965,-1.86227 1.60667,-1.9367 2.88174,-2.2937 8.85251,-2.47855 2.80038,-0.0867 4.408,-0.37608 5.85413,-1.05376 0.38915,-0.18236 0.70754,-0.31126 0.70754,-0.28644 0,0.0248 -0.15959,0.36718 -0.35464,0.76081 -0.40542,0.81816 -1.43876,2.14314 -2.40033,3.07775 -0.49507,0.48119 -0.63856,0.58373 -0.59242,0.42333 0.25266,-0.87819 0.29939,-1.08428 0.29939,-1.32041 0,-0.43023 -0.15083,-0.49352 -0.90785,-0.38092 -0.35971,0.0535 -1.55037,0.13424 -2.64591,0.17944 -2.50282,0.10324 -3.53154,0.20767 -4.52293,0.45916 -1.39516,0.35391 -1.99103,0.74728 -2.88764,1.90629 -0.50459,0.65226 -0.84736,0.89862 -1.50447,1.08131 -0.26949,0.0749 -0.45895,0.16725 -0.42102,0.20518 0.10386,0.10386 1.362,0.40995 1.68503,0.40995 0.15553,0 0.28144,0.0286 0.2798,0.0635 -0.0152,0.32278 -1.4484,1.88448 -1.72783,1.88276 -0.0958,-5.9e-4 -0.38847,-0.10977 -0.65039,-0.24262 z m -17.987568,-7.708 -0.853109,-0.0493 -0.438548,-0.39438 c -0.428287,-0.38515 -1.028607,-0.66396 -1.429599,-0.66396 h -0.199868 l 0.01202,-1.06611 0.01202,-1.06612 0.308762,0.0533 c 0.978714,0.16889 2.243019,1.1217 3.234657,2.4377 0.535886,0.71118 0.589946,0.83491 0.354939,0.81239 -0.08149,-0.008 -0.532066,-0.0364 -1.001276,-0.0635 z m 24.178778,0.004 c 0,-0.1506 1.17545,-1.58803 1.66669,-2.03817 0.58902,-0.53973 1.52171,-1.05706 2.07981,-1.1536 l 0.3175,-0.0549 v 1.06776 1.06775 l -0.23283,7e-5 c -0.32968,9e-5 -1.20306,0.43795 -1.4965,0.75025 -0.13752,0.14635 -0.36345,0.28114 -0.508,0.30307 -0.4571,0.0693 -1.82667,0.11267 -1.82667,0.0578 z m -28.919252,-0.40757 -0.259583,-0.0347 0.03755,-2.10061 c 0.04022,-2.25023 -0.03774,-3.2933 -0.332625,-4.45039 -0.359008,-1.40868 -0.991628,-2.24196 -2.882459,-3.79673 -0.543055,-0.44654 -1.012028,-0.85178 -1.042164,-0.90054 -0.11531,-0.18658 -0.271337,-0.0721 -0.513435,0.37671 -0.138066,0.25596 -0.276342,0.46551 -0.307278,0.46567 -0.09907,5.2e-4 -0.920489,-1.73102 -0.972128,-2.04923 -0.04119,-0.25385 0.0095,-0.4138 0.294016,-0.92777 0.566728,-1.02376 0.539353,-1.00596 0.817393,-0.53152 0.36337,0.62004 1.244849,1.44051 2.416173,2.24893 1.732329,1.19561 2.56059,2.18661 3.258663,3.89893 0.664977,1.63114 0.835735,2.77909 0.841676,5.65829 l 0.0045,2.159 -0.550334,0.009 c -0.302683,0.005 -0.667146,-0.006 -0.809917,-0.0254 z m 33.491252,-2.12399 c 0,-2.97967 0.15273,-4.05102 0.80983,-5.68061 0.67419,-1.67195 1.48127,-2.63714 3.25417,-3.89167 1.27334,-0.90104 2.16707,-1.73475 2.4461,-2.28183 0.10178,-0.19955 0.22054,-0.34089 0.2639,-0.31409 0.13998,0.0865 0.846,1.45028 0.846,1.63415 0,0.40786 -0.82683,2.21839 -1.01272,2.21757 -0.0251,-1.2e-4 -0.15506,-0.20967 -0.28883,-0.46567 -0.25509,-0.48821 -0.37934,-0.55856 -0.57192,-0.32385 -0.0639,0.0779 -0.4591,0.42508 -0.8782,0.77154 -1.61073,1.33152 -2.27676,2.0605 -2.65385,2.90465 -0.56404,1.26267 -0.73186,2.62371 -0.66798,5.41761 l 0.0478,2.08887 -0.38561,0.0529 c -0.21209,0.0291 -0.5708,0.0529 -0.79713,0.0529 h -0.41152 z m -35.530014,1.41961 c -2.047603,-0.46267 -3.548251,-1.49533 -4.456365,-3.06663 -0.701608,-1.21398 -1.025142,-2.56736 -0.976852,-4.08628 l 0.0269,-0.84601 0.39711,0.63775 c 0.21841,0.35076 0.628788,0.89059 0.911951,1.19961 0.302477,0.3301 0.654963,0.84181 0.854543,1.24056 0.379616,0.75845 0.86406,1.30496 1.534915,1.73158 0.482954,0.30713 1.325111,0.65019 1.596079,0.65019 0.245389,0 0.824595,-0.56306 1.083145,-1.05296 l 0.226256,-0.4287 0.02277,1.98791 c 0.01253,1.09335 0.0042,2.03633 -0.01851,2.0955 -0.05464,0.14239 -0.366935,0.12615 -1.201945,-0.0625 z m 37.690624,-0.27439 c -0.0291,-0.24448 -0.0414,-1.18745 -0.0273,-2.0955 l 0.0256,-1.651 0.22739,0.43095 c 0.24739,0.46884 0.72082,0.93518 1.02757,1.01217 0.27289,0.0685 1.09992,-0.25631 1.76117,-0.69167 0.65525,-0.43142 1.09077,-0.93268 1.47656,-1.69946 0.15246,-0.30303 0.48032,-0.78053 0.72859,-1.06112 0.24826,-0.28058 0.67465,-0.83867 0.94753,-1.24018 l 0.49615,-0.73003 -0.046,1.27 c -0.0474,1.30706 -0.17013,1.94567 -0.56159,2.921 -0.8025,1.99945 -2.53007,3.31892 -5.04209,3.85101 -0.94765,0.20073 -0.95231,0.19928 -1.01367,-0.31617 z m -37.139586,-4.47226 c -1.264463,-0.18573 -2.497859,-0.62195 -3.287151,-1.1626 -1.34755,-0.92305 -2.684091,-2.89328 -3.343716,-4.92906 -0.75384,-2.32656 -0.727887,-4.93238 0.07535,-7.56579 l 0.225466,-0.73919 0.465996,0.42589 c 0.256297,0.23424 0.577897,0.492 0.714665,0.57279 0.186449,0.11014 0.282576,0.26426 0.384178,0.61597 0.07453,0.25799 0.320903,0.82951 0.547498,1.27004 0.226595,0.44053 0.401289,0.81166 0.38821,0.82474 -0.04436,0.0444 -1.014633,-0.23395 -1.381724,-0.39633 L 80.539634,145.963 v 1.21677 c 0,2.04536 0.257263,3.36067 0.928177,4.74549 0.299585,0.61837 0.563123,1.01318 0.968747,1.45129 0.472324,0.51015 1.254366,1.12826 1.427501,1.12826 0.02746,0 0.09621,-0.28684 0.152761,-0.63743 0.05656,-0.35058 0.132903,-0.65601 0.169662,-0.67873 0.03676,-0.0227 0.412355,0.28751 0.834659,0.68938 0.690081,0.6567 0.768035,0.76186 0.769896,1.03857 0.0044,0.65998 0.375254,1.67204 0.766264,2.09133 0.168426,0.18061 0.210258,0.29856 0.0995,0.28055 -0.03493,-0.006 -0.278288,-0.0419 -0.540808,-0.0804 z m 37.180306,0.0381 c 0,-0.0231 0.11257,-0.18262 0.25014,-0.35451 0.3778,-0.47205 0.60132,-1.05645 0.65669,-1.71701 l 0.0499,-0.59476 0.76613,-0.71488 c 0.42136,-0.39319 0.79212,-0.71489 0.82391,-0.71489 0.0318,0 0.10729,0.3048 0.16778,0.67733 0.0605,0.37254 0.14488,0.67734 0.18751,0.67734 0.20667,0 1.12109,-0.76686 1.61136,-1.35134 0.64452,-0.76835 1.19964,-2.00377 1.46305,-3.256 0.17906,-0.8512 0.29872,-2.51917 0.23529,-3.27973 l -0.0547,-0.65637 -0.22099,0.11423 c -0.30789,0.15915 -1.44844,0.49898 -1.50038,0.44704 -0.0235,-0.0235 0.0691,-0.22785 0.20587,-0.45411 0.30102,-0.49814 0.65374,-1.30533 0.77172,-1.76606 0.067,-0.26157 0.16903,-0.39123 0.44826,-0.56959 0.19885,-0.12702 0.52007,-0.37953 0.71383,-0.56114 l 0.35229,-0.33021 0.13521,0.35406 c 0.20678,0.54145 0.53338,1.88937 0.63524,2.62172 0.1313,0.94397 0.11179,2.75723 -0.0397,3.69216 -0.33874,2.09027 -1.48306,4.40516 -2.85869,5.78295 -1.09294,1.09466 -2.40531,1.66622 -4.48211,1.95204 -0.17463,0.024 -0.3175,0.0248 -0.3175,0.002 z m -37.380331,-6.48149 c -0.232834,-0.19083 -0.680508,-0.51891 -0.994833,-0.72906 -0.314325,-0.21016 -0.5715,-0.43169 -0.5715,-0.4923 0,-0.36033 -0.501928,-1.58007 -1.025153,-2.49124 -1.120901,-1.95199 -1.514847,-2.93292 -1.514847,-3.77197 0,-0.93531 0.649447,-2.58324 1.305714,-3.31316 l 0.379639,-0.42225 0.921114,-0.0527 c 0.506613,-0.029 0.993468,-0.0805 1.081902,-0.1144 0.08977,-0.0344 -0.0442,0.17044 -0.303291,0.46385 -0.99078,1.12202 -1.466847,2.15688 -1.467778,3.19059 -9.43e-4,1.04768 0.324267,1.91973 1.334026,3.57719 0.623951,1.02418 1.103659,1.98931 1.27011,2.55535 0.137318,0.46696 0.192083,1.95584 0.07173,1.95011 -0.03492,-0.002 -0.254,-0.15916 -0.486833,-0.35 z m 37.634331,-0.32915 c 0,-0.3752 0.043,-0.86098 0.0956,-1.0795 0.13495,-0.56081 0.6314,-1.60363 1.25246,-2.63087 1.43182,-2.3682 1.72108,-3.61532 1.15926,-4.99796 -0.25414,-0.62546 -0.70832,-1.31689 -1.27202,-1.93652 -0.23745,-0.26101 -0.35962,-0.44686 -0.27207,-0.41389 0.0874,0.0329 0.56365,0.0834 1.05834,0.11215 l 0.89943,0.0523 0.39964,0.40899 c 0.71056,0.72719 1.33744,2.28997 1.33502,3.32817 -0.002,0.84869 -0.35326,1.78027 -1.27993,3.39429 -0.70424,1.2266 -1.01378,1.90339 -1.16897,2.5559 -0.098,0.41205 -0.14171,0.46445 -0.7063,0.84667 -0.33102,0.22409 -0.77476,0.55031 -0.9861,0.72493 -0.21134,0.17463 -0.41353,0.3175 -0.44931,0.3175 -0.0358,0 -0.065,-0.30698 -0.065,-0.68217 z m -38.391371,-5.18767 c -0.165308,-0.2956 -0.342861,-0.6588 -0.394562,-0.80711 -0.0885,-0.25388 -0.07324,-0.29217 0.26087,-0.65464 0.19518,-0.21175 0.464789,-0.62044 0.599131,-0.9082 0.207382,-0.44422 0.713137,-2.108 1.008541,-3.3178 0.07767,-0.3181 0.109084,-0.34549 0.503774,-0.43925 0.231514,-0.055 0.659317,-0.19627 0.950672,-0.31396 0.291355,-0.11768 0.54459,-0.19911 0.562744,-0.18096 0.04867,0.0487 -0.688144,2.73563 -1.044862,3.81036 -0.169459,0.51055 -0.414711,1.13945 -0.545005,1.39757 -0.310652,0.61539 -0.941069,1.44828 -1.308118,1.72824 l -0.292624,0.2232 z m 39.065521,0.24834 c -0.74957,-0.68693 -1.21177,-1.42301 -1.64495,-2.61969 -0.32527,-0.89856 -1.25386,-4.20971 -1.19664,-4.26693 0.0193,-0.0193 0.14336,0.0203 0.27574,0.0879 0.13239,0.0676 0.52645,0.21143 0.8757,0.31963 0.78585,0.24345 0.81531,0.26509 0.88784,0.65247 0.14678,0.78384 0.83045,2.96227 1.07177,3.41502 0.14683,0.2755 0.41144,0.63142 0.58801,0.79094 l 0.32104,0.29004 -0.36849,0.75711 c -0.20267,0.41641 -0.40091,0.77714 -0.44052,0.80162 -0.0396,0.0245 -0.2059,-0.0781 -0.3695,-0.22808 z m -44.060242,-4.07283 c 0.111211,-0.45868 0.638684,-1.93186 0.985235,-2.75167 1.620186,-3.83278 4.073008,-7.33669 6.629192,-9.46996 0.675821,-0.56401 2.07325,-1.53671 2.207708,-1.53671 0.02764,0 -0.352677,0.38471 -0.84515,0.8549 -1.372905,1.31079 -2.180284,2.43172 -2.03125,2.82009 0.05899,0.15372 0.341278,0.17483 0.669444,0.0501 0.169959,-0.0646 0.216455,-0.0596 0.194254,0.0212 -0.01605,0.0584 -0.151598,0.48932 -0.30121,0.95767 l -0.272022,0.85156 -0.74222,0.37467 c -0.935622,0.4723 -1.792466,1.29433 -2.291907,2.19878 -0.189727,0.34358 -0.330938,0.64738 -0.313802,0.67511 0.01714,0.0277 0.405331,0.022 0.862656,-0.0126 3.330632,-0.25246 5.21284,-0.73337 6.699675,-1.71177 1.318917,-0.86791 1.367717,-1.20787 0.213771,-1.48919 l -0.549743,-0.13402 1.255565,-0.15406 c 0.69056,-0.0847 1.502785,-0.20477 1.804944,-0.26676 0.302158,-0.062 0.563536,-0.0986 0.580838,-0.0813 0.06057,0.0606 -1.040555,1.35965 -1.729274,2.04015 -1.301058,1.28553 -2.734611,2.29901 -4.30084,3.04056 -1.62839,0.77099 -2.608686,1.01205 -5.175436,1.2727 -0.997126,0.10126 -1.423639,0.1798 -1.615993,0.2976 -0.399972,0.24494 -1.077766,1.00074 -1.560685,1.7403 -0.30246,0.4632 -0.416539,0.58917 -0.37375,0.4127 z m 49.308432,-0.44309 c -0.41565,-0.64639 -1.16679,-1.47228 -1.55619,-1.71106 -0.19193,-0.1177 -0.62483,-0.19628 -1.65681,-0.30076 -2.67516,-0.27083 -3.5462,-0.49792 -5.37634,-1.40166 -1.75473,-0.86651 -3.20204,-1.971 -4.64096,-3.54167 -0.83587,-0.91239 -1.25006,-1.48856 -1.02076,-1.41992 0.3114,0.0932 1.6149,0.29513 2.60905,0.40417 l 1.01132,0.11091 -0.54037,0.10937 c -0.66613,0.13483 -0.95173,0.30779 -0.91596,0.55472 0.0723,0.49894 2.07467,1.65778 3.54002,2.04867 0.85395,0.22781 2.70154,0.51005 3.89466,0.59496 0.39582,0.0282 0.82444,0.0713 0.9525,0.0958 0.31428,0.0602 0.29903,-0.0368 -0.11928,-0.75839 -0.51002,-0.87983 -1.38788,-1.71387 -2.29031,-2.17596 l -0.73408,-0.37588 -0.2641,-0.83314 c -0.14526,-0.45822 -0.28318,-0.88282 -0.30648,-0.94355 -0.0338,-0.0882 0.0242,-0.0926 0.2884,-0.0221 1.15716,0.30886 0.58504,-0.89487 -1.29479,-2.72422 -0.57962,-0.56405 -1.02981,-1.02556 -1.00041,-1.02556 0.0294,0 0.41919,0.24348 0.86619,0.54107 3.03116,2.01792 5.87828,5.69517 7.7967,10.06996 0.50419,1.14977 1.23071,3.17281 1.16354,3.23998 -0.0204,0.0204 -0.20292,-0.22066 -0.40554,-0.53576 z m -41.858787,-5.83191 c 1.025524,-4.48368 2.181641,-6.82382 4.157318,-8.41499 1.169206,-0.94165 2.563453,-1.756 4.130529,-2.41255 0.500334,-0.20962 0.921473,-0.38113 0.935864,-0.38113 0.01439,0 -0.02941,0.18098 -0.09733,0.40217 -0.06792,0.22119 -0.158371,1.01176 -0.200998,1.75683 -0.114429,2.00006 -0.167557,2.49041 -0.325655,3.00567 l -0.142882,0.46566 -0.663828,0.10965 c -0.365106,0.0603 -0.683683,0.0898 -0.70795,0.0655 -0.02427,-0.0243 0.04257,-0.28187 0.148514,-0.57244 0.305573,-0.83806 0.340206,-2.01574 0.05928,-2.01574 -0.196671,0 -1.486484,0.79733 -2.054445,1.27 -0.307748,0.25612 -0.726602,0.68734 -0.930788,0.95828 -0.570306,0.75673 -1.335883,2.4136 -1.888801,4.08775 l -0.500567,1.51564 -0.580406,0.14801 c -0.319223,0.0814 -0.763406,0.17231 -0.987073,0.20201 l -0.406667,0.054 z m 33.696797,0.0455 c -0.41689,-0.0898 -0.78467,-0.19172 -0.81729,-0.22653 -0.0326,-0.0348 -0.14237,-0.3628 -0.24391,-0.72888 -0.31993,-1.15343 -0.74833,-2.25775 -1.36126,-3.50903 -0.51821,-1.05791 -0.67069,-1.28973 -1.20412,-1.83057 -0.80803,-0.81926 -2.47957,-1.89168 -2.66208,-1.70793 -0.0359,0.0362 -0.0618,0.37675 -0.0575,0.7568 0.006,0.52908 0.0597,0.82492 0.22904,1.2625 0.12164,0.31433 0.18632,0.5715 0.14374,0.5715 -0.0426,0 -0.36312,-0.0425 -0.71231,-0.0944 l -0.6349,-0.0944 -0.12785,-0.3924 c -0.18935,-0.58118 -0.28239,-1.33942 -0.34422,-2.80541 -0.0304,-0.72178 -0.10973,-1.55282 -0.1762,-1.84675 -0.0665,-0.29393 -0.12085,-0.54745 -0.12085,-0.56337 0,-0.0684 0.97113,0.34298 1.99477,0.84502 3.5922,1.76179 5.24454,3.68602 6.46918,7.53364 0.24041,0.75535 0.76471,2.77141 0.76471,2.94051 0,0.0992 -0.30274,0.0699 -1.13898,-0.11024 z m -30.357015,-2.75814 c 0,-0.11817 0.699728,-1.68817 0.790183,-1.77296 0.05435,-0.0509 0.736854,-0.13849 1.516677,-0.19456 0.779824,-0.0561 1.757591,-0.15689 2.172817,-0.22405 2.671677,-0.43211 5.061178,-2.25312 6.350358,-4.83952 0.19028,-0.38175 0.34597,-0.72875 0.34597,-0.77111 0,-0.10277 -0.94346,-0.19699 -1.38453,-0.13827 -0.59404,0.0791 -1.070809,0.22371 -1.070809,0.32482 0,0.13174 0.390819,0.7114 0.704079,1.04429 0.29892,0.31764 0.27494,0.40691 -0.2809,1.0459 l -0.325161,0.37379 -0.479395,-0.46566 c -1.087993,-1.05684 -1.845746,-2.3126 -1.690542,-2.80161 0.125487,-0.39537 1.545538,-0.90858 3.031638,-1.09564 0.52784,-0.0664 1.28529,-0.0863 2.07376,-0.0543 1.34864,0.0547 1.70786,0.10896 1.70786,0.25782 0,0.13412 -1.10611,2.153 -1.62941,2.97402 -1.23986,1.94524 -2.77431,3.60707 -4.214164,4.56398 -1.540855,1.02405 -2.660594,1.34218 -5.676422,1.61274 -0.811988,0.0728 -1.581117,0.15021 -1.709175,0.17191 -0.128059,0.0217 -0.232834,0.0165 -0.232834,-0.0116 z m 27.262665,-0.0405 c -3.52487,-0.35846 -4.44677,-0.53136 -5.54946,-1.04084 -1.94831,-0.90017 -4.03173,-2.98832 -5.67297,-5.68583 -0.55465,-0.91163 -1.42835,-2.57159 -1.37696,-2.61613 0.10869,-0.0942 1.32123,-0.21336 2.17172,-0.21336 2.08042,0 4.42514,0.58382 4.64492,1.15654 0.0857,0.22326 -0.1278,0.88141 -0.43879,1.35287 -0.15785,0.23929 -0.61289,0.77269 -1.01121,1.18533 l -0.72422,0.75026 -0.33486,-0.381 c -0.58603,-0.66676 -0.58932,-0.69034 -0.16423,-1.17628 0.20461,-0.2339 0.43936,-0.53927 0.52167,-0.67861 0.14417,-0.24406 0.14381,-0.25648 -0.01,-0.33865 -0.47364,-0.25348 -2.38777,-0.30134 -2.3836,-0.0596 0.003,0.19694 0.84738,1.67621 1.29777,2.27464 0.81012,1.0764 1.77048,1.86789 3.09885,2.55397 1.07099,0.55314 2.04728,0.78302 4.01791,0.94604 0.88926,0.0736 1.70492,0.15083 1.81256,0.17171 0.1506,0.0292 0.27287,0.20573 0.53028,0.76554 0.36437,0.79244 0.47568,1.13553 0.36268,1.11791 -0.04,-0.006 -0.39653,-0.0443 -0.79234,-0.0845 z m -14.224,-2.73456 c -0.59693,-0.12632 -1.20156,-0.34826 -1.86596,-0.68493 l -0.42323,-0.21447 0.51892,-0.66946 c 0.49206,-0.6348 0.53049,-0.665 0.74243,-0.58333 0.42285,0.16292 1.46714,0.32593 2.08809,0.32593 0.6018,0 1.54617,-0.15468 2.00166,-0.32786 0.20607,-0.0784 0.2505,-0.0481 0.63303,0.43071 0.71997,0.90122 0.71359,0.78079 0.0588,1.11034 -1.24592,0.62704 -2.62404,0.85212 -3.75371,0.61307 z"
       id="path1"
       sodipodi:nodetypes="ssssssssssssssssssscssscssssssssssssssssscssscssscsssccccssscscssscsssccssscssscssssssssssscssssssccscsscsscscsscccccscsscsscsccsscccsscscsssccssscccsssssssssscsssssssssssssssssssccssccccscccssscccsscssccssssssssssscccccssssssssscsscsscscsscsssssscssccsscsssssscssssscssscsssscscssssscscscccssscssssssscsssssscsssscssssssssccssssscssscssssccscsssssssssssssscssscscscssssscssccssssssssscssccssccscssssssscsssscscssscccscsscsscscccsssssssccsssscscsscscssssscssccsssssssccccccsscssscssccssscsccscsssssscssscssscsscsssscscsccsss" /></g></svg>
