<?xml version="1.0" encoding="UTF-8" standalone="no"?>
<!-- Created with Inkscape (http://www.inkscape.org/) -->

<svg
   version="1.1"
   id="svg1"
   width="845.33331"
   height="60"
   viewBox="0 0 845.33331 60"
   sodipodi:docname="footerscroll.svg"
   inkscape:version="1.4.2 (ebf0e940d0, 2025-05-08)"
   xml:space="preserve"
   inkscape:export-filename="footerscroll.pdf"
   inkscape:export-xdpi="300"
   inkscape:export-ydpi="300"
   xmlns:inkscape="http://www.inkscape.org/namespaces/inkscape"
   xmlns:sodipodi="http://sodipodi.sourceforge.net/DTD/sodipodi-0.dtd"
   xmlns="http://www.w3.org/2000/svg"
   xmlns:svg="http://www.w3.org/2000/svg"><defs
     id="defs1"><clipPath
       clipPathUnits="userSpaceOnUse"
       id="clipPath28"><path
         d="M 0,0 H 612 V 792 H 0 Z"
         transform="translate(-291.80121,-47.486799)"
         id="path28" /></clipPath><clipPath
       clipPathUnits="userSpaceOnUse"
       id="clipPath26"><path
         d="M 0,0 H 612 V 792 H 0 Z"
         transform="translate(-322.72751,-36.398101)"
         id="path26" /></clipPath></defs><sodipodi:namedview
     id="namedview1"
     pagecolor="#ffffff"
     bordercolor="#000000"
     borderopacity="0.25"
     inkscape:showpageshadow="2"
     inkscape:pageopacity="0.0"
     inkscape:pagecheckerboard="0"
     inkscape:deskcolor="#d1d1d1"
     inkscape:zoom="1.00838"
     inkscape:cx="466.58998"
     inkscape:cy="-1.9833793"
     inkscape:window-width="1920"
     inkscape:window-height="990"
     inkscape:window-x="0"
     inkscape:window-y="0"
     inkscape:window-maximized="1"
     inkscape:current-layer="g1"><inkscape:page
       x="0"
       y="0"
       inkscape:label="1"
       id="page1"
       width="845.33331"
       height="60"
       margin="0"
       bleed="0" /></sodipodi:namedview><g
     id="g1"
     inkscape:groupmode="layer"
     inkscape:label="1"><path
       id="path1"
       style="fill:#782fa9;stroke-width:0.117998;fill-opacity:1"
       d="M 391.26758 13.140625 C 392.97888 21.037088 397.49801 27.8739 404.2168 32.626953 C 408.61929 35.741398 413.85549 37.691012 419.48047 38.3125 C 420.97611 38.47775 425.67683 38.377614 427.15039 38.148438 C 432.12538 37.374702 436.53405 35.69728 440.42578 33.097656 C 447.50312 28.370088 452.29082 21.321979 454.06445 13.140625 L 451.82422 13.140625 C 451.88073 13.237218 451.93426 13.334507 451.98633 13.433594 L 452.43359 14.285156 L 452.15234 14.505859 C 451.99779 14.627239 451.43031 14.946535 450.89258 15.216797 C 450.02075 15.654972 449.81159 15.713734 448.94727 15.746094 C 447.98636 15.78207 447.59364 15.695698 446.76953 15.269531 C 446.42606 15.091918 446.4076 15.095418 446.3457 15.332031 C 446.29761 15.515935 446.22493 15.556436 446.06641 15.492188 C 445.91421 15.430502 443.6485 14.570264 440.99609 13.566406 A 19.709831 19.709831 0 0 1 440.75 14.160156 C 443.10489 15.22108 445.02507 16.084389 445.31445 16.212891 C 445.80544 16.430947 445.92094 16.530234 445.81445 16.636719 C 445.59778 16.853391 445.64426 16.91699 446.11914 17.0625 C 447.0473 17.346902 447.79405 17.890223 448.27148 18.628906 C 448.78189 19.418596 449.20169 20.558273 449.24609 21.273438 L 449.27539 21.744141 L 448.4668 22.013672 C 447.60259 22.302404 446.08131 22.443231 445.5 22.289062 C 444.98049 22.151283 444.38425 21.826588 443.82422 21.373047 C 443.38367 21.016264 443.31835 20.993914 443.21875 21.171875 C 443.11931 21.349559 443.03755 21.320437 442.47461 20.916016 C 440.96524 19.83166 439.65228 18.88881 438.50195 18.058594 A 19.709831 19.709831 0 0 1 438.10938 18.570312 C 440.32891 20.385658 442.07759 21.824975 442.18555 21.927734 C 442.36635 22.09987 442.38306 22.177663 442.26953 22.314453 C 442.15299 22.454872 442.20097 22.531279 442.53906 22.740234 C 443.29149 23.205255 444.00171 24.117628 444.25977 24.953125 C 444.56927 25.95507 444.60213 27.98967 444.31055 28.101562 C 443.96491 28.234198 442.20042 28.159473 441.54883 27.984375 C 440.63589 27.739044 439.99135 27.327401 439.44141 26.636719 C 439.17999 26.308389 438.94427 25.974704 438.91797 25.896484 C 438.88213 25.790038 438.82082 25.796953 438.67188 25.919922 C 438.57268 26.001817 438.47412 26.053035 438.43945 26.042969 L 438.4375 26.042969 L 438.43555 26.041016 L 438.43359 26.039062 L 438.43164 26.039062 L 438.43164 26.037109 C 438.41089 26.014092 436.88358 24.153423 434.92188 21.759766 A 19.709831 19.709831 0 0 1 434.4082 22.152344 C 434.98435 22.955277 435.52568 23.708594 435.92969 24.271484 C 437.46412 26.409321 437.6406 26.703161 437.48438 26.859375 C 437.32816 27.01559 437.35348 27.084809 437.71094 27.480469 C 438.49013 28.342945 438.6553 28.806092 438.6543 30.121094 C 438.6537 30.89543 438.58464 31.523334 438.45312 31.949219 C 438.13497 32.979578 438.08511 33.014549 437.17969 32.824219 C 436.07548 32.592103 434.81026 31.933108 434.25195 31.298828 C 433.99593 31.007976 433.66821 30.451556 433.52344 30.064453 C 433.31091 29.496167 433.21473 29.365889 433.01953 29.386719 C 432.8027 29.409861 432.88608 29.665051 430.50977 24.404297 A 19.709831 19.709831 0 0 1 429.91406 24.650391 C 430.21285 25.440675 430.53233 26.294005 430.87891 27.216797 C 431.7476 29.529786 431.84967 29.875035 431.68945 29.992188 C 431.52578 30.11185 431.53074 30.183597 431.74414 30.666016 C 432.36943 32.079582 432.31114 33.057498 431.50781 34.640625 C 431.25405 35.140724 430.95405 35.664605 430.83984 35.806641 C 430.64513 36.048801 430.60689 36.05575 430.23438 35.896484 C 429.54073 35.599926 428.27989 34.69793 427.9043 34.230469 C 427.34809 33.538183 427.16345 33.102927 427.02148 32.148438 C 426.90658 31.375903 426.86313 31.276575 426.66602 31.328125 C 426.56506 31.354522 426.47678 31.353547 426.44922 31.332031 L 426.44727 31.330078 L 426.44531 31.328125 L 426.44531 31.326172 L 426.44336 31.324219 L 426.44336 31.322266 L 426.44336 31.320312 L 426.44336 31.318359 C 426.44336 31.266954 426.24338 30.032062 425.55469 25.818359 A 19.709831 19.709831 0 0 1 424.91602 25.902344 C 425.18465 28.62873 425.40728 30.825025 425.4375 31.035156 C 425.49361 31.424678 425.4712 31.478516 425.25586 31.478516 C 425.02963 31.478516 425.01917 31.520651 425.10547 32.039062 C 425.38183 33.69954 425.01681 34.767119 423.69727 36.15625 C 423.24393 36.633496 422.77932 37.023438 422.66602 37.023438 C 422.33941 37.023438 420.84996 35.36999 420.48828 34.605469 C 420.13983 33.86882 420.06476 33.15445 420.22266 32.097656 C 420.30909 31.519246 420.29945 31.478516 420.07031 31.478516 C 419.85902 31.478516 419.83347 31.42403 419.88867 31.09375 C 419.9192 30.911109 420.14617 28.68863 420.41992 25.904297 A 19.709831 19.709831 0 0 1 419.77734 25.818359 C 419.27641 28.891866 418.89062 31.278714 418.89062 31.314453 L 418.89062 31.316406 L 418.89062 31.318359 L 418.89062 31.320312 L 418.88867 31.322266 L 418.88867 31.324219 L 418.88867 31.326172 C 418.88792 31.327151 418.88374 31.331119 418.88281 31.332031 L 418.88086 31.333984 C 418.84973 31.353944 418.76288 31.353454 418.66602 31.328125 C 418.46893 31.276587 418.42717 31.375487 418.3125 32.146484 C 418.0996 33.577902 417.50982 34.428521 416.10352 35.328125 C 415.74288 35.558826 415.27013 35.820146 415.05469 35.910156 L 414.66406 36.074219 L 414.30664 35.517578 C 413.78646 34.704989 413.36842 33.74986 413.2207 33.039062 C 413.07372 32.331879 413.1938 31.561323 413.58984 30.666016 C 413.80667 30.175814 413.81024 30.113738 413.63867 29.988281 C 413.48254 29.874117 413.68823 29.231909 415.41992 24.650391 A 19.709831 19.709831 0 0 1 414.82031 24.402344 C 412.86205 28.7162 412.50629 29.407632 412.3125 29.386719 C 412.12046 29.365997 412.02192 29.499248 411.81055 30.064453 C 411.36401 31.258489 410.30435 32.185128 408.86133 32.642578 C 408.63419 32.714585 408.19351 32.821226 407.88281 32.878906 C 407.34479 32.978792 407.31145 32.96915 407.16016 32.673828 C 406.82969 32.02874 406.58723 30.676929 406.64453 29.798828 C 406.70718 28.839223 406.97948 28.192829 407.62305 27.480469 C 407.98347 27.081533 408.00585 27.01561 407.8457 26.855469 C 407.69341 26.703173 408.02464 26.183322 410.91797 22.148438 A 19.709831 19.709831 0 0 1 410.41602 21.761719 C 408.50492 24.098072 407.00577 25.92777 406.95898 25.980469 C 406.90343 26.043094 406.78171 26.019005 406.66406 25.921875 C 406.51399 25.797937 406.44976 25.790357 406.41406 25.896484 C 406.29495 26.250242 405.36947 27.261523 404.92578 27.521484 C 404.65623 27.67942 404.11922 27.889511 403.73242 27.990234 C 403.07532 28.161339 401.3149 28.229081 400.98438 28.095703 C 400.73208 27.993903 400.79304 25.86348 401.07422 24.953125 C 401.33368 24.113101 402.04131 23.204212 402.80469 22.732422 C 403.18627 22.496592 403.20813 22.456419 403.02734 22.324219 C 402.86189 22.20324 403.39621 21.717228 407.22852 18.576172 A 19.709831 19.709831 0 0 1 406.83398 18.060547 C 406.04823 18.624948 405.30889 19.154256 404.74609 19.558594 C 402.58041 21.114513 402.21103 21.34297 402.11523 21.171875 C 402.01608 20.994702 401.94764 21.016435 401.50781 21.373047 C 401.23586 21.593534 400.78236 21.891887 400.49805 22.035156 C 399.56394 22.505887 397.77201 22.437638 396.43945 21.880859 C 395.93938 21.671919 395.93211 21.637084 396.18164 20.675781 C 396.42056 19.755388 396.85125 18.825388 397.30078 18.257812 C 397.64267 17.826148 399.10527 16.964844 399.49609 16.964844 C 399.69404 16.964844 399.70291 16.822042 399.51758 16.636719 C 399.4111 16.530233 399.52848 16.430724 400.01953 16.212891 C 400.30945 16.084281 402.22889 15.221035 404.58203 14.160156 A 19.709831 19.709831 0 0 1 404.33789 13.568359 C 401.04068 14.81576 399.39983 15.437955 399.26562 15.492188 C 399.10843 15.555716 399.03643 15.516447 398.99023 15.339844 C 398.92859 15.104129 398.91594 15.105554 398.25977 15.410156 C 397.47224 15.775737 396.1139 15.875551 395.34375 15.625 C 394.80529 15.449824 393.60707 14.825924 393.18164 14.5 L 392.90039 14.285156 L 393.34766 13.433594 C 393.39972 13.334507 393.45329 13.237218 393.50977 13.140625 L 391.26758 13.140625 z " /><path
       style="baseline-shift:baseline;display:inline;overflow:visible;vector-effect:none;fill:#782fa9;fill-opacity:1;enable-background:accumulate;stop-color:#000000"
       d="M 440.33268,12.691196 V 14.02518 H 734.66666 V 12.691196 Z"
       id="path19" /><path
       style="baseline-shift:baseline;display:inline;overflow:visible;vector-effect:none;fill:#782fa9;fill-opacity:1;enable-background:accumulate;stop-color:#000000"
       d="M 110.66666,12.691196 V 14.02518 H 405.00065 V 12.691196 Z"
       id="path20" /><path
       id="path27"
       d="m 0,0 c 1.91,-5.978 7.515,-10.322 14.119,-10.322 6.604,0 12.208,4.344 14.119,10.322 H 27.174 C 25.301,-5.416 20.164,-9.322 14.119,-9.322 8.074,-9.322 2.936,-5.416 1.064,0 Z"
       style="fill:#782fa9;fill-opacity:1;fill-rule:nonzero;stroke:none"
       transform="matrix(1.3333333,0,0,-1.3333333,403.84145,12.691872)"
       clip-path="url(#clipPath28)" /></g></svg>
