<?xml version="1.0" encoding="UTF-8" standalone="no"?>
<!-- Created with Inkscape (http://www.inkscape.org/) -->

<svg
   version="1.1"
   id="svg1"
   width="845.33331"
   height="60"
   viewBox="0 0 845.33331 60"
   sodipodi:docname="footerscroll.svg"
   inkscape:version="1.4.2 (ebf0e940d0, 2025-05-08)"
   xml:space="preserve"
   inkscape:export-filename="footerscroll.pdf"
   inkscape:export-xdpi="600"
   inkscape:export-ydpi="600"
   xmlns:inkscape="http://www.inkscape.org/namespaces/inkscape"
   xmlns:sodipodi="http://sodipodi.sourceforge.net/DTD/sodipodi-0.dtd"
   xmlns="http://www.w3.org/2000/svg"
   xmlns:svg="http://www.w3.org/2000/svg"><defs
     id="defs1"><clipPath
       clipPathUnits="userSpaceOnUse"
       id="clipPath28"><path
         d="M 0,0 H 612 V 792 H 0 Z"
         transform="translate(-291.80121,-47.486799)"
         id="path28" /></clipPath><clipPath
       clipPathUnits="userSpaceOnUse"
       id="clipPath26"><path
         d="M 0,0 H 612 V 792 H 0 Z"
         transform="translate(-322.72751,-36.398101)"
         id="path26" /></clipPath></defs><sodipodi:namedview
     id="namedview1"
     pagecolor="#ffffff"
     bordercolor="#000000"
     borderopacity="0.25"
     inkscape:showpageshadow="2"
     inkscape:pageopacity="0.0"
     inkscape:pagecheckerboard="0"
     inkscape:deskcolor="#d1d1d1"
     inkscape:zoom="2.0167601"
     inkscape:cx="427.1703"
     inkscape:cy="2.9750688"
     inkscape:window-width="2560"
     inkscape:window-height="1350"
     inkscape:window-x="0"
     inkscape:window-y="0"
     inkscape:window-maximized="1"
     inkscape:current-layer="g1"
     showgrid="false"><inkscape:page
       x="0"
       y="0"
       inkscape:label="1"
       id="page1"
       width="845.33331"
       height="60"
       margin="0"
       bleed="0" /></sodipodi:namedview><g
     id="g1"
     inkscape:groupmode="layer"
     inkscape:label="1"><path
       style="baseline-shift:baseline;display:inline;overflow:visible;vector-effect:none;fill:#a00909;fill-opacity:1;enable-background:accumulate;stop-color:#000000"
       d="M 440.33268,12.691196 V 14.02518 H 734.66666 V 12.691196 Z"
       id="path2" /><path
       style="baseline-shift:baseline;display:inline;overflow:visible;vector-effect:none;fill:#a00909;fill-opacity:1;enable-background:accumulate;stop-color:#000000"
       d="M 110.66666,12.691196 V 14.02518 H 405.00065 V 12.691196 Z"
       id="path3" /><path
       id="path4"
       d="m 0,0 c 1.91,-5.978 7.515,-10.322 14.119,-10.322 6.604,0 12.208,4.344 14.119,10.322 H 27.174 C 25.301,-5.416 20.164,-9.322 14.119,-9.322 8.074,-9.322 2.936,-5.416 1.064,0 Z"
       style="fill:#a00909;fill-opacity:1;fill-rule:nonzero;stroke:none"
       transform="matrix(1.3333333,0,0,-1.3333333,403.84145,12.691872)"
       clip-path="url(#clipPath28)" /><path
       id="path1"
       style="fill:#a00909;fill-opacity:1;stroke-width:1.11762"
       d="m 383.65039,12.691406 c 0.71543,0.215098 1.89176,0.463185 3.64063,0.777344 l 3.10546,0.556641 -0.41992,-1.333985 h -0.92383 c -0.0625,0.117238 -0.19241,0.147505 -0.39062,0.144532 -0.1793,-0.0027 -0.55367,-0.05733 -1.01563,-0.144532 z m 13.68555,0 c 1.86439,6.338954 5.95045,11.742796 11.74218,15.150391 9.9083,5.829588 22.83986,4.449473 31.07422,-3.314453 3.67493,-3.46496 6.1571,-7.405814 7.44922,-11.835938 h -7.49414 c -3.34712,7.650619 -11.32387,12.192307 -19.61133,11.166016 -6.6118,-0.81859 -12.30227,-5.062318 -14.97265,-11.166016 z m 52.8457,0 c -0.01,0.05706 -0.011,0.116157 0,0.175782 0.044,0.237332 0.37068,0.543414 0.72656,0.68164 0.56429,0.219173 1.03392,-0.328614 0.99024,-0.857422 z m -56.01172,1.19336 c -0.098,0.0035 -0.19953,0.02572 -0.30078,0.07031 -0.27126,0.119485 -0.49472,0.486221 -0.49609,0.816406 -0.004,0.909969 1.29588,1.271396 1.61523,0.449219 0.24814,-0.638865 -0.17072,-1.284171 -0.72266,-1.333984 -0.0318,-0.0029 -0.063,-0.0031 -0.0957,-0.002 z m 56.27149,1.460937 c -0.48311,-0.01272 -0.86481,0.378005 -0.86719,0.964844 -0.003,0.636081 0.27764,0.797023 1.10351,0.634765 0.70594,-0.138697 0.775,-1.26666 0.0937,-1.53125 -0.0784,-0.03043 -0.15693,-0.05026 -0.23242,-0.06055 -0.033,-0.0045 -0.0654,-0.007 -0.0976,-0.0078 z m 5.07617,0.07813 c -0.16461,0.02069 -0.79332,1.059093 -1.44922,2.404297 -0.69386,1.423008 -1.54347,3.026402 -1.88672,3.564453 -0.72035,1.12916 -1.06387,1.055705 4.22266,0.91211 1.79365,-0.04871 3.30058,-0.168598 3.44336,-0.267579 0.002,-0.0016 0.005,-0.0062 0.006,-0.0078 h 0.002 l 0.002,-0.002 c 0.0558,-0.178912 -3.89166,-6.21073 -4.3164,-6.595703 -7.5e-4,-7.25e-4 -0.005,-0.0033 -0.006,-0.0039 l -0.002,-0.002 c -9e-4,-4.44e-4 -0.005,-0.0016 -0.006,-0.002 -0.001,-2.25e-4 -0.005,1.06e-4 -0.006,0 -0.001,1.9e-5 -0.003,-1.5e-4 -0.004,0 z m -65.78906,0.841797 c -0.37721,0.100863 -3.70979,5.182299 -4.125,6.306641 -0.0817,0.221391 1.53898,0.384601 3.89453,0.392578 2.15861,0.0073 3.86099,-0.121108 3.86328,-0.289063 -1.4e-4,-0.0021 -0.002,-0.0075 -0.002,-0.0098 v -0.002 l -0.002,-0.002 c -0.0969,-0.174825 -0.87916,-1.65894 -1.73828,-3.296875 -0.85914,-1.63795 -1.70211,-3.031262 -1.87305,-3.097656 -10e-4,-3.9e-4 -0.003,-0.0015 -0.004,-0.002 h -0.002 -0.002 -0.002 c -0.003,1.7e-4 -0.005,-7.97e-4 -0.008,0 z m 65.72851,0.603516 0.66992,0.853515 c 0.36901,0.469349 1.03058,1.486345 1.46875,2.259766 l 0.79688,1.40625 -1.88477,0.06445 c -3.74094,0.129084 -3.68842,0.184057 -2.28125,-2.361328 z m -59.86914,0.304687 c -0.5241,0.01373 -1.22841,0.446995 -1.14844,0.878906 0.0461,0.249188 0.37652,0.568799 0.73243,0.707032 0.70807,0.275024 1.35389,-0.772707 0.87109,-1.41211 -0.079,-0.104693 -0.20541,-0.158637 -0.35352,-0.171875 -0.0331,-0.003 -0.0666,-0.0029 -0.10156,-0.002 z m -5.84375,0.632813 c 0.002,-2.98e-4 0.006,1.01e-4 0.008,0 h 0.002 c 0.001,1.69e-4 0.002,-2.19e-4 0.004,0 h 0.002 0.002 0.002 c 0.50059,0.194431 2.28677,4.07843 1.9375,4.21289 -0.20125,0.07749 -1.35209,0.120371 -2.55664,0.09766 -1.66117,-0.03133 -2.14909,-0.146885 -2.01953,-0.480469 0.36229,-0.932743 2.3174,-3.779648 2.61914,-3.830078 z m 58.79492,0.3125 c -0.0976,0.004 -0.19953,0.02769 -0.30078,0.07227 -0.27124,0.119499 -0.49471,0.486219 -0.49609,0.816406 -0.004,0.90997 1.2959,1.271397 1.61523,0.449219 0.24815,-0.638872 -0.17072,-1.286125 -0.72265,-1.335937 -0.0319,-0.0029 -0.0632,-0.0033 -0.0957,-0.002 z m 7.01563,0.751953 c -0.18805,0.0051 -0.32318,0.284272 -0.54883,0.865234 -0.3644,0.938193 -0.33306,0.98848 0.59375,0.935547 1.17795,-0.06729 1.36371,-0.387995 0.67969,-1.185547 -0.33667,-0.392544 -0.54124,-0.60449 -0.70508,-0.615234 -0.006,-4.05e-4 -0.0135,-1.64e-4 -0.0195,0 z m -66.05274,0.615234 c -0.25726,0.0054 -0.5238,0.341938 -0.7832,1.009766 -0.39725,1.022772 -0.37695,1.031735 1.61328,0.699218 0.006,-9.66e-4 0.0131,-0.0058 0.0176,-0.0098 0.0611,-0.0699 -0.0183,-0.457247 -0.19141,-0.910156 -0.18794,-0.491696 -0.39324,-0.752889 -0.60547,-0.785157 -0.017,-0.0026 -0.0336,-0.0043 -0.0508,-0.0039 z m 7.66602,0.535156 c -0.52787,0.0071 -0.79761,0.412921 -0.58789,1.041016 0.28799,0.862555 0.94908,0.870574 1.43359,0.01758 0.28829,-0.507556 0.21712,-0.749788 -0.28125,-0.943359 -0.16451,-0.06389 -0.3169,-0.0998 -0.45508,-0.111328 -0.0374,-0.0031 -0.0742,-0.0044 -0.10937,-0.0039 z m 49.46094,1.167969 c -0.51168,-0.0032 -0.84516,0.351363 -0.84766,0.966797 -0.003,0.853896 1.18758,0.932513 1.65039,0.109375 0.29797,-0.529984 0.22826,-0.771178 -0.27539,-0.966797 -0.1496,-0.05811 -0.29025,-0.0909 -0.42187,-0.103516 -0.0356,-0.0034 -0.0714,-0.0056 -0.10547,-0.0059 z m -47.14649,1.703125 c -0.45935,2.94e-4 -1.0118,0.359812 -1.01367,0.81836 -0.003,0.839658 1.21499,1.15463 1.51172,0.390624 0.13827,-0.355885 0.13177,-0.805421 -0.0137,-0.998046 -0.0941,-0.124609 -0.23469,-0.189676 -0.39258,-0.207032 -0.0296,-0.0033 -0.0612,-0.0039 -0.0918,-0.0039 z m 51.07813,0.113281 c -8.3e-4,1.31e-4 -0.003,0.0017 -0.004,0.002 -0.11749,0.04691 -0.69,1.040116 -1.30469,2.271485 -0.63969,1.281421 -1.47479,2.862149 -1.85547,3.513672 l -0.69336,1.185547 1.87891,-0.01367 c 4.23427,-0.02674 6.50149,-0.249572 6.30859,-0.621094 -0.3641,-0.701285 -4.17043,-6.275447 -4.32617,-6.335938 l -0.002,-0.002 z m -5.48828,1.109375 c -0.52411,0.01373 -1.22843,0.448946 -1.14844,0.88086 0.0461,0.24919 0.37458,0.564899 0.73047,0.703125 0.70808,0.275031 1.35586,-0.77075 0.87304,-1.410157 -0.079,-0.104693 -0.20541,-0.158637 -0.35351,-0.171874 -0.0331,-0.003 -0.0666,-0.0029 -0.10156,-0.002 z m 5.5039,0.527344 h 0.002 0.002 0.002 c 0.15253,0.02472 0.82765,0.939661 1.54102,2.09375 l 1.34765,2.183594 -2.31836,0.142578 c -1.2754,0.07795 -2.45536,0.09536 -2.62304,0.04102 -0.002,-7.51e-4 -0.008,-0.0027 -0.01,-0.0039 -9.5e-4,-7.44e-4 -0.005,-0.005 -0.006,-0.0059 -8.2e-4,-9.86e-4 -0.003,-0.0048 -0.004,-0.0059 -0.172,-0.304629 1.64456,-4.259887 2.05664,-4.441407 v -0.002 h 0.002 c 0.001,-1.52e-4 0.006,-0.0015 0.008,-0.002 z m -55.95312,0.242188 c -0.62589,0.013 -1.04436,1.496525 -2.33985,5.066406 l -0.74218,2.050781 1.35937,-0.291015 c 0.74784,-0.159721 2.51093,-0.485258 3.91797,-0.722657 1.3634,-0.230025 2.51336,-0.492271 2.61523,-0.591797 l 0.002,-0.002 0.002,-0.002 0.002,-0.002 c 0.0351,-0.09189 -1.05874,-1.491771 -2.42968,-3.111328 -1.22366,-1.44557 -1.84376,-2.331357 -2.32618,-2.392578 -0.0207,-0.0026 -0.0403,-0.0024 -0.0605,-0.002 z m 6.72656,0.921875 c -0.54661,0.0021 -1.01812,0.72884 -0.75586,1.324218 0.20967,0.475968 0.55508,0.521467 1.20117,0.16211 0.7402,-0.411697 0.63613,-1.112838 -0.21484,-1.44336 -0.0592,-0.02301 -0.11892,-0.03617 -0.17774,-0.04102 -0.0178,-0.0015 -0.0351,-0.002 -0.0527,-0.002 z m -6.65039,0.03906 1.59375,1.820313 c 0.86404,0.984242 1.53406,1.887101 1.50781,2.027343 -2.9e-4,0.001 -0.002,0.003 -0.002,0.0039 v 0.002 c -0.0771,0.121195 -1.04107,0.414189 -2.16602,0.652343 -1.14282,0.241932 -2.23053,0.380632 -2.41601,0.308594 -0.19539,-0.0759 0.0455,-1.116496 0.57226,-2.472656 z m 47.54492,0.578125 c -0.0987,0.0017 -0.19966,0.02077 -0.29883,0.06445 -0.27129,0.11947 -0.49272,0.499941 -0.49414,0.845703 -0.003,0.799162 1.13618,1.030314 1.58203,0.320313 0.32521,-0.51785 -0.12902,-1.167513 -0.68945,-1.226563 -0.0323,-0.0034 -0.0667,-0.0045 -0.0996,-0.0039 z m 8.43359,0.148438 c -0.187,0.01822 -0.3462,0.256572 -0.52343,0.71289 -0.28496,0.733667 -0.21192,0.865873 0.50781,0.917969 1.22262,0.08849 1.34146,-0.0321 0.82617,-0.837891 -0.33057,-0.516918 -0.56966,-0.781134 -0.77344,-0.792968 -0.0127,-7.4e-4 -0.0246,-0.0012 -0.0371,0 z m -55.83007,0.865234 -0.39063,1.007812 c -0.43669,1.124301 -0.3166,1.238116 1.10156,1.044922 l 0.98243,-0.134765 -0.84571,-0.958985 z m 9.28711,0.296875 c -0.0988,0.0021 -0.19966,0.02469 -0.29883,0.06836 -0.27128,0.119475 -0.49273,0.499943 -0.49414,0.845704 -0.003,0.799161 1.13617,1.02639 1.58203,0.316406 0.3252,-0.517854 -0.12901,-1.16751 -0.68945,-1.226563 -0.0323,-0.0034 -0.0667,-0.0046 -0.0996,-0.0039 z m 35.4082,0.708984 c -0.0987,0.0017 -0.19966,0.02077 -0.29883,0.06445 -0.27128,0.119475 -0.49467,0.501894 -0.49609,0.847657 -0.003,0.799162 1.13619,1.028362 1.58203,0.318359 0.32521,-0.517849 -0.12901,-1.16751 -0.68946,-1.226562 -0.0323,-0.0034 -0.0648,-0.0045 -0.0976,-0.0039 z m -32.50977,1.140625 c -0.5544,0.01873 -0.94986,0.56085 -0.69531,1.138672 0.12579,0.285595 0.31968,0.554933 0.42969,0.597656 0.11001,0.04273 0.43316,-0.02654 0.71875,-0.152343 0.7044,-0.310281 0.66234,-1.231083 -0.0703,-1.515625 -0.0916,-0.03558 -0.18216,-0.05637 -0.26954,-0.06445 -0.0382,-0.0035 -0.0763,-0.0052 -0.11328,-0.0039 z m 29.79883,0.923828 c -0.5241,0.01373 -1.22645,0.446997 -1.14648,0.878907 0.0462,0.249203 0.37458,0.566851 0.73047,0.705078 0.70807,0.275028 1.35586,-0.77075 0.87304,-1.410156 -0.079,-0.104693 -0.2054,-0.158637 -0.35351,-0.171875 -0.0331,-0.003 -0.0686,-0.0029 -0.10352,-0.002 z m 7.45117,0.25586 c -0.5188,0.0038 -1.41061,0.857866 -3.26367,2.429687 l -2.39453,2.029297 3.04883,1.294922 c 4.93938,2.097283 4.69783,2.244591 3.78125,-2.30664 -0.46329,-2.300414 -0.57885,-3.389083 -1.12305,-3.445313 -0.016,-0.0017 -0.0321,-0.0021 -0.0488,-0.002 z m -34.27929,0.755859 c -0.51169,-0.0032 -0.84518,0.35136 -0.84766,0.966797 -0.003,0.853893 1.1876,0.932526 1.65039,0.109375 0.29796,-0.529985 0.23019,-0.769229 -0.27344,-0.964844 -0.14962,-0.05811 -0.29222,-0.09283 -0.42382,-0.105468 -0.0356,-0.0034 -0.0714,-0.0056 -0.10547,-0.0059 z m -8.69336,0.455078 c -0.0653,0.03002 -0.0938,1.834348 -0.0605,4.007813 0.0334,2.173453 0.13832,3.97647 0.23242,4.005859 0.24431,0.07722 6.75417,-4.294516 6.66602,-4.476562 -0.0968,-0.199926 -6.68437,-3.607549 -6.83789,-3.53711 z m 42.70703,0.01563 c 0.003,-1.97e-4 0.005,-1.11e-4 0.008,0 0.002,1.01e-4 0.006,0.0017 0.008,0.002 h 0.002 l 0.002,0.002 c 8.9e-4,3.9e-4 0.005,0.0034 0.006,0.0039 0.23574,0.163122 1.05201,4.361609 0.91406,4.716797 v 0.002 l -0.002,0.002 v 0.002 h -0.002 v 0.002 l -0.002,0.002 c -0.11767,0.0741 -1.17062,-0.237636 -2.40429,-0.716797 -1.22333,-0.47515 -2.20177,-0.956066 -2.25196,-1.099609 -5.7e-4,-0.0023 -0.002,-0.0077 -0.002,-0.0098 9e-5,-9.94e-4 0.002,-0.0049 0.002,-0.0059 0.14726,-0.379135 3.36395,-2.877292 3.72266,-2.902344 z m -10.35742,0.111328 c -0.13143,0.0098 -0.26959,0.04986 -0.40821,0.126954 -0.45387,0.252441 -0.53752,0.468323 -0.37304,0.960937 0.26791,0.802394 1.23185,0.82892 1.53711,0.04297 0.22895,-0.58946 -0.12424,-1.090354 -0.62696,-1.13086 -0.0419,-0.0034 -0.0851,-0.0033 -0.1289,0 z m -20.54102,0.613282 c -0.56297,0.01434 -0.96204,0.55146 -0.70508,1.134765 0.30242,0.686578 0.56085,0.760498 1.27149,0.365235 0.72828,-0.405085 0.63957,-1.111484 -0.17969,-1.429688 -0.0933,-0.03622 -0.18464,-0.05765 -0.27344,-0.06641 -0.0388,-0.0038 -0.0757,-0.0049 -0.11328,-0.0039 z m 17.08984,0.128906 c -0.51168,-0.0032 -0.84515,0.351363 -0.84765,0.966797 -0.003,0.853896 1.18565,0.932527 1.64844,0.109375 0.29796,-0.529985 0.2302,-0.769226 -0.27344,-0.964844 -0.14962,-0.05811 -0.29027,-0.09284 -0.42188,-0.105469 -0.0356,-0.0034 -0.0713,-0.0056 -0.10547,-0.0059 z m 13.3086,0.375 -0.7461,0.621094 c -0.41106,0.342135 -0.79792,0.732029 -0.85742,0.867187 -0.0599,0.134992 0.34056,0.419162 0.89063,0.632813 1.14549,0.444915 1.29838,0.264704 0.95703,-1.126953 z m -26.97266,0.103516 c -0.0983,0.0022 -0.1977,0.02274 -0.29687,0.06641 -0.27129,0.119474 -0.49664,0.499941 -0.49805,0.845703 -0.003,0.79915 1.13813,1.030299 1.58398,0.320313 0.32522,-0.517941 -0.13097,-1.169488 -0.6914,-1.228516 -0.0323,-0.0034 -0.0649,-0.0046 -0.0977,-0.0039 z m -14.36719,0.03711 c 0.005,-1.59e-4 0.0122,0.0016 0.0176,0.002 0.53324,0.04922 4.18257,1.880121 4.32227,2.197266 v 0.002 0.002 c 1.7e-4,0.0016 0,0.0058 0,0.0078 -0.0297,0.125718 -0.87254,0.741293 -1.93164,1.404297 -2.60688,1.631933 -2.48179,1.604847 -2.47461,0.550782 0.003,-0.502732 -0.0102,-1.59075 -0.0312,-2.416016 -0.021,-0.825274 0.003,-1.60424 0.0527,-1.732422 v -0.002 h 0.002 v -0.002 l 0.002,-0.002 0.002,-0.002 h 0.002 c 0.008,-0.0043 0.0211,-0.0092 0.0371,-0.0098 z M 426.83594,33.625 c -0.41542,0.0028 -0.78723,0.280029 -0.78906,0.730469 h -0.002 c -0.004,0.88384 1.29368,1.295475 1.59961,0.507812 0.13486,-0.347091 0.0725,-0.784847 -0.13672,-0.974609 -0.17769,-0.161231 -0.38621,-0.243159 -0.58984,-0.259766 -0.028,-0.0023 -0.0543,-0.0041 -0.082,-0.0039 z m -6.69532,0.443359 c -0.30779,-0.01131 -0.56633,0.170196 -0.77539,0.542969 -0.34258,0.61077 -0.27371,0.768265 0.40821,0.927734 1.0589,0.24767 1.66275,-1.016723 0.66992,-1.402343 -0.0833,-0.03236 -0.16286,-0.0534 -0.24024,-0.0625 -0.021,-0.0025 -0.042,-0.0051 -0.0625,-0.0059 z m 3.25782,0.38086 c -0.0988,0.0021 -0.19966,0.02273 -0.29883,0.06641 -0.27128,0.119475 -0.49663,0.499941 -0.49805,0.845703 -0.003,0.79915 1.13814,1.030299 1.58399,0.320313 0.32523,-0.517941 -0.12902,-1.169487 -0.68946,-1.228516 -0.0323,-0.0034 -0.0647,-0.0046 -0.0976,-0.0039 z m -20.07422,0.320312 c -0.26279,-0.0088 -0.33771,0.286832 -0.42383,0.97461 -0.1461,1.163986 0.2243,1.325887 1.29297,0.5625 0.80139,-0.57247 0.80076,-0.613629 -0.002,-1.117188 -0.42081,-0.263987 -0.68738,-0.413877 -0.86719,-0.419922 z m 32.9375,1.482422 c -0.12657,-0.04916 -1.84796,0.436567 -3.82617,1.080078 -3.00191,0.976511 -3.51167,1.251785 -3.07617,1.65625 0.28696,0.266538 1.5939,1.501877 2.90429,2.746094 1.31038,1.244227 2.45167,2.234215 2.53321,2.199219 l 0.002,-0.002 c 0.27746,-0.170709 1.66251,-7.416252 1.4707,-7.673829 -10e-4,-7.99e-4 -0.005,-0.0028 -0.006,-0.0039 v -0.002 z m -1.20313,1.146485 c 0.002,9.1e-5 0.008,0.0014 0.01,0.002 h 0.002 l 0.002,0.002 0.002,0.002 0.002,0.002 c 0.21358,0.203196 -0.28144,3.746166 -0.67969,4.771484 -0.12659,0.325863 -0.40218,0.12974 -2.08984,-1.501953 -0.83782,-0.810019 -1.5083,-1.618399 -1.49219,-1.794922 0.0271,-0.300203 3.51139,-1.517001 4.24414,-1.482421 z m -24.91601,0.0918 -0.002,0.002 v 0.002 l -0.002,0.002 c -0.065,0.13138 0.51156,1.678237 1.31445,3.517578 0.82863,1.8983 1.61243,3.492571 1.74219,3.542969 0.12974,0.0504 0.41432,-0.139412 0.63281,-0.423829 0.44703,-0.58176 4.03233,-5.813417 4.09571,-5.976562 0.0453,-0.126619 -7.49127,-0.772075 -7.77735,-0.666016 h -0.002 z m 1.20312,0.84961 c 0.21955,-0.08525 4.25977,0.247666 4.59766,0.378906 0.10949,0.04246 0.0639,0.414817 -0.0996,0.826172 -0.16378,0.411177 -0.75471,1.375091 -1.3125,2.142578 l -1.01367,1.394531 -1.18946,-2.330078 c -0.62356,-1.222571 -1.05237,-2.269781 -0.99218,-2.402344 5.4e-4,-9.36e-4 0.001,-0.0031 0.002,-0.0039 l 0.002,-0.002 v -0.002 h 0.002 c 8.1e-4,-4.74e-4 0.003,-0.0016 0.004,-0.002 z m 22.62305,0.287109 c -0.43744,-0.01412 -1.38529,0.310676 -1.50586,0.621094 -0.0837,0.215658 0.006,0.54112 0.19922,0.722656 0.81565,0.765956 1.24367,0.738405 1.33398,-0.08984 0.0493,-0.455536 0.13181,-0.944037 0.1836,-1.083984 0.0339,-0.09216 -0.0222,-0.143925 -0.13086,-0.162109 -0.0242,-0.0041 -0.0509,-0.0069 -0.0801,-0.0078 z m -6.73633,0.261719 -3.78125,0.341797 c -2.06325,0.187385 -3.7613,0.469755 -3.79492,0.628906 v 0.002 0.002 c -0.007,0.158466 0.87023,1.570317 1.94922,3.138672 1.07899,1.568339 2.14618,2.933133 2.37109,3.033203 0.30354,0.135023 0.77542,-0.76202 1.83203,-3.482422 z m -13.99804,0.371094 c -0.48002,-0.0064 -0.45845,0.264244 -0.14063,1.095703 0.37685,0.985947 0.92338,0.94915 1.32617,-0.08789 0.24818,-0.638946 0.14575,-0.794778 -0.59961,-0.93164 -0.13163,-0.02415 -0.24718,-0.04371 -0.34961,-0.05664 -0.0896,-0.01132 -0.16775,-0.01861 -0.23632,-0.01953 z m 11.74218,0.548828 c 0.30033,-0.01552 0.52996,-0.01515 0.65625,0.002 0.0337,0.0046 0.0597,0.01035 0.0781,0.01758 0.24117,0.09368 0.0374,0.89471 -0.59375,2.328125 -0.52926,1.201994 -1.1258,2.162192 -1.32617,2.134766 -0.49842,-0.06825 -2.98737,-3.954428 -2.57813,-4.025391 1.32299,-0.229418 2.86269,-0.41047 3.76367,-0.457031 z m -1.24218,1.011718 c -0.10968,0.0046 -0.23454,0.01615 -0.375,0.0332 l -0.91602,0.111328 0.55469,0.978515 0.55664,0.976563 0.46093,-0.861328 c 0.4438,-0.832565 0.48367,-1.170721 0.004,-1.230469 h -0.002 c -0.0799,-0.0097 -0.17434,-0.01238 -0.2832,-0.0078 z"
       sodipodi:nodetypes="cccccscccssccccccssccsscsssscsssscsssccccscccccsssccccssccccscccccccsssssssccccccsssssscsssssssssssscsssssssssscssssscssssccscccscccsssssscccccccscccccccscccsscccssssssssscccccssccsscsssssssssccccccsscssssscssssssssssssssssscccsssscsssssccsssscccccccccccscccsssssssssssssscsssscscsccsscsssscccccscscccccccssccsssssssssssscsssscssscsssccccccsccccssscsccccssccccccsccccccccccsscccsscccccssccsssssssscssssscccccccs" /></g></svg>
