<?xml version="1.0" encoding="UTF-8" standalone="no"?>
<!-- Created with Inkscape (http://www.inkscape.org/) -->

<svg
   version="1.1"
   id="svg1"
   width="845.33331"
   height="60"
   viewBox="0 0 845.33331 60"
   sodipodi:docname="footerscroll.svg"
   inkscape:version="1.4.3 (0d15f75042, 2025-12-25)"
   xml:space="preserve"
   inkscape:export-filename="footerscroll.pdf"
   inkscape:export-xdpi="600"
   inkscape:export-ydpi="600"
   xmlns:inkscape="http://www.inkscape.org/namespaces/inkscape"
   xmlns:sodipodi="http://sodipodi.sourceforge.net/DTD/sodipodi-0.dtd"
   xmlns="http://www.w3.org/2000/svg"
   xmlns:svg="http://www.w3.org/2000/svg"><defs
     id="defs1"><clipPath
       clipPathUnits="userSpaceOnUse"
       id="clipPath28"><path
         d="M 0,0 H 612 V 792 H 0 Z"
         transform="translate(-291.80121,-47.486799)"
         id="path28" /></clipPath><clipPath
       clipPathUnits="userSpaceOnUse"
       id="clipPath26"><path
         d="M 0,0 H 612 V 792 H 0 Z"
         transform="translate(-322.72751,-36.398101)"
         id="path26" /></clipPath></defs><sodipodi:namedview
     id="namedview1"
     pagecolor="#ffffff"
     bordercolor="#000000"
     borderopacity="0.25"
     inkscape:showpageshadow="2"
     inkscape:pageopacity="0.0"
     inkscape:pagecheckerboard="0"
     inkscape:deskcolor="#d1d1d1"
     inkscape:zoom="4.0335202"
     inkscape:cx="427.04633"
     inkscape:cy="3.09903"
     inkscape:window-width="1920"
     inkscape:window-height="990"
     inkscape:window-x="0"
     inkscape:window-y="0"
     inkscape:window-maximized="1"
     inkscape:current-layer="g1"
     showgrid="false"><inkscape:page
       x="0"
       y="0"
       inkscape:label="1"
       id="page1"
       width="845.33331"
       height="60"
       margin="0"
       bleed="0" /></sodipodi:namedview><g
     id="g1"
     inkscape:groupmode="layer"
     inkscape:label="1"><path
       style="baseline-shift:baseline;display:inline;overflow:visible;vector-effect:none;fill:#a00909;fill-opacity:1;enable-background:accumulate;stop-color:#000000"
       d="M 440.33268,12.691196 V 14.02518 H 734.66666 V 12.691196 Z"
       id="path2" /><path
       style="baseline-shift:baseline;display:inline;overflow:visible;vector-effect:none;fill:#a00909;fill-opacity:1;enable-background:accumulate;stop-color:#000000"
       d="M 110.66666,12.691196 V 14.02518 H 405.00065 V 12.691196 Z"
       id="path3" /><path
       id="path4"
       d="m 0,0 c 1.91,-5.978 7.515,-10.322 14.119,-10.322 6.604,0 12.208,4.344 14.119,10.322 H 27.174 C 25.301,-5.416 20.164,-9.322 14.119,-9.322 8.074,-9.322 2.936,-5.416 1.064,0 Z"
       style="fill:#a00909;fill-opacity:1;fill-rule:nonzero;stroke:none"
       transform="matrix(1.3333333,0,0,-1.3333333,403.84145,12.691872)"
       clip-path="url(#clipPath28)" /><path
       id="path5"
       style="fill:#a00909;fill-opacity:1;stroke-width:0.278878"
       d="M 387.15039 12.691406 C 388.50036 19.563203 391.72566 25.835709 396.54297 30.953125 C 402.25098 37.016715 409.46188 40.768476 417.9668 42.099609 C 420.32599 42.468853 427.01947 42.247757 429.73633 41.710938 C 439.06157 39.8684 447.85224 34.008342 452.92578 26.253906 C 455.09227 22.942625 457.17169 18.6875 456.62305 18.6875 C 456.49846 18.6875 455.15326 18.874344 453.63281 19.103516 C 450.63038 19.55605 446.89902 19.651321 446.32812 19.289062 C 446.05301 19.114498 446.19643 18.584678 446.94922 16.992188 C 447.48731 15.853905 448.14609 14.044385 448.41406 12.970703 C 448.43759 12.876419 448.46125 12.78294 448.48438 12.691406 L 447.6543 12.691406 C 447.41205 13.564291 447.13165 14.211033 446.98828 14.199219 C 446.82168 14.185471 445.70292 13.844314 444.50195 13.439453 C 443.42506 13.076421 442.87861 12.890034 442.62109 12.691406 L 441.25781 12.691406 C 440.935 13.614416 440.54273 14.525537 440.08008 15.419922 C 437.6922 20.036142 432.91292 23.772941 427.6875 25.109375 C 424.85981 25.832601 420.67335 25.828309 417.88477 25.097656 C 411.65962 23.46658 406.55247 18.716224 404.39258 12.691406 L 402.95312 12.691406 C 402.63283 12.953254 402.02643 13.13707 401.00195 13.470703 C 399.7274 13.885775 398.62468 14.224609 398.55078 14.224609 C 398.43769 14.214659 398.22606 13.574984 398.00781 12.691406 L 397.19727 12.691406 C 397.22039 12.782944 397.24405 12.876416 397.26758 12.970703 C 397.53555 14.044384 398.19421 15.849891 398.73047 16.984375 C 399.25418 18.09227 399.61223 19.077273 399.54297 19.208984 L 399.54102 19.210938 C 399.54035 19.211772 399.53783 19.216074 399.53711 19.216797 C 399.33699 19.417517 394.55542 19.52524 393.55859 19.351562 C 393.17513 19.284755 392.01385 19.09662 390.97852 18.933594 C 389.96744 18.774388 389.13608 18.552034 389.09766 18.433594 C 389.09745 18.43266 389.09776 18.428655 389.09766 18.427734 L 389.09766 18.425781 C 389.09766 17.920501 392.12021 14.756624 394.35938 12.691406 L 392.57227 12.691406 L 391.74805 13.462891 C 390.34405 14.775531 389.13193 15.76193 389.00781 15.697266 L 389.00586 15.695312 L 389.00391 15.695312 L 389.00391 15.693359 L 389.00195 15.691406 C 388.85402 15.452035 388.5707 14.139915 388.31055 12.691406 L 387.15039 12.691406 z M 389.25 12.691406 L 389.45312 13.914062 L 390.81055 12.769531 C 390.84175 12.743222 390.87189 12.717525 390.90234 12.691406 L 389.25 12.691406 z M 395.1875 12.691406 C 395.06394 12.791567 394.93284 12.901068 394.79297 13.021484 C 392.96254 14.597265 390.11704 17.847501 390.35742 18.087891 C 390.4492 18.179679 391.48824 18.402638 392.66797 18.582031 C 394.69726 18.890591 398.66668 19.071167 398.85156 18.871094 C 398.85218 18.870281 398.85497 18.866059 398.85547 18.865234 L 398.85547 18.863281 L 398.85742 18.861328 C 398.85755 18.860466 398.85742 18.856343 398.85742 18.855469 C 398.85742 18.79484 398.49367 17.88538 398.04883 16.833984 C 397.60398 15.782589 397.08658 14.358192 396.90039 13.667969 C 396.80916 13.329776 396.71625 12.981747 396.63672 12.691406 L 395.1875 12.691406 z M 398.7207 12.691406 C 398.88469 13.100872 399.08054 13.386452 399.2168 13.384766 C 399.46332 13.381804 400.05508 13.211263 401.59375 12.691406 L 398.7207 12.691406 z M 444.10156 12.691406 C 444.24559 12.742298 444.40933 12.795762 444.59375 12.853516 C 446.43859 13.431273 446.71639 13.510409 446.98242 12.691406 L 444.10156 12.691406 z M 449.04688 12.691406 C 448.94962 13.31545 447.97257 16.030729 446.9082 18.617188 C 446.8039 18.870587 447.17184 18.965404 448.25781 18.964844 C 450.11246 18.963869 454.6417 18.424645 455.14844 18.144531 C 455.5671 17.913096 453.00105 14.863819 450.69727 12.855469 C 450.63114 12.797819 450.56709 12.743485 450.50586 12.691406 L 449.04688 12.691406 z M 451.33984 12.691406 C 452.59404 13.816102 454.04078 15.231867 454.86523 16.207031 C 455.88846 17.417277 456.78869 18.407784 456.86719 18.408203 C 457.02664 18.409028 457.97702 15.108555 458.52148 12.691406 L 457.37109 12.691406 C 457.32789 12.921259 457.28296 13.154204 457.23633 13.388672 C 457.00754 14.539043 456.73591 15.561829 456.63281 15.662109 L 456.63281 15.664062 C 456.63187 15.66471 456.62804 15.665503 456.62695 15.666016 C 456.47446 15.713306 455.25158 14.715981 453.86523 13.40625 L 453.10742 12.691406 L 451.33984 12.691406 z M 454.75391 12.691406 C 454.76649 12.702447 454.78023 12.713542 454.79297 12.724609 L 456.16602 13.917969 L 456.42578 12.691406 L 454.75391 12.691406 z M 395.82617 13.109375 C 395.82701 13.109375 395.8292 13.109257 395.83008 13.109375 C 395.831 13.109611 395.83498 13.110975 395.83594 13.111328 C 395.95901 13.1695 396.36967 14.119915 396.76562 15.271484 C 397.17439 16.460201 397.57164 17.589521 397.64844 17.78125 C 397.8188 18.206702 394.64063 18.218029 392.76367 17.798828 L 391.55078 17.527344 L 392.19922 16.783203 C 393.58275 15.193643 395.63968 13.109375 395.82617 13.109375 z M 449.89844 13.109375 C 449.89946 13.109145 449.90136 13.10949 449.90234 13.109375 L 449.9043 13.109375 C 450.02501 13.109375 451.01666 14.077966 452.10742 15.261719 C 454.00755 17.323839 454.0637 17.423719 453.45508 17.660156 C 453.10568 17.795881 451.70123 17.976877 450.33398 18.060547 C 448.1352 18.195113 447.86845 18.161229 448.01953 17.767578 C 448.11346 17.522806 448.52626 16.373221 448.9375 15.214844 C 449.3391 14.083614 449.76441 13.154318 449.89648 13.111328 L 449.89844 13.109375 z M 403.875 13.677734 L 404.75 15.416016 C 405.2315 16.372066 405.86017 17.452562 406.14648 17.818359 C 406.43279 18.184155 406.66602 18.577939 406.66602 18.693359 C 406.65254 18.818433 405.78569 19.614593 404.72852 20.46875 C 403.66303 21.329631 402.73898 22.033203 402.67578 22.033203 C 402.2896 22.033203 399.13672 16.562325 399.13672 15.892578 C 399.13672 15.597807 399.65914 15.338148 402.49414 14.220703 L 403.875 13.677734 z M 441.80859 13.677734 L 443.1875 14.220703 C 446.02186 15.337902 446.54492 15.597821 446.54492 15.892578 C 446.54492 16.343576 445.22858 18.860231 444.10742 20.548828 C 443.57331 21.353265 443.06005 22.005457 442.95508 22.017578 L 442.95312 22.017578 L 442.95117 22.017578 C 442.78665 22.002478 439.84313 19.626343 439.23047 19.013672 C 439.01158 18.794787 439.12382 18.410785 439.63477 17.638672 C 440.02458 17.04965 440.67334 15.91795 441.07617 15.123047 L 441.80859 13.677734 z M 403.41797 14.634766 C 403.02837 14.616202 402.39631 14.796214 401.54688 15.171875 C 400.68106 15.554778 399.97266 16.005896 399.97266 16.173828 C 399.97266 16.609178 401.02405 18.621331 401.98047 20.017578 L 402.79492 21.207031 L 404.04688 20.308594 C 405.99655 18.908453 405.99269 18.92073 404.875 17.013672 C 404.32607 16.077082 403.87695 15.187088 403.87695 15.037109 C 403.87695 14.782766 403.72099 14.649204 403.41797 14.634766 z M 442.26562 14.634766 C 441.9626 14.649204 441.80469 14.782766 441.80469 15.037109 C 441.80469 15.187088 441.35162 16.082168 440.79883 17.025391 C 440.24602 17.968614 439.90219 18.844738 440.0332 18.972656 C 440.1642 19.100576 440.83515 19.654637 441.52539 20.203125 L 442.78125 21.201172 L 443.40625 20.431641 C 444.15513 19.510648 445.70898 16.65068 445.70898 16.193359 C 445.70898 16.01466 445.00059 15.554778 444.13477 15.171875 C 443.28534 14.796214 442.65523 14.616202 442.26562 14.634766 z M 402.85547 15.339844 L 402.85742 15.339844 L 402.85938 15.341797 L 402.86133 15.341797 C 403.06195 15.442343 404.94778 18.587208 404.9375 18.800781 L 404.9375 18.802734 L 404.9375 18.804688 L 404.93555 18.806641 L 404.93555 18.808594 L 404.93359 18.810547 C 404.8898 18.838574 404.49131 19.13735 404.04883 19.472656 C 403.60633 19.807963 403.1615 20.082031 403.06055 20.082031 C 402.82946 20.054681 400.7995 16.634063 400.83984 16.353516 C 400.84007 16.352491 400.83955 16.348579 400.83984 16.347656 L 400.8418 16.345703 L 400.8418 16.34375 L 400.84375 16.341797 L 400.8457 16.339844 C 401.01492 16.190618 402.72451 15.339844 402.85547 15.339844 z M 442.82617 15.339844 L 442.82812 15.339844 C 442.95181 15.339844 444.65993 16.18585 444.82422 16.328125 L 444.82617 16.328125 L 444.82617 16.330078 L 444.82617 16.332031 L 444.82812 16.333984 L 444.82812 16.335938 C 444.83333 16.449121 444.41148 17.280783 443.85742 18.244141 C 443.28063 19.246981 442.7274 20.06925 442.62109 20.082031 L 442.61914 20.082031 C 442.5191 20.082031 442.07529 19.807963 441.63281 19.472656 C 441.19031 19.13735 440.79185 18.838567 440.74805 18.810547 L 440.74609 18.808594 L 440.74609 18.806641 L 440.74609 18.804688 L 440.74414 18.802734 C 440.73388 18.589171 442.61774 15.444297 442.81836 15.34375 C 442.81912 15.343442 442.82352 15.342003 442.82422 15.341797 L 442.82617 15.339844 z M 394.75391 15.658203 C 394.60702 15.663294 394.46184 15.719796 394.33984 15.841797 C 394.17638 16.005236 394.11874 16.335786 394.21094 16.576172 C 394.46518 17.238644 395.51172 17.135041 395.51172 16.447266 C 395.51172 15.974509 395.12928 15.645192 394.75391 15.658203 z M 450.86914 15.759766 C 450.49731 15.759766 450.28005 15.975006 450.21875 16.408203 C 450.14215 16.948899 450.23467 17.043397 450.77539 16.966797 C 451.61496 16.847871 451.69967 15.759766 450.86914 15.759766 z M 402.41016 16.115234 C 402.31497 16.117759 402.21697 16.170573 402.09766 16.257812 C 401.64831 16.586403 401.66461 16.698622 402.35156 17.927734 C 403.12377 19.309367 403.22671 19.382918 403.83398 18.998047 C 404.13298 18.808551 404.04407 18.47133 403.39453 17.333984 C 402.87844 16.430356 402.65342 16.108781 402.41016 16.115234 z M 443.27148 16.115234 C 443.02823 16.108781 442.80319 16.430356 442.28711 17.333984 C 441.63755 18.47133 441.54864 18.808551 441.84766 18.998047 C 442.45491 19.382918 442.55787 19.309367 443.33008 17.927734 C 444.01705 16.698622 444.03337 16.586402 443.58398 16.257812 C 443.46468 16.170573 443.36667 16.117759 443.27148 16.115234 z M 399.9082 19.470703 L 400.93359 21.013672 C 401.49729 21.862933 402.77013 23.436632 403.76367 24.509766 L 405.57031 26.460938 L 404.23633 27.052734 C 403.50228 27.378557 401.77109 27.935858 400.39062 28.291016 C 397.34761 29.073911 395.23242 29.400106 395.23242 29.085938 C 395.23242 28.073962 397.81663 22.564617 399.37109 20.263672 L 399.9082 19.470703 z M 445.76758 19.480469 L 446.38672 20.408203 C 447.96223 22.772043 450.44922 28.074591 450.44922 29.068359 C 450.44922 29.377432 449.78475 29.311783 447.10352 28.736328 C 444.73773 28.22858 443.08337 27.722062 441.13086 26.90625 L 440.09961 26.474609 L 441.91211 24.515625 C 442.90917 23.438702 444.18423 21.865991 444.74609 21.019531 L 445.76758 19.480469 z M 438.16992 19.740234 L 439.80859 21.158203 C 442.35233 23.361876 442.31168 23.162524 440.52344 24.796875 C 439.65902 25.586895 438.41019 26.606946 437.74805 27.0625 C 437.08595 27.518053 436.44215 27.886612 436.31641 27.882812 C 436.31542 27.882783 436.31355 27.882963 436.3125 27.882812 C 436.17158 27.848799 435.49249 26.865101 434.78906 25.671875 L 433.48828 23.46875 L 434.61719 22.722656 C 435.23725 22.312316 436.28975 21.472486 436.95703 20.857422 L 438.16992 19.740234 z M 407.49414 19.742188 L 408.92969 21.033203 C 409.71938 21.743212 410.72417 22.537017 411.16406 22.796875 C 411.60396 23.056732 411.96484 23.385976 411.96484 23.529297 C 411.96484 23.672616 411.43118 24.71241 410.7793 25.837891 C 410.12741 26.963374 409.46784 27.884487 409.31445 27.884766 C 408.6288 27.886585 403.24793 23.339437 403.61719 23.070312 C 403.68341 23.022063 404.58244 22.254124 405.61523 21.363281 L 407.49414 19.742188 z M 390.83203 20.484375 C 390.88849 20.427926 392.4498 20.457601 394.30273 20.550781 L 397.67188 20.720703 L 396.10352 23.742188 C 395.24075 25.403831 394.47163 26.766331 394.39453 26.769531 C 394.07921 26.782283 390.67865 20.786533 390.82812 20.490234 C 390.82882 20.489245 390.83122 20.485185 390.83203 20.484375 z M 454.85938 20.494141 C 454.85972 20.494853 454.86105 20.499172 454.86133 20.5 C 454.88846 20.617067 454.42601 21.62226 453.80664 22.783203 C 453.16728 23.981597 452.30832 25.367795 451.89648 25.863281 L 451.14648 26.763672 L 449.57812 23.742188 L 448.00977 20.720703 L 451.37891 20.550781 C 453.23186 20.457621 454.79827 20.433111 454.85938 20.494141 z M 407.32031 20.638672 C 406.80483 20.638672 404.64664 23.09331 404.85938 23.4375 C 405.12444 23.866412 407.03652 25.599181 408.15625 26.425781 C 408.62373 26.770893 409.09723 27.052734 409.20898 27.052734 C 409.32653 27.041584 409.86684 26.326027 410.41406 25.451172 L 411.41797 23.847656 L 410.64453 23.291016 C 410.21985 22.98553 409.35725 22.264172 408.72656 21.6875 C 408.09589 21.110828 407.46294 20.638672 407.32031 20.638672 z M 438.36133 20.638672 C 438.21934 20.638672 437.58577 21.110828 436.95508 21.6875 C 436.3244 22.264172 435.44866 22.995221 435.00781 23.3125 L 434.20508 23.890625 L 435.25586 25.472656 C 435.82445 26.329017 436.37219 27.030972 436.48633 27.052734 C 436.48718 27.052821 436.49139 27.052734 436.49219 27.052734 C 436.73159 27.052734 437.97935 26.115966 439.80859 24.5625 L 441.26562 23.326172 L 439.94141 21.982422 C 439.21374 21.243632 438.50333 20.638672 438.36133 20.638672 z M 399.9043 20.646484 C 399.45317 20.737888 396.06836 27.519376 396.06836 28.34375 C 396.06836 28.741662 401.68934 27.508074 403.69531 26.669922 L 404.72461 26.240234 L 403.31445 24.765625 C 402.53849 23.953737 401.50012 22.695316 401.00781 21.970703 C 400.51547 21.246088 400.02459 20.650484 399.91602 20.646484 C 399.91283 20.646368 399.90785 20.645765 399.9043 20.646484 z M 445.81836 20.734375 C 445.64327 20.743793 445.14344 21.282318 444.67383 21.972656 C 444.18113 22.696946 443.13201 23.954248 442.3418 24.767578 C 441.58864 25.542779 441.00638 26.219151 441.00195 26.322266 L 441.00195 26.324219 L 441.00195 26.326172 L 441.00391 26.328125 L 441.00391 26.330078 L 441.00391 26.332031 L 441.00586 26.332031 L 441.00586 26.333984 C 441.25344 26.546001 444.8978 27.640503 446.54492 27.998047 C 447.5419 28.214466 448.64058 28.404522 448.98438 28.419922 L 449.60938 28.447266 L 448.90039 26.568359 C 448.07005 24.362368 446.23142 20.856993 445.8418 20.738281 C 445.8348 20.736148 445.82697 20.733912 445.81836 20.734375 z M 407.32031 21.537109 L 408.88867 22.832031 L 410.45703 24.125 L 409.92773 25.033203 C 409.63647 25.532186 409.30666 25.995643 409.19531 26.064453 L 409.19336 26.066406 C 409.06551 26.118282 408.36445 25.675107 407.62109 25.066406 C 405.26796 23.139575 405.33076 23.275456 406.38672 22.353516 L 407.32031 21.537109 z M 438.35352 21.544922 L 439.3125 22.349609 L 440.27148 23.15625 L 439.43359 23.863281 C 438.97343 24.252612 438.14216 24.940375 437.58594 25.390625 L 436.57422 26.208984 L 435.89453 25.167969 L 435.21484 24.125 L 436.7832 22.833984 L 438.35352 21.544922 z M 452.75391 21.640625 C 451.87997 21.630493 450.10939 21.767257 449.94531 21.902344 L 449.94531 21.904297 L 449.94336 21.904297 L 449.94336 21.90625 L 449.94141 21.908203 L 449.94141 21.910156 C 449.92793 22.002787 450.23186 22.650009 450.64258 23.394531 C 451.07351 24.175667 451.45493 24.816059 451.49023 24.818359 L 451.49219 24.818359 L 451.49414 24.818359 C 451.64586 24.73638 453.23338 21.904599 453.23633 21.705078 L 453.23633 21.703125 L 453.23633 21.701172 L 453.23438 21.699219 L 453.23438 21.697266 L 453.23242 21.695312 C 453.20101 21.661142 453.01791 21.643686 452.75391 21.640625 z M 392.92578 21.642578 C 392.66297 21.645857 392.48251 21.663003 392.45117 21.695312 L 392.44922 21.697266 L 392.44727 21.697266 L 392.44727 21.699219 L 392.44727 21.701172 L 392.44531 21.703125 L 392.44531 21.705078 C 392.44675 21.809032 392.83635 22.571479 393.31055 23.398438 L 394.17383 24.902344 L 394.98242 23.421875 C 395.41006 22.639866 395.7344 21.970516 395.72461 21.892578 L 395.72266 21.892578 L 395.72266 21.890625 L 395.72266 21.888672 L 395.7207 21.888672 L 395.7207 21.886719 C 395.55822 21.759453 393.79579 21.631724 392.92578 21.642578 z M 399.83984 21.689453 L 401.60352 23.837891 C 402.57287 25.018965 403.32434 26.021456 403.27344 26.066406 C 403.2225 26.111354 402.49009 26.342352 401.64648 26.580078 C 400.80286 26.817807 399.50304 27.101252 398.75781 27.208984 C 397.42812 27.401209 397.40618 27.391536 397.59375 26.740234 C 397.69888 26.375209 398.24724 25.091223 398.8125 23.884766 L 399.83984 21.689453 z M 445.8418 21.689453 L 446.86914 23.884766 C 447.43442 25.091223 447.97737 26.359966 448.07617 26.705078 C 448.23273 27.251847 448.15532 27.329776 447.4707 27.316406 C 446.69488 27.301243 442.66021 26.328178 442.43359 26.101562 L 442.43164 26.099609 L 442.43164 26.097656 L 442.42969 26.095703 C 442.41558 25.976349 443.141 24.982056 444.08008 23.837891 L 445.8418 21.689453 z M 407.12305 22.453125 C 406.99293 22.457097 406.88687 22.531095 406.76172 22.65625 C 406.39762 23.020338 406.50338 23.205135 407.66602 24.228516 C 408.39048 24.866225 408.99973 25.354663 409.01953 25.314453 C 409.03921 25.27425 409.20293 25.044662 409.38477 24.804688 C 409.66008 24.441363 409.50383 24.189498 408.44531 23.304688 C 407.70903 22.689227 407.37146 22.445542 407.12305 22.453125 z M 438.5625 22.466797 C 438.29764 22.469191 437.94506 22.719834 437.24023 23.332031 C 436.24335 24.198041 436.05575 24.4994 436.26953 24.900391 C 436.52164 25.373228 436.57084 25.37263 437.28711 24.859375 C 437.70097 24.562825 438.32557 24.012149 438.67578 23.636719 C 439.2336 23.038755 439.26156 22.910064 438.89453 22.605469 C 438.78585 22.515274 438.68289 22.465709 438.5625 22.466797 z M 432.60156 24.009766 L 433.19531 25.183594 C 433.52137 25.829036 434.09466 26.883153 434.46875 27.527344 L 435.14844 28.699219 L 433.80469 29.378906 C 433.06605 29.752581 431.60224 30.322251 430.55078 30.646484 C 429.49927 30.970717 428.48444 31.236328 428.29492 31.236328 C 427.96635 31.236328 427.51871 29.655035 427.13867 27.152344 L 426.96289 25.998047 L 428.08008 25.808594 C 428.6944 25.704803 429.96177 25.257421 430.89844 24.814453 L 432.60156 24.009766 z M 413.07422 24.017578 L 414.83203 24.814453 C 415.79858 25.252709 417.05433 25.699946 417.62305 25.806641 C 418.19179 25.913335 418.65806 26.1437 418.6582 26.318359 C 418.65831 26.493017 418.45235 27.67014 418.20117 28.935547 C 417.85392 30.684814 417.63696 31.235869 417.29492 31.230469 C 416.65396 31.220309 412.95554 29.931535 411.64258 29.261719 L 410.53516 28.697266 L 411.21484 27.527344 C 411.58865 26.88359 412.15963 25.830418 412.48438 25.1875 L 413.07422 24.017578 z M 399.97266 24.542969 C 399.35982 24.542969 399.06777 25.200596 399.49219 25.625 C 399.86995 26.002763 400.43944 26.031198 400.6543 25.683594 C 400.92087 25.252248 400.497 24.542969 399.97266 24.542969 z M 445.75781 24.542969 C 445.18461 24.542969 444.75189 25.237698 445.03711 25.699219 C 445.32962 26.172484 446.1247 25.814601 446.2168 25.167969 C 446.28315 24.702962 446.16526 24.542969 445.75781 24.542969 z M 413.18164 24.857422 L 412.30078 26.646484 L 411.41797 28.433594 L 412.04102 28.769531 C 412.38289 28.953724 413.47764 29.395945 414.47461 29.751953 C 417.02062 30.661087 417.29087 30.575506 417.7207 28.726562 C 417.91684 27.882957 418.08089 27.067446 418.08789 26.914062 C 418.09409 26.760678 417.43973 26.431735 416.63477 26.183594 C 415.82979 25.935454 414.72477 25.535579 414.17773 25.294922 L 413.18164 24.857422 z M 432.52539 24.910156 L 430.54102 25.693359 C 429.44994 26.123948 428.32275 26.481028 428.03516 26.486328 C 427.47659 26.496583 427.49256 26.882405 428.1543 29.339844 C 428.3193 29.952586 428.61097 30.400391 428.8457 30.400391 C 429.35152 30.400391 432.47747 29.342898 433.50391 28.824219 L 434.26562 28.439453 L 433.39453 26.673828 L 432.52539 24.910156 z M 431.95312 26.009766 C 432.24172 25.98501 432.47693 26.240351 432.78516 26.886719 C 433.35573 28.08322 433.27568 28.182313 431.12695 28.970703 C 428.84144 29.809279 428.87597 29.820751 428.56445 28.160156 C 428.38043 27.179282 428.37996 27.178201 429.86328 26.6875 C 430.67911 26.417604 431.56118 26.124979 431.82422 26.037109 C 431.868 26.022486 431.9119 26.013302 431.95312 26.009766 z M 413.66992 26.021484 C 413.68942 26.020874 413.70741 26.024586 413.72461 26.03125 C 413.90737 26.102028 414.7842 26.391664 415.67383 26.675781 L 417.29102 27.193359 L 417.11328 28.166016 C 417.015 28.701689 416.87443 29.235357 416.80273 29.351562 C 416.73093 29.467758 416.52252 29.556828 416.33984 29.548828 C 415.66817 29.519729 412.6912 28.255343 412.5918 27.957031 C 412.43644 27.49093 413.27338 26.033905 413.66992 26.021484 z M 422.90234 26.439453 L 425.76953 26.458984 L 426.14258 28.886719 C 426.45323 30.911513 426.45323 31.351898 426.14258 31.548828 L 426.14258 31.550781 C 425.66039 31.856427 420.02625 31.857947 419.54492 31.552734 C 419.24628 31.363405 419.23761 30.880767 419.49805 28.978516 C 419.6744 27.690521 419.86813 26.586984 419.92773 26.527344 C 419.98738 26.467694 421.32566 26.428523 422.90234 26.439453 z M 405.86328 26.521484 L 407.29883 27.554688 C 408.08843 28.122852 409.83311 29.156697 411.17578 29.851562 L 413.61719 31.113281 L 412.30273 32.228516 C 410.12311 34.076785 408.85198 35.012044 406.87109 36.220703 C 405.83306 36.854066 404.92166 37.371094 404.84766 37.371094 C 404.4244 37.371094 404.89291 31.252244 405.56641 27.972656 L 405.86328 26.521484 z M 439.83594 26.605469 C 439.83963 26.604702 439.84321 26.605344 439.8457 26.605469 L 439.84766 26.605469 L 439.84961 26.605469 L 439.85156 26.607422 L 439.85156 26.609375 L 439.85156 26.611328 L 439.85352 26.611328 C 439.85352 26.674273 440.04068 27.709898 440.27148 28.912109 C 440.50229 30.114319 440.77375 32.508819 440.87305 34.234375 C 440.97277 35.965405 440.94879 37.240242 440.82031 37.347656 C 440.81818 37.349103 440.81274 37.352703 440.81055 37.353516 C 440.80833 37.354009 440.80306 37.355619 440.80078 37.355469 C 440.26586 37.32006 436.02999 34.465682 434.08984 32.833984 L 432.05078 31.121094 L 434.5 29.853516 C 435.84618 29.15684 437.60134 28.117901 438.40039 27.542969 C 439.12452 27.021937 439.7289 26.627703 439.83594 26.605469 z M 413.72852 26.775391 C 413.55834 26.775391 413.34335 26.968716 413.25195 27.207031 C 413.13232 27.518783 413.41697 27.791619 414.26758 28.177734 C 415.72476 28.8392 416.31491 28.86186 416.54297 28.267578 C 416.63344 28.031301 416.67775 27.816313 416.64844 27.767578 L 416.64844 27.765625 L 416.64648 27.763672 L 416.64453 27.761719 L 416.64258 27.759766 C 416.37325 27.583078 413.9816 26.775391 413.72852 26.775391 z M 431.95312 26.775391 C 431.70005 26.775391 429.30839 27.583077 429.03906 27.759766 L 429.03711 27.761719 L 429.03516 27.763672 L 429.03516 27.765625 C 429.00581 27.814354 429.04792 28.031301 429.13867 28.267578 C 429.36651 28.861325 429.76797 28.847054 431.32031 28.181641 C 432.24473 27.785391 432.5475 27.517167 432.42773 27.205078 C 432.33699 26.968549 432.12333 26.775391 431.95312 26.775391 z M 422.8418 27.052734 C 420.03513 27.052734 420.25496 26.859989 419.93945 29.615234 C 419.80374 30.800348 419.84607 30.932302 420.4082 31.041016 C 421.38962 31.230805 424.59216 31.244614 425.27148 31.0625 C 425.82652 30.913696 425.87509 30.766237 425.74219 29.603516 C 425.42882 26.862082 425.64746 27.052734 422.8418 27.052734 z M 406.28906 27.611328 C 406.13248 27.611328 405.60457 31.503974 405.41016 34.095703 C 405.32511 35.228699 405.33161 36.164678 405.42188 36.25 C 405.42263 36.250585 405.42697 36.253437 405.42773 36.253906 L 405.42969 36.253906 L 405.43164 36.255859 L 405.43359 36.255859 L 405.43555 36.255859 C 405.96104 36.255859 412.53781 31.609781 412.50781 31.259766 L 412.50781 31.257812 C 412.4776 31.159268 411.73949 30.738809 410.84766 30.316406 C 409.94165 29.887297 408.57058 29.103754 407.80078 28.574219 C 407.03098 28.044685 406.35066 27.611328 406.28906 27.611328 z M 439.4082 27.611328 C 439.35499 27.611328 438.36509 28.230335 437.20703 28.986328 C 436.04897 29.742318 434.66475 30.505441 434.13086 30.681641 C 433.59696 30.857838 433.16016 31.086248 433.16016 31.191406 C 433.16016 31.47228 436.03799 33.707056 438.1543 35.068359 C 439.16502 35.718516 440.09648 36.252406 440.22461 36.253906 C 440.22561 36.25392 440.22753 36.254011 440.22852 36.253906 C 440.22949 36.253684 440.23341 36.252293 440.23438 36.251953 C 440.23533 36.251497 440.2393 36.250571 440.24023 36.25 C 440.35331 36.166291 440.37708 35.228699 440.28711 34.095703 C 440.08773 31.582992 439.54893 27.611328 439.4082 27.611328 z M 423.95117 27.941406 C 424.92287 28.016361 425.06311 28.382865 425.06836 29.494141 L 425.07227 30.400391 L 422.82422 30.400391 L 420.57812 30.400391 L 420.66406 29.214844 L 420.75 28.029297 L 422.67578 27.945312 C 423.21058 27.922146 423.62727 27.916421 423.95117 27.941406 z M 404.10938 28.447266 C 404.11032 28.447266 404.11236 28.447155 404.11328 28.447266 L 404.11523 28.449219 C 404.11612 28.449549 404.12023 28.450733 404.12109 28.451172 L 404.12305 28.451172 L 404.125 28.453125 C 404.22102 28.545196 404.15907 29.419491 403.97461 30.470703 C 403.77946 31.582729 403.61638 33.149818 403.60938 33.955078 C 403.60342 34.741465 403.50806 35.38818 403.39648 35.417969 L 403.39453 35.419922 C 403.39363 35.420001 403.38957 35.419923 403.38867 35.419922 C 402.84248 35.419466 397.46289 30.841203 397.46289 30.376953 C 397.46289 30.275108 397.99129 30.10711 398.63672 30.003906 C 399.28214 29.9007 400.72789 29.509358 401.84961 29.132812 C 402.97133 28.756271 403.98804 28.447266 404.10938 28.447266 z M 441.55078 28.447266 L 441.55273 28.447266 C 441.66343 28.447266 442.90634 28.825007 444.31445 29.285156 C 445.72256 29.745305 447.17725 30.121094 447.54688 30.121094 C 447.91651 30.121094 448.21875 30.228932 448.21875 30.361328 C 448.21875 30.686908 445.92297 32.805896 444.00977 34.246094 C 443.15223 34.891633 442.36873 35.419922 442.26758 35.419922 C 442.26679 35.419842 442.26251 35.420082 442.26172 35.419922 L 442.25977 35.417969 L 442.25781 35.417969 L 442.25586 35.416016 C 442.1609 35.358217 442.07894 34.722592 442.07227 33.955078 C 442.06621 33.149818 441.90216 31.582729 441.70703 30.470703 C 441.5225 29.419491 441.45086 28.547149 441.53711 28.455078 L 441.53906 28.453125 L 441.54102 28.451172 L 441.54297 28.451172 C 441.54377 28.450842 441.54801 28.44944 441.54883 28.449219 L 441.55078 28.447266 z M 422.8418 28.587891 C 421.45313 28.587891 421.2991 28.647251 421.2168 29.228516 C 421.12962 29.84347 421.1937 29.867829 422.75 29.787109 C 424.16086 29.713937 424.375 29.628826 424.375 29.144531 C 424.375 28.654395 424.1897 28.587891 422.8418 28.587891 z M 406.73242 28.705078 L 407.4668 29.195312 C 407.87044 29.464276 408.9321 30.078816 409.82617 30.560547 L 411.45117 31.435547 L 410.10352 32.414062 C 409.36283 32.951999 408.22695 33.722621 407.57812 34.126953 C 406.92928 34.531281 406.31579 34.861328 406.21484 34.861328 L 406.21289 34.861328 L 406.21094 34.861328 L 406.20898 34.861328 L 406.20703 34.859375 L 406.20508 34.857422 C 406.04293 34.697569 406.2758 31.267362 406.56836 29.623047 L 406.73242 28.705078 z M 438.94922 28.705078 L 439.10742 29.623047 C 439.19367 30.127289 439.34786 31.512454 439.45117 32.701172 C 439.54875 33.824879 439.53246 34.748903 439.41797 34.839844 C 439.41701 34.840481 439.41308 34.843228 439.41211 34.84375 C 439.41112 34.844157 439.40725 34.845413 439.40625 34.845703 C 439.40422 34.846049 439.39856 34.847783 439.39648 34.847656 C 439.1223 34.831075 438.51343 34.443444 435.98828 32.681641 L 434.21484 31.443359 L 435.84766 30.564453 C 436.74621 30.080345 437.81316 29.464278 438.2168 29.195312 L 438.94922 28.705078 z M 443.22852 30.150391 C 442.77111 30.151407 442.79728 30.534056 442.94727 31.445312 C 443.06719 32.173883 443.17264 32.927411 443.18164 33.119141 C 443.20721 33.655183 443.40985 33.559384 444.91406 32.291016 L 446.31055 31.113281 L 444.96289 30.638672 C 444.08003 30.327569 443.54148 30.149695 443.22852 30.150391 z M 402.53125 30.171875 C 402.24742 30.166042 401.73949 30.327612 400.88281 30.597656 L 399.37305 31.072266 L 400.71875 32.259766 C 402.14968 33.521101 402.4735 33.67718 402.5 33.119141 C 402.50914 32.927411 402.61446 32.173882 402.73438 31.445312 C 402.88262 30.544736 402.94608 30.180401 402.53125 30.171875 z M 431.56055 31.255859 C 431.83235 31.250337 431.79786 31.538251 431.65234 32.658203 C 431.27357 35.573541 429.48263 41.554688 428.98828 41.554688 C 428.57627 41.554687 425.64716 37.616428 424.32422 35.283203 C 423.58532 33.980042 422.9183 32.914616 422.8418 32.916016 C 422.76509 32.917467 422.15992 33.896561 421.49805 35.091797 C 420.83619 36.287031 419.55295 38.19779 418.64648 39.337891 C 417.74003 40.477994 416.88868 41.447248 416.75391 41.492188 C 416.24784 41.660877 414.41905 35.773636 414.04297 32.763672 C 413.84287 31.16188 413.84698 31.152988 414.50781 31.339844 C 418.00373 32.328322 419.0142 32.464844 422.8418 32.464844 C 426.67068 32.464844 427.67617 32.329995 431.17969 31.339844 C 431.3454 31.293012 431.46995 31.2577 431.56055 31.255859 z M 407.91797 31.28125 C 407.7505 31.274278 407.58004 31.326203 407.44727 31.458984 C 407.28392 31.622425 407.22967 31.963123 407.32617 32.214844 C 407.54944 32.796647 408.44278 32.641948 408.56641 32 C 408.6427 31.603769 408.28641 31.296589 407.91797 31.28125 z M 437.75781 31.28125 C 437.59034 31.274278 437.41989 31.326203 437.28711 31.458984 C 437.12367 31.622425 437.06932 31.963123 437.16602 32.214844 C 437.38928 32.796647 438.28261 32.641948 438.40625 32 C 438.48254 31.603769 438.12626 31.296589 437.75781 31.28125 z M 431.24414 31.867188 L 429.81836 32.236328 C 429.03427 32.439721 427.39385 32.758547 426.17383 32.945312 C 425.011 33.123318 424.05046 33.345118 423.96289 33.451172 L 423.96094 33.453125 C 423.96046 33.453963 423.95935 33.458162 423.95898 33.458984 L 423.95703 33.460938 L 423.95703 33.462891 L 423.95703 33.464844 C 423.95703 33.823532 426.08011 37.101479 427.42383 38.816406 L 428.79883 40.572266 L 429.16797 39.666016 C 429.69194 38.381986 430.82663 34.3781 431.05273 33.015625 L 431.24414 31.867188 z M 414.63477 32.001953 C 414.53249 32.007595 414.47461 32.03123 414.47461 32.074219 C 414.47461 32.785827 415.16852 35.575574 415.91602 37.871094 C 416.61167 40.00746 416.82809 40.406486 417.14844 40.140625 C 418.23701 39.237188 422.02845 33.513468 421.76953 33.201172 C 421.76251 33.194698 421.75014 33.189453 421.73828 33.189453 C 420.88534 33.189453 416.90966 32.534484 415.79883 32.210938 C 415.29794 32.065052 414.85977 31.98954 414.63477 32.001953 z M 415.5625 32.931641 C 415.67092 32.927539 415.83311 32.958008 416.06445 33.007812 C 416.49404 33.100294 417.74548 33.318337 418.8457 33.492188 L 420.8457 33.808594 L 420.04102 35.101562 C 419.59801 35.813243 418.74788 36.954673 418.15234 37.638672 L 417.06836 38.882812 L 416.35352 36.664062 C 415.96027 35.443226 415.55884 34.083751 415.46094 33.642578 C 415.34487 33.119872 415.32398 32.940663 415.5625 32.931641 z M 430.0918 32.958984 C 430.17612 32.958152 430.23154 32.963971 430.25195 32.978516 L 430.25391 32.980469 L 430.25586 32.982422 C 430.25634 32.983076 430.25933 32.985542 430.25977 32.986328 L 430.25977 32.988281 C 430.3044 33.118322 430.04396 34.251602 429.66406 35.5625 C 428.6926 38.914868 428.67971 38.933273 427.80664 38.003906 C 427.40819 37.579765 426.55869 36.478892 425.91992 35.558594 L 424.75977 33.886719 L 425.96094 33.675781 C 426.62211 33.560266 427.83129 33.330633 428.64844 33.164062 C 429.26132 33.039137 429.82198 32.961648 430.0918 32.958984 z M 412.91406 33.466797 C 413.00589 33.466797 413.08008 33.700295 413.08008 33.984375 C 413.08008 34.268454 413.40496 35.785765 413.80078 37.355469 C 414.19663 38.925168 414.47853 40.243526 414.42773 40.285156 C 414.28078 40.405683 410.00931 38.936085 408.47852 38.238281 L 407.08398 37.601562 L 407.77734 37.138672 C 408.15845 36.883717 409.43156 35.952266 410.60742 35.070312 C 411.7833 34.188362 412.82216 33.466797 412.91406 33.466797 z M 432.7832 33.505859 C 432.82102 33.450009 433.83213 34.139606 435.03125 35.039062 C 436.23035 35.938522 437.52082 36.876588 437.89844 37.123047 L 438.58398 37.570312 L 437.62695 38.066406 C 437.09963 38.339087 435.60297 38.921823 434.30273 39.361328 C 431.39506 40.34414 431.08432 40.3624 431.32617 39.533203 C 431.42682 39.18809 431.77984 37.712996 432.11133 36.255859 C 432.44285 34.798723 432.7454 33.561709 432.7832 33.505859 z M 417.83203 34.861328 C 417.12485 34.861328 416.74876 35.657738 417.29297 36.001953 C 417.85319 36.3563 418.22575 36.162291 418.32812 35.466797 C 418.39544 35.009107 418.2748 34.861328 417.83203 34.861328 z M 427.86328 34.863281 C 427.56752 34.877978 427.30273 35.050976 427.30273 35.373047 C 427.30273 35.654251 427.38601 35.968055 427.48828 36.070312 C 427.93512 36.51715 428.83594 35.904163 428.60742 35.308594 C 428.48613 34.992546 428.15905 34.848585 427.86328 34.863281 z M 422.82422 35.1875 C 422.99924 35.170551 423.17377 35.434181 423.39844 35.976562 C 423.58872 36.435957 424.35686 37.700409 425.10547 38.787109 C 425.85409 39.873808 426.4668 40.878419 426.4668 41.019531 L 426.4668 41.021484 L 426.4668 41.023438 L 426.46484 41.025391 L 426.46484 41.027344 C 426.39203 41.165611 424.81527 41.275391 422.8418 41.275391 C 420.86829 41.275391 419.29156 41.167564 419.21875 41.029297 L 419.2168 41.027344 L 419.2168 41.025391 L 419.2168 41.023438 L 419.21484 41.021484 L 419.21484 41.019531 C 419.21484 40.878419 419.82756 39.873808 420.57617 38.787109 C 421.32478 37.700409 422.09289 36.435955 422.2832 35.976562 C 422.49424 35.467053 422.65981 35.203422 422.82422 35.1875 z M 412.05078 35.419922 C 411.70572 35.450664 409.5621 37.37406 409.60352 37.607422 L 409.60352 37.609375 C 409.60383 37.610205 409.60509 37.61446 409.60547 37.615234 L 409.60742 37.617188 L 409.60938 37.619141 L 409.61133 37.621094 C 409.70464 37.714462 410.30227 38.003824 410.94141 38.263672 C 412.28415 38.809571 412.80078 38.875635 412.80078 38.501953 C 412.80078 37.958867 412.20983 35.498609 412.06445 35.421875 L 412.0625 35.419922 L 412.06055 35.419922 L 412.05859 35.419922 C 412.05605 35.419922 412.05356 35.419674 412.05078 35.419922 z M 433.62891 35.419922 C 433.4612 35.489883 432.88086 37.734813 432.88086 38.332031 C 432.88086 38.570875 432.97479 38.765748 433.08984 38.765625 C 433.3912 38.765297 435.89284 37.798575 436.08203 37.609375 L 436.08398 37.607422 L 436.08398 37.605469 L 436.08594 37.603516 L 436.08789 37.601562 L 436.08789 37.599609 C 436.11991 37.373736 433.93131 35.419922 433.63281 35.419922 L 433.63086 35.419922 L 433.62891 35.419922 z M 422.83789 37.380859 C 422.62149 37.430881 421.16797 39.861519 421.16797 40.177734 C 421.16797 40.321639 421.92149 40.439453 422.8418 40.439453 C 423.76209 40.439453 424.51367 40.319006 424.51367 40.171875 C 424.51367 39.840417 423.05872 37.407121 422.84766 37.380859 L 422.8457 37.380859 L 422.84375 37.380859 C 422.84298 37.380908 422.84066 37.380737 422.83984 37.380859 L 422.83789 37.380859 z " /></g></svg>
